G75*
G70*
%OFA0B0*%
%FSLAX24Y24*%
%IPPOS*%
%LPD*%
%AMOC8*
5,1,8,0,0,1.08239X$1,22.5*
%
%ADD10R,0.0780X0.0780*%
%ADD11C,0.0780*%
%ADD12R,0.0847X0.0276*%
%ADD13C,0.1300*%
D10*
X010420Y002600D03*
X022470Y001050D03*
X028920Y002600D03*
X030020Y009600D03*
X029920Y010600D03*
X029020Y017600D03*
X010520Y017600D03*
X009420Y010600D03*
X009520Y009600D03*
D11*
X010520Y009600D03*
X010420Y008600D03*
X009420Y008600D03*
X009520Y007600D03*
X010520Y007600D03*
X010420Y006600D03*
X009420Y006600D03*
X009520Y005600D03*
X010520Y005600D03*
X010420Y004600D03*
X009420Y004600D03*
X009520Y003600D03*
X010520Y003600D03*
X009420Y002600D03*
X015470Y001150D03*
X016470Y001050D03*
X017470Y001150D03*
X018470Y001050D03*
X019470Y001150D03*
X020470Y001050D03*
X021470Y001150D03*
X029020Y003600D03*
X030020Y003600D03*
X029920Y002600D03*
X029920Y004600D03*
X028920Y004600D03*
X029020Y005600D03*
X030020Y005600D03*
X029920Y006600D03*
X028920Y006600D03*
X029020Y007600D03*
X030020Y007600D03*
X029920Y008600D03*
X028920Y008600D03*
X029020Y009600D03*
X028920Y010600D03*
X029020Y011600D03*
X030020Y011600D03*
X029920Y012600D03*
X028920Y012600D03*
X029020Y013600D03*
X030020Y013600D03*
X029920Y014600D03*
X028920Y014600D03*
X029020Y015600D03*
X030020Y015600D03*
X029920Y016600D03*
X028920Y016600D03*
X030020Y017600D03*
X010520Y015600D03*
X009520Y015600D03*
X009420Y014600D03*
X010420Y014600D03*
X010520Y013600D03*
X009520Y013600D03*
X009420Y012600D03*
X010420Y012600D03*
X010520Y011600D03*
X009520Y011600D03*
X010420Y010600D03*
X010420Y016600D03*
X009420Y016600D03*
X009520Y017600D03*
D12*
X012932Y010850D03*
X012932Y010350D03*
X012932Y009850D03*
X012932Y009350D03*
X012932Y008850D03*
X012932Y008350D03*
X012932Y007850D03*
X012932Y007350D03*
X012932Y006850D03*
X012932Y006350D03*
X012932Y005850D03*
X012932Y005350D03*
X012932Y004850D03*
X012932Y004350D03*
X017008Y004350D03*
X017008Y004850D03*
X017008Y005350D03*
X017008Y005850D03*
X017008Y006350D03*
X017008Y006850D03*
X017008Y007350D03*
X017008Y007850D03*
X017008Y008350D03*
X017008Y008850D03*
X017008Y009350D03*
X017008Y009850D03*
X017008Y010350D03*
X017008Y010850D03*
X020932Y010850D03*
X020932Y010350D03*
X020932Y009850D03*
X020932Y009350D03*
X020932Y008850D03*
X020932Y008350D03*
X020932Y007850D03*
X020932Y007350D03*
X020932Y006850D03*
X020932Y006350D03*
X020932Y005850D03*
X020932Y005350D03*
X020932Y004850D03*
X020932Y004350D03*
X025008Y004350D03*
X025008Y004850D03*
X025008Y005350D03*
X025008Y005850D03*
X025008Y006350D03*
X025008Y006850D03*
X025008Y007350D03*
X025008Y007850D03*
X025008Y008350D03*
X025008Y008850D03*
X025008Y009350D03*
X025008Y009850D03*
X025008Y010350D03*
X025008Y010850D03*
X033432Y010850D03*
X033432Y010350D03*
X033432Y009850D03*
X033432Y009350D03*
X033432Y008850D03*
X033432Y008350D03*
X033432Y007850D03*
X033432Y007350D03*
X033432Y006850D03*
X033432Y006350D03*
X033432Y005850D03*
X033432Y005350D03*
X033432Y004850D03*
X033432Y004350D03*
X037508Y004350D03*
X037508Y004850D03*
X037508Y005350D03*
X037508Y005850D03*
X037508Y006350D03*
X037508Y006850D03*
X037508Y007350D03*
X037508Y007850D03*
X037508Y008350D03*
X037508Y008850D03*
X037508Y009350D03*
X037508Y009850D03*
X037508Y010350D03*
X037508Y010850D03*
X006008Y010850D03*
X006008Y010350D03*
X006008Y009850D03*
X006008Y009350D03*
X006008Y008850D03*
X006008Y008350D03*
X006008Y007850D03*
X006008Y007350D03*
X006008Y006850D03*
X006008Y006350D03*
X006008Y005850D03*
X006008Y005350D03*
X006008Y004850D03*
X006008Y004350D03*
X001932Y004350D03*
X001932Y004850D03*
X001932Y005350D03*
X001932Y005850D03*
X001932Y006350D03*
X001932Y006850D03*
X001932Y007350D03*
X001932Y007850D03*
X001932Y008350D03*
X001932Y008850D03*
X001932Y009350D03*
X001932Y009850D03*
X001932Y010350D03*
X001932Y010850D03*
D13*
X001970Y002100D03*
X001970Y017100D03*
X036970Y017100D03*
X036970Y002100D03*
M02*
