G75*
G70*
%OFA0B0*%
%FSLAX24Y24*%
%IPPOS*%
%LPD*%
%AMOC8*
5,1,8,0,0,1.08239X$1,22.5*
%
%ADD10R,0.0780X0.0780*%
%ADD11C,0.0780*%
%ADD12R,0.0847X0.0276*%
%ADD13C,0.1300*%
D10*
X010483Y002523D03*
X022561Y001130D03*
X028511Y002523D03*
X029611Y009523D03*
X029511Y010523D03*
X028611Y017523D03*
X010583Y017523D03*
X009483Y010523D03*
X009583Y009523D03*
D11*
X010583Y009523D03*
X010483Y010523D03*
X010583Y011523D03*
X009583Y011523D03*
X009483Y012523D03*
X010483Y012523D03*
X010583Y013523D03*
X009583Y013523D03*
X009483Y014523D03*
X010483Y014523D03*
X010583Y015523D03*
X009583Y015523D03*
X009483Y016523D03*
X010483Y016523D03*
X009583Y017523D03*
X002190Y014180D03*
X002190Y013180D03*
X009483Y008523D03*
X010483Y008523D03*
X010583Y007523D03*
X009583Y007523D03*
X009483Y006523D03*
X010483Y006523D03*
X010583Y005523D03*
X009583Y005523D03*
X009483Y004523D03*
X010483Y004523D03*
X010583Y003523D03*
X009583Y003523D03*
X009483Y002523D03*
X006190Y001180D03*
X005190Y001180D03*
X015561Y001230D03*
X016561Y001130D03*
X017561Y001230D03*
X018561Y001130D03*
X019561Y001230D03*
X020561Y001130D03*
X021561Y001230D03*
X028611Y003523D03*
X029611Y003523D03*
X029511Y004523D03*
X028511Y004523D03*
X028611Y005523D03*
X029611Y005523D03*
X029511Y006523D03*
X028511Y006523D03*
X028611Y007523D03*
X029611Y007523D03*
X029511Y008523D03*
X028511Y008523D03*
X028611Y009523D03*
X028511Y010523D03*
X028611Y011523D03*
X029611Y011523D03*
X029511Y012523D03*
X028511Y012523D03*
X028611Y013523D03*
X029611Y013523D03*
X029511Y014523D03*
X028511Y014523D03*
X028611Y015523D03*
X029611Y015523D03*
X029511Y016523D03*
X028511Y016523D03*
X029611Y017523D03*
X033190Y014180D03*
X033190Y013180D03*
X029511Y002523D03*
X033190Y001180D03*
X034190Y001180D03*
D12*
X033585Y004430D03*
X033585Y004930D03*
X033585Y005430D03*
X033585Y005930D03*
X033585Y006430D03*
X033585Y006930D03*
X033585Y007430D03*
X033585Y007930D03*
X033585Y008430D03*
X033585Y008930D03*
X033585Y009430D03*
X033585Y009930D03*
X033585Y010430D03*
X033585Y010930D03*
X037662Y010930D03*
X037662Y010430D03*
X037662Y009930D03*
X037662Y009430D03*
X037662Y008930D03*
X037662Y008430D03*
X037662Y007930D03*
X037662Y007430D03*
X037662Y006930D03*
X037662Y006430D03*
X037662Y005930D03*
X037662Y005430D03*
X037662Y004930D03*
X037662Y004430D03*
X025851Y004430D03*
X025851Y004930D03*
X025851Y005430D03*
X025851Y005930D03*
X025851Y006430D03*
X025851Y006930D03*
X025851Y007430D03*
X025851Y007930D03*
X025851Y008430D03*
X025851Y008930D03*
X025851Y009430D03*
X025851Y009930D03*
X025851Y010430D03*
X025851Y010930D03*
X021774Y010930D03*
X021774Y010430D03*
X021774Y009930D03*
X021774Y009430D03*
X021774Y008930D03*
X021774Y008430D03*
X021774Y007930D03*
X021774Y007430D03*
X021774Y006930D03*
X021774Y006430D03*
X021774Y005930D03*
X021774Y005430D03*
X021774Y004930D03*
X021774Y004430D03*
X017977Y004430D03*
X017977Y004930D03*
X017977Y005430D03*
X017977Y005930D03*
X017977Y006430D03*
X017977Y006930D03*
X017977Y007430D03*
X017977Y007930D03*
X017977Y008430D03*
X017977Y008930D03*
X017977Y009430D03*
X017977Y009930D03*
X017977Y010430D03*
X017977Y010930D03*
X013900Y010930D03*
X013900Y010430D03*
X013900Y009930D03*
X013900Y009430D03*
X013900Y008930D03*
X013900Y008430D03*
X013900Y007930D03*
X013900Y007430D03*
X013900Y006930D03*
X013900Y006430D03*
X013900Y005930D03*
X013900Y005430D03*
X013900Y004930D03*
X013900Y004430D03*
X006166Y004430D03*
X006166Y004930D03*
X006166Y005430D03*
X006166Y005930D03*
X006166Y006430D03*
X006166Y006930D03*
X006166Y007430D03*
X006166Y007930D03*
X006166Y008430D03*
X006166Y008930D03*
X006166Y009430D03*
X006166Y009930D03*
X006166Y010430D03*
X006166Y010930D03*
X002089Y010930D03*
X002089Y010430D03*
X002089Y009930D03*
X002089Y009430D03*
X002089Y008930D03*
X002089Y008430D03*
X002089Y007930D03*
X002089Y007430D03*
X002089Y006930D03*
X002089Y006430D03*
X002089Y005930D03*
X002089Y005430D03*
X002089Y004930D03*
X002089Y004430D03*
D13*
X002061Y002180D03*
X002061Y017180D03*
X037061Y017180D03*
X037061Y002180D03*
M02*
