G75*
G70*
%OFA0B0*%
%FSLAX24Y24*%
%IPPOS*%
%LPD*%
%AMOC8*
5,1,8,0,0,1.08239X$1,22.5*
%
%ADD10C,0.0000*%
%ADD11R,0.0740X0.0740*%
%ADD12C,0.0740*%
%ADD13R,0.0807X0.0236*%
%ADD14C,0.0080*%
%ADD15OC8,0.0240*%
D10*
X000100Y000100D02*
X039470Y000100D01*
X039470Y019785D01*
X000100Y019785D01*
X000100Y000100D01*
X001340Y002100D02*
X001342Y002150D01*
X001348Y002200D01*
X001358Y002249D01*
X001372Y002297D01*
X001389Y002344D01*
X001410Y002389D01*
X001435Y002433D01*
X001463Y002474D01*
X001495Y002513D01*
X001529Y002550D01*
X001566Y002584D01*
X001606Y002614D01*
X001648Y002641D01*
X001692Y002665D01*
X001738Y002686D01*
X001785Y002702D01*
X001833Y002715D01*
X001883Y002724D01*
X001932Y002729D01*
X001983Y002730D01*
X002033Y002727D01*
X002082Y002720D01*
X002131Y002709D01*
X002179Y002694D01*
X002225Y002676D01*
X002270Y002654D01*
X002313Y002628D01*
X002354Y002599D01*
X002393Y002567D01*
X002429Y002532D01*
X002461Y002494D01*
X002491Y002454D01*
X002518Y002411D01*
X002541Y002367D01*
X002560Y002321D01*
X002576Y002273D01*
X002588Y002224D01*
X002596Y002175D01*
X002600Y002125D01*
X002600Y002075D01*
X002596Y002025D01*
X002588Y001976D01*
X002576Y001927D01*
X002560Y001879D01*
X002541Y001833D01*
X002518Y001789D01*
X002491Y001746D01*
X002461Y001706D01*
X002429Y001668D01*
X002393Y001633D01*
X002354Y001601D01*
X002313Y001572D01*
X002270Y001546D01*
X002225Y001524D01*
X002179Y001506D01*
X002131Y001491D01*
X002082Y001480D01*
X002033Y001473D01*
X001983Y001470D01*
X001932Y001471D01*
X001883Y001476D01*
X001833Y001485D01*
X001785Y001498D01*
X001738Y001514D01*
X001692Y001535D01*
X001648Y001559D01*
X001606Y001586D01*
X001566Y001616D01*
X001529Y001650D01*
X001495Y001687D01*
X001463Y001726D01*
X001435Y001767D01*
X001410Y001811D01*
X001389Y001856D01*
X001372Y001903D01*
X001358Y001951D01*
X001348Y002000D01*
X001342Y002050D01*
X001340Y002100D01*
X001340Y017100D02*
X001342Y017150D01*
X001348Y017200D01*
X001358Y017249D01*
X001372Y017297D01*
X001389Y017344D01*
X001410Y017389D01*
X001435Y017433D01*
X001463Y017474D01*
X001495Y017513D01*
X001529Y017550D01*
X001566Y017584D01*
X001606Y017614D01*
X001648Y017641D01*
X001692Y017665D01*
X001738Y017686D01*
X001785Y017702D01*
X001833Y017715D01*
X001883Y017724D01*
X001932Y017729D01*
X001983Y017730D01*
X002033Y017727D01*
X002082Y017720D01*
X002131Y017709D01*
X002179Y017694D01*
X002225Y017676D01*
X002270Y017654D01*
X002313Y017628D01*
X002354Y017599D01*
X002393Y017567D01*
X002429Y017532D01*
X002461Y017494D01*
X002491Y017454D01*
X002518Y017411D01*
X002541Y017367D01*
X002560Y017321D01*
X002576Y017273D01*
X002588Y017224D01*
X002596Y017175D01*
X002600Y017125D01*
X002600Y017075D01*
X002596Y017025D01*
X002588Y016976D01*
X002576Y016927D01*
X002560Y016879D01*
X002541Y016833D01*
X002518Y016789D01*
X002491Y016746D01*
X002461Y016706D01*
X002429Y016668D01*
X002393Y016633D01*
X002354Y016601D01*
X002313Y016572D01*
X002270Y016546D01*
X002225Y016524D01*
X002179Y016506D01*
X002131Y016491D01*
X002082Y016480D01*
X002033Y016473D01*
X001983Y016470D01*
X001932Y016471D01*
X001883Y016476D01*
X001833Y016485D01*
X001785Y016498D01*
X001738Y016514D01*
X001692Y016535D01*
X001648Y016559D01*
X001606Y016586D01*
X001566Y016616D01*
X001529Y016650D01*
X001495Y016687D01*
X001463Y016726D01*
X001435Y016767D01*
X001410Y016811D01*
X001389Y016856D01*
X001372Y016903D01*
X001358Y016951D01*
X001348Y017000D01*
X001342Y017050D01*
X001340Y017100D01*
X036340Y017100D02*
X036342Y017150D01*
X036348Y017200D01*
X036358Y017249D01*
X036372Y017297D01*
X036389Y017344D01*
X036410Y017389D01*
X036435Y017433D01*
X036463Y017474D01*
X036495Y017513D01*
X036529Y017550D01*
X036566Y017584D01*
X036606Y017614D01*
X036648Y017641D01*
X036692Y017665D01*
X036738Y017686D01*
X036785Y017702D01*
X036833Y017715D01*
X036883Y017724D01*
X036932Y017729D01*
X036983Y017730D01*
X037033Y017727D01*
X037082Y017720D01*
X037131Y017709D01*
X037179Y017694D01*
X037225Y017676D01*
X037270Y017654D01*
X037313Y017628D01*
X037354Y017599D01*
X037393Y017567D01*
X037429Y017532D01*
X037461Y017494D01*
X037491Y017454D01*
X037518Y017411D01*
X037541Y017367D01*
X037560Y017321D01*
X037576Y017273D01*
X037588Y017224D01*
X037596Y017175D01*
X037600Y017125D01*
X037600Y017075D01*
X037596Y017025D01*
X037588Y016976D01*
X037576Y016927D01*
X037560Y016879D01*
X037541Y016833D01*
X037518Y016789D01*
X037491Y016746D01*
X037461Y016706D01*
X037429Y016668D01*
X037393Y016633D01*
X037354Y016601D01*
X037313Y016572D01*
X037270Y016546D01*
X037225Y016524D01*
X037179Y016506D01*
X037131Y016491D01*
X037082Y016480D01*
X037033Y016473D01*
X036983Y016470D01*
X036932Y016471D01*
X036883Y016476D01*
X036833Y016485D01*
X036785Y016498D01*
X036738Y016514D01*
X036692Y016535D01*
X036648Y016559D01*
X036606Y016586D01*
X036566Y016616D01*
X036529Y016650D01*
X036495Y016687D01*
X036463Y016726D01*
X036435Y016767D01*
X036410Y016811D01*
X036389Y016856D01*
X036372Y016903D01*
X036358Y016951D01*
X036348Y017000D01*
X036342Y017050D01*
X036340Y017100D01*
X036340Y002100D02*
X036342Y002150D01*
X036348Y002200D01*
X036358Y002249D01*
X036372Y002297D01*
X036389Y002344D01*
X036410Y002389D01*
X036435Y002433D01*
X036463Y002474D01*
X036495Y002513D01*
X036529Y002550D01*
X036566Y002584D01*
X036606Y002614D01*
X036648Y002641D01*
X036692Y002665D01*
X036738Y002686D01*
X036785Y002702D01*
X036833Y002715D01*
X036883Y002724D01*
X036932Y002729D01*
X036983Y002730D01*
X037033Y002727D01*
X037082Y002720D01*
X037131Y002709D01*
X037179Y002694D01*
X037225Y002676D01*
X037270Y002654D01*
X037313Y002628D01*
X037354Y002599D01*
X037393Y002567D01*
X037429Y002532D01*
X037461Y002494D01*
X037491Y002454D01*
X037518Y002411D01*
X037541Y002367D01*
X037560Y002321D01*
X037576Y002273D01*
X037588Y002224D01*
X037596Y002175D01*
X037600Y002125D01*
X037600Y002075D01*
X037596Y002025D01*
X037588Y001976D01*
X037576Y001927D01*
X037560Y001879D01*
X037541Y001833D01*
X037518Y001789D01*
X037491Y001746D01*
X037461Y001706D01*
X037429Y001668D01*
X037393Y001633D01*
X037354Y001601D01*
X037313Y001572D01*
X037270Y001546D01*
X037225Y001524D01*
X037179Y001506D01*
X037131Y001491D01*
X037082Y001480D01*
X037033Y001473D01*
X036983Y001470D01*
X036932Y001471D01*
X036883Y001476D01*
X036833Y001485D01*
X036785Y001498D01*
X036738Y001514D01*
X036692Y001535D01*
X036648Y001559D01*
X036606Y001586D01*
X036566Y001616D01*
X036529Y001650D01*
X036495Y001687D01*
X036463Y001726D01*
X036435Y001767D01*
X036410Y001811D01*
X036389Y001856D01*
X036372Y001903D01*
X036358Y001951D01*
X036348Y002000D01*
X036342Y002050D01*
X036340Y002100D01*
D11*
X028920Y002600D03*
X022470Y001050D03*
X010420Y002600D03*
X009520Y009600D03*
X009420Y010600D03*
X010520Y017600D03*
X029020Y017600D03*
X029920Y010600D03*
X030020Y009600D03*
D12*
X029020Y009600D03*
X028920Y008600D03*
X029920Y008600D03*
X030020Y007600D03*
X029020Y007600D03*
X028920Y006600D03*
X029920Y006600D03*
X030020Y005600D03*
X029020Y005600D03*
X028920Y004600D03*
X029920Y004600D03*
X030020Y003600D03*
X029020Y003600D03*
X029920Y002600D03*
X021470Y001150D03*
X020470Y001050D03*
X019470Y001150D03*
X018470Y001050D03*
X017470Y001150D03*
X016470Y001050D03*
X015470Y001150D03*
X010520Y003600D03*
X009520Y003600D03*
X009420Y002600D03*
X009420Y004600D03*
X010420Y004600D03*
X010520Y005600D03*
X009520Y005600D03*
X009420Y006600D03*
X010420Y006600D03*
X010520Y007600D03*
X009520Y007600D03*
X009420Y008600D03*
X010420Y008600D03*
X010520Y009600D03*
X010420Y010600D03*
X010520Y011600D03*
X009520Y011600D03*
X009420Y012600D03*
X010420Y012600D03*
X010520Y013600D03*
X009520Y013600D03*
X009420Y014600D03*
X010420Y014600D03*
X010520Y015600D03*
X009520Y015600D03*
X009420Y016600D03*
X010420Y016600D03*
X009520Y017600D03*
X028920Y016600D03*
X029920Y016600D03*
X030020Y015600D03*
X029020Y015600D03*
X028920Y014600D03*
X029920Y014600D03*
X030020Y013600D03*
X029020Y013600D03*
X028920Y012600D03*
X029920Y012600D03*
X030020Y011600D03*
X029020Y011600D03*
X028920Y010600D03*
X030020Y017600D03*
D13*
X033432Y010850D03*
X033432Y010350D03*
X033432Y009850D03*
X033432Y009350D03*
X033432Y008850D03*
X033432Y008350D03*
X033432Y007850D03*
X033432Y007350D03*
X033432Y006850D03*
X033432Y006350D03*
X033432Y005850D03*
X033432Y005350D03*
X033432Y004850D03*
X033432Y004350D03*
X037508Y004350D03*
X037508Y004850D03*
X037508Y005350D03*
X037508Y005850D03*
X037508Y006350D03*
X037508Y006850D03*
X037508Y007350D03*
X037508Y007850D03*
X037508Y008350D03*
X037508Y008850D03*
X037508Y009350D03*
X037508Y009850D03*
X037508Y010350D03*
X037508Y010850D03*
X025008Y010850D03*
X025008Y010350D03*
X025008Y009850D03*
X025008Y009350D03*
X025008Y008850D03*
X025008Y008350D03*
X025008Y007850D03*
X025008Y007350D03*
X025008Y006850D03*
X025008Y006350D03*
X025008Y005850D03*
X025008Y005350D03*
X025008Y004850D03*
X025008Y004350D03*
X020932Y004350D03*
X020932Y004850D03*
X020932Y005350D03*
X020932Y005850D03*
X020932Y006350D03*
X020932Y006850D03*
X020932Y007350D03*
X020932Y007850D03*
X020932Y008350D03*
X020932Y008850D03*
X020932Y009350D03*
X020932Y009850D03*
X020932Y010350D03*
X020932Y010850D03*
X017008Y010850D03*
X017008Y010350D03*
X017008Y009850D03*
X017008Y009350D03*
X017008Y008850D03*
X017008Y008350D03*
X017008Y007850D03*
X017008Y007350D03*
X017008Y006850D03*
X017008Y006350D03*
X017008Y005850D03*
X017008Y005350D03*
X017008Y004850D03*
X017008Y004350D03*
X012932Y004350D03*
X012932Y004850D03*
X012932Y005350D03*
X012932Y005850D03*
X012932Y006350D03*
X012932Y006850D03*
X012932Y007350D03*
X012932Y007850D03*
X012932Y008350D03*
X012932Y008850D03*
X012932Y009350D03*
X012932Y009850D03*
X012932Y010350D03*
X012932Y010850D03*
X006008Y010850D03*
X006008Y010350D03*
X006008Y009850D03*
X006008Y009350D03*
X006008Y008850D03*
X006008Y008350D03*
X006008Y007850D03*
X006008Y007350D03*
X006008Y006850D03*
X006008Y006350D03*
X006008Y005850D03*
X006008Y005350D03*
X006008Y004850D03*
X006008Y004350D03*
X001932Y004350D03*
X001932Y004850D03*
X001932Y005350D03*
X001932Y005850D03*
X001932Y006350D03*
X001932Y006850D03*
X001932Y007350D03*
X001932Y007850D03*
X001932Y008350D03*
X001932Y008850D03*
X001932Y009350D03*
X001932Y009850D03*
X001932Y010350D03*
X001932Y010850D03*
D14*
X001970Y010800D01*
X001970Y010400D01*
X001932Y010350D01*
X001970Y010300D01*
X002170Y010100D01*
X001970Y009900D01*
X001932Y009850D01*
X002170Y010100D02*
X003370Y008900D01*
X005970Y008900D01*
X006008Y008850D01*
X006070Y008800D01*
X007070Y008800D01*
X007670Y008200D01*
X007770Y007900D02*
X009470Y009600D01*
X009520Y009600D01*
X010520Y009600D02*
X010570Y009600D01*
X012270Y007900D01*
X012870Y007900D01*
X012932Y007850D01*
X012970Y008300D02*
X012932Y008350D01*
X012970Y008300D02*
X013270Y008300D01*
X015870Y005700D01*
X015870Y004400D01*
X018470Y001800D01*
X018470Y001700D01*
X019470Y001150D02*
X019470Y001100D01*
X016070Y004500D01*
X016070Y006000D01*
X013270Y008800D01*
X012970Y008800D01*
X012932Y008850D01*
X013570Y008900D02*
X016270Y006200D01*
X016270Y004800D01*
X016670Y004400D01*
X016970Y004400D01*
X017008Y004350D01*
X017008Y004850D02*
X017070Y004900D01*
X017670Y004900D01*
X017070Y005400D02*
X017008Y005350D01*
X017070Y005400D02*
X017670Y005400D01*
X017670Y005900D02*
X017070Y005900D01*
X017008Y005850D01*
X017008Y006350D02*
X016970Y006400D01*
X016470Y006400D01*
X013570Y009300D01*
X013270Y009400D02*
X013570Y009700D01*
X014270Y009700D01*
X015970Y008000D01*
X016470Y007900D02*
X013570Y010800D01*
X013570Y016800D01*
X012170Y018200D01*
X011170Y018200D01*
X010570Y017600D01*
X010520Y017600D01*
X011070Y017300D02*
X011070Y017200D01*
X010470Y016600D01*
X010420Y016600D01*
X011070Y017300D02*
X011670Y017900D01*
X012070Y017900D02*
X012070Y017100D01*
X010570Y015600D01*
X010520Y015600D01*
X010470Y014600D02*
X010420Y014600D01*
X010470Y014600D02*
X011070Y014000D01*
X011070Y011100D01*
X012270Y009900D01*
X012270Y009300D01*
X012932Y009350D02*
X012970Y009400D01*
X013270Y009400D01*
X013570Y009700D02*
X013570Y010000D01*
X013270Y010300D01*
X012970Y010300D01*
X012932Y010350D01*
X012570Y010800D02*
X012370Y010600D01*
X012370Y010100D01*
X012570Y009900D01*
X012870Y009900D01*
X012932Y009850D01*
X012870Y010800D02*
X012570Y010800D01*
X012870Y010800D02*
X012932Y010850D01*
X012970Y010900D01*
X012970Y015100D01*
X012270Y018400D02*
X016370Y014300D01*
X016370Y011400D01*
X018970Y011400D01*
X021570Y011400D01*
X028570Y018400D01*
X030270Y018400D01*
X030770Y017900D01*
X030770Y016800D01*
X037170Y010400D01*
X037470Y010400D01*
X037508Y010350D01*
X037470Y009900D02*
X037170Y009900D01*
X030570Y016500D01*
X030570Y017800D01*
X030170Y018200D01*
X028670Y018200D01*
X025570Y015100D01*
X025570Y010100D01*
X025370Y009900D01*
X025070Y009900D01*
X025008Y009850D01*
X024970Y009900D01*
X024170Y009900D01*
X022870Y011200D01*
X020470Y011200D01*
X019170Y009900D01*
X017970Y009900D01*
X017070Y009900D01*
X017008Y009850D01*
X015870Y009400D02*
X014170Y011100D01*
X014170Y012100D02*
X015870Y010400D01*
X016370Y010700D02*
X016670Y010400D01*
X016970Y010400D01*
X017008Y010350D01*
X016370Y010700D02*
X016370Y011400D01*
X015870Y012200D02*
X014970Y013100D01*
X012170Y008900D02*
X010470Y010600D01*
X010420Y010600D01*
X008570Y009800D02*
X006070Y009800D01*
X006008Y009850D01*
X006008Y010350D02*
X006070Y010400D01*
X006370Y010400D01*
X008870Y012900D01*
X008870Y017700D01*
X009570Y018400D01*
X012270Y018400D01*
X025970Y011600D02*
X025970Y005200D01*
X025670Y004900D01*
X025070Y004900D01*
X025008Y004850D01*
X025070Y004400D02*
X025008Y004350D01*
X025070Y004400D02*
X025770Y004400D01*
X028370Y007000D01*
X028370Y010100D01*
X028870Y010600D01*
X028920Y010600D01*
X029920Y010600D02*
X029970Y010600D01*
X030570Y010000D01*
X030570Y006900D01*
X033070Y004400D01*
X033370Y004400D01*
X033432Y004350D01*
X033870Y004000D02*
X030570Y004000D01*
X029970Y004600D01*
X029920Y004600D01*
X028920Y004600D02*
X028870Y004600D01*
X027870Y003600D01*
X024370Y003600D01*
X022670Y005300D01*
X020970Y005300D01*
X020932Y005350D01*
X020932Y004850D02*
X020970Y004800D01*
X022870Y004800D01*
X024270Y003400D01*
X028770Y003400D01*
X028970Y003600D01*
X029020Y003600D01*
X030020Y003600D02*
X030070Y003600D01*
X033770Y003600D01*
X034970Y004800D01*
X037470Y004800D01*
X037508Y004850D01*
X037470Y005300D02*
X037508Y005350D01*
X037470Y005300D02*
X035170Y005300D01*
X033870Y004000D01*
X034770Y003800D02*
X032970Y002000D01*
X022470Y002000D01*
X020370Y004100D01*
X020370Y009400D01*
X020870Y009400D01*
X020932Y009350D01*
X020970Y009300D01*
X021270Y009300D01*
X022170Y008400D01*
X024970Y008400D01*
X025008Y008350D01*
X025370Y007900D02*
X025670Y008200D01*
X025670Y008900D01*
X025008Y008850D02*
X024970Y008900D01*
X022170Y008900D01*
X022070Y009000D01*
X021270Y009800D01*
X020970Y009800D01*
X020932Y009850D01*
X020370Y009400D02*
X019470Y009400D01*
X018470Y008400D01*
X017070Y008400D01*
X017008Y008350D01*
X016970Y008400D01*
X016870Y008500D01*
X016270Y008500D01*
X015870Y008900D02*
X016970Y008900D01*
X017008Y008850D01*
X016970Y007900D02*
X016470Y007900D01*
X016970Y007900D02*
X017008Y007850D01*
X017070Y007400D02*
X017008Y007350D01*
X017070Y007400D02*
X018570Y007400D01*
X018270Y006900D02*
X017070Y006900D01*
X017008Y006850D01*
X020932Y006850D02*
X020970Y006900D01*
X023870Y006900D01*
X024370Y006900D02*
X024370Y006700D01*
X024670Y006400D01*
X024970Y006400D01*
X025008Y006350D01*
X025070Y005900D02*
X025008Y005850D01*
X025070Y005900D02*
X025670Y005900D01*
X026270Y005900D02*
X028170Y007800D01*
X028170Y011900D01*
X028870Y012600D01*
X028920Y012600D01*
X029920Y012600D02*
X029970Y012600D01*
X031170Y011400D01*
X031170Y007300D01*
X033070Y005400D01*
X033370Y005400D01*
X033432Y005350D01*
X033370Y004900D02*
X033070Y004900D01*
X030770Y007200D01*
X030770Y010900D01*
X030070Y011600D01*
X030020Y011600D01*
X031370Y012300D02*
X030070Y013600D01*
X030020Y013600D01*
X029020Y013600D02*
X028970Y013600D01*
X027970Y012600D01*
X027970Y008200D01*
X026270Y006500D01*
X026270Y006300D01*
X026270Y005900D02*
X026270Y005300D01*
X025670Y005300D02*
X025070Y005300D01*
X025008Y005350D01*
X023070Y004300D02*
X024770Y002600D01*
X028870Y002600D01*
X028920Y002600D01*
X029920Y002600D02*
X029970Y002600D01*
X033070Y002600D01*
X034770Y004300D01*
X037470Y004300D01*
X037508Y004350D01*
X037770Y003800D02*
X034770Y003800D01*
X033432Y004850D02*
X033370Y004900D01*
X033432Y005850D02*
X033370Y005900D01*
X033070Y005900D01*
X031370Y007600D01*
X031370Y012300D01*
X031570Y013000D02*
X029970Y014600D01*
X029920Y014600D01*
X030020Y015600D02*
X030070Y015600D01*
X031770Y013900D01*
X031770Y008200D01*
X033070Y006900D01*
X033370Y006900D01*
X033432Y006850D01*
X033370Y006400D02*
X033070Y006400D01*
X031570Y007900D01*
X031570Y013000D01*
X031970Y014600D02*
X029970Y016600D01*
X029920Y016600D01*
X028920Y016600D02*
X028870Y016600D01*
X026570Y014300D01*
X026570Y007900D01*
X026270Y007300D02*
X026270Y014600D01*
X027770Y014400D02*
X028970Y015600D01*
X029020Y015600D01*
X027770Y014400D02*
X027770Y008400D01*
X026270Y006900D01*
X025670Y006900D02*
X025070Y006900D01*
X025008Y006850D01*
X025008Y007350D02*
X024970Y007400D01*
X024670Y007400D01*
X024170Y007900D01*
X025008Y007850D02*
X025070Y007900D01*
X025370Y007900D01*
X022970Y008100D02*
X022270Y007400D01*
X020970Y007400D01*
X020932Y007350D01*
X020932Y007850D02*
X020970Y007900D01*
X021270Y007900D01*
X021770Y008400D01*
X022370Y009200D02*
X022070Y009500D01*
X022370Y009200D02*
X023870Y009200D01*
X023870Y009800D02*
X021770Y009800D01*
X020932Y010350D02*
X020870Y010400D01*
X020670Y010600D01*
X019470Y009400D01*
X020670Y010600D02*
X020870Y010800D01*
X020932Y010850D01*
X021570Y011400D02*
X022970Y011400D01*
X023970Y010400D01*
X024970Y010400D01*
X025008Y010350D01*
X031970Y008500D02*
X031970Y014600D01*
X033070Y010800D02*
X032870Y010600D01*
X032870Y009600D01*
X033070Y009400D01*
X033370Y009400D01*
X033432Y009350D01*
X033470Y009300D01*
X033970Y009300D01*
X034870Y008400D01*
X037470Y008400D01*
X037508Y008350D01*
X037570Y008300D01*
X037870Y008300D01*
X038070Y008100D01*
X038070Y004100D01*
X037770Y003800D01*
X037470Y005800D02*
X034070Y005800D01*
X033432Y006350D02*
X033370Y006400D01*
X034070Y006400D02*
X037470Y006400D01*
X037508Y006350D01*
X037508Y005850D02*
X037470Y005800D01*
X037508Y006850D02*
X037470Y006900D01*
X034070Y006900D01*
X033432Y007350D02*
X033370Y007400D01*
X033070Y007400D01*
X031970Y008500D01*
X032270Y008700D02*
X033070Y007900D01*
X033370Y007900D01*
X033432Y007850D01*
X034070Y007900D02*
X037470Y007900D01*
X037508Y007850D01*
X037470Y007400D02*
X037508Y007350D01*
X037470Y007400D02*
X034070Y007400D01*
X034670Y008900D02*
X033470Y010100D01*
X033470Y009900D01*
X033432Y009850D01*
X033470Y010100D02*
X033470Y010300D01*
X033432Y010350D01*
X033370Y010800D02*
X033070Y010800D01*
X033370Y010800D02*
X033432Y010850D01*
X034670Y008900D02*
X034770Y008900D01*
X037470Y008900D01*
X037508Y008850D01*
X037508Y009850D02*
X037470Y009900D01*
X028920Y006600D02*
X028870Y006600D01*
X026270Y004000D01*
X024570Y004000D01*
X022270Y006300D01*
X020970Y006300D01*
X020932Y006350D01*
X020932Y005850D02*
X020970Y005800D01*
X022470Y005800D01*
X024470Y003800D01*
X027170Y003800D01*
X028970Y005600D01*
X029020Y005600D01*
X023070Y004300D02*
X020970Y004300D01*
X020932Y004350D01*
X017070Y002800D02*
X015470Y001200D01*
X015470Y001150D01*
X016070Y000600D02*
X016470Y001000D01*
X016470Y001050D01*
X016070Y000600D02*
X010670Y000600D01*
X008570Y002700D01*
X009370Y002600D02*
X009420Y002600D01*
X009370Y002600D02*
X007670Y004300D01*
X006070Y004300D01*
X006008Y004350D01*
X005370Y004200D02*
X009270Y000300D01*
X021770Y000300D01*
X022470Y001000D01*
X022470Y001050D01*
X022470Y001100D01*
X022470Y002000D01*
X012932Y004350D02*
X012870Y004300D01*
X012170Y004300D01*
X010470Y002600D01*
X010420Y002600D01*
X010520Y003600D02*
X010570Y003600D01*
X011770Y004800D01*
X012870Y004800D01*
X012932Y004850D01*
X012870Y005300D02*
X012932Y005350D01*
X012870Y005300D02*
X011170Y005300D01*
X010470Y004600D01*
X010420Y004600D01*
X009420Y004600D02*
X009370Y004600D01*
X008670Y005300D01*
X006070Y005300D01*
X006008Y005350D01*
X006008Y004850D02*
X006070Y004800D01*
X008270Y004800D01*
X009470Y003600D01*
X009520Y003600D01*
X009470Y005600D02*
X009520Y005600D01*
X009470Y005600D02*
X009270Y005800D01*
X006070Y005800D01*
X006008Y005850D01*
X006008Y006350D02*
X006070Y006400D01*
X009170Y006400D01*
X009370Y006600D01*
X009420Y006600D01*
X008770Y006900D02*
X009470Y007600D01*
X009520Y007600D01*
X010520Y007600D02*
X010570Y007600D01*
X011270Y006900D01*
X012870Y006900D01*
X012932Y006850D01*
X012870Y006400D02*
X012932Y006350D01*
X012870Y006400D02*
X010670Y006400D01*
X010470Y006600D01*
X010420Y006600D01*
X010770Y005800D02*
X010570Y005600D01*
X010520Y005600D01*
X010770Y005800D02*
X012870Y005800D01*
X012932Y005850D01*
X012932Y007350D02*
X012870Y007400D01*
X011670Y007400D01*
X010470Y008600D01*
X010420Y008600D01*
X009420Y008600D02*
X009370Y008600D01*
X008170Y007400D01*
X006070Y007400D01*
X006008Y007350D01*
X006070Y006900D02*
X006008Y006850D01*
X006070Y006900D02*
X008770Y006900D01*
X007770Y007900D02*
X006070Y007900D01*
X006008Y007850D01*
X006008Y008350D02*
X005970Y008400D01*
X005370Y008400D01*
X005370Y004200D01*
X002770Y004400D02*
X001970Y004400D01*
X001932Y004350D01*
X001932Y004850D02*
X001970Y004900D01*
X002770Y004900D01*
X001932Y005350D02*
X001870Y005400D01*
X001270Y005400D01*
X001270Y005900D02*
X001870Y005900D01*
X001932Y005850D01*
X001932Y006350D02*
X001870Y006400D01*
X001270Y006400D01*
X001270Y006900D02*
X001870Y006900D01*
X001932Y006850D01*
X001932Y007350D02*
X001870Y007400D01*
X001270Y007400D01*
X001270Y007900D02*
X001870Y007900D01*
X001932Y007850D01*
X003170Y008400D02*
X002270Y009300D01*
X001970Y009300D01*
X001932Y009350D01*
X003170Y008400D02*
X005370Y008400D01*
D15*
X007670Y008200D03*
X008570Y009800D03*
X012170Y008900D03*
X012270Y009300D03*
X013570Y009300D03*
X013570Y008900D03*
X015870Y008900D03*
X016270Y008500D03*
X015970Y008000D03*
X018270Y006900D03*
X018570Y007400D03*
X017670Y005900D03*
X017670Y005400D03*
X017670Y004900D03*
X017070Y002800D03*
X018470Y001700D03*
X025670Y005300D03*
X026270Y005300D03*
X025670Y005900D03*
X026270Y006300D03*
X026270Y006900D03*
X026270Y007300D03*
X025670Y006900D03*
X024370Y006900D03*
X023870Y006900D03*
X024170Y007900D03*
X022970Y008100D03*
X021770Y008400D03*
X022070Y009000D03*
X022070Y009500D03*
X021770Y009800D03*
X023870Y009800D03*
X023870Y009200D03*
X025670Y008900D03*
X026570Y007900D03*
X032270Y008700D03*
X034070Y007900D03*
X034070Y007400D03*
X034070Y006900D03*
X034070Y006400D03*
X034070Y005800D03*
X034770Y008900D03*
X025970Y011600D03*
X026270Y014600D03*
X018970Y011400D03*
X015870Y012200D03*
X014970Y013100D03*
X014170Y012100D03*
X014170Y011100D03*
X015870Y010400D03*
X015870Y009400D03*
X017970Y009900D03*
X012970Y015100D03*
X012070Y017900D03*
X011670Y017900D03*
X001270Y007900D03*
X001270Y007400D03*
X001270Y006900D03*
X001270Y006400D03*
X001270Y005900D03*
X001270Y005400D03*
X002770Y004900D03*
X002770Y004400D03*
X008570Y002700D03*
M02*
