G75*
G70*
%OFA0B0*%
%FSLAX24Y24*%
%IPPOS*%
%LPD*%
%AMOC8*
5,1,8,0,0,1.08239X$1,22.5*
%
%ADD10C,0.0000*%
%ADD11R,0.0740X0.0740*%
%ADD12C,0.0740*%
%ADD13R,0.0512X0.0591*%
%ADD14R,0.0250X0.0500*%
%ADD15C,0.0080*%
%ADD16OC8,0.0240*%
%ADD17C,0.0160*%
D10*
X000190Y000180D02*
X039561Y000180D01*
X039561Y019865D01*
X000190Y019865D01*
X000190Y000180D01*
X001431Y002180D02*
X001433Y002230D01*
X001439Y002280D01*
X001449Y002329D01*
X001463Y002377D01*
X001480Y002424D01*
X001501Y002469D01*
X001526Y002513D01*
X001554Y002554D01*
X001586Y002593D01*
X001620Y002630D01*
X001657Y002664D01*
X001697Y002694D01*
X001739Y002721D01*
X001783Y002745D01*
X001829Y002766D01*
X001876Y002782D01*
X001924Y002795D01*
X001974Y002804D01*
X002023Y002809D01*
X002074Y002810D01*
X002124Y002807D01*
X002173Y002800D01*
X002222Y002789D01*
X002270Y002774D01*
X002316Y002756D01*
X002361Y002734D01*
X002404Y002708D01*
X002445Y002679D01*
X002484Y002647D01*
X002520Y002612D01*
X002552Y002574D01*
X002582Y002534D01*
X002609Y002491D01*
X002632Y002447D01*
X002651Y002401D01*
X002667Y002353D01*
X002679Y002304D01*
X002687Y002255D01*
X002691Y002205D01*
X002691Y002155D01*
X002687Y002105D01*
X002679Y002056D01*
X002667Y002007D01*
X002651Y001959D01*
X002632Y001913D01*
X002609Y001869D01*
X002582Y001826D01*
X002552Y001786D01*
X002520Y001748D01*
X002484Y001713D01*
X002445Y001681D01*
X002404Y001652D01*
X002361Y001626D01*
X002316Y001604D01*
X002270Y001586D01*
X002222Y001571D01*
X002173Y001560D01*
X002124Y001553D01*
X002074Y001550D01*
X002023Y001551D01*
X001974Y001556D01*
X001924Y001565D01*
X001876Y001578D01*
X001829Y001594D01*
X001783Y001615D01*
X001739Y001639D01*
X001697Y001666D01*
X001657Y001696D01*
X001620Y001730D01*
X001586Y001767D01*
X001554Y001806D01*
X001526Y001847D01*
X001501Y001891D01*
X001480Y001936D01*
X001463Y001983D01*
X001449Y002031D01*
X001439Y002080D01*
X001433Y002130D01*
X001431Y002180D01*
X001431Y017180D02*
X001433Y017230D01*
X001439Y017280D01*
X001449Y017329D01*
X001463Y017377D01*
X001480Y017424D01*
X001501Y017469D01*
X001526Y017513D01*
X001554Y017554D01*
X001586Y017593D01*
X001620Y017630D01*
X001657Y017664D01*
X001697Y017694D01*
X001739Y017721D01*
X001783Y017745D01*
X001829Y017766D01*
X001876Y017782D01*
X001924Y017795D01*
X001974Y017804D01*
X002023Y017809D01*
X002074Y017810D01*
X002124Y017807D01*
X002173Y017800D01*
X002222Y017789D01*
X002270Y017774D01*
X002316Y017756D01*
X002361Y017734D01*
X002404Y017708D01*
X002445Y017679D01*
X002484Y017647D01*
X002520Y017612D01*
X002552Y017574D01*
X002582Y017534D01*
X002609Y017491D01*
X002632Y017447D01*
X002651Y017401D01*
X002667Y017353D01*
X002679Y017304D01*
X002687Y017255D01*
X002691Y017205D01*
X002691Y017155D01*
X002687Y017105D01*
X002679Y017056D01*
X002667Y017007D01*
X002651Y016959D01*
X002632Y016913D01*
X002609Y016869D01*
X002582Y016826D01*
X002552Y016786D01*
X002520Y016748D01*
X002484Y016713D01*
X002445Y016681D01*
X002404Y016652D01*
X002361Y016626D01*
X002316Y016604D01*
X002270Y016586D01*
X002222Y016571D01*
X002173Y016560D01*
X002124Y016553D01*
X002074Y016550D01*
X002023Y016551D01*
X001974Y016556D01*
X001924Y016565D01*
X001876Y016578D01*
X001829Y016594D01*
X001783Y016615D01*
X001739Y016639D01*
X001697Y016666D01*
X001657Y016696D01*
X001620Y016730D01*
X001586Y016767D01*
X001554Y016806D01*
X001526Y016847D01*
X001501Y016891D01*
X001480Y016936D01*
X001463Y016983D01*
X001449Y017031D01*
X001439Y017080D01*
X001433Y017130D01*
X001431Y017180D01*
X036431Y017180D02*
X036433Y017230D01*
X036439Y017280D01*
X036449Y017329D01*
X036463Y017377D01*
X036480Y017424D01*
X036501Y017469D01*
X036526Y017513D01*
X036554Y017554D01*
X036586Y017593D01*
X036620Y017630D01*
X036657Y017664D01*
X036697Y017694D01*
X036739Y017721D01*
X036783Y017745D01*
X036829Y017766D01*
X036876Y017782D01*
X036924Y017795D01*
X036974Y017804D01*
X037023Y017809D01*
X037074Y017810D01*
X037124Y017807D01*
X037173Y017800D01*
X037222Y017789D01*
X037270Y017774D01*
X037316Y017756D01*
X037361Y017734D01*
X037404Y017708D01*
X037445Y017679D01*
X037484Y017647D01*
X037520Y017612D01*
X037552Y017574D01*
X037582Y017534D01*
X037609Y017491D01*
X037632Y017447D01*
X037651Y017401D01*
X037667Y017353D01*
X037679Y017304D01*
X037687Y017255D01*
X037691Y017205D01*
X037691Y017155D01*
X037687Y017105D01*
X037679Y017056D01*
X037667Y017007D01*
X037651Y016959D01*
X037632Y016913D01*
X037609Y016869D01*
X037582Y016826D01*
X037552Y016786D01*
X037520Y016748D01*
X037484Y016713D01*
X037445Y016681D01*
X037404Y016652D01*
X037361Y016626D01*
X037316Y016604D01*
X037270Y016586D01*
X037222Y016571D01*
X037173Y016560D01*
X037124Y016553D01*
X037074Y016550D01*
X037023Y016551D01*
X036974Y016556D01*
X036924Y016565D01*
X036876Y016578D01*
X036829Y016594D01*
X036783Y016615D01*
X036739Y016639D01*
X036697Y016666D01*
X036657Y016696D01*
X036620Y016730D01*
X036586Y016767D01*
X036554Y016806D01*
X036526Y016847D01*
X036501Y016891D01*
X036480Y016936D01*
X036463Y016983D01*
X036449Y017031D01*
X036439Y017080D01*
X036433Y017130D01*
X036431Y017180D01*
X036431Y002180D02*
X036433Y002230D01*
X036439Y002280D01*
X036449Y002329D01*
X036463Y002377D01*
X036480Y002424D01*
X036501Y002469D01*
X036526Y002513D01*
X036554Y002554D01*
X036586Y002593D01*
X036620Y002630D01*
X036657Y002664D01*
X036697Y002694D01*
X036739Y002721D01*
X036783Y002745D01*
X036829Y002766D01*
X036876Y002782D01*
X036924Y002795D01*
X036974Y002804D01*
X037023Y002809D01*
X037074Y002810D01*
X037124Y002807D01*
X037173Y002800D01*
X037222Y002789D01*
X037270Y002774D01*
X037316Y002756D01*
X037361Y002734D01*
X037404Y002708D01*
X037445Y002679D01*
X037484Y002647D01*
X037520Y002612D01*
X037552Y002574D01*
X037582Y002534D01*
X037609Y002491D01*
X037632Y002447D01*
X037651Y002401D01*
X037667Y002353D01*
X037679Y002304D01*
X037687Y002255D01*
X037691Y002205D01*
X037691Y002155D01*
X037687Y002105D01*
X037679Y002056D01*
X037667Y002007D01*
X037651Y001959D01*
X037632Y001913D01*
X037609Y001869D01*
X037582Y001826D01*
X037552Y001786D01*
X037520Y001748D01*
X037484Y001713D01*
X037445Y001681D01*
X037404Y001652D01*
X037361Y001626D01*
X037316Y001604D01*
X037270Y001586D01*
X037222Y001571D01*
X037173Y001560D01*
X037124Y001553D01*
X037074Y001550D01*
X037023Y001551D01*
X036974Y001556D01*
X036924Y001565D01*
X036876Y001578D01*
X036829Y001594D01*
X036783Y001615D01*
X036739Y001639D01*
X036697Y001666D01*
X036657Y001696D01*
X036620Y001730D01*
X036586Y001767D01*
X036554Y001806D01*
X036526Y001847D01*
X036501Y001891D01*
X036480Y001936D01*
X036463Y001983D01*
X036449Y002031D01*
X036439Y002080D01*
X036433Y002130D01*
X036431Y002180D01*
D11*
X028511Y002523D03*
X022561Y001130D03*
X010483Y002523D03*
X009583Y009523D03*
X009483Y010523D03*
X010583Y017523D03*
X028611Y017523D03*
X029511Y010523D03*
X029611Y009523D03*
D12*
X028611Y009523D03*
X028511Y010523D03*
X028611Y011523D03*
X029611Y011523D03*
X029511Y012523D03*
X028511Y012523D03*
X028611Y013523D03*
X029611Y013523D03*
X029511Y014523D03*
X028511Y014523D03*
X028611Y015523D03*
X029611Y015523D03*
X029511Y016523D03*
X028511Y016523D03*
X029611Y017523D03*
X033190Y014180D03*
X033190Y013180D03*
X029511Y008523D03*
X028511Y008523D03*
X028611Y007523D03*
X029611Y007523D03*
X029511Y006523D03*
X028511Y006523D03*
X028611Y005523D03*
X029611Y005523D03*
X029511Y004523D03*
X028511Y004523D03*
X028611Y003523D03*
X029611Y003523D03*
X029511Y002523D03*
X033190Y001180D03*
X034190Y001180D03*
X021561Y001230D03*
X020561Y001130D03*
X019561Y001230D03*
X018561Y001130D03*
X017561Y001230D03*
X016561Y001130D03*
X015561Y001230D03*
X010583Y003523D03*
X009583Y003523D03*
X009483Y004523D03*
X010483Y004523D03*
X010583Y005523D03*
X009583Y005523D03*
X009483Y006523D03*
X010483Y006523D03*
X010583Y007523D03*
X009583Y007523D03*
X009483Y008523D03*
X010483Y008523D03*
X010583Y009523D03*
X010483Y010523D03*
X010583Y011523D03*
X009583Y011523D03*
X009483Y012523D03*
X010483Y012523D03*
X010583Y013523D03*
X009583Y013523D03*
X009483Y014523D03*
X010483Y014523D03*
X010583Y015523D03*
X009583Y015523D03*
X009483Y016523D03*
X010483Y016523D03*
X009583Y017523D03*
X002190Y014180D03*
X002190Y013180D03*
X009483Y002523D03*
X006190Y001180D03*
X005190Y001180D03*
D13*
X015564Y002523D03*
X016313Y002523D03*
X016313Y003523D03*
X015564Y003523D03*
X015564Y004523D03*
X016313Y004523D03*
X016313Y005523D03*
X015564Y005523D03*
X015564Y006523D03*
X016313Y006523D03*
X016313Y007523D03*
X015564Y007523D03*
X015564Y008523D03*
X016313Y008523D03*
X016313Y009523D03*
X015564Y009523D03*
X015564Y010523D03*
X016313Y010523D03*
X016313Y011523D03*
X015564Y011523D03*
X015564Y012523D03*
X016313Y012523D03*
X016313Y013523D03*
X015564Y013523D03*
X015564Y014523D03*
X016313Y014523D03*
X016313Y015523D03*
X015564Y015523D03*
X015564Y016523D03*
X016313Y016523D03*
X016313Y017523D03*
X015564Y017523D03*
X023439Y017523D03*
X024187Y017523D03*
X024187Y016523D03*
X023439Y016523D03*
X023439Y015523D03*
X024187Y015523D03*
X024187Y014523D03*
X023439Y014523D03*
X023439Y013523D03*
X024187Y013523D03*
X024187Y012523D03*
X023439Y012523D03*
X023439Y011523D03*
X024187Y011523D03*
X024187Y010523D03*
X023439Y010523D03*
X023439Y009523D03*
X024187Y009523D03*
X024187Y008523D03*
X023439Y008523D03*
X023439Y007523D03*
X024187Y007523D03*
X024187Y006523D03*
X023439Y006523D03*
X023439Y005523D03*
X024187Y005523D03*
X024187Y004523D03*
X023439Y004523D03*
X023439Y003523D03*
X024187Y003523D03*
X024187Y002523D03*
X023439Y002523D03*
D14*
X021013Y009379D03*
X020663Y009379D03*
X020313Y009379D03*
X020313Y010402D03*
X020663Y010402D03*
X021013Y010402D03*
X021013Y011426D03*
X020663Y011426D03*
X020313Y011426D03*
X013139Y011375D03*
X012789Y011375D03*
X012439Y011375D03*
X012439Y010430D03*
X012789Y010430D03*
X013139Y010430D03*
X013139Y009485D03*
X012789Y009485D03*
X012439Y009485D03*
X001328Y009485D03*
X000978Y009485D03*
X000628Y009485D03*
X000628Y010430D03*
X000978Y010430D03*
X001328Y010430D03*
X001328Y011375D03*
X000978Y011375D03*
X000628Y011375D03*
X032124Y011375D03*
X032474Y011375D03*
X032824Y011375D03*
X032824Y010430D03*
X032474Y010430D03*
X032124Y010430D03*
X032124Y009485D03*
X032474Y009485D03*
X032824Y009485D03*
D15*
X032830Y009540D01*
X032830Y009940D01*
X032830Y010420D01*
X032824Y010430D01*
X032830Y010500D01*
X032830Y011300D01*
X032824Y011375D01*
X032510Y011300D02*
X032474Y011375D01*
X032510Y011300D02*
X032510Y010900D01*
X032474Y010430D02*
X032510Y010420D01*
X032510Y009940D01*
X032474Y009485D02*
X032510Y009460D01*
X032510Y009220D01*
X032670Y009060D01*
X032990Y009060D01*
X034190Y010260D01*
X034190Y010420D01*
X034430Y010260D02*
X034430Y011220D01*
X031470Y014180D01*
X031470Y014580D01*
X030590Y015460D01*
X030110Y015540D02*
X030110Y015940D01*
X029550Y016500D01*
X029511Y016523D01*
X028511Y016523D02*
X028510Y016580D01*
X024190Y016580D01*
X024187Y016523D01*
X024190Y016500D01*
X023710Y016020D01*
X023470Y015540D02*
X023439Y015523D01*
X023470Y015460D01*
X023470Y014580D01*
X023439Y014523D01*
X023470Y014500D01*
X023470Y013540D01*
X023439Y013523D01*
X023470Y013460D01*
X023470Y012580D01*
X023439Y012523D01*
X023470Y012500D01*
X023470Y011540D01*
X023439Y011523D01*
X023470Y011460D01*
X023470Y010580D01*
X023439Y010523D01*
X023470Y010500D01*
X023470Y009540D01*
X023439Y009523D01*
X023470Y009460D01*
X023470Y008580D01*
X023439Y008523D01*
X023390Y008500D01*
X020510Y008500D01*
X020350Y008660D01*
X020350Y009300D01*
X020313Y009379D01*
X020350Y009380D01*
X020350Y010340D01*
X020313Y010402D01*
X020350Y010420D01*
X020350Y010900D01*
X020350Y011380D01*
X020313Y011426D01*
X020270Y011460D01*
X020270Y012260D01*
X019550Y012980D01*
X016350Y012980D01*
X016350Y012580D01*
X016313Y012523D01*
X016350Y012500D01*
X016350Y011540D01*
X016313Y011523D01*
X016350Y011460D01*
X016350Y010580D01*
X016313Y010523D01*
X016350Y010500D01*
X016350Y009540D01*
X016313Y009523D01*
X016350Y009460D01*
X016350Y008580D01*
X016313Y008523D01*
X016350Y008500D01*
X016350Y007540D01*
X016313Y007523D01*
X016350Y007460D01*
X016350Y006580D01*
X016313Y006523D01*
X016350Y006500D01*
X016350Y005540D01*
X016313Y005523D01*
X016350Y005460D01*
X016350Y004580D01*
X016313Y004523D01*
X016350Y004500D01*
X016350Y003540D01*
X016313Y003523D01*
X016350Y003460D01*
X016350Y002580D01*
X016313Y002523D01*
X016270Y002500D01*
X015870Y002100D01*
X015710Y002100D01*
X014830Y001220D01*
X006190Y001220D01*
X006190Y001180D01*
X006190Y001140D01*
X005710Y000660D01*
X004990Y000660D01*
X004670Y000980D01*
X004670Y001940D01*
X002910Y003700D01*
X002910Y008740D01*
X001150Y008740D01*
X000670Y009220D01*
X000670Y009460D01*
X000628Y009485D01*
X000670Y009540D01*
X000670Y010420D01*
X000628Y010430D01*
X000670Y010500D01*
X000670Y011300D01*
X000628Y011375D01*
X000978Y011375D02*
X000990Y011380D01*
X000990Y011700D01*
X001150Y011860D01*
X001328Y011375D02*
X001310Y011300D01*
X001310Y010500D01*
X001328Y010430D01*
X001310Y010420D01*
X001310Y009940D01*
X001310Y009540D01*
X001328Y009485D01*
X000990Y009540D02*
X000978Y009485D01*
X000990Y009540D02*
X000990Y009940D01*
X000978Y010430D02*
X000990Y010500D01*
X000990Y010900D01*
X002750Y008980D02*
X002750Y013620D01*
X002190Y014180D01*
X005550Y012580D02*
X009470Y016500D01*
X009483Y016523D01*
X010483Y016523D02*
X010510Y016580D01*
X015550Y016580D01*
X015564Y016523D01*
X016313Y016523D02*
X016350Y016500D01*
X016350Y015540D01*
X016313Y015523D01*
X016350Y015460D01*
X016350Y014580D01*
X016313Y014523D01*
X016350Y014500D01*
X016350Y013540D01*
X016313Y013523D01*
X016350Y013460D01*
X016350Y012980D01*
X016830Y012740D02*
X018910Y010660D01*
X018910Y008100D01*
X018670Y007940D02*
X018670Y010500D01*
X019150Y010820D02*
X017470Y012500D01*
X016670Y012020D02*
X017550Y011140D01*
X017550Y008820D01*
X018590Y007780D01*
X018590Y006820D01*
X018590Y006100D02*
X017390Y007300D01*
X017390Y010900D01*
X016830Y011460D01*
X016830Y011060D02*
X017230Y010660D01*
X017230Y005940D01*
X016990Y006340D02*
X016990Y003860D01*
X019550Y001300D01*
X019561Y001230D01*
X019070Y001380D02*
X019070Y000980D01*
X019310Y000740D01*
X020190Y000740D01*
X020510Y001060D01*
X020561Y001130D01*
X021070Y000900D02*
X021070Y005540D01*
X018670Y007940D01*
X019150Y007860D02*
X019150Y010820D01*
X019550Y011380D02*
X019550Y008420D01*
X021550Y006420D01*
X022510Y006420D01*
X022590Y006500D01*
X022590Y006820D01*
X021310Y008100D01*
X020590Y008100D01*
X020270Y008340D02*
X020270Y008500D01*
X020030Y008740D01*
X020030Y008900D01*
X019790Y008420D02*
X019790Y011620D01*
X019310Y011540D02*
X019950Y012180D01*
X019310Y011540D02*
X019310Y008420D01*
X022590Y005140D01*
X023439Y005523D02*
X023470Y005540D01*
X023470Y006500D01*
X023439Y006523D01*
X023470Y006580D01*
X023470Y007460D01*
X023439Y007523D01*
X023470Y007540D01*
X023470Y008500D01*
X023439Y008523D01*
X022830Y008740D02*
X022430Y008740D01*
X022350Y008820D01*
X022350Y017220D01*
X023070Y017940D01*
X023790Y017940D01*
X024190Y017540D01*
X024187Y017523D01*
X024190Y017540D01*
X028590Y017540D01*
X028611Y017523D01*
X029611Y017523D02*
X029630Y017460D01*
X031310Y015780D01*
X030110Y015540D02*
X031310Y014340D01*
X031310Y009300D01*
X032124Y009485D02*
X032190Y009460D01*
X032190Y009220D01*
X033230Y008180D01*
X035790Y008180D01*
X035870Y008100D01*
X035870Y003380D01*
X034190Y001700D01*
X024270Y001700D01*
X023470Y002500D01*
X023439Y002523D01*
X023390Y002500D01*
X022990Y002500D01*
X021790Y001300D01*
X021630Y001300D01*
X021561Y001230D01*
X021070Y000900D02*
X020750Y000580D01*
X016270Y000580D01*
X015630Y001220D01*
X015561Y001230D01*
X015564Y002523D02*
X015550Y002580D01*
X010510Y002580D01*
X010483Y002523D01*
X010583Y003523D02*
X010590Y003540D01*
X015550Y003540D01*
X015564Y003523D01*
X016750Y003700D02*
X019070Y001380D01*
X023439Y002523D02*
X023470Y002580D01*
X023470Y003460D01*
X023439Y003523D01*
X023470Y003540D01*
X023470Y004500D01*
X023439Y004523D01*
X023470Y004580D01*
X023470Y005460D01*
X023439Y005523D01*
X024187Y005523D02*
X024190Y005540D01*
X024670Y005540D01*
X028590Y005540D01*
X028611Y005523D01*
X029611Y005523D02*
X029630Y005540D01*
X030030Y005940D01*
X035630Y005940D01*
X035630Y006420D02*
X033470Y006420D01*
X033150Y006100D01*
X029950Y006100D01*
X029550Y006500D01*
X029511Y006523D01*
X030110Y006980D02*
X029630Y007460D01*
X029611Y007523D01*
X029550Y008500D02*
X030590Y007460D01*
X035630Y007460D01*
X035630Y007940D02*
X031150Y007940D01*
X029630Y009460D01*
X029611Y009523D01*
X029950Y010020D02*
X030110Y010180D01*
X030110Y011780D01*
X029870Y012020D01*
X029070Y012020D01*
X028590Y012500D01*
X028511Y012523D01*
X028510Y012580D01*
X024190Y012580D01*
X024187Y012523D01*
X024190Y011540D02*
X024187Y011523D01*
X024190Y011540D02*
X028590Y011540D01*
X028611Y011523D01*
X027950Y010980D02*
X027630Y011300D01*
X027950Y010980D02*
X027950Y010820D01*
X028510Y010580D02*
X028511Y010523D01*
X028510Y010580D02*
X026830Y010580D01*
X024190Y010580D01*
X024187Y010523D01*
X023710Y010020D02*
X024190Y009540D01*
X024187Y009523D01*
X024190Y009460D01*
X028590Y009460D01*
X028611Y009523D01*
X028350Y010020D02*
X028030Y009700D01*
X028350Y010020D02*
X029950Y010020D01*
X032110Y010420D02*
X032110Y009540D01*
X032124Y009485D01*
X032110Y010420D02*
X032124Y010430D01*
X032110Y010500D01*
X032110Y011300D01*
X032124Y011375D01*
X034270Y010100D02*
X034430Y010260D01*
X034270Y010100D02*
X034270Y009140D01*
X035630Y006980D02*
X030110Y006980D01*
X028590Y007460D02*
X028611Y007523D01*
X028590Y007460D02*
X024190Y007460D01*
X024187Y007523D01*
X024110Y007540D01*
X024110Y007700D01*
X023790Y008020D01*
X024187Y008523D02*
X024190Y008580D01*
X024670Y008580D01*
X024670Y008260D01*
X024670Y008580D02*
X028510Y008580D01*
X028511Y008523D01*
X029511Y008523D02*
X029550Y008500D01*
X027550Y007220D02*
X027310Y006980D01*
X025230Y006980D01*
X024190Y006580D02*
X024187Y006523D01*
X024190Y006500D01*
X023710Y006020D01*
X024190Y006580D02*
X028510Y006580D01*
X028511Y006523D01*
X027230Y006340D02*
X026670Y005780D01*
X025150Y005780D01*
X025230Y004980D02*
X026750Y004980D01*
X027070Y005300D01*
X028510Y004580D02*
X028511Y004523D01*
X028510Y004580D02*
X024670Y004580D01*
X024190Y004580D01*
X024187Y004523D01*
X023710Y004020D02*
X024190Y003540D01*
X024187Y003523D01*
X024190Y003540D01*
X028590Y003540D01*
X028611Y003523D01*
X029611Y003523D02*
X029630Y003540D01*
X030990Y004900D01*
X035630Y004900D01*
X035630Y004420D02*
X031390Y004420D01*
X029550Y002580D01*
X029511Y002523D01*
X028511Y002523D02*
X028510Y002580D01*
X024670Y002580D01*
X024190Y002580D01*
X024187Y002523D01*
X026190Y004100D02*
X026590Y004100D01*
X026830Y004340D01*
X029511Y004523D02*
X029550Y004580D01*
X030350Y005380D01*
X035630Y005380D01*
X034190Y001700D02*
X034190Y001220D01*
X034190Y001180D01*
X022990Y006980D02*
X022990Y008100D01*
X022590Y008980D02*
X022590Y009140D01*
X022910Y009460D01*
X021013Y009379D02*
X020990Y009300D01*
X020990Y008900D01*
X020670Y008740D02*
X020670Y009300D01*
X020663Y009379D01*
X020990Y009380D02*
X021013Y009379D01*
X020990Y009380D02*
X020990Y010340D01*
X021013Y010402D01*
X020990Y010420D01*
X020990Y011380D01*
X021013Y011426D01*
X020670Y011380D02*
X020663Y011426D01*
X020670Y011380D02*
X020670Y010900D01*
X020663Y010402D02*
X020670Y010340D01*
X020670Y009940D01*
X019790Y008420D02*
X021550Y006660D01*
X022350Y006660D01*
X025230Y007700D02*
X025950Y007700D01*
X026590Y008340D01*
X018590Y006100D02*
X018590Y005940D01*
X015564Y005523D02*
X015550Y005540D01*
X010590Y005540D01*
X010583Y005523D01*
X010750Y006020D02*
X009310Y006020D01*
X005230Y001940D01*
X005230Y001220D01*
X005190Y001180D01*
X000590Y001080D02*
X000570Y001058D01*
X000590Y001080D01*
X000570Y001058D01*
X000590Y001080D01*
X000570Y001058D01*
X000590Y001080D01*
X000570Y001058D01*
X000590Y001080D01*
X000570Y001058D01*
X000590Y001080D01*
X003390Y004500D02*
X009470Y010580D01*
X009483Y010523D01*
X009150Y010020D02*
X008990Y009860D01*
X008990Y006180D01*
X010750Y006020D02*
X012990Y008260D01*
X012990Y008580D01*
X013070Y008660D01*
X013070Y009460D01*
X013139Y009485D01*
X013150Y009540D01*
X013150Y009940D01*
X013150Y010420D01*
X013139Y010430D01*
X013150Y010500D01*
X013150Y011300D01*
X013139Y011375D01*
X012830Y011300D02*
X012789Y011375D01*
X012830Y011300D02*
X012830Y010900D01*
X012789Y010430D02*
X012830Y010420D01*
X012830Y009940D01*
X012789Y009485D02*
X012830Y009460D01*
X012830Y008820D01*
X013230Y008420D02*
X014510Y009700D01*
X014910Y009700D02*
X014910Y011540D01*
X015550Y011540D01*
X015564Y011523D01*
X014910Y011540D02*
X013790Y011540D01*
X013390Y011940D01*
X010990Y011940D01*
X010590Y011540D01*
X010583Y011523D01*
X009583Y011523D02*
X009550Y011540D01*
X004990Y006980D01*
X004990Y008100D02*
X004990Y008900D01*
X006270Y010180D01*
X006270Y010740D01*
X008030Y012500D01*
X009470Y012500D01*
X009483Y012523D01*
X010483Y012523D02*
X010510Y012580D01*
X015550Y012580D01*
X015564Y012523D01*
X015564Y013523D02*
X015550Y013540D01*
X010590Y013540D01*
X010583Y013523D01*
X009583Y013523D02*
X009550Y013460D01*
X008750Y013460D01*
X006030Y010740D01*
X006030Y010180D01*
X004670Y008820D01*
X004670Y008260D01*
X004190Y008260D02*
X004190Y008580D01*
X005870Y010260D01*
X005870Y010900D01*
X009470Y014500D01*
X009483Y014523D01*
X010483Y014523D02*
X010510Y014580D01*
X015550Y014580D01*
X015564Y014523D01*
X015564Y015523D02*
X015550Y015540D01*
X010590Y015540D01*
X010583Y015523D01*
X009583Y015523D02*
X009550Y015460D01*
X005710Y011620D01*
X005710Y010340D01*
X003790Y008420D01*
X003790Y008260D01*
X003390Y008260D02*
X005550Y010420D01*
X005550Y012580D01*
X009150Y010020D02*
X009950Y010020D01*
X010430Y010500D01*
X010483Y010523D01*
X012430Y010500D02*
X012439Y010430D01*
X012430Y010420D01*
X012430Y009540D01*
X012439Y009485D01*
X012430Y010500D02*
X012430Y011300D01*
X012439Y011375D01*
X012510Y011380D01*
X012510Y011700D01*
X012590Y011780D01*
X013310Y011780D01*
X014670Y010420D01*
X015150Y010980D02*
X015550Y010580D01*
X015564Y010523D01*
X014910Y009700D02*
X014430Y009220D01*
X014430Y008100D01*
X014590Y007940D01*
X014670Y008260D02*
X014670Y008420D01*
X015550Y009300D01*
X015550Y009460D01*
X015564Y009523D01*
X015564Y008523D02*
X015550Y008500D01*
X014510Y007460D01*
X015070Y006980D02*
X015550Y007460D01*
X015564Y007523D01*
X016590Y008020D02*
X016750Y007860D01*
X016750Y003700D01*
X015564Y004523D02*
X015550Y004580D01*
X010510Y004580D01*
X010483Y004523D01*
X014510Y006500D02*
X015550Y006500D01*
X015564Y006523D01*
X003630Y008900D02*
X003070Y008900D01*
X002910Y008740D01*
X016313Y016523D02*
X016350Y016580D01*
X016350Y017460D01*
X016313Y017523D01*
X015564Y017523D02*
X015550Y017540D01*
X010590Y017540D01*
X010583Y017523D01*
X023439Y017523D02*
X023470Y017460D01*
X023470Y016580D01*
X023439Y016523D01*
X023470Y016500D01*
X023470Y015540D01*
X024187Y015523D02*
X024190Y015540D01*
X028590Y015540D01*
X028611Y015523D01*
X028510Y014580D02*
X026670Y014580D01*
X026670Y013940D01*
X026670Y014580D02*
X024190Y014580D01*
X024187Y014523D01*
X023710Y014020D02*
X024190Y013540D01*
X024187Y013523D01*
X024190Y013540D01*
X028590Y013540D01*
X028611Y013523D01*
X028511Y014523D02*
X028510Y014580D01*
D16*
X026670Y013940D03*
X023710Y014020D03*
X019950Y012180D03*
X019790Y011620D03*
X019550Y011380D03*
X020350Y010900D03*
X020670Y010900D03*
X020670Y009940D03*
X020990Y008900D03*
X020670Y008740D03*
X020270Y008340D03*
X020590Y008100D03*
X019150Y007860D03*
X018910Y008100D03*
X020030Y008900D03*
X022590Y008980D03*
X022830Y008740D03*
X022990Y008100D03*
X023790Y008020D03*
X024670Y008260D03*
X025230Y007700D03*
X026590Y008340D03*
X027550Y007220D03*
X027230Y006340D03*
X027070Y005300D03*
X026830Y004340D03*
X026190Y004100D03*
X024670Y004580D03*
X025230Y004980D03*
X024670Y005540D03*
X025150Y005780D03*
X023710Y006020D03*
X022350Y006660D03*
X022990Y006980D03*
X025230Y006980D03*
X022590Y005140D03*
X023710Y004020D03*
X024670Y002580D03*
X018590Y005940D03*
X017230Y005940D03*
X016990Y006340D03*
X018590Y006820D03*
X016590Y008020D03*
X014670Y008260D03*
X014590Y007940D03*
X014510Y007460D03*
X015070Y006980D03*
X014510Y006500D03*
X013230Y008420D03*
X012830Y008820D03*
X014510Y009700D03*
X014670Y010420D03*
X015150Y010980D03*
X016830Y011060D03*
X016830Y011460D03*
X016670Y012020D03*
X017470Y012500D03*
X016830Y012740D03*
X012830Y010900D03*
X012830Y009940D03*
X013150Y009940D03*
X018670Y010500D03*
X022910Y009460D03*
X023710Y010020D03*
X026830Y010580D03*
X027950Y010820D03*
X027630Y011300D03*
X028030Y009700D03*
X031310Y009300D03*
X032510Y009940D03*
X032830Y009940D03*
X034190Y010420D03*
X032510Y010900D03*
X034270Y009140D03*
X035630Y007940D03*
X035630Y007460D03*
X035630Y006980D03*
X035630Y006420D03*
X035630Y005940D03*
X035630Y005380D03*
X035630Y004900D03*
X035630Y004420D03*
X030590Y015460D03*
X031310Y015780D03*
X023710Y016020D03*
X004990Y008100D03*
X004670Y008260D03*
X004190Y008260D03*
X003790Y008260D03*
X003390Y008260D03*
X003630Y008900D03*
X002750Y008980D03*
X001310Y009940D03*
X000990Y009940D03*
X000990Y010900D03*
X001150Y011860D03*
X004990Y006980D03*
X008990Y006180D03*
X003390Y004500D03*
D17*
X003790Y004447D02*
X003790Y004334D01*
X003556Y004100D01*
X003230Y004100D01*
X003230Y003833D01*
X004852Y002211D01*
X004942Y002121D01*
X004950Y002100D01*
X004959Y002121D01*
X008721Y005883D01*
X008590Y006014D01*
X008590Y006346D01*
X008670Y006426D01*
X008670Y009327D01*
X003790Y004447D01*
X003803Y004460D02*
X007297Y004460D01*
X007456Y004618D02*
X003961Y004618D01*
X004120Y004777D02*
X007614Y004777D01*
X007773Y004935D02*
X004278Y004935D01*
X004437Y005094D02*
X007931Y005094D01*
X008090Y005252D02*
X004595Y005252D01*
X004754Y005411D02*
X008248Y005411D01*
X008407Y005569D02*
X004912Y005569D01*
X005071Y005728D02*
X008565Y005728D01*
X008719Y005886D02*
X005229Y005886D01*
X005388Y006045D02*
X008590Y006045D01*
X008590Y006203D02*
X005546Y006203D01*
X005705Y006362D02*
X008606Y006362D01*
X008670Y006520D02*
X005863Y006520D01*
X006022Y006679D02*
X008670Y006679D01*
X008670Y006837D02*
X006180Y006837D01*
X006339Y006996D02*
X008670Y006996D01*
X008670Y007154D02*
X006497Y007154D01*
X006656Y007313D02*
X008670Y007313D01*
X008670Y007471D02*
X006814Y007471D01*
X006973Y007630D02*
X008670Y007630D01*
X008670Y007788D02*
X007131Y007788D01*
X007290Y007947D02*
X008670Y007947D01*
X008670Y008105D02*
X007448Y008105D01*
X007607Y008264D02*
X008670Y008264D01*
X008670Y008422D02*
X007765Y008422D01*
X007924Y008581D02*
X008670Y008581D01*
X008670Y008739D02*
X008082Y008739D01*
X008241Y008898D02*
X008670Y008898D01*
X008670Y009056D02*
X008399Y009056D01*
X008558Y009215D02*
X008670Y009215D01*
X007248Y009690D02*
X006233Y009690D01*
X006075Y009532D02*
X007089Y009532D01*
X006931Y009373D02*
X005916Y009373D01*
X005758Y009215D02*
X006772Y009215D01*
X006614Y009056D02*
X005599Y009056D01*
X005441Y008898D02*
X006455Y008898D01*
X006297Y008739D02*
X005310Y008739D01*
X005310Y008767D02*
X006452Y009909D01*
X006542Y009999D01*
X006590Y010116D01*
X006590Y010607D01*
X008163Y012180D01*
X008921Y012180D01*
X008932Y012154D01*
X009114Y011973D01*
X009032Y011891D01*
X008933Y011652D01*
X008933Y011393D01*
X008938Y011380D01*
X004938Y007380D01*
X004825Y007380D01*
X004590Y007146D01*
X004590Y006814D01*
X004825Y006580D01*
X005018Y006580D01*
X003338Y004900D01*
X003230Y004900D01*
X003230Y007860D01*
X003556Y007860D01*
X003590Y007894D01*
X003625Y007860D01*
X003956Y007860D01*
X003990Y007894D01*
X004025Y007860D01*
X004356Y007860D01*
X004430Y007934D01*
X004505Y007860D01*
X004665Y007860D01*
X004825Y007700D01*
X005156Y007700D01*
X005390Y007934D01*
X005390Y008266D01*
X005310Y008346D01*
X005310Y008767D01*
X005310Y008581D02*
X006138Y008581D01*
X005980Y008422D02*
X005310Y008422D01*
X005390Y008264D02*
X005821Y008264D01*
X005663Y008105D02*
X005390Y008105D01*
X005390Y007947D02*
X005504Y007947D01*
X005346Y007788D02*
X005244Y007788D01*
X005187Y007630D02*
X003230Y007630D01*
X003230Y007788D02*
X004737Y007788D01*
X005029Y007471D02*
X003230Y007471D01*
X003230Y007313D02*
X004757Y007313D01*
X004599Y007154D02*
X003230Y007154D01*
X003230Y006996D02*
X004590Y006996D01*
X004590Y006837D02*
X003230Y006837D01*
X003230Y006679D02*
X004726Y006679D01*
X004958Y006520D02*
X003230Y006520D01*
X003230Y006362D02*
X004799Y006362D01*
X004641Y006203D02*
X003230Y006203D01*
X003230Y006045D02*
X004482Y006045D01*
X004324Y005886D02*
X003230Y005886D01*
X003230Y005728D02*
X004165Y005728D01*
X004007Y005569D02*
X003230Y005569D01*
X003230Y005411D02*
X003848Y005411D01*
X003690Y005252D02*
X003230Y005252D01*
X003230Y005094D02*
X003531Y005094D01*
X003373Y004935D02*
X003230Y004935D01*
X002590Y004935D02*
X000470Y004935D01*
X000470Y004777D02*
X002590Y004777D01*
X002590Y004618D02*
X000470Y004618D01*
X000470Y004460D02*
X002590Y004460D01*
X002590Y004301D02*
X000470Y004301D01*
X000470Y004143D02*
X002590Y004143D01*
X002590Y003984D02*
X002522Y003984D01*
X002590Y003964D02*
X002328Y004041D01*
X001793Y004041D01*
X001280Y003890D01*
X001280Y003890D01*
X000829Y003601D01*
X000829Y003601D01*
X000829Y003601D01*
X000479Y003196D01*
X000470Y003178D01*
X000470Y008955D01*
X000483Y008955D01*
X000489Y008949D01*
X000489Y008949D01*
X000969Y008469D01*
X001087Y008420D01*
X002590Y008420D01*
X002590Y003964D01*
X003230Y003984D02*
X006822Y003984D01*
X006980Y004143D02*
X003599Y004143D01*
X003757Y004301D02*
X007139Y004301D01*
X007569Y003826D02*
X009005Y003826D01*
X009032Y003891D02*
X008933Y003652D01*
X008933Y003393D01*
X009032Y003154D01*
X009114Y003073D01*
X008932Y002891D01*
X008833Y002652D01*
X008833Y002393D01*
X008932Y002154D01*
X009115Y001971D01*
X009354Y001873D01*
X009612Y001873D01*
X009851Y001971D01*
X009875Y001995D01*
X009876Y001994D01*
X009954Y001915D01*
X010057Y001873D01*
X010909Y001873D01*
X011012Y001915D01*
X011090Y001994D01*
X011133Y002097D01*
X011133Y002260D01*
X015029Y002260D01*
X015029Y002172D01*
X015071Y002069D01*
X015149Y001991D01*
X014698Y001540D01*
X006745Y001540D01*
X006742Y001548D01*
X006559Y001731D01*
X006320Y001830D01*
X006061Y001830D01*
X005822Y001731D01*
X005690Y001599D01*
X005559Y001731D01*
X005550Y001734D01*
X005550Y001807D01*
X008993Y005250D01*
X009032Y005154D01*
X009114Y005073D01*
X008932Y004891D01*
X008833Y004652D01*
X008833Y004393D01*
X008932Y004154D01*
X009114Y003973D01*
X009032Y003891D01*
X009102Y003984D02*
X007727Y003984D01*
X007886Y004143D02*
X008944Y004143D01*
X008871Y004301D02*
X008044Y004301D01*
X008203Y004460D02*
X008833Y004460D01*
X008833Y004618D02*
X008361Y004618D01*
X008520Y004777D02*
X008885Y004777D01*
X008976Y004935D02*
X008678Y004935D01*
X008837Y005094D02*
X009093Y005094D01*
X009952Y004973D02*
X010083Y005103D01*
X010114Y005073D01*
X009983Y004942D01*
X009952Y004973D01*
X010073Y005094D02*
X010093Y005094D01*
X010952Y004973D02*
X011025Y004900D01*
X015040Y004900D01*
X015071Y004976D01*
X015117Y005023D01*
X015071Y005069D01*
X015029Y005172D01*
X015029Y005220D01*
X011161Y005220D01*
X011134Y005154D01*
X010952Y004973D01*
X010990Y004935D02*
X015054Y004935D01*
X015061Y005094D02*
X011073Y005094D01*
X011147Y005860D02*
X011134Y005891D01*
X011104Y005921D01*
X013172Y007989D01*
X013203Y008020D01*
X013396Y008020D01*
X013630Y008254D01*
X013630Y008367D01*
X014110Y008847D01*
X014110Y008036D01*
X014159Y007919D01*
X014190Y007887D01*
X014190Y007774D01*
X014225Y007740D01*
X014110Y007626D01*
X014110Y007294D01*
X014345Y007060D01*
X014670Y007060D01*
X014670Y006900D01*
X014345Y006900D01*
X014110Y006666D01*
X014110Y006334D01*
X014345Y006100D01*
X014676Y006100D01*
X014756Y006180D01*
X015029Y006180D01*
X015029Y006172D01*
X015071Y006069D01*
X015117Y006023D01*
X015071Y005976D01*
X015029Y005873D01*
X015029Y005860D01*
X011147Y005860D01*
X011136Y005886D02*
X015034Y005886D01*
X015095Y006045D02*
X011228Y006045D01*
X011386Y006203D02*
X014242Y006203D01*
X014110Y006362D02*
X011545Y006362D01*
X011703Y006520D02*
X014110Y006520D01*
X014123Y006679D02*
X011862Y006679D01*
X012020Y006837D02*
X014282Y006837D01*
X014251Y007154D02*
X012337Y007154D01*
X012179Y006996D02*
X014670Y006996D01*
X014910Y007380D02*
X014910Y007407D01*
X015029Y007526D01*
X015029Y007391D01*
X015018Y007380D01*
X014910Y007380D01*
X014974Y007471D02*
X015029Y007471D01*
X014190Y007788D02*
X012971Y007788D01*
X012813Y007630D02*
X014114Y007630D01*
X014110Y007471D02*
X012654Y007471D01*
X012496Y007313D02*
X014110Y007313D01*
X014148Y007947D02*
X013130Y007947D01*
X013481Y008105D02*
X014110Y008105D01*
X014110Y008264D02*
X013630Y008264D01*
X013685Y008422D02*
X014110Y008422D01*
X014110Y008581D02*
X013844Y008581D01*
X014002Y008739D02*
X014110Y008739D01*
X014750Y008953D02*
X014750Y009087D01*
X015029Y009366D01*
X015029Y009231D01*
X014750Y008953D01*
X014750Y009056D02*
X014854Y009056D01*
X014878Y009215D02*
X015012Y009215D01*
X014110Y009753D02*
X013544Y009186D01*
X013544Y009768D01*
X013550Y009774D01*
X013550Y010106D01*
X013540Y010116D01*
X013544Y010124D01*
X013544Y010736D01*
X013501Y010839D01*
X013470Y010869D01*
X013470Y010935D01*
X013501Y010966D01*
X013544Y011069D01*
X013544Y011094D01*
X014270Y010367D01*
X014270Y010254D01*
X014425Y010100D01*
X014345Y010100D01*
X014110Y009866D01*
X014110Y009753D01*
X014048Y009690D02*
X013544Y009690D01*
X013544Y009532D02*
X013889Y009532D01*
X013731Y009373D02*
X013544Y009373D01*
X013544Y009215D02*
X013572Y009215D01*
X012430Y008955D02*
X012430Y008654D01*
X012665Y008420D01*
X012670Y008420D01*
X012670Y008393D01*
X011073Y006796D01*
X011034Y006891D01*
X010952Y006973D01*
X011134Y007154D01*
X011432Y007154D01*
X011590Y007313D02*
X011200Y007313D01*
X011233Y007393D02*
X011233Y007652D01*
X011134Y007891D01*
X010952Y008073D01*
X011034Y008154D01*
X011133Y008393D01*
X011133Y008652D01*
X011034Y008891D01*
X010952Y008973D01*
X011134Y009154D01*
X011233Y009393D01*
X011233Y009652D01*
X011134Y009891D01*
X010952Y010073D01*
X011034Y010154D01*
X011133Y010393D01*
X011133Y010652D01*
X011034Y010891D01*
X010952Y010973D01*
X011134Y011154D01*
X011233Y011393D01*
X011233Y011620D01*
X012034Y011620D01*
X012034Y011069D01*
X012077Y010966D01*
X012110Y010932D01*
X012110Y010873D01*
X012077Y010839D01*
X012034Y010736D01*
X012034Y010124D01*
X012077Y010021D01*
X012110Y009987D01*
X012110Y009928D01*
X012077Y009894D01*
X012034Y009791D01*
X012034Y009179D01*
X012077Y009077D01*
X012155Y008998D01*
X012258Y008955D01*
X012430Y008955D01*
X012430Y008898D02*
X011027Y008898D01*
X011036Y009056D02*
X012097Y009056D01*
X012034Y009215D02*
X011159Y009215D01*
X011225Y009373D02*
X012034Y009373D01*
X012034Y009532D02*
X011233Y009532D01*
X011217Y009690D02*
X012034Y009690D01*
X012058Y009849D02*
X011152Y009849D01*
X011018Y010007D02*
X012091Y010007D01*
X012034Y010166D02*
X011039Y010166D01*
X011104Y010324D02*
X012034Y010324D01*
X012034Y010483D02*
X011133Y010483D01*
X011133Y010641D02*
X012034Y010641D01*
X012060Y010800D02*
X011072Y010800D01*
X010967Y010958D02*
X012085Y010958D01*
X012034Y011117D02*
X011096Y011117D01*
X011184Y011275D02*
X012034Y011275D01*
X012034Y011434D02*
X011233Y011434D01*
X011233Y011592D02*
X012034Y011592D01*
X013493Y010958D02*
X013680Y010958D01*
X013838Y010800D02*
X013517Y010800D01*
X013544Y010641D02*
X013997Y010641D01*
X014155Y010483D02*
X013544Y010483D01*
X013544Y010324D02*
X014270Y010324D01*
X014359Y010166D02*
X013544Y010166D01*
X013550Y010007D02*
X014252Y010007D01*
X014110Y009849D02*
X013550Y009849D01*
X014590Y010953D02*
X014323Y011220D01*
X014590Y011220D01*
X014590Y010953D01*
X014590Y010958D02*
X014585Y010958D01*
X014590Y011117D02*
X014427Y011117D01*
X013923Y011860D02*
X013662Y012121D01*
X013572Y012211D01*
X013454Y012260D01*
X011078Y012260D01*
X011078Y012260D01*
X015029Y012260D01*
X015029Y012172D01*
X015071Y012069D01*
X015117Y012023D01*
X015071Y011976D01*
X015029Y011873D01*
X015029Y011860D01*
X013923Y011860D01*
X013874Y011909D02*
X015043Y011909D01*
X015072Y012068D02*
X013716Y012068D01*
X013536Y012226D02*
X015029Y012226D01*
X015040Y012900D02*
X011025Y012900D01*
X010952Y012973D01*
X011134Y013154D01*
X011161Y013220D01*
X015029Y013220D01*
X015029Y013172D01*
X015071Y013069D01*
X015117Y013023D01*
X015071Y012976D01*
X015040Y012900D01*
X015113Y013019D02*
X010998Y013019D01*
X011143Y013177D02*
X015029Y013177D01*
X015029Y013860D02*
X011147Y013860D01*
X011134Y013891D01*
X010952Y014073D01*
X011034Y014154D01*
X011078Y014260D01*
X015029Y014260D01*
X015029Y014172D01*
X015071Y014069D01*
X015117Y014023D01*
X015071Y013976D01*
X015029Y013873D01*
X015029Y013860D01*
X015068Y013970D02*
X011055Y013970D01*
X011008Y014128D02*
X015047Y014128D01*
X015040Y014900D02*
X011025Y014900D01*
X010952Y014973D01*
X011134Y015154D01*
X011161Y015220D01*
X015029Y015220D01*
X015029Y015172D01*
X015071Y015069D01*
X015117Y015023D01*
X015071Y014976D01*
X015040Y014900D01*
X015048Y014921D02*
X011004Y014921D01*
X011059Y015079D02*
X015067Y015079D01*
X015029Y015860D02*
X011147Y015860D01*
X011134Y015891D01*
X010952Y016073D01*
X011034Y016154D01*
X011078Y016260D01*
X015029Y016260D01*
X015029Y016172D01*
X015071Y016069D01*
X015117Y016023D01*
X015071Y015976D01*
X015029Y015873D01*
X015029Y015860D01*
X015029Y015872D02*
X011142Y015872D01*
X010995Y016030D02*
X015110Y016030D01*
X015029Y016189D02*
X011048Y016189D01*
X010114Y015973D02*
X010083Y015942D01*
X009952Y016073D01*
X009983Y016103D01*
X010114Y015973D01*
X010056Y016030D02*
X009995Y016030D01*
X008856Y016338D02*
X005279Y012761D01*
X005230Y012644D01*
X005230Y010553D01*
X003887Y009209D01*
X003796Y009300D01*
X003465Y009300D01*
X003385Y009220D01*
X003076Y009220D01*
X003070Y009226D01*
X003070Y013684D01*
X003022Y013801D01*
X002821Y014003D01*
X002840Y014051D01*
X002840Y014309D01*
X002742Y014548D01*
X002559Y014731D01*
X002320Y014830D01*
X002061Y014830D01*
X001822Y014731D01*
X001639Y014548D01*
X001540Y014309D01*
X001540Y014051D01*
X001639Y013812D01*
X001771Y013680D01*
X001639Y013548D01*
X001540Y013309D01*
X001540Y013051D01*
X001639Y012812D01*
X001822Y012629D01*
X002061Y012530D01*
X002320Y012530D01*
X002430Y012576D01*
X002430Y009226D01*
X002350Y009146D01*
X002350Y009060D01*
X001674Y009060D01*
X001690Y009077D01*
X001733Y009179D01*
X001733Y009791D01*
X001710Y009845D01*
X001710Y010070D01*
X001733Y010124D01*
X001733Y010736D01*
X001690Y010839D01*
X001630Y010898D01*
X001630Y010907D01*
X001690Y010966D01*
X001733Y011069D01*
X001733Y011681D01*
X001690Y011783D01*
X001611Y011862D01*
X001550Y011888D01*
X001550Y012026D01*
X001316Y012260D01*
X000985Y012260D01*
X000750Y012026D01*
X000750Y011913D01*
X000743Y011905D01*
X000470Y011905D01*
X000470Y016182D01*
X000479Y016164D01*
X000479Y016164D01*
X000829Y015759D01*
X000829Y015759D01*
X001280Y015470D01*
X001793Y015319D01*
X002328Y015319D01*
X002842Y015470D01*
X003292Y015759D01*
X003292Y015759D01*
X003292Y015759D01*
X003642Y016164D01*
X003864Y016650D01*
X003941Y017180D01*
X003864Y017710D01*
X003642Y018196D01*
X003642Y018196D01*
X003292Y018601D01*
X003292Y018601D01*
X002842Y018890D01*
X002842Y018890D01*
X002328Y019041D01*
X001793Y019041D01*
X001280Y018890D01*
X001280Y018890D01*
X000829Y018601D01*
X000829Y018601D01*
X000829Y018601D01*
X000479Y018196D01*
X000470Y018178D01*
X000470Y019585D01*
X039281Y019585D01*
X039281Y000460D01*
X037808Y000460D01*
X037842Y000470D01*
X038292Y000759D01*
X038292Y000759D01*
X038292Y000759D01*
X038642Y001164D01*
X038864Y001650D01*
X038941Y002180D01*
X038864Y002710D01*
X038642Y003196D01*
X038642Y003196D01*
X038292Y003601D01*
X038292Y003601D01*
X037842Y003890D01*
X037842Y003890D01*
X037328Y004041D01*
X036793Y004041D01*
X036280Y003890D01*
X036280Y003890D01*
X036190Y003833D01*
X036190Y008164D01*
X036142Y008281D01*
X036052Y008371D01*
X035972Y008451D01*
X035854Y008500D01*
X033363Y008500D01*
X033103Y008760D01*
X033172Y008789D01*
X033950Y009567D01*
X033950Y009386D01*
X033870Y009306D01*
X033870Y008974D01*
X034105Y008740D01*
X034436Y008740D01*
X034670Y008974D01*
X034670Y009306D01*
X034590Y009386D01*
X034590Y009967D01*
X034612Y009989D01*
X034702Y010079D01*
X034750Y010196D01*
X034750Y011284D01*
X034702Y011401D01*
X033499Y012604D01*
X033559Y012629D01*
X033742Y012812D01*
X033840Y013051D01*
X033840Y013309D01*
X033742Y013548D01*
X033610Y013680D01*
X033742Y013812D01*
X033840Y014051D01*
X033840Y014309D01*
X033742Y014548D01*
X033559Y014731D01*
X033320Y014830D01*
X033061Y014830D01*
X032822Y014731D01*
X032639Y014548D01*
X032540Y014309D01*
X032540Y014051D01*
X032639Y013812D01*
X032771Y013680D01*
X032639Y013548D01*
X032615Y013488D01*
X031790Y014313D01*
X031790Y014644D01*
X031742Y014761D01*
X030990Y015513D01*
X030990Y015534D01*
X031145Y015380D01*
X031476Y015380D01*
X031710Y015614D01*
X031710Y015946D01*
X031476Y016180D01*
X031363Y016180D01*
X030228Y017315D01*
X030261Y017393D01*
X030261Y017652D01*
X030162Y017891D01*
X029979Y018074D01*
X029740Y018173D01*
X029481Y018173D01*
X029242Y018074D01*
X029219Y018050D01*
X029218Y018051D01*
X029139Y018130D01*
X029036Y018173D01*
X028185Y018173D01*
X028082Y018130D01*
X028003Y018051D01*
X027961Y017948D01*
X027961Y017860D01*
X024722Y017860D01*
X024722Y017873D01*
X024680Y017976D01*
X024601Y018055D01*
X024498Y018098D01*
X024085Y018098D01*
X023972Y018211D01*
X023854Y018260D01*
X023007Y018260D01*
X022889Y018211D01*
X022799Y018121D01*
X022079Y017401D01*
X022030Y017284D01*
X022030Y008820D01*
X021390Y008820D01*
X021390Y009007D01*
X021418Y009073D01*
X021418Y009685D01*
X021375Y009787D01*
X021310Y009852D01*
X021310Y009929D01*
X021375Y009994D01*
X021418Y010097D01*
X021418Y010708D01*
X021375Y010811D01*
X021310Y010876D01*
X021310Y010953D01*
X021375Y011017D01*
X021418Y011120D01*
X021418Y011732D01*
X021375Y011835D01*
X021297Y011913D01*
X021194Y011956D01*
X020590Y011956D01*
X020590Y012324D01*
X020542Y012441D01*
X020452Y012531D01*
X019732Y013251D01*
X019614Y013300D01*
X016848Y013300D01*
X016848Y013873D01*
X016806Y013976D01*
X016760Y014023D01*
X016806Y014069D01*
X016848Y014172D01*
X016848Y014873D01*
X016806Y014976D01*
X016760Y015023D01*
X016806Y015069D01*
X016848Y015172D01*
X016848Y015873D01*
X016806Y015976D01*
X016760Y016023D01*
X016806Y016069D01*
X016848Y016172D01*
X016848Y016873D01*
X016806Y016976D01*
X016760Y017023D01*
X016806Y017069D01*
X016848Y017172D01*
X016848Y017873D01*
X016806Y017976D01*
X016727Y018055D01*
X016624Y018098D01*
X016001Y018098D01*
X015939Y018072D01*
X015876Y018098D01*
X015253Y018098D01*
X015150Y018055D01*
X015071Y017976D01*
X015029Y017873D01*
X015029Y017860D01*
X011233Y017860D01*
X011233Y017948D01*
X011190Y018051D01*
X011112Y018130D01*
X011009Y018173D01*
X010157Y018173D01*
X010054Y018130D01*
X009976Y018051D01*
X009975Y018050D01*
X009951Y018074D01*
X009712Y018173D01*
X009454Y018173D01*
X009215Y018074D01*
X009032Y017891D01*
X008933Y017652D01*
X008933Y017393D01*
X009032Y017154D01*
X009114Y017073D01*
X008932Y016891D01*
X008833Y016652D01*
X008833Y016393D01*
X008856Y016338D01*
X008852Y016347D02*
X003726Y016347D01*
X003798Y016506D02*
X008833Y016506D01*
X008838Y016664D02*
X003866Y016664D01*
X003864Y016650D02*
X003864Y016650D01*
X003889Y016823D02*
X008904Y016823D01*
X009022Y016981D02*
X003912Y016981D01*
X003935Y017140D02*
X009047Y017140D01*
X008972Y017298D02*
X003924Y017298D01*
X003901Y017457D02*
X008933Y017457D01*
X008933Y017615D02*
X003878Y017615D01*
X003864Y017710D02*
X003864Y017710D01*
X003835Y017774D02*
X008983Y017774D01*
X009073Y017932D02*
X003763Y017932D01*
X003690Y018091D02*
X009256Y018091D01*
X009910Y018091D02*
X010015Y018091D01*
X011151Y018091D02*
X015235Y018091D01*
X015053Y017932D02*
X011233Y017932D01*
X011233Y017220D02*
X015029Y017220D01*
X015029Y017172D01*
X015071Y017069D01*
X015117Y017023D01*
X015071Y016976D01*
X015040Y016900D01*
X011075Y016900D01*
X011112Y016915D01*
X011190Y016994D01*
X011233Y017097D01*
X011233Y017220D01*
X011233Y017140D02*
X015042Y017140D01*
X015076Y016981D02*
X011177Y016981D01*
X010005Y016964D02*
X009983Y016942D01*
X009952Y016973D01*
X009975Y016995D01*
X009976Y016994D01*
X010005Y016964D01*
X009989Y016981D02*
X009961Y016981D01*
X008706Y016189D02*
X003654Y016189D01*
X003642Y016164D02*
X003642Y016164D01*
X003526Y016030D02*
X008548Y016030D01*
X008389Y015872D02*
X003389Y015872D01*
X003220Y015713D02*
X008231Y015713D01*
X008072Y015555D02*
X002973Y015555D01*
X002842Y015470D02*
X002842Y015470D01*
X002590Y015396D02*
X007914Y015396D01*
X007755Y015238D02*
X000470Y015238D01*
X000470Y015396D02*
X001531Y015396D01*
X001280Y015470D02*
X001280Y015470D01*
X001148Y015555D02*
X000470Y015555D01*
X000470Y015713D02*
X000901Y015713D01*
X000732Y015872D02*
X000470Y015872D01*
X000470Y016030D02*
X000595Y016030D01*
X000470Y015079D02*
X007597Y015079D01*
X007438Y014921D02*
X000470Y014921D01*
X000470Y014762D02*
X001897Y014762D01*
X001695Y014604D02*
X000470Y014604D01*
X000470Y014445D02*
X001597Y014445D01*
X001540Y014287D02*
X000470Y014287D01*
X000470Y014128D02*
X001540Y014128D01*
X001574Y013970D02*
X000470Y013970D01*
X000470Y013811D02*
X001640Y013811D01*
X001744Y013653D02*
X000470Y013653D01*
X000470Y013494D02*
X001617Y013494D01*
X001551Y013336D02*
X000470Y013336D01*
X000470Y013177D02*
X001540Y013177D01*
X001554Y013019D02*
X000470Y013019D01*
X000470Y012860D02*
X001619Y012860D01*
X001750Y012702D02*
X000470Y012702D01*
X000470Y012543D02*
X002030Y012543D01*
X002351Y012543D02*
X002430Y012543D01*
X002430Y012385D02*
X000470Y012385D01*
X000470Y012226D02*
X000951Y012226D01*
X000792Y012068D02*
X000470Y012068D01*
X000470Y011909D02*
X000747Y011909D01*
X001350Y012226D02*
X002430Y012226D01*
X002430Y012068D02*
X001509Y012068D01*
X001550Y011909D02*
X002430Y011909D01*
X002430Y011751D02*
X001704Y011751D01*
X001733Y011592D02*
X002430Y011592D01*
X002430Y011434D02*
X001733Y011434D01*
X001733Y011275D02*
X002430Y011275D01*
X002430Y011117D02*
X001733Y011117D01*
X001682Y010958D02*
X002430Y010958D01*
X002430Y010800D02*
X001706Y010800D01*
X001733Y010641D02*
X002430Y010641D01*
X002430Y010483D02*
X001733Y010483D01*
X001733Y010324D02*
X002430Y010324D01*
X002430Y010166D02*
X001733Y010166D01*
X001710Y010007D02*
X002430Y010007D01*
X002430Y009849D02*
X001710Y009849D01*
X001733Y009690D02*
X002430Y009690D01*
X002430Y009532D02*
X001733Y009532D01*
X001733Y009373D02*
X002430Y009373D01*
X002419Y009215D02*
X001733Y009215D01*
X001082Y008422D02*
X000470Y008422D01*
X000470Y008264D02*
X002590Y008264D01*
X002590Y008105D02*
X000470Y008105D01*
X000470Y007947D02*
X002590Y007947D01*
X002590Y007788D02*
X000470Y007788D01*
X000470Y007630D02*
X002590Y007630D01*
X002590Y007471D02*
X000470Y007471D01*
X000470Y007313D02*
X002590Y007313D01*
X002590Y007154D02*
X000470Y007154D01*
X000470Y006996D02*
X002590Y006996D01*
X002590Y006837D02*
X000470Y006837D01*
X000470Y006679D02*
X002590Y006679D01*
X002590Y006520D02*
X000470Y006520D01*
X000470Y006362D02*
X002590Y006362D01*
X002590Y006203D02*
X000470Y006203D01*
X000470Y006045D02*
X002590Y006045D01*
X002590Y005886D02*
X000470Y005886D01*
X000470Y005728D02*
X002590Y005728D01*
X002590Y005569D02*
X000470Y005569D01*
X000470Y005411D02*
X002590Y005411D01*
X002590Y005252D02*
X000470Y005252D01*
X000470Y005094D02*
X002590Y005094D01*
X003238Y003826D02*
X006663Y003826D01*
X006505Y003667D02*
X003396Y003667D01*
X003555Y003509D02*
X006346Y003509D01*
X006188Y003350D02*
X003713Y003350D01*
X003872Y003192D02*
X006029Y003192D01*
X005871Y003033D02*
X004030Y003033D01*
X004189Y002875D02*
X005712Y002875D01*
X005554Y002716D02*
X004347Y002716D01*
X004506Y002558D02*
X005395Y002558D01*
X005237Y002399D02*
X004664Y002399D01*
X004823Y002241D02*
X005078Y002241D01*
X005667Y001924D02*
X009231Y001924D01*
X009004Y002082D02*
X005825Y002082D01*
X005984Y002241D02*
X008896Y002241D01*
X008833Y002399D02*
X006142Y002399D01*
X006301Y002558D02*
X008833Y002558D01*
X008860Y002716D02*
X006459Y002716D01*
X006618Y002875D02*
X008925Y002875D01*
X009074Y003033D02*
X006776Y003033D01*
X006935Y003192D02*
X009017Y003192D01*
X008951Y003350D02*
X007093Y003350D01*
X007252Y003509D02*
X008933Y003509D01*
X008939Y003667D02*
X007410Y003667D01*
X009952Y004073D02*
X010083Y003942D01*
X010114Y003973D01*
X009983Y004103D01*
X009952Y004073D01*
X010041Y003984D02*
X010102Y003984D01*
X010952Y004073D02*
X011034Y004154D01*
X011078Y004260D01*
X015029Y004260D01*
X015029Y004172D01*
X015071Y004069D01*
X015117Y004023D01*
X015071Y003976D01*
X015029Y003873D01*
X015029Y003860D01*
X011147Y003860D01*
X011134Y003891D01*
X010952Y004073D01*
X011022Y004143D02*
X015041Y004143D01*
X015079Y003984D02*
X011041Y003984D01*
X011161Y003220D02*
X015029Y003220D01*
X015029Y003172D01*
X015071Y003069D01*
X015117Y003023D01*
X015071Y002976D01*
X015040Y002900D01*
X011133Y002900D01*
X011133Y002948D01*
X011090Y003051D01*
X011061Y003081D01*
X011134Y003154D01*
X011161Y003220D01*
X011149Y003192D02*
X015029Y003192D01*
X015107Y003033D02*
X011098Y003033D01*
X011133Y002241D02*
X015029Y002241D01*
X015066Y002082D02*
X011127Y002082D01*
X011020Y001924D02*
X015081Y001924D01*
X014923Y001765D02*
X006477Y001765D01*
X006683Y001607D02*
X014764Y001607D01*
X015930Y001780D02*
X016111Y001599D01*
X016192Y001681D01*
X016431Y001780D01*
X016690Y001780D01*
X016929Y001681D01*
X017011Y001599D01*
X017192Y001781D01*
X017431Y001880D01*
X017690Y001880D01*
X017929Y001781D01*
X018111Y001599D01*
X018192Y001681D01*
X018280Y001718D01*
X016842Y003156D01*
X016806Y003069D01*
X016760Y003023D01*
X016806Y002976D01*
X016848Y002873D01*
X016848Y002172D01*
X016806Y002069D01*
X016727Y001990D01*
X016624Y001947D01*
X016170Y001947D01*
X016052Y001829D01*
X015934Y001780D01*
X015930Y001780D01*
X015945Y001765D02*
X016395Y001765D01*
X016147Y001924D02*
X018074Y001924D01*
X017945Y001765D02*
X018233Y001765D01*
X018118Y001607D02*
X018103Y001607D01*
X017916Y002082D02*
X016811Y002082D01*
X016848Y002241D02*
X017757Y002241D01*
X017599Y002399D02*
X016848Y002399D01*
X016848Y002558D02*
X017440Y002558D01*
X017282Y002716D02*
X016848Y002716D01*
X016848Y002875D02*
X017123Y002875D01*
X016965Y003033D02*
X016770Y003033D01*
X017795Y003509D02*
X020750Y003509D01*
X020750Y003667D02*
X017636Y003667D01*
X017478Y003826D02*
X020750Y003826D01*
X020750Y003984D02*
X017319Y003984D01*
X017310Y003993D02*
X017310Y005540D01*
X017396Y005540D01*
X017630Y005774D01*
X017630Y006106D01*
X017550Y006186D01*
X017550Y006687D01*
X018190Y006047D01*
X018190Y005774D01*
X018425Y005540D01*
X018756Y005540D01*
X018990Y005774D01*
X018990Y006106D01*
X018895Y006201D01*
X018862Y006281D01*
X018723Y006420D01*
X018756Y006420D01*
X018990Y006654D01*
X018990Y006986D01*
X018910Y007066D01*
X018910Y007247D01*
X020750Y005407D01*
X020750Y001755D01*
X020690Y001780D01*
X020431Y001780D01*
X020192Y001681D01*
X020111Y001599D01*
X019929Y001781D01*
X019690Y001880D01*
X019431Y001880D01*
X019425Y001878D01*
X017310Y003993D01*
X017310Y004143D02*
X020750Y004143D01*
X020750Y004301D02*
X017310Y004301D01*
X017310Y004460D02*
X020750Y004460D01*
X020750Y004618D02*
X017310Y004618D01*
X017310Y004777D02*
X020750Y004777D01*
X020750Y004935D02*
X017310Y004935D01*
X017310Y005094D02*
X020750Y005094D01*
X020750Y005252D02*
X017310Y005252D01*
X017310Y005411D02*
X020747Y005411D01*
X020589Y005569D02*
X018785Y005569D01*
X018944Y005728D02*
X020430Y005728D01*
X020272Y005886D02*
X018990Y005886D01*
X018990Y006045D02*
X020113Y006045D01*
X019955Y006203D02*
X018894Y006203D01*
X018782Y006362D02*
X019796Y006362D01*
X019638Y006520D02*
X018856Y006520D01*
X018990Y006679D02*
X019479Y006679D01*
X019321Y006837D02*
X018990Y006837D01*
X018981Y006996D02*
X019162Y006996D01*
X019004Y007154D02*
X018910Y007154D01*
X018270Y007154D02*
X017989Y007154D01*
X017831Y007313D02*
X018270Y007313D01*
X018270Y007471D02*
X017710Y007471D01*
X017710Y007433D02*
X017710Y008207D01*
X018270Y007647D01*
X018270Y007066D01*
X018190Y006986D01*
X018190Y006953D01*
X017710Y007433D01*
X017710Y007630D02*
X018270Y007630D01*
X018130Y007788D02*
X017710Y007788D01*
X017710Y007947D02*
X017971Y007947D01*
X017813Y008105D02*
X017710Y008105D01*
X018243Y008581D02*
X018350Y008581D01*
X018350Y008473D02*
X017870Y008953D01*
X017870Y011204D01*
X017840Y011278D01*
X018361Y010757D01*
X018270Y010666D01*
X018270Y010334D01*
X018350Y010254D01*
X018350Y008473D01*
X018350Y008739D02*
X018084Y008739D01*
X017926Y008898D02*
X018350Y008898D01*
X018350Y009056D02*
X017870Y009056D01*
X017870Y009215D02*
X018350Y009215D01*
X018350Y009373D02*
X017870Y009373D01*
X017870Y009532D02*
X018350Y009532D01*
X018350Y009690D02*
X017870Y009690D01*
X017870Y009849D02*
X018350Y009849D01*
X018350Y010007D02*
X017870Y010007D01*
X017870Y010166D02*
X018350Y010166D01*
X018281Y010324D02*
X017870Y010324D01*
X017870Y010483D02*
X018270Y010483D01*
X018270Y010641D02*
X017870Y010641D01*
X017870Y010800D02*
X018318Y010800D01*
X018160Y010958D02*
X017870Y010958D01*
X017870Y011117D02*
X018001Y011117D01*
X017843Y011275D02*
X017841Y011275D01*
X018673Y011751D02*
X019068Y011751D01*
X019039Y011721D02*
X018990Y011604D01*
X018990Y011433D01*
X017870Y012553D01*
X017870Y012660D01*
X019418Y012660D01*
X019641Y012437D01*
X019550Y012346D01*
X019550Y012233D01*
X019039Y011721D01*
X018990Y011592D02*
X018831Y011592D01*
X018990Y011434D02*
X018990Y011434D01*
X019227Y011909D02*
X018514Y011909D01*
X018356Y012068D02*
X019385Y012068D01*
X019544Y012226D02*
X018197Y012226D01*
X018039Y012385D02*
X019589Y012385D01*
X019535Y012543D02*
X017880Y012543D01*
X016848Y013336D02*
X022030Y013336D01*
X022030Y013494D02*
X016848Y013494D01*
X016848Y013653D02*
X022030Y013653D01*
X022030Y013811D02*
X016848Y013811D01*
X016809Y013970D02*
X022030Y013970D01*
X022030Y014128D02*
X016830Y014128D01*
X016848Y014287D02*
X022030Y014287D01*
X022030Y014445D02*
X016848Y014445D01*
X016848Y014604D02*
X022030Y014604D01*
X022030Y014762D02*
X016848Y014762D01*
X016829Y014921D02*
X022030Y014921D01*
X022030Y015079D02*
X016810Y015079D01*
X016848Y015238D02*
X022030Y015238D01*
X022030Y015396D02*
X016848Y015396D01*
X016848Y015555D02*
X022030Y015555D01*
X022030Y015713D02*
X016848Y015713D01*
X016848Y015872D02*
X022030Y015872D01*
X022030Y016030D02*
X016767Y016030D01*
X016848Y016189D02*
X022030Y016189D01*
X022030Y016347D02*
X016848Y016347D01*
X016848Y016506D02*
X022030Y016506D01*
X022030Y016664D02*
X016848Y016664D01*
X016848Y016823D02*
X022030Y016823D01*
X022030Y016981D02*
X016801Y016981D01*
X016835Y017140D02*
X022030Y017140D01*
X022036Y017298D02*
X016848Y017298D01*
X016848Y017457D02*
X022134Y017457D01*
X022293Y017615D02*
X016848Y017615D01*
X016848Y017774D02*
X022451Y017774D01*
X022610Y017932D02*
X016824Y017932D01*
X016642Y018091D02*
X022768Y018091D01*
X022980Y018249D02*
X003597Y018249D01*
X003459Y018408D02*
X035662Y018408D01*
X035799Y018566D02*
X003322Y018566D01*
X003099Y018725D02*
X036022Y018725D01*
X035829Y018601D02*
X035829Y018601D01*
X035829Y018601D01*
X035479Y018196D01*
X035257Y017710D01*
X035257Y017710D01*
X035181Y017180D01*
X035257Y016650D01*
X035479Y016164D01*
X035479Y016164D01*
X035829Y015759D01*
X035829Y015759D01*
X036280Y015470D01*
X036793Y015319D01*
X037328Y015319D01*
X037842Y015470D01*
X038292Y015759D01*
X038292Y015759D01*
X038292Y015759D01*
X038642Y016164D01*
X038864Y016650D01*
X038941Y017180D01*
X038864Y017710D01*
X038642Y018196D01*
X038292Y018601D01*
X038292Y018601D01*
X037842Y018890D01*
X037328Y019041D01*
X036793Y019041D01*
X036280Y018890D01*
X036280Y018890D01*
X035829Y018601D01*
X035525Y018249D02*
X023881Y018249D01*
X024516Y018091D02*
X028043Y018091D01*
X027961Y017932D02*
X024698Y017932D01*
X024722Y017220D02*
X027961Y017220D01*
X027961Y017097D01*
X028003Y016994D01*
X028033Y016964D01*
X027969Y016900D01*
X024711Y016900D01*
X024680Y016976D01*
X024634Y017023D01*
X024680Y017069D01*
X024722Y017172D01*
X024722Y017220D01*
X024709Y017140D02*
X027961Y017140D01*
X028016Y016981D02*
X024675Y016981D01*
X024722Y016260D02*
X027916Y016260D01*
X027960Y016154D01*
X028141Y015973D01*
X028060Y015891D01*
X028047Y015860D01*
X024722Y015860D01*
X024722Y015873D01*
X024680Y015976D01*
X024634Y016023D01*
X024680Y016069D01*
X024722Y016172D01*
X024722Y016260D01*
X024722Y016189D02*
X027945Y016189D01*
X028084Y016030D02*
X024641Y016030D01*
X024722Y015872D02*
X028052Y015872D01*
X028980Y016073D02*
X029011Y016103D01*
X029141Y015973D01*
X029111Y015942D01*
X028980Y016073D01*
X029022Y016030D02*
X029084Y016030D01*
X030146Y016357D02*
X030161Y016393D01*
X030161Y016477D01*
X030910Y015727D01*
X030910Y015706D01*
X030756Y015860D01*
X030430Y015860D01*
X030430Y016004D01*
X030382Y016121D01*
X030146Y016357D01*
X030156Y016347D02*
X030291Y016347D01*
X030315Y016189D02*
X030449Y016189D01*
X030420Y016030D02*
X030608Y016030D01*
X030766Y015872D02*
X030430Y015872D01*
X030903Y015713D02*
X030910Y015713D01*
X031107Y015396D02*
X031129Y015396D01*
X031266Y015238D02*
X039281Y015238D01*
X039281Y015396D02*
X037590Y015396D01*
X037842Y015470D02*
X037842Y015470D01*
X037973Y015555D02*
X039281Y015555D01*
X039281Y015713D02*
X038220Y015713D01*
X038389Y015872D02*
X039281Y015872D01*
X039281Y016030D02*
X038526Y016030D01*
X038642Y016164D02*
X038642Y016164D01*
X038654Y016189D02*
X039281Y016189D01*
X039281Y016347D02*
X038726Y016347D01*
X038798Y016506D02*
X039281Y016506D01*
X039281Y016664D02*
X038866Y016664D01*
X038864Y016650D02*
X038864Y016650D01*
X038889Y016823D02*
X039281Y016823D01*
X039281Y016981D02*
X038912Y016981D01*
X038935Y017140D02*
X039281Y017140D01*
X039281Y017298D02*
X038924Y017298D01*
X038901Y017457D02*
X039281Y017457D01*
X039281Y017615D02*
X038878Y017615D01*
X038835Y017774D02*
X039281Y017774D01*
X039281Y017932D02*
X038763Y017932D01*
X038690Y018091D02*
X039281Y018091D01*
X039281Y018249D02*
X038597Y018249D01*
X038642Y018196D02*
X038642Y018196D01*
X038459Y018408D02*
X039281Y018408D01*
X039281Y018566D02*
X038322Y018566D01*
X038099Y018725D02*
X039281Y018725D01*
X039281Y018883D02*
X037853Y018883D01*
X037842Y018890D02*
X037842Y018890D01*
X039281Y019042D02*
X000470Y019042D01*
X000470Y019200D02*
X039281Y019200D01*
X039281Y019359D02*
X000470Y019359D01*
X000470Y019517D02*
X039281Y019517D01*
X036269Y018883D02*
X002853Y018883D01*
X001269Y018883D02*
X000470Y018883D01*
X000470Y018725D02*
X001022Y018725D01*
X000799Y018566D02*
X000470Y018566D01*
X000470Y018408D02*
X000662Y018408D01*
X000525Y018249D02*
X000470Y018249D01*
X000479Y018196D02*
X000479Y018196D01*
X002484Y014762D02*
X007280Y014762D01*
X007121Y014604D02*
X002686Y014604D01*
X002784Y014445D02*
X006963Y014445D01*
X006804Y014287D02*
X002840Y014287D01*
X002840Y014128D02*
X006646Y014128D01*
X006487Y013970D02*
X002854Y013970D01*
X003012Y013811D02*
X006329Y013811D01*
X006170Y013653D02*
X003070Y013653D01*
X003070Y013494D02*
X006012Y013494D01*
X005853Y013336D02*
X003070Y013336D01*
X003070Y013177D02*
X005695Y013177D01*
X005536Y013019D02*
X003070Y013019D01*
X003070Y012860D02*
X005378Y012860D01*
X005254Y012702D02*
X003070Y012702D01*
X003070Y012543D02*
X005230Y012543D01*
X005230Y012385D02*
X003070Y012385D01*
X003070Y012226D02*
X005230Y012226D01*
X005230Y012068D02*
X003070Y012068D01*
X003070Y011909D02*
X005230Y011909D01*
X005230Y011751D02*
X003070Y011751D01*
X003070Y011592D02*
X005230Y011592D01*
X005230Y011434D02*
X003070Y011434D01*
X003070Y011275D02*
X005230Y011275D01*
X005230Y011117D02*
X003070Y011117D01*
X003070Y010958D02*
X005230Y010958D01*
X005230Y010800D02*
X003070Y010800D01*
X003070Y010641D02*
X005230Y010641D01*
X005160Y010483D02*
X003070Y010483D01*
X003070Y010324D02*
X005002Y010324D01*
X004843Y010166D02*
X003070Y010166D01*
X003070Y010007D02*
X004685Y010007D01*
X004526Y009849D02*
X003070Y009849D01*
X003070Y009690D02*
X004368Y009690D01*
X004209Y009532D02*
X003070Y009532D01*
X003070Y009373D02*
X004051Y009373D01*
X003892Y009215D02*
X003882Y009215D01*
X006392Y009849D02*
X007406Y009849D01*
X007565Y010007D02*
X006545Y010007D01*
X006590Y010166D02*
X007723Y010166D01*
X007882Y010324D02*
X006590Y010324D01*
X006590Y010483D02*
X008040Y010483D01*
X008199Y010641D02*
X006624Y010641D01*
X006783Y010800D02*
X008357Y010800D01*
X008516Y010958D02*
X006941Y010958D01*
X007100Y011117D02*
X008674Y011117D01*
X008833Y011275D02*
X007258Y011275D01*
X007417Y011434D02*
X008933Y011434D01*
X008933Y011592D02*
X007575Y011592D01*
X007734Y011751D02*
X008974Y011751D01*
X009050Y011909D02*
X007892Y011909D01*
X008051Y012068D02*
X009019Y012068D01*
X008903Y012820D02*
X008563Y012820D01*
X008883Y013140D01*
X009046Y013140D01*
X009114Y013073D01*
X008932Y012891D01*
X008903Y012820D01*
X008919Y012860D02*
X008603Y012860D01*
X008762Y013019D02*
X009060Y013019D01*
X009952Y012973D02*
X009983Y012942D01*
X010114Y013073D01*
X010083Y013103D01*
X009952Y012973D01*
X009998Y013019D02*
X010060Y013019D01*
X009983Y012103D02*
X010114Y011973D01*
X010083Y011942D01*
X009952Y012073D01*
X009983Y012103D01*
X009957Y012068D02*
X010019Y012068D01*
X010083Y011103D02*
X010114Y011073D01*
X010091Y011050D01*
X010090Y011051D01*
X010061Y011081D01*
X010083Y011103D01*
X006656Y013019D02*
X006442Y013019D01*
X006498Y012860D02*
X006283Y012860D01*
X006339Y012702D02*
X006125Y012702D01*
X006181Y012543D02*
X005966Y012543D01*
X005870Y012447D02*
X005870Y012233D01*
X008962Y015324D01*
X008933Y015393D01*
X008933Y015510D01*
X005870Y012447D01*
X005870Y012385D02*
X006022Y012385D01*
X006600Y013177D02*
X006815Y013177D01*
X006759Y013336D02*
X006973Y013336D01*
X006917Y013494D02*
X007132Y013494D01*
X007076Y013653D02*
X007290Y013653D01*
X007234Y013811D02*
X007449Y013811D01*
X007393Y013970D02*
X007607Y013970D01*
X007551Y014128D02*
X007766Y014128D01*
X007710Y014287D02*
X007924Y014287D01*
X007868Y014445D02*
X008083Y014445D01*
X008027Y014604D02*
X008241Y014604D01*
X008185Y014762D02*
X008400Y014762D01*
X008344Y014921D02*
X008558Y014921D01*
X008502Y015079D02*
X008717Y015079D01*
X008661Y015238D02*
X008875Y015238D01*
X008819Y015396D02*
X008933Y015396D01*
X009952Y014973D02*
X009983Y014942D01*
X010114Y015073D01*
X010083Y015103D01*
X009952Y014973D01*
X010059Y015079D02*
X010107Y015079D01*
X009983Y014103D02*
X010114Y013973D01*
X010083Y013942D01*
X009952Y014073D01*
X009983Y014103D01*
X010055Y013970D02*
X010111Y013970D01*
X016848Y010590D02*
X016910Y010527D01*
X016910Y008266D01*
X016848Y008328D01*
X016848Y008873D01*
X016806Y008976D01*
X016760Y009023D01*
X016806Y009069D01*
X016848Y009172D01*
X016848Y009873D01*
X016806Y009976D01*
X016760Y010023D01*
X016806Y010069D01*
X016848Y010172D01*
X016848Y010590D01*
X016848Y010483D02*
X016910Y010483D01*
X016910Y010324D02*
X016848Y010324D01*
X016846Y010166D02*
X016910Y010166D01*
X016910Y010007D02*
X016775Y010007D01*
X016848Y009849D02*
X016910Y009849D01*
X016910Y009690D02*
X016848Y009690D01*
X016848Y009532D02*
X016910Y009532D01*
X016910Y009373D02*
X016848Y009373D01*
X016848Y009215D02*
X016910Y009215D01*
X016910Y009056D02*
X016793Y009056D01*
X016838Y008898D02*
X016910Y008898D01*
X016910Y008739D02*
X016848Y008739D01*
X016848Y008581D02*
X016910Y008581D01*
X016910Y008422D02*
X016848Y008422D01*
X019460Y007603D02*
X019550Y007694D01*
X019550Y007727D01*
X022190Y005087D01*
X022190Y004974D01*
X022425Y004740D01*
X022756Y004740D01*
X022912Y004896D01*
X022903Y004873D01*
X022903Y004172D01*
X022945Y004069D01*
X022991Y004023D01*
X022945Y003976D01*
X022903Y003873D01*
X022903Y003172D01*
X022945Y003069D01*
X022991Y003023D01*
X022945Y002976D01*
X022903Y002873D01*
X022903Y002810D01*
X022809Y002771D01*
X022719Y002681D01*
X021851Y001813D01*
X021690Y001880D01*
X021431Y001880D01*
X021390Y001863D01*
X021390Y005604D01*
X021342Y005721D01*
X019460Y007603D01*
X019486Y007630D02*
X019648Y007630D01*
X019592Y007471D02*
X019807Y007471D01*
X019751Y007313D02*
X019965Y007313D01*
X019909Y007154D02*
X020124Y007154D01*
X020068Y006996D02*
X020282Y006996D01*
X020226Y006837D02*
X020441Y006837D01*
X020385Y006679D02*
X020599Y006679D01*
X020543Y006520D02*
X020758Y006520D01*
X020702Y006362D02*
X020916Y006362D01*
X020860Y006203D02*
X021075Y006203D01*
X021019Y006045D02*
X021233Y006045D01*
X021177Y005886D02*
X021392Y005886D01*
X021336Y005728D02*
X021550Y005728D01*
X021709Y005569D02*
X021390Y005569D01*
X021390Y005411D02*
X021867Y005411D01*
X022026Y005252D02*
X021390Y005252D01*
X021390Y005094D02*
X022184Y005094D01*
X022230Y004935D02*
X021390Y004935D01*
X021390Y004777D02*
X022388Y004777D01*
X022793Y004777D02*
X022903Y004777D01*
X022903Y004618D02*
X021390Y004618D01*
X021390Y004460D02*
X022903Y004460D01*
X022903Y004301D02*
X021390Y004301D01*
X021390Y004143D02*
X022915Y004143D01*
X022953Y003984D02*
X021390Y003984D01*
X021390Y003826D02*
X022903Y003826D01*
X022903Y003667D02*
X021390Y003667D01*
X021390Y003509D02*
X022903Y003509D01*
X022903Y003350D02*
X021390Y003350D01*
X021390Y003192D02*
X022903Y003192D01*
X022981Y003033D02*
X021390Y003033D01*
X021390Y002875D02*
X022903Y002875D01*
X022754Y002716D02*
X021390Y002716D01*
X021390Y002558D02*
X022595Y002558D01*
X022437Y002399D02*
X021390Y002399D01*
X021390Y002241D02*
X022278Y002241D01*
X022120Y002082D02*
X021390Y002082D01*
X021390Y001924D02*
X021961Y001924D01*
X022723Y001780D02*
X022978Y002035D01*
X023024Y001990D01*
X023127Y001947D01*
X023571Y001947D01*
X024089Y001429D01*
X024207Y001380D01*
X032570Y001380D01*
X032540Y001309D01*
X032540Y001051D01*
X032639Y000812D01*
X032822Y000629D01*
X033061Y000530D01*
X033320Y000530D01*
X033559Y000629D01*
X033690Y000761D01*
X033822Y000629D01*
X034061Y000530D01*
X034320Y000530D01*
X034559Y000629D01*
X034742Y000812D01*
X034840Y001051D01*
X034840Y001309D01*
X034742Y001548D01*
X034616Y001673D01*
X035190Y002247D01*
X035181Y002180D01*
X035257Y001650D01*
X035479Y001164D01*
X035479Y001164D01*
X035829Y000759D01*
X035829Y000759D01*
X036280Y000470D01*
X036313Y000460D01*
X021083Y000460D01*
X021252Y000629D01*
X021270Y000647D01*
X021431Y000580D01*
X021690Y000580D01*
X021922Y000676D01*
X021953Y000601D01*
X022032Y000523D01*
X022135Y000480D01*
X022986Y000480D01*
X023089Y000523D01*
X023168Y000601D01*
X023211Y000704D01*
X023211Y001556D01*
X023168Y001659D01*
X023089Y001737D01*
X022986Y001780D01*
X022723Y001780D01*
X022867Y001924D02*
X023594Y001924D01*
X023753Y001765D02*
X023022Y001765D01*
X023190Y001607D02*
X023911Y001607D01*
X024070Y001448D02*
X023211Y001448D01*
X023211Y001290D02*
X032540Y001290D01*
X032540Y001131D02*
X023211Y001131D01*
X023211Y000973D02*
X032573Y000973D01*
X032639Y000814D02*
X023211Y000814D01*
X023190Y000656D02*
X032796Y000656D01*
X033585Y000656D02*
X033796Y000656D01*
X034585Y000656D02*
X035991Y000656D01*
X035782Y000814D02*
X034742Y000814D01*
X034808Y000973D02*
X035645Y000973D01*
X035507Y001131D02*
X034840Y001131D01*
X034840Y001290D02*
X035422Y001290D01*
X035349Y001448D02*
X034783Y001448D01*
X034683Y001607D02*
X035277Y001607D01*
X035257Y001650D02*
X035257Y001650D01*
X035240Y001765D02*
X034708Y001765D01*
X034867Y001924D02*
X035217Y001924D01*
X035195Y002082D02*
X035025Y002082D01*
X035181Y002180D02*
X035181Y002180D01*
X035184Y002241D02*
X035189Y002241D01*
X034595Y002558D02*
X030161Y002558D01*
X030161Y002652D02*
X030161Y002393D01*
X030062Y002154D01*
X029927Y002020D01*
X034058Y002020D01*
X035550Y003513D01*
X035550Y004020D01*
X035465Y004020D01*
X035385Y004100D01*
X031523Y004100D01*
X030135Y002712D01*
X030161Y002652D01*
X030139Y002716D02*
X034754Y002716D01*
X034912Y002875D02*
X030298Y002875D01*
X030456Y003033D02*
X035071Y003033D01*
X035229Y003192D02*
X030615Y003192D01*
X030773Y003350D02*
X035388Y003350D01*
X035546Y003509D02*
X030932Y003509D01*
X031090Y003667D02*
X035550Y003667D01*
X035550Y003826D02*
X031249Y003826D01*
X031407Y003984D02*
X035550Y003984D01*
X036190Y003984D02*
X036599Y003984D01*
X036190Y004143D02*
X039281Y004143D01*
X039281Y004301D02*
X036190Y004301D01*
X036190Y004460D02*
X039281Y004460D01*
X039281Y004618D02*
X036190Y004618D01*
X036190Y004777D02*
X039281Y004777D01*
X039281Y004935D02*
X036190Y004935D01*
X036190Y005094D02*
X039281Y005094D01*
X039281Y005252D02*
X036190Y005252D01*
X036190Y005411D02*
X039281Y005411D01*
X039281Y005569D02*
X036190Y005569D01*
X036190Y005728D02*
X039281Y005728D01*
X039281Y005886D02*
X036190Y005886D01*
X036190Y006045D02*
X039281Y006045D01*
X039281Y006203D02*
X036190Y006203D01*
X036190Y006362D02*
X039281Y006362D01*
X039281Y006520D02*
X036190Y006520D01*
X036190Y006679D02*
X039281Y006679D01*
X039281Y006837D02*
X036190Y006837D01*
X036190Y006996D02*
X039281Y006996D01*
X039281Y007154D02*
X036190Y007154D01*
X036190Y007313D02*
X039281Y007313D01*
X039281Y007471D02*
X036190Y007471D01*
X036190Y007630D02*
X039281Y007630D01*
X039281Y007788D02*
X036190Y007788D01*
X036190Y007947D02*
X039281Y007947D01*
X039281Y008105D02*
X036190Y008105D01*
X036149Y008264D02*
X039281Y008264D01*
X039281Y008422D02*
X036001Y008422D01*
X036052Y008371D02*
X036052Y008371D01*
X034594Y008898D02*
X039281Y008898D01*
X039281Y009056D02*
X034670Y009056D01*
X034670Y009215D02*
X039281Y009215D01*
X039281Y009373D02*
X034603Y009373D01*
X034590Y009532D02*
X039281Y009532D01*
X039281Y009690D02*
X034590Y009690D01*
X034590Y009849D02*
X039281Y009849D01*
X039281Y010007D02*
X034630Y010007D01*
X034738Y010166D02*
X039281Y010166D01*
X039281Y010324D02*
X034750Y010324D01*
X034750Y010483D02*
X039281Y010483D01*
X039281Y010641D02*
X034750Y010641D01*
X034750Y010800D02*
X039281Y010800D01*
X039281Y010958D02*
X034750Y010958D01*
X034750Y011117D02*
X039281Y011117D01*
X039281Y011275D02*
X034750Y011275D01*
X034670Y011434D02*
X039281Y011434D01*
X039281Y011592D02*
X034511Y011592D01*
X034353Y011751D02*
X039281Y011751D01*
X039281Y011909D02*
X034194Y011909D01*
X034036Y012068D02*
X039281Y012068D01*
X039281Y012226D02*
X033877Y012226D01*
X033719Y012385D02*
X039281Y012385D01*
X039281Y012543D02*
X033560Y012543D01*
X033631Y012702D02*
X039281Y012702D01*
X039281Y012860D02*
X033761Y012860D01*
X033827Y013019D02*
X039281Y013019D01*
X039281Y013177D02*
X033840Y013177D01*
X033830Y013336D02*
X039281Y013336D01*
X039281Y013494D02*
X033764Y013494D01*
X033637Y013653D02*
X039281Y013653D01*
X039281Y013811D02*
X033741Y013811D01*
X033807Y013970D02*
X039281Y013970D01*
X039281Y014128D02*
X033840Y014128D01*
X033840Y014287D02*
X039281Y014287D01*
X039281Y014445D02*
X033784Y014445D01*
X033686Y014604D02*
X039281Y014604D01*
X039281Y014762D02*
X033484Y014762D01*
X032897Y014762D02*
X031741Y014762D01*
X031790Y014604D02*
X032695Y014604D01*
X032597Y014445D02*
X031790Y014445D01*
X031817Y014287D02*
X032540Y014287D01*
X032540Y014128D02*
X031975Y014128D01*
X032134Y013970D02*
X032574Y013970D01*
X032640Y013811D02*
X032292Y013811D01*
X032451Y013653D02*
X032744Y013653D01*
X032617Y013494D02*
X032609Y013494D01*
X032021Y013177D02*
X031630Y013177D01*
X031630Y013019D02*
X032179Y013019D01*
X032338Y012860D02*
X031630Y012860D01*
X031630Y012702D02*
X032496Y012702D01*
X032655Y012543D02*
X031630Y012543D01*
X031630Y012385D02*
X032813Y012385D01*
X032972Y012226D02*
X031630Y012226D01*
X031630Y012068D02*
X033130Y012068D01*
X033005Y011905D02*
X031943Y011905D01*
X031840Y011862D01*
X031762Y011783D01*
X031719Y011681D01*
X031719Y011069D01*
X031762Y010966D01*
X031790Y010937D01*
X031790Y010868D01*
X031762Y010839D01*
X031719Y010736D01*
X031719Y010124D01*
X031762Y010021D01*
X031790Y009992D01*
X031790Y009923D01*
X031762Y009894D01*
X031719Y009791D01*
X031719Y009179D01*
X031762Y009077D01*
X031840Y008998D01*
X031943Y008955D01*
X032003Y008955D01*
X032698Y008260D01*
X031283Y008260D01*
X030261Y009282D01*
X030261Y009878D01*
X030292Y009909D01*
X030382Y009999D01*
X030430Y010116D01*
X030430Y011844D01*
X030382Y011961D01*
X030142Y012201D01*
X030099Y012244D01*
X030161Y012393D01*
X030161Y012652D01*
X030062Y012891D01*
X029980Y012973D01*
X030162Y013154D01*
X030261Y013393D01*
X030261Y013652D01*
X030162Y013891D01*
X029980Y014073D01*
X030062Y014154D01*
X030161Y014393D01*
X030161Y014652D01*
X030062Y014891D01*
X029980Y014973D01*
X030103Y015095D01*
X030990Y014207D01*
X030990Y009546D01*
X030910Y009466D01*
X030910Y009134D01*
X031145Y008900D01*
X031476Y008900D01*
X031710Y009134D01*
X031710Y009466D01*
X031630Y009546D01*
X031630Y013567D01*
X034110Y011087D01*
X034110Y010820D01*
X034025Y010820D01*
X033790Y010586D01*
X033790Y010313D01*
X033229Y009751D01*
X033229Y009773D01*
X033230Y009774D01*
X033230Y010106D01*
X033224Y010112D01*
X033229Y010124D01*
X033229Y010736D01*
X033186Y010839D01*
X033150Y010874D01*
X033150Y010930D01*
X033186Y010966D01*
X033229Y011069D01*
X033229Y011681D01*
X033186Y011783D01*
X033108Y011862D01*
X033005Y011905D01*
X033200Y011751D02*
X033447Y011751D01*
X033289Y011909D02*
X031630Y011909D01*
X031630Y011751D02*
X031748Y011751D01*
X031719Y011592D02*
X031630Y011592D01*
X031630Y011434D02*
X031719Y011434D01*
X031719Y011275D02*
X031630Y011275D01*
X031630Y011117D02*
X031719Y011117D01*
X031770Y010958D02*
X031630Y010958D01*
X031630Y010800D02*
X031745Y010800D01*
X031719Y010641D02*
X031630Y010641D01*
X031630Y010483D02*
X031719Y010483D01*
X031719Y010324D02*
X031630Y010324D01*
X031630Y010166D02*
X031719Y010166D01*
X031776Y010007D02*
X031630Y010007D01*
X031630Y009849D02*
X031743Y009849D01*
X031719Y009690D02*
X031630Y009690D01*
X031645Y009532D02*
X031719Y009532D01*
X031710Y009373D02*
X031719Y009373D01*
X031710Y009215D02*
X031719Y009215D01*
X031782Y009056D02*
X031632Y009056D01*
X032060Y008898D02*
X030646Y008898D01*
X030487Y009056D02*
X030989Y009056D01*
X030910Y009215D02*
X030329Y009215D01*
X030261Y009373D02*
X030910Y009373D01*
X030976Y009532D02*
X030261Y009532D01*
X030261Y009690D02*
X030990Y009690D01*
X030990Y009849D02*
X030261Y009849D01*
X030385Y010007D02*
X030990Y010007D01*
X030990Y010166D02*
X030430Y010166D01*
X030430Y010324D02*
X030990Y010324D01*
X030990Y010483D02*
X030430Y010483D01*
X030430Y010641D02*
X030990Y010641D01*
X030990Y010800D02*
X030430Y010800D01*
X030430Y010958D02*
X030990Y010958D01*
X030990Y011117D02*
X030430Y011117D01*
X030430Y011275D02*
X030990Y011275D01*
X030990Y011434D02*
X030430Y011434D01*
X030430Y011592D02*
X030990Y011592D01*
X030990Y011751D02*
X030430Y011751D01*
X030403Y011909D02*
X030990Y011909D01*
X030990Y012068D02*
X030276Y012068D01*
X030117Y012226D02*
X030990Y012226D01*
X030990Y012385D02*
X030157Y012385D01*
X030161Y012543D02*
X030990Y012543D01*
X030990Y012702D02*
X030140Y012702D01*
X030074Y012860D02*
X030990Y012860D01*
X030990Y013019D02*
X030026Y013019D01*
X030171Y013177D02*
X030990Y013177D01*
X030990Y013336D02*
X030237Y013336D01*
X030261Y013494D02*
X030990Y013494D01*
X030990Y013653D02*
X030260Y013653D01*
X030195Y013811D02*
X030990Y013811D01*
X030990Y013970D02*
X030083Y013970D01*
X030035Y014128D02*
X030990Y014128D01*
X030911Y014287D02*
X030116Y014287D01*
X030161Y014445D02*
X030753Y014445D01*
X030594Y014604D02*
X030161Y014604D01*
X030115Y014762D02*
X030436Y014762D01*
X030277Y014921D02*
X030032Y014921D01*
X030086Y015079D02*
X030119Y015079D01*
X029141Y015073D02*
X029011Y014942D01*
X028980Y014973D01*
X029111Y015103D01*
X029141Y015073D01*
X029135Y015079D02*
X029086Y015079D01*
X028141Y015073D02*
X027969Y014900D01*
X024711Y014900D01*
X024680Y014976D01*
X024634Y015023D01*
X024680Y015069D01*
X024722Y015172D01*
X024722Y015220D01*
X028032Y015220D01*
X028060Y015154D01*
X028141Y015073D01*
X028135Y015079D02*
X024684Y015079D01*
X024703Y014921D02*
X027989Y014921D01*
X027916Y014260D02*
X026990Y014260D01*
X026990Y014186D01*
X027070Y014106D01*
X027070Y013860D01*
X028047Y013860D01*
X028060Y013891D01*
X028141Y013973D01*
X027960Y014154D01*
X027916Y014260D01*
X027986Y014128D02*
X027048Y014128D01*
X027070Y013970D02*
X028138Y013970D01*
X028980Y014073D02*
X029011Y014103D01*
X029141Y013973D01*
X029111Y013942D01*
X028980Y014073D01*
X029083Y013970D02*
X029138Y013970D01*
X029111Y013103D02*
X028980Y012973D01*
X029011Y012942D01*
X029141Y013073D01*
X029111Y013103D01*
X029087Y013019D02*
X029026Y013019D01*
X028141Y013073D02*
X027969Y012900D01*
X024711Y012900D01*
X024680Y012976D01*
X024634Y013023D01*
X024680Y013069D01*
X024722Y013172D01*
X024722Y013220D01*
X028032Y013220D01*
X028060Y013154D01*
X028141Y013073D01*
X028087Y013019D02*
X024638Y013019D01*
X024722Y013177D02*
X028050Y013177D01*
X027916Y012260D02*
X027960Y012154D01*
X028141Y011973D01*
X028060Y011891D01*
X028047Y011860D01*
X024722Y011860D01*
X024722Y011873D01*
X024680Y011976D01*
X024634Y012023D01*
X024680Y012069D01*
X024722Y012172D01*
X024722Y012260D01*
X027916Y012260D01*
X027930Y012226D02*
X024722Y012226D01*
X024679Y012068D02*
X028046Y012068D01*
X028078Y011909D02*
X024708Y011909D01*
X024722Y011220D02*
X027230Y011220D01*
X027230Y011134D01*
X027465Y010900D01*
X027550Y010900D01*
X027076Y010900D01*
X026996Y010980D01*
X026665Y010980D01*
X026585Y010900D01*
X024711Y010900D01*
X024680Y010976D01*
X024634Y011023D01*
X024680Y011069D01*
X024722Y011172D01*
X024722Y011220D01*
X024700Y011117D02*
X027248Y011117D01*
X027407Y010958D02*
X027018Y010958D01*
X026643Y010958D02*
X024687Y010958D01*
X024722Y010260D02*
X026585Y010260D01*
X026665Y010180D01*
X026996Y010180D01*
X027076Y010260D01*
X027916Y010260D01*
X027960Y010154D01*
X027996Y010118D01*
X027978Y010100D01*
X027865Y010100D01*
X027630Y009866D01*
X027630Y009780D01*
X024722Y009780D01*
X024722Y009873D01*
X024680Y009976D01*
X024634Y010023D01*
X024680Y010069D01*
X024722Y010172D01*
X024722Y010260D01*
X024720Y010166D02*
X027955Y010166D01*
X027772Y010007D02*
X024649Y010007D01*
X024722Y009849D02*
X027630Y009849D01*
X028074Y009140D02*
X028141Y009073D01*
X027969Y008900D01*
X024711Y008900D01*
X024680Y008976D01*
X024634Y009023D01*
X024680Y009069D01*
X024709Y009140D01*
X028074Y009140D01*
X028125Y009056D02*
X024667Y009056D01*
X025070Y008260D02*
X026058Y008260D01*
X025818Y008020D01*
X025476Y008020D01*
X025396Y008100D01*
X025070Y008100D01*
X025070Y008260D01*
X025070Y008105D02*
X025903Y008105D01*
X026483Y007780D02*
X026643Y007940D01*
X026756Y007940D01*
X026990Y008174D01*
X026990Y008260D01*
X027916Y008260D01*
X027960Y008154D01*
X028141Y007973D01*
X028060Y007891D01*
X028014Y007780D01*
X026483Y007780D01*
X026491Y007788D02*
X028017Y007788D01*
X028115Y007947D02*
X026763Y007947D01*
X026921Y008105D02*
X028009Y008105D01*
X028980Y008073D02*
X029011Y008103D01*
X029141Y007973D01*
X029111Y007942D01*
X028980Y008073D01*
X029106Y007947D02*
X029115Y007947D01*
X030146Y008357D02*
X030161Y008393D01*
X030161Y008477D01*
X030858Y007780D01*
X030723Y007780D01*
X030146Y008357D01*
X030161Y008422D02*
X030216Y008422D01*
X030240Y008264D02*
X030374Y008264D01*
X030398Y008105D02*
X030533Y008105D01*
X030557Y007947D02*
X030691Y007947D01*
X030715Y007788D02*
X030850Y007788D01*
X030298Y007300D02*
X030243Y007300D01*
X030228Y007315D01*
X030244Y007354D01*
X030298Y007300D01*
X030285Y007313D02*
X030231Y007313D01*
X030157Y006660D02*
X033258Y006660D01*
X033018Y006420D01*
X030161Y006420D01*
X030161Y006652D01*
X030157Y006660D01*
X030161Y006520D02*
X033118Y006520D01*
X030698Y005060D02*
X030483Y005060D01*
X030135Y004712D01*
X030161Y004652D01*
X030161Y004523D01*
X030698Y005060D01*
X030573Y004935D02*
X030358Y004935D01*
X030414Y004777D02*
X030200Y004777D01*
X030161Y004618D02*
X030256Y004618D01*
X029141Y005073D02*
X029111Y005103D01*
X028980Y004973D01*
X029011Y004942D01*
X029141Y005073D01*
X029120Y005094D02*
X029101Y005094D01*
X028141Y005073D02*
X027969Y004900D01*
X027123Y004900D01*
X027123Y004900D01*
X027236Y004900D01*
X027470Y005134D01*
X027470Y005220D01*
X028032Y005220D01*
X028060Y005154D01*
X028141Y005073D01*
X028120Y005094D02*
X027430Y005094D01*
X027271Y004935D02*
X028004Y004935D01*
X027916Y004260D02*
X027230Y004260D01*
X027230Y004174D01*
X026996Y003940D01*
X026883Y003940D01*
X026803Y003860D01*
X028047Y003860D01*
X028060Y003891D01*
X028141Y003973D01*
X027960Y004154D01*
X027916Y004260D01*
X027971Y004143D02*
X027199Y004143D01*
X027040Y003984D02*
X028130Y003984D01*
X028980Y004073D02*
X029011Y004103D01*
X029141Y003973D01*
X029111Y003942D01*
X028980Y004073D01*
X029068Y003984D02*
X029130Y003984D01*
X028032Y003220D02*
X028057Y003161D01*
X027982Y003130D01*
X027903Y003051D01*
X027861Y002948D01*
X027861Y002900D01*
X024916Y002900D01*
X024836Y002980D01*
X024676Y002980D01*
X024634Y003023D01*
X024680Y003069D01*
X024722Y003172D01*
X024722Y003220D01*
X028032Y003220D01*
X028044Y003192D02*
X024722Y003192D01*
X024644Y003033D02*
X027896Y003033D01*
X029088Y003081D02*
X029111Y003103D01*
X029141Y003073D01*
X029119Y003050D01*
X029118Y003051D01*
X029088Y003081D01*
X030161Y002399D02*
X034437Y002399D01*
X034278Y002241D02*
X030097Y002241D01*
X029989Y002082D02*
X034120Y002082D01*
X036237Y000497D02*
X023027Y000497D01*
X022094Y000497D02*
X021120Y000497D01*
X021872Y000656D02*
X021931Y000656D01*
X020750Y001765D02*
X020726Y001765D01*
X020750Y001924D02*
X019380Y001924D01*
X019221Y002082D02*
X020750Y002082D01*
X020750Y002241D02*
X019063Y002241D01*
X018904Y002399D02*
X020750Y002399D01*
X020750Y002558D02*
X018746Y002558D01*
X018587Y002716D02*
X020750Y002716D01*
X020750Y002875D02*
X018429Y002875D01*
X018270Y003033D02*
X020750Y003033D01*
X020750Y003192D02*
X018112Y003192D01*
X017953Y003350D02*
X020750Y003350D01*
X020395Y001765D02*
X019945Y001765D01*
X020103Y001607D02*
X020118Y001607D01*
X017176Y001765D02*
X016726Y001765D01*
X017003Y001607D02*
X017018Y001607D01*
X016118Y001607D02*
X016103Y001607D01*
X015192Y000679D02*
X015010Y000862D01*
X014979Y000935D01*
X014894Y000900D01*
X006778Y000900D01*
X006742Y000812D01*
X006559Y000629D01*
X006320Y000530D01*
X006061Y000530D01*
X006041Y000538D01*
X005963Y000460D01*
X015938Y000460D01*
X015780Y000618D01*
X015690Y000580D01*
X015431Y000580D01*
X015192Y000679D01*
X015249Y000656D02*
X006585Y000656D01*
X006742Y000814D02*
X015057Y000814D01*
X015901Y000497D02*
X006000Y000497D01*
X004738Y000460D02*
X002808Y000460D01*
X002842Y000470D01*
X003292Y000759D01*
X003292Y000759D01*
X003292Y000759D01*
X003642Y001164D01*
X003864Y001650D01*
X003941Y002180D01*
X003934Y002224D01*
X004350Y001807D01*
X004350Y000916D01*
X004399Y000799D01*
X004719Y000479D01*
X004738Y000460D01*
X004701Y000497D02*
X002884Y000497D01*
X002842Y000470D02*
X002842Y000470D01*
X003130Y000656D02*
X004542Y000656D01*
X004393Y000814D02*
X003339Y000814D01*
X003477Y000973D02*
X004350Y000973D01*
X004350Y001131D02*
X003614Y001131D01*
X003642Y001164D02*
X003642Y001164D01*
X003700Y001290D02*
X004350Y001290D01*
X004350Y001448D02*
X003772Y001448D01*
X003844Y001607D02*
X004350Y001607D01*
X004350Y001765D02*
X003881Y001765D01*
X003864Y001650D02*
X003864Y001650D01*
X003904Y001924D02*
X004234Y001924D01*
X004076Y002082D02*
X003926Y002082D01*
X005550Y001765D02*
X005904Y001765D01*
X005698Y001607D02*
X005683Y001607D01*
X009735Y001924D02*
X009946Y001924D01*
X017425Y005569D02*
X018396Y005569D01*
X018237Y005728D02*
X017584Y005728D01*
X017630Y005886D02*
X018190Y005886D01*
X018190Y006045D02*
X017630Y006045D01*
X017550Y006203D02*
X018035Y006203D01*
X017876Y006362D02*
X017550Y006362D01*
X017550Y006520D02*
X017718Y006520D01*
X017559Y006679D02*
X017550Y006679D01*
X018148Y006996D02*
X018200Y006996D01*
X020883Y007780D02*
X021178Y007780D01*
X021978Y006980D01*
X021683Y006980D01*
X020883Y007780D01*
X021034Y007630D02*
X021328Y007630D01*
X021192Y007471D02*
X021487Y007471D01*
X021351Y007313D02*
X021645Y007313D01*
X021509Y007154D02*
X021804Y007154D01*
X021668Y006996D02*
X021962Y006996D01*
X022551Y007313D02*
X022670Y007313D01*
X022670Y007226D02*
X022654Y007209D01*
X021683Y008180D01*
X022590Y008180D01*
X022590Y007934D01*
X022670Y007854D01*
X022670Y007226D01*
X022670Y007471D02*
X022392Y007471D01*
X022234Y007630D02*
X022670Y007630D01*
X022670Y007788D02*
X022075Y007788D01*
X021917Y007947D02*
X022590Y007947D01*
X022590Y008105D02*
X021758Y008105D01*
X022030Y008898D02*
X021390Y008898D01*
X021411Y009056D02*
X022030Y009056D01*
X022030Y009215D02*
X021418Y009215D01*
X021418Y009373D02*
X022030Y009373D01*
X022030Y009532D02*
X021418Y009532D01*
X021416Y009690D02*
X022030Y009690D01*
X022030Y009849D02*
X021314Y009849D01*
X021381Y010007D02*
X022030Y010007D01*
X022030Y010166D02*
X021418Y010166D01*
X021418Y010324D02*
X022030Y010324D01*
X022030Y010483D02*
X021418Y010483D01*
X021418Y010641D02*
X022030Y010641D01*
X022030Y010800D02*
X021380Y010800D01*
X021316Y010958D02*
X022030Y010958D01*
X022030Y011117D02*
X021416Y011117D01*
X021418Y011275D02*
X022030Y011275D01*
X022030Y011434D02*
X021418Y011434D01*
X021418Y011592D02*
X022030Y011592D01*
X022030Y011751D02*
X021410Y011751D01*
X021301Y011909D02*
X022030Y011909D01*
X022030Y012068D02*
X020590Y012068D01*
X020590Y012226D02*
X022030Y012226D01*
X022030Y012385D02*
X020565Y012385D01*
X020440Y012543D02*
X022030Y012543D01*
X022030Y012702D02*
X020282Y012702D01*
X020123Y012860D02*
X022030Y012860D01*
X022030Y013019D02*
X019965Y013019D01*
X019806Y013177D02*
X022030Y013177D01*
X022670Y013177D02*
X022903Y013177D01*
X022903Y013172D02*
X022945Y013069D01*
X022991Y013023D01*
X022945Y012976D01*
X022903Y012873D01*
X022903Y012172D01*
X022945Y012069D01*
X022991Y012023D01*
X022945Y011976D01*
X022903Y011873D01*
X022903Y011172D01*
X022945Y011069D01*
X022991Y011023D01*
X022945Y010976D01*
X022903Y010873D01*
X022903Y010172D01*
X022945Y010069D01*
X022991Y010023D01*
X022945Y009976D01*
X022903Y009873D01*
X022903Y009860D01*
X022745Y009860D01*
X022670Y009786D01*
X022670Y017087D01*
X022903Y017320D01*
X022903Y017172D01*
X022945Y017069D01*
X022991Y017023D01*
X022945Y016976D01*
X022903Y016873D01*
X022903Y016172D01*
X022945Y016069D01*
X022991Y016023D01*
X022945Y015976D01*
X022903Y015873D01*
X022903Y015172D01*
X022945Y015069D01*
X022991Y015023D01*
X022945Y014976D01*
X022903Y014873D01*
X022903Y014172D01*
X022945Y014069D01*
X022991Y014023D01*
X022945Y013976D01*
X022903Y013873D01*
X022903Y013172D01*
X022903Y013336D02*
X022670Y013336D01*
X022670Y013494D02*
X022903Y013494D01*
X022903Y013653D02*
X022670Y013653D01*
X022670Y013811D02*
X022903Y013811D01*
X022942Y013970D02*
X022670Y013970D01*
X022670Y014128D02*
X022921Y014128D01*
X022903Y014287D02*
X022670Y014287D01*
X022670Y014445D02*
X022903Y014445D01*
X022903Y014604D02*
X022670Y014604D01*
X022670Y014762D02*
X022903Y014762D01*
X022922Y014921D02*
X022670Y014921D01*
X022670Y015079D02*
X022941Y015079D01*
X022903Y015238D02*
X022670Y015238D01*
X022670Y015396D02*
X022903Y015396D01*
X022903Y015555D02*
X022670Y015555D01*
X022670Y015713D02*
X022903Y015713D01*
X022903Y015872D02*
X022670Y015872D01*
X022670Y016030D02*
X022984Y016030D01*
X022903Y016189D02*
X022670Y016189D01*
X022670Y016347D02*
X022903Y016347D01*
X022903Y016506D02*
X022670Y016506D01*
X022670Y016664D02*
X022903Y016664D01*
X022903Y016823D02*
X022670Y016823D01*
X022670Y016981D02*
X022950Y016981D01*
X022916Y017140D02*
X022723Y017140D01*
X022881Y017298D02*
X022903Y017298D01*
X024722Y014260D02*
X026350Y014260D01*
X026350Y014186D01*
X026270Y014106D01*
X026270Y013860D01*
X024722Y013860D01*
X024722Y013873D01*
X024680Y013976D01*
X024634Y014023D01*
X024680Y014069D01*
X024722Y014172D01*
X024722Y014260D01*
X024704Y014128D02*
X026293Y014128D01*
X026270Y013970D02*
X024683Y013970D01*
X022987Y013019D02*
X022670Y013019D01*
X022670Y012860D02*
X022903Y012860D01*
X022903Y012702D02*
X022670Y012702D01*
X022670Y012543D02*
X022903Y012543D01*
X022903Y012385D02*
X022670Y012385D01*
X022670Y012226D02*
X022903Y012226D01*
X022946Y012068D02*
X022670Y012068D01*
X022670Y011909D02*
X022917Y011909D01*
X022903Y011751D02*
X022670Y011751D01*
X022670Y011592D02*
X022903Y011592D01*
X022903Y011434D02*
X022670Y011434D01*
X022670Y011275D02*
X022903Y011275D01*
X022925Y011117D02*
X022670Y011117D01*
X022670Y010958D02*
X022938Y010958D01*
X022903Y010800D02*
X022670Y010800D01*
X022670Y010641D02*
X022903Y010641D01*
X022903Y010483D02*
X022670Y010483D01*
X022670Y010324D02*
X022903Y010324D01*
X022905Y010166D02*
X022670Y010166D01*
X022670Y010007D02*
X022976Y010007D01*
X022733Y009849D02*
X022670Y009849D01*
X024722Y007860D02*
X024830Y007860D01*
X024830Y007780D01*
X024722Y007780D01*
X024722Y007860D01*
X024722Y007788D02*
X024830Y007788D01*
X024830Y007140D02*
X024830Y006900D01*
X024711Y006900D01*
X024680Y006976D01*
X024634Y007023D01*
X024680Y007069D01*
X024709Y007140D01*
X024830Y007140D01*
X024830Y006996D02*
X024661Y006996D01*
X024722Y006260D02*
X026698Y006260D01*
X026538Y006100D01*
X025396Y006100D01*
X025316Y006180D01*
X024985Y006180D01*
X024750Y005946D01*
X024750Y005940D01*
X024695Y005940D01*
X024680Y005976D01*
X024634Y006023D01*
X024680Y006069D01*
X024722Y006172D01*
X024722Y006260D01*
X024722Y006203D02*
X026641Y006203D01*
X027203Y005860D02*
X027283Y005940D01*
X027396Y005940D01*
X027630Y006174D01*
X027630Y006260D01*
X027916Y006260D01*
X027960Y006154D01*
X028141Y005973D01*
X028060Y005891D01*
X028047Y005860D01*
X027203Y005860D01*
X027229Y005886D02*
X028058Y005886D01*
X028069Y006045D02*
X027501Y006045D01*
X027630Y006203D02*
X027939Y006203D01*
X028980Y006073D02*
X029011Y006103D01*
X029141Y005973D01*
X029111Y005942D01*
X028980Y006073D01*
X029008Y006045D02*
X029069Y006045D01*
X029011Y006942D02*
X028980Y006973D01*
X029111Y007103D01*
X029141Y007073D01*
X029011Y006942D01*
X029003Y006996D02*
X029064Y006996D01*
X028141Y007073D02*
X027969Y006900D01*
X027796Y006900D01*
X027950Y007054D01*
X027950Y007140D01*
X028074Y007140D01*
X028141Y007073D01*
X028064Y006996D02*
X027892Y006996D01*
X024849Y006045D02*
X024656Y006045D01*
X024709Y005140D02*
X024830Y005140D01*
X024830Y004980D01*
X024676Y004980D01*
X024634Y005023D01*
X024680Y005069D01*
X024709Y005140D01*
X024690Y005094D02*
X024830Y005094D01*
X024916Y004260D02*
X025790Y004260D01*
X025790Y003934D01*
X025865Y003860D01*
X024722Y003860D01*
X024722Y003873D01*
X024680Y003976D01*
X024634Y004023D01*
X024680Y004069D01*
X024722Y004172D01*
X024722Y004180D01*
X024836Y004180D01*
X024916Y004260D01*
X024710Y004143D02*
X025790Y004143D01*
X025790Y003984D02*
X024672Y003984D01*
X022991Y005023D02*
X022990Y005023D01*
X022990Y005022D01*
X022991Y005023D01*
X022903Y005394D02*
X022756Y005540D01*
X022643Y005540D01*
X022083Y006100D01*
X022574Y006100D01*
X022692Y006149D01*
X022782Y006239D01*
X022862Y006319D01*
X022903Y006417D01*
X022903Y006172D01*
X022945Y006069D01*
X022991Y006023D01*
X022945Y005976D01*
X022903Y005873D01*
X022903Y005394D01*
X022903Y005411D02*
X022886Y005411D01*
X022903Y005569D02*
X022614Y005569D01*
X022456Y005728D02*
X022903Y005728D01*
X022908Y005886D02*
X022297Y005886D01*
X022139Y006045D02*
X022969Y006045D01*
X022903Y006203D02*
X022746Y006203D01*
X022879Y006362D02*
X022903Y006362D01*
X028980Y008973D02*
X029003Y008995D01*
X029003Y008994D01*
X029033Y008964D01*
X029011Y008942D01*
X028980Y008973D01*
X030804Y008739D02*
X032219Y008739D01*
X032377Y008581D02*
X030963Y008581D01*
X031121Y008422D02*
X032536Y008422D01*
X032694Y008264D02*
X031280Y008264D01*
X033124Y008739D02*
X039281Y008739D01*
X039281Y008581D02*
X033283Y008581D01*
X033281Y008898D02*
X033947Y008898D01*
X033870Y009056D02*
X033439Y009056D01*
X033598Y009215D02*
X033870Y009215D01*
X033938Y009373D02*
X033756Y009373D01*
X033915Y009532D02*
X033950Y009532D01*
X033485Y010007D02*
X033230Y010007D01*
X033230Y009849D02*
X033326Y009849D01*
X033229Y010166D02*
X033643Y010166D01*
X033790Y010324D02*
X033229Y010324D01*
X033229Y010483D02*
X033790Y010483D01*
X033846Y010641D02*
X033229Y010641D01*
X033203Y010800D02*
X034004Y010800D01*
X034110Y010958D02*
X033178Y010958D01*
X033229Y011117D02*
X034081Y011117D01*
X033923Y011275D02*
X033229Y011275D01*
X033229Y011434D02*
X033764Y011434D01*
X033606Y011592D02*
X033229Y011592D01*
X031862Y013336D02*
X031630Y013336D01*
X031630Y013494D02*
X031704Y013494D01*
X031583Y014921D02*
X039281Y014921D01*
X039281Y015079D02*
X031424Y015079D01*
X031492Y015396D02*
X036531Y015396D01*
X036280Y015470D02*
X036280Y015470D01*
X036148Y015555D02*
X031651Y015555D01*
X031710Y015713D02*
X035901Y015713D01*
X035732Y015872D02*
X031710Y015872D01*
X031626Y016030D02*
X035595Y016030D01*
X035468Y016189D02*
X031355Y016189D01*
X031196Y016347D02*
X035395Y016347D01*
X035323Y016506D02*
X031038Y016506D01*
X030879Y016664D02*
X035255Y016664D01*
X035257Y016650D02*
X035257Y016650D01*
X035232Y016823D02*
X030721Y016823D01*
X030562Y016981D02*
X035209Y016981D01*
X035186Y017140D02*
X030404Y017140D01*
X030245Y017298D02*
X035198Y017298D01*
X035181Y017180D02*
X035181Y017180D01*
X035220Y017457D02*
X030261Y017457D01*
X030261Y017615D02*
X035243Y017615D01*
X035286Y017774D02*
X030210Y017774D01*
X030120Y017932D02*
X035358Y017932D01*
X035431Y018091D02*
X029938Y018091D01*
X029283Y018091D02*
X029179Y018091D01*
X035479Y018196D02*
X035479Y018196D01*
X027550Y010900D02*
X027550Y010900D01*
X037522Y003984D02*
X039281Y003984D01*
X039281Y003826D02*
X037942Y003826D01*
X038189Y003667D02*
X039281Y003667D01*
X039281Y003509D02*
X038372Y003509D01*
X038509Y003350D02*
X039281Y003350D01*
X039281Y003192D02*
X038644Y003192D01*
X038717Y003033D02*
X039281Y003033D01*
X039281Y002875D02*
X038789Y002875D01*
X038862Y002716D02*
X039281Y002716D01*
X039281Y002558D02*
X038886Y002558D01*
X038864Y002710D02*
X038864Y002710D01*
X038909Y002399D02*
X039281Y002399D01*
X039281Y002241D02*
X038932Y002241D01*
X038926Y002082D02*
X039281Y002082D01*
X039281Y001924D02*
X038904Y001924D01*
X038881Y001765D02*
X039281Y001765D01*
X039281Y001607D02*
X038844Y001607D01*
X038864Y001650D02*
X038864Y001650D01*
X038772Y001448D02*
X039281Y001448D01*
X039281Y001290D02*
X038700Y001290D01*
X038642Y001164D02*
X038642Y001164D01*
X038614Y001131D02*
X039281Y001131D01*
X039281Y000973D02*
X038477Y000973D01*
X038339Y000814D02*
X039281Y000814D01*
X039281Y000656D02*
X038130Y000656D01*
X037884Y000497D02*
X039281Y000497D01*
X037842Y000470D02*
X037842Y000470D01*
X027892Y002020D02*
X024631Y002020D01*
X024680Y002069D01*
X024722Y002172D01*
X024722Y002180D01*
X024836Y002180D01*
X024916Y002260D01*
X027861Y002260D01*
X027861Y002097D01*
X027892Y002020D01*
X027867Y002082D02*
X024685Y002082D01*
X024897Y002241D02*
X027861Y002241D01*
X012663Y008422D02*
X011133Y008422D01*
X011133Y008581D02*
X012504Y008581D01*
X012430Y008739D02*
X011097Y008739D01*
X011079Y008264D02*
X012541Y008264D01*
X012383Y008105D02*
X010985Y008105D01*
X011078Y007947D02*
X012224Y007947D01*
X012066Y007788D02*
X011177Y007788D01*
X011233Y007630D02*
X011907Y007630D01*
X011749Y007471D02*
X011233Y007471D01*
X011233Y007393D02*
X011134Y007154D01*
X011273Y006996D02*
X010975Y006996D01*
X011056Y006837D02*
X011115Y006837D01*
X010114Y007073D02*
X009983Y006942D01*
X009952Y006973D01*
X010083Y007103D01*
X010114Y007073D01*
X010037Y006996D02*
X009975Y006996D01*
X010083Y007942D02*
X010114Y007973D01*
X009983Y008103D01*
X009952Y008073D01*
X010083Y007942D01*
X010078Y007947D02*
X010088Y007947D01*
X001599Y003984D02*
X000470Y003984D01*
X000470Y003826D02*
X001179Y003826D01*
X000932Y003667D02*
X000470Y003667D01*
X000470Y003509D02*
X000749Y003509D01*
X000612Y003350D02*
X000470Y003350D01*
X000479Y003196D02*
X000479Y003196D01*
X000477Y003192D02*
X000470Y003192D01*
X000470Y001182D02*
X000479Y001164D01*
X000829Y000759D01*
X001280Y000470D01*
X001313Y000460D01*
X000470Y000460D01*
X000470Y001182D01*
X000479Y001164D02*
X000479Y001164D01*
X000470Y001131D02*
X000507Y001131D01*
X000470Y000973D02*
X000645Y000973D01*
X000782Y000814D02*
X000470Y000814D01*
X000470Y000656D02*
X000991Y000656D01*
X000829Y000759D02*
X000829Y000759D01*
X000470Y000497D02*
X001237Y000497D01*
X001280Y000470D02*
X001280Y000470D01*
X000857Y008581D02*
X000470Y008581D01*
X000470Y008739D02*
X000699Y008739D01*
X000540Y008898D02*
X000470Y008898D01*
X015894Y018091D02*
X015983Y018091D01*
M02*
