G75*
G70*
%OFA0B0*%
%FSLAX24Y24*%
%IPPOS*%
%LPD*%
%AMOC8*
5,1,8,0,0,1.08239X$1,22.5*
%
%ADD10R,0.0807X0.0236*%
D10*
X002089Y004430D03*
X002089Y004930D03*
X002089Y005430D03*
X002089Y005930D03*
X002089Y006430D03*
X002089Y006930D03*
X002089Y007430D03*
X002089Y007930D03*
X002089Y008430D03*
X002089Y008930D03*
X002089Y009430D03*
X002089Y009930D03*
X002089Y010430D03*
X002089Y010930D03*
X006166Y010930D03*
X006166Y010430D03*
X006166Y009930D03*
X006166Y009430D03*
X006166Y008930D03*
X006166Y008430D03*
X006166Y007930D03*
X006166Y007430D03*
X006166Y006930D03*
X006166Y006430D03*
X006166Y005930D03*
X006166Y005430D03*
X006166Y004930D03*
X006166Y004430D03*
X013900Y004430D03*
X013900Y004930D03*
X013900Y005430D03*
X013900Y005930D03*
X013900Y006430D03*
X013900Y006930D03*
X013900Y007430D03*
X013900Y007930D03*
X013900Y008430D03*
X013900Y008930D03*
X013900Y009430D03*
X013900Y009930D03*
X013900Y010430D03*
X013900Y010930D03*
X017977Y010930D03*
X017977Y010430D03*
X017977Y009930D03*
X017977Y009430D03*
X017977Y008930D03*
X017977Y008430D03*
X017977Y007930D03*
X017977Y007430D03*
X017977Y006930D03*
X017977Y006430D03*
X017977Y005930D03*
X017977Y005430D03*
X017977Y004930D03*
X017977Y004430D03*
X021774Y004430D03*
X021774Y004930D03*
X021774Y005430D03*
X021774Y005930D03*
X021774Y006430D03*
X021774Y006930D03*
X021774Y007430D03*
X021774Y007930D03*
X021774Y008430D03*
X021774Y008930D03*
X021774Y009430D03*
X021774Y009930D03*
X021774Y010430D03*
X021774Y010930D03*
X025851Y010930D03*
X025851Y010430D03*
X025851Y009930D03*
X025851Y009430D03*
X025851Y008930D03*
X025851Y008430D03*
X025851Y007930D03*
X025851Y007430D03*
X025851Y006930D03*
X025851Y006430D03*
X025851Y005930D03*
X025851Y005430D03*
X025851Y004930D03*
X025851Y004430D03*
X033585Y004430D03*
X033585Y004930D03*
X033585Y005430D03*
X033585Y005930D03*
X033585Y006430D03*
X033585Y006930D03*
X033585Y007430D03*
X033585Y007930D03*
X033585Y008430D03*
X033585Y008930D03*
X033585Y009430D03*
X033585Y009930D03*
X033585Y010430D03*
X033585Y010930D03*
X037662Y010930D03*
X037662Y010430D03*
X037662Y009930D03*
X037662Y009430D03*
X037662Y008930D03*
X037662Y008430D03*
X037662Y007930D03*
X037662Y007430D03*
X037662Y006930D03*
X037662Y006430D03*
X037662Y005930D03*
X037662Y005430D03*
X037662Y004930D03*
X037662Y004430D03*
M02*
