G75*
G70*
%OFA0B0*%
%FSLAX24Y24*%
%IPPOS*%
%LPD*%
%AMOC8*
5,1,8,0,0,1.08239X$1,22.5*
%
%ADD10C,0.0000*%
%ADD11R,0.0780X0.0780*%
%ADD12C,0.0780*%
%ADD13R,0.0847X0.0276*%
%ADD14C,0.1300*%
D10*
X000190Y000180D02*
X039561Y000180D01*
X039561Y019865D01*
X000190Y019865D01*
X000190Y000180D01*
X001431Y002180D02*
X001433Y002230D01*
X001439Y002280D01*
X001449Y002329D01*
X001463Y002377D01*
X001480Y002424D01*
X001501Y002469D01*
X001526Y002513D01*
X001554Y002554D01*
X001586Y002593D01*
X001620Y002630D01*
X001657Y002664D01*
X001697Y002694D01*
X001739Y002721D01*
X001783Y002745D01*
X001829Y002766D01*
X001876Y002782D01*
X001924Y002795D01*
X001974Y002804D01*
X002023Y002809D01*
X002074Y002810D01*
X002124Y002807D01*
X002173Y002800D01*
X002222Y002789D01*
X002270Y002774D01*
X002316Y002756D01*
X002361Y002734D01*
X002404Y002708D01*
X002445Y002679D01*
X002484Y002647D01*
X002520Y002612D01*
X002552Y002574D01*
X002582Y002534D01*
X002609Y002491D01*
X002632Y002447D01*
X002651Y002401D01*
X002667Y002353D01*
X002679Y002304D01*
X002687Y002255D01*
X002691Y002205D01*
X002691Y002155D01*
X002687Y002105D01*
X002679Y002056D01*
X002667Y002007D01*
X002651Y001959D01*
X002632Y001913D01*
X002609Y001869D01*
X002582Y001826D01*
X002552Y001786D01*
X002520Y001748D01*
X002484Y001713D01*
X002445Y001681D01*
X002404Y001652D01*
X002361Y001626D01*
X002316Y001604D01*
X002270Y001586D01*
X002222Y001571D01*
X002173Y001560D01*
X002124Y001553D01*
X002074Y001550D01*
X002023Y001551D01*
X001974Y001556D01*
X001924Y001565D01*
X001876Y001578D01*
X001829Y001594D01*
X001783Y001615D01*
X001739Y001639D01*
X001697Y001666D01*
X001657Y001696D01*
X001620Y001730D01*
X001586Y001767D01*
X001554Y001806D01*
X001526Y001847D01*
X001501Y001891D01*
X001480Y001936D01*
X001463Y001983D01*
X001449Y002031D01*
X001439Y002080D01*
X001433Y002130D01*
X001431Y002180D01*
X001431Y017180D02*
X001433Y017230D01*
X001439Y017280D01*
X001449Y017329D01*
X001463Y017377D01*
X001480Y017424D01*
X001501Y017469D01*
X001526Y017513D01*
X001554Y017554D01*
X001586Y017593D01*
X001620Y017630D01*
X001657Y017664D01*
X001697Y017694D01*
X001739Y017721D01*
X001783Y017745D01*
X001829Y017766D01*
X001876Y017782D01*
X001924Y017795D01*
X001974Y017804D01*
X002023Y017809D01*
X002074Y017810D01*
X002124Y017807D01*
X002173Y017800D01*
X002222Y017789D01*
X002270Y017774D01*
X002316Y017756D01*
X002361Y017734D01*
X002404Y017708D01*
X002445Y017679D01*
X002484Y017647D01*
X002520Y017612D01*
X002552Y017574D01*
X002582Y017534D01*
X002609Y017491D01*
X002632Y017447D01*
X002651Y017401D01*
X002667Y017353D01*
X002679Y017304D01*
X002687Y017255D01*
X002691Y017205D01*
X002691Y017155D01*
X002687Y017105D01*
X002679Y017056D01*
X002667Y017007D01*
X002651Y016959D01*
X002632Y016913D01*
X002609Y016869D01*
X002582Y016826D01*
X002552Y016786D01*
X002520Y016748D01*
X002484Y016713D01*
X002445Y016681D01*
X002404Y016652D01*
X002361Y016626D01*
X002316Y016604D01*
X002270Y016586D01*
X002222Y016571D01*
X002173Y016560D01*
X002124Y016553D01*
X002074Y016550D01*
X002023Y016551D01*
X001974Y016556D01*
X001924Y016565D01*
X001876Y016578D01*
X001829Y016594D01*
X001783Y016615D01*
X001739Y016639D01*
X001697Y016666D01*
X001657Y016696D01*
X001620Y016730D01*
X001586Y016767D01*
X001554Y016806D01*
X001526Y016847D01*
X001501Y016891D01*
X001480Y016936D01*
X001463Y016983D01*
X001449Y017031D01*
X001439Y017080D01*
X001433Y017130D01*
X001431Y017180D01*
X036431Y017180D02*
X036433Y017230D01*
X036439Y017280D01*
X036449Y017329D01*
X036463Y017377D01*
X036480Y017424D01*
X036501Y017469D01*
X036526Y017513D01*
X036554Y017554D01*
X036586Y017593D01*
X036620Y017630D01*
X036657Y017664D01*
X036697Y017694D01*
X036739Y017721D01*
X036783Y017745D01*
X036829Y017766D01*
X036876Y017782D01*
X036924Y017795D01*
X036974Y017804D01*
X037023Y017809D01*
X037074Y017810D01*
X037124Y017807D01*
X037173Y017800D01*
X037222Y017789D01*
X037270Y017774D01*
X037316Y017756D01*
X037361Y017734D01*
X037404Y017708D01*
X037445Y017679D01*
X037484Y017647D01*
X037520Y017612D01*
X037552Y017574D01*
X037582Y017534D01*
X037609Y017491D01*
X037632Y017447D01*
X037651Y017401D01*
X037667Y017353D01*
X037679Y017304D01*
X037687Y017255D01*
X037691Y017205D01*
X037691Y017155D01*
X037687Y017105D01*
X037679Y017056D01*
X037667Y017007D01*
X037651Y016959D01*
X037632Y016913D01*
X037609Y016869D01*
X037582Y016826D01*
X037552Y016786D01*
X037520Y016748D01*
X037484Y016713D01*
X037445Y016681D01*
X037404Y016652D01*
X037361Y016626D01*
X037316Y016604D01*
X037270Y016586D01*
X037222Y016571D01*
X037173Y016560D01*
X037124Y016553D01*
X037074Y016550D01*
X037023Y016551D01*
X036974Y016556D01*
X036924Y016565D01*
X036876Y016578D01*
X036829Y016594D01*
X036783Y016615D01*
X036739Y016639D01*
X036697Y016666D01*
X036657Y016696D01*
X036620Y016730D01*
X036586Y016767D01*
X036554Y016806D01*
X036526Y016847D01*
X036501Y016891D01*
X036480Y016936D01*
X036463Y016983D01*
X036449Y017031D01*
X036439Y017080D01*
X036433Y017130D01*
X036431Y017180D01*
X036431Y002180D02*
X036433Y002230D01*
X036439Y002280D01*
X036449Y002329D01*
X036463Y002377D01*
X036480Y002424D01*
X036501Y002469D01*
X036526Y002513D01*
X036554Y002554D01*
X036586Y002593D01*
X036620Y002630D01*
X036657Y002664D01*
X036697Y002694D01*
X036739Y002721D01*
X036783Y002745D01*
X036829Y002766D01*
X036876Y002782D01*
X036924Y002795D01*
X036974Y002804D01*
X037023Y002809D01*
X037074Y002810D01*
X037124Y002807D01*
X037173Y002800D01*
X037222Y002789D01*
X037270Y002774D01*
X037316Y002756D01*
X037361Y002734D01*
X037404Y002708D01*
X037445Y002679D01*
X037484Y002647D01*
X037520Y002612D01*
X037552Y002574D01*
X037582Y002534D01*
X037609Y002491D01*
X037632Y002447D01*
X037651Y002401D01*
X037667Y002353D01*
X037679Y002304D01*
X037687Y002255D01*
X037691Y002205D01*
X037691Y002155D01*
X037687Y002105D01*
X037679Y002056D01*
X037667Y002007D01*
X037651Y001959D01*
X037632Y001913D01*
X037609Y001869D01*
X037582Y001826D01*
X037552Y001786D01*
X037520Y001748D01*
X037484Y001713D01*
X037445Y001681D01*
X037404Y001652D01*
X037361Y001626D01*
X037316Y001604D01*
X037270Y001586D01*
X037222Y001571D01*
X037173Y001560D01*
X037124Y001553D01*
X037074Y001550D01*
X037023Y001551D01*
X036974Y001556D01*
X036924Y001565D01*
X036876Y001578D01*
X036829Y001594D01*
X036783Y001615D01*
X036739Y001639D01*
X036697Y001666D01*
X036657Y001696D01*
X036620Y001730D01*
X036586Y001767D01*
X036554Y001806D01*
X036526Y001847D01*
X036501Y001891D01*
X036480Y001936D01*
X036463Y001983D01*
X036449Y002031D01*
X036439Y002080D01*
X036433Y002130D01*
X036431Y002180D01*
D11*
X028511Y002523D03*
X022561Y001130D03*
X010483Y002523D03*
X009583Y009523D03*
X009483Y010523D03*
X010583Y017523D03*
X028611Y017523D03*
X029511Y010523D03*
X029611Y009523D03*
D12*
X028611Y009523D03*
X028511Y010523D03*
X028611Y011523D03*
X029611Y011523D03*
X029511Y012523D03*
X028511Y012523D03*
X028611Y013523D03*
X029611Y013523D03*
X029511Y014523D03*
X028511Y014523D03*
X028611Y015523D03*
X029611Y015523D03*
X029511Y016523D03*
X028511Y016523D03*
X029611Y017523D03*
X033190Y014180D03*
X033190Y013180D03*
X029511Y008523D03*
X028511Y008523D03*
X028611Y007523D03*
X029611Y007523D03*
X029511Y006523D03*
X028511Y006523D03*
X028611Y005523D03*
X029611Y005523D03*
X029511Y004523D03*
X028511Y004523D03*
X028611Y003523D03*
X029611Y003523D03*
X029511Y002523D03*
X033190Y001180D03*
X034190Y001180D03*
X021561Y001230D03*
X020561Y001130D03*
X019561Y001230D03*
X018561Y001130D03*
X017561Y001230D03*
X016561Y001130D03*
X015561Y001230D03*
X010583Y003523D03*
X009583Y003523D03*
X009483Y004523D03*
X010483Y004523D03*
X010583Y005523D03*
X009583Y005523D03*
X009483Y006523D03*
X010483Y006523D03*
X010583Y007523D03*
X009583Y007523D03*
X009483Y008523D03*
X010483Y008523D03*
X010583Y009523D03*
X010483Y010523D03*
X010583Y011523D03*
X009583Y011523D03*
X009483Y012523D03*
X010483Y012523D03*
X010583Y013523D03*
X009583Y013523D03*
X009483Y014523D03*
X010483Y014523D03*
X010583Y015523D03*
X009583Y015523D03*
X009483Y016523D03*
X010483Y016523D03*
X009583Y017523D03*
X002190Y014180D03*
X002190Y013180D03*
X009483Y002523D03*
X006190Y001180D03*
X005190Y001180D03*
D13*
X006166Y004430D03*
X006166Y004930D03*
X006166Y005430D03*
X006166Y005930D03*
X006166Y006430D03*
X006166Y006930D03*
X006166Y007430D03*
X006166Y007930D03*
X006166Y008430D03*
X006166Y008930D03*
X006166Y009430D03*
X006166Y009930D03*
X006166Y010430D03*
X006166Y010930D03*
X002089Y010930D03*
X002089Y010430D03*
X002089Y009930D03*
X002089Y009430D03*
X002089Y008930D03*
X002089Y008430D03*
X002089Y007930D03*
X002089Y007430D03*
X002089Y006930D03*
X002089Y006430D03*
X002089Y005930D03*
X002089Y005430D03*
X002089Y004930D03*
X002089Y004430D03*
X013900Y004430D03*
X013900Y004930D03*
X013900Y005430D03*
X013900Y005930D03*
X013900Y006430D03*
X013900Y006930D03*
X013900Y007430D03*
X013900Y007930D03*
X013900Y008430D03*
X013900Y008930D03*
X013900Y009430D03*
X013900Y009930D03*
X013900Y010430D03*
X013900Y010930D03*
X017977Y010930D03*
X017977Y010430D03*
X017977Y009930D03*
X017977Y009430D03*
X017977Y008930D03*
X017977Y008430D03*
X017977Y007930D03*
X017977Y007430D03*
X017977Y006930D03*
X017977Y006430D03*
X017977Y005930D03*
X017977Y005430D03*
X017977Y004930D03*
X017977Y004430D03*
X021774Y004430D03*
X021774Y004930D03*
X021774Y005430D03*
X021774Y005930D03*
X021774Y006430D03*
X021774Y006930D03*
X021774Y007430D03*
X021774Y007930D03*
X021774Y008430D03*
X021774Y008930D03*
X021774Y009430D03*
X021774Y009930D03*
X021774Y010430D03*
X021774Y010930D03*
X025851Y010930D03*
X025851Y010430D03*
X025851Y009930D03*
X025851Y009430D03*
X025851Y008930D03*
X025851Y008430D03*
X025851Y007930D03*
X025851Y007430D03*
X025851Y006930D03*
X025851Y006430D03*
X025851Y005930D03*
X025851Y005430D03*
X025851Y004930D03*
X025851Y004430D03*
X033585Y004430D03*
X033585Y004930D03*
X033585Y005430D03*
X033585Y005930D03*
X033585Y006430D03*
X033585Y006930D03*
X033585Y007430D03*
X033585Y007930D03*
X033585Y008430D03*
X033585Y008930D03*
X033585Y009430D03*
X033585Y009930D03*
X033585Y010430D03*
X033585Y010930D03*
X037662Y010930D03*
X037662Y010430D03*
X037662Y009930D03*
X037662Y009430D03*
X037662Y008930D03*
X037662Y008430D03*
X037662Y007930D03*
X037662Y007430D03*
X037662Y006930D03*
X037662Y006430D03*
X037662Y005930D03*
X037662Y005430D03*
X037662Y004930D03*
X037662Y004430D03*
D14*
X037061Y002180D03*
X037061Y017180D03*
X002061Y017180D03*
X002061Y002180D03*
M02*
