G75*
G70*
%OFA0B0*%
%FSLAX24Y24*%
%IPPOS*%
%LPD*%
%AMOC8*
5,1,8,0,0,1.08239X$1,22.5*
%
%ADD10C,0.0000*%
%ADD11C,0.0060*%
%ADD12C,0.0040*%
%ADD13C,0.0010*%
%ADD14C,0.0050*%
%ADD15C,0.0120*%
D10*
X000190Y000180D02*
X039561Y000180D01*
X039561Y019865D01*
X000190Y019865D01*
X000190Y000180D01*
X001431Y002180D02*
X001433Y002230D01*
X001439Y002280D01*
X001449Y002329D01*
X001463Y002377D01*
X001480Y002424D01*
X001501Y002469D01*
X001526Y002513D01*
X001554Y002554D01*
X001586Y002593D01*
X001620Y002630D01*
X001657Y002664D01*
X001697Y002694D01*
X001739Y002721D01*
X001783Y002745D01*
X001829Y002766D01*
X001876Y002782D01*
X001924Y002795D01*
X001974Y002804D01*
X002023Y002809D01*
X002074Y002810D01*
X002124Y002807D01*
X002173Y002800D01*
X002222Y002789D01*
X002270Y002774D01*
X002316Y002756D01*
X002361Y002734D01*
X002404Y002708D01*
X002445Y002679D01*
X002484Y002647D01*
X002520Y002612D01*
X002552Y002574D01*
X002582Y002534D01*
X002609Y002491D01*
X002632Y002447D01*
X002651Y002401D01*
X002667Y002353D01*
X002679Y002304D01*
X002687Y002255D01*
X002691Y002205D01*
X002691Y002155D01*
X002687Y002105D01*
X002679Y002056D01*
X002667Y002007D01*
X002651Y001959D01*
X002632Y001913D01*
X002609Y001869D01*
X002582Y001826D01*
X002552Y001786D01*
X002520Y001748D01*
X002484Y001713D01*
X002445Y001681D01*
X002404Y001652D01*
X002361Y001626D01*
X002316Y001604D01*
X002270Y001586D01*
X002222Y001571D01*
X002173Y001560D01*
X002124Y001553D01*
X002074Y001550D01*
X002023Y001551D01*
X001974Y001556D01*
X001924Y001565D01*
X001876Y001578D01*
X001829Y001594D01*
X001783Y001615D01*
X001739Y001639D01*
X001697Y001666D01*
X001657Y001696D01*
X001620Y001730D01*
X001586Y001767D01*
X001554Y001806D01*
X001526Y001847D01*
X001501Y001891D01*
X001480Y001936D01*
X001463Y001983D01*
X001449Y002031D01*
X001439Y002080D01*
X001433Y002130D01*
X001431Y002180D01*
X001431Y017180D02*
X001433Y017230D01*
X001439Y017280D01*
X001449Y017329D01*
X001463Y017377D01*
X001480Y017424D01*
X001501Y017469D01*
X001526Y017513D01*
X001554Y017554D01*
X001586Y017593D01*
X001620Y017630D01*
X001657Y017664D01*
X001697Y017694D01*
X001739Y017721D01*
X001783Y017745D01*
X001829Y017766D01*
X001876Y017782D01*
X001924Y017795D01*
X001974Y017804D01*
X002023Y017809D01*
X002074Y017810D01*
X002124Y017807D01*
X002173Y017800D01*
X002222Y017789D01*
X002270Y017774D01*
X002316Y017756D01*
X002361Y017734D01*
X002404Y017708D01*
X002445Y017679D01*
X002484Y017647D01*
X002520Y017612D01*
X002552Y017574D01*
X002582Y017534D01*
X002609Y017491D01*
X002632Y017447D01*
X002651Y017401D01*
X002667Y017353D01*
X002679Y017304D01*
X002687Y017255D01*
X002691Y017205D01*
X002691Y017155D01*
X002687Y017105D01*
X002679Y017056D01*
X002667Y017007D01*
X002651Y016959D01*
X002632Y016913D01*
X002609Y016869D01*
X002582Y016826D01*
X002552Y016786D01*
X002520Y016748D01*
X002484Y016713D01*
X002445Y016681D01*
X002404Y016652D01*
X002361Y016626D01*
X002316Y016604D01*
X002270Y016586D01*
X002222Y016571D01*
X002173Y016560D01*
X002124Y016553D01*
X002074Y016550D01*
X002023Y016551D01*
X001974Y016556D01*
X001924Y016565D01*
X001876Y016578D01*
X001829Y016594D01*
X001783Y016615D01*
X001739Y016639D01*
X001697Y016666D01*
X001657Y016696D01*
X001620Y016730D01*
X001586Y016767D01*
X001554Y016806D01*
X001526Y016847D01*
X001501Y016891D01*
X001480Y016936D01*
X001463Y016983D01*
X001449Y017031D01*
X001439Y017080D01*
X001433Y017130D01*
X001431Y017180D01*
X036431Y017180D02*
X036433Y017230D01*
X036439Y017280D01*
X036449Y017329D01*
X036463Y017377D01*
X036480Y017424D01*
X036501Y017469D01*
X036526Y017513D01*
X036554Y017554D01*
X036586Y017593D01*
X036620Y017630D01*
X036657Y017664D01*
X036697Y017694D01*
X036739Y017721D01*
X036783Y017745D01*
X036829Y017766D01*
X036876Y017782D01*
X036924Y017795D01*
X036974Y017804D01*
X037023Y017809D01*
X037074Y017810D01*
X037124Y017807D01*
X037173Y017800D01*
X037222Y017789D01*
X037270Y017774D01*
X037316Y017756D01*
X037361Y017734D01*
X037404Y017708D01*
X037445Y017679D01*
X037484Y017647D01*
X037520Y017612D01*
X037552Y017574D01*
X037582Y017534D01*
X037609Y017491D01*
X037632Y017447D01*
X037651Y017401D01*
X037667Y017353D01*
X037679Y017304D01*
X037687Y017255D01*
X037691Y017205D01*
X037691Y017155D01*
X037687Y017105D01*
X037679Y017056D01*
X037667Y017007D01*
X037651Y016959D01*
X037632Y016913D01*
X037609Y016869D01*
X037582Y016826D01*
X037552Y016786D01*
X037520Y016748D01*
X037484Y016713D01*
X037445Y016681D01*
X037404Y016652D01*
X037361Y016626D01*
X037316Y016604D01*
X037270Y016586D01*
X037222Y016571D01*
X037173Y016560D01*
X037124Y016553D01*
X037074Y016550D01*
X037023Y016551D01*
X036974Y016556D01*
X036924Y016565D01*
X036876Y016578D01*
X036829Y016594D01*
X036783Y016615D01*
X036739Y016639D01*
X036697Y016666D01*
X036657Y016696D01*
X036620Y016730D01*
X036586Y016767D01*
X036554Y016806D01*
X036526Y016847D01*
X036501Y016891D01*
X036480Y016936D01*
X036463Y016983D01*
X036449Y017031D01*
X036439Y017080D01*
X036433Y017130D01*
X036431Y017180D01*
X036431Y002180D02*
X036433Y002230D01*
X036439Y002280D01*
X036449Y002329D01*
X036463Y002377D01*
X036480Y002424D01*
X036501Y002469D01*
X036526Y002513D01*
X036554Y002554D01*
X036586Y002593D01*
X036620Y002630D01*
X036657Y002664D01*
X036697Y002694D01*
X036739Y002721D01*
X036783Y002745D01*
X036829Y002766D01*
X036876Y002782D01*
X036924Y002795D01*
X036974Y002804D01*
X037023Y002809D01*
X037074Y002810D01*
X037124Y002807D01*
X037173Y002800D01*
X037222Y002789D01*
X037270Y002774D01*
X037316Y002756D01*
X037361Y002734D01*
X037404Y002708D01*
X037445Y002679D01*
X037484Y002647D01*
X037520Y002612D01*
X037552Y002574D01*
X037582Y002534D01*
X037609Y002491D01*
X037632Y002447D01*
X037651Y002401D01*
X037667Y002353D01*
X037679Y002304D01*
X037687Y002255D01*
X037691Y002205D01*
X037691Y002155D01*
X037687Y002105D01*
X037679Y002056D01*
X037667Y002007D01*
X037651Y001959D01*
X037632Y001913D01*
X037609Y001869D01*
X037582Y001826D01*
X037552Y001786D01*
X037520Y001748D01*
X037484Y001713D01*
X037445Y001681D01*
X037404Y001652D01*
X037361Y001626D01*
X037316Y001604D01*
X037270Y001586D01*
X037222Y001571D01*
X037173Y001560D01*
X037124Y001553D01*
X037074Y001550D01*
X037023Y001551D01*
X036974Y001556D01*
X036924Y001565D01*
X036876Y001578D01*
X036829Y001594D01*
X036783Y001615D01*
X036739Y001639D01*
X036697Y001666D01*
X036657Y001696D01*
X036620Y001730D01*
X036586Y001767D01*
X036554Y001806D01*
X036526Y001847D01*
X036501Y001891D01*
X036480Y001936D01*
X036463Y001983D01*
X036449Y002031D01*
X036439Y002080D01*
X036433Y002130D01*
X036431Y002180D01*
D11*
X034483Y002030D02*
X034056Y002030D01*
X033483Y002030D02*
X033056Y002030D01*
X033269Y002244D02*
X033269Y001817D01*
X022881Y002080D02*
X022454Y002080D01*
X022241Y002294D01*
X022454Y002507D01*
X022881Y002507D01*
X022774Y002725D02*
X022347Y002725D01*
X022241Y002831D01*
X022241Y003045D01*
X022347Y003152D01*
X022347Y003369D02*
X022241Y003476D01*
X022241Y003689D01*
X022347Y003796D01*
X022774Y003796D02*
X022881Y003689D01*
X022881Y003476D01*
X022774Y003369D01*
X022347Y003369D01*
X021881Y003299D02*
X021881Y003619D01*
X021774Y003726D01*
X021347Y003726D01*
X021241Y003619D01*
X021241Y003299D01*
X021881Y003299D01*
X021881Y003082D02*
X021241Y003082D01*
X021881Y002655D01*
X021241Y002655D01*
X021347Y002437D02*
X021561Y002437D01*
X021561Y002224D01*
X021774Y002437D02*
X021881Y002330D01*
X021881Y002117D01*
X021774Y002010D01*
X021347Y002010D01*
X021241Y002117D01*
X021241Y002330D01*
X021347Y002437D01*
X020881Y002340D02*
X020241Y002767D01*
X020881Y002767D01*
X020881Y002984D02*
X020881Y003411D01*
X020668Y003629D02*
X020881Y003842D01*
X020668Y004056D01*
X020241Y004056D01*
X020561Y004056D02*
X020561Y003629D01*
X020668Y003629D02*
X020241Y003629D01*
X019881Y003629D02*
X019881Y003949D01*
X019774Y004056D01*
X019668Y004056D01*
X019561Y003949D01*
X019561Y003629D01*
X019561Y003949D02*
X019454Y004056D01*
X019347Y004056D01*
X019241Y003949D01*
X019241Y003629D01*
X019881Y003629D01*
X019881Y003411D02*
X019881Y002984D01*
X019881Y003198D02*
X019241Y003198D01*
X018881Y003198D02*
X018241Y003198D01*
X017881Y003198D02*
X017241Y003198D01*
X017881Y002984D02*
X017881Y003411D01*
X017881Y003629D02*
X017241Y003629D01*
X017241Y003949D01*
X017347Y004056D01*
X017774Y004056D01*
X017881Y003949D01*
X017881Y003629D01*
X018241Y003736D02*
X018241Y003949D01*
X018347Y004056D01*
X018774Y004056D02*
X018881Y003949D01*
X018881Y003736D01*
X018774Y003629D01*
X018347Y003629D01*
X018241Y003736D01*
X018881Y003411D02*
X018881Y002984D01*
X018881Y002767D02*
X018241Y002767D01*
X018881Y002340D01*
X018241Y002340D01*
X018241Y002124D02*
X018241Y001910D01*
X018241Y002017D02*
X018881Y002017D01*
X018881Y001910D02*
X018881Y002124D01*
X019241Y002124D02*
X019241Y001910D01*
X019241Y002017D02*
X019881Y002017D01*
X019881Y001910D02*
X019881Y002124D01*
X019881Y002340D02*
X019241Y002767D01*
X019881Y002767D01*
X019881Y002340D02*
X019241Y002340D01*
X020241Y002340D02*
X020881Y002340D01*
X020881Y002124D02*
X020881Y001910D01*
X020881Y002017D02*
X020241Y002017D01*
X020241Y001910D02*
X020241Y002124D01*
X020241Y003198D02*
X020881Y003198D01*
X022774Y003152D02*
X022881Y003045D01*
X022881Y002831D01*
X022774Y002725D01*
X017881Y002767D02*
X017241Y002767D01*
X017881Y002340D01*
X017241Y002340D01*
X017241Y002124D02*
X017241Y001910D01*
X017241Y002017D02*
X017881Y002017D01*
X017881Y001910D02*
X017881Y002124D01*
X006483Y002030D02*
X006056Y002030D01*
X005483Y002030D02*
X005056Y002030D01*
X005269Y002244D02*
X005269Y001817D01*
X001478Y009085D02*
X000478Y009085D01*
X000461Y009087D01*
X000444Y009091D01*
X000428Y009098D01*
X000414Y009108D01*
X000401Y009121D01*
X000391Y009135D01*
X000384Y009151D01*
X000380Y009168D01*
X000378Y009185D01*
X000378Y009785D01*
X000380Y009802D01*
X000384Y009819D01*
X000391Y009835D01*
X000401Y009849D01*
X000414Y009862D01*
X000428Y009872D01*
X000444Y009879D01*
X000461Y009883D01*
X000478Y009885D01*
X001478Y009885D01*
X001495Y009883D01*
X001512Y009879D01*
X001528Y009872D01*
X001542Y009862D01*
X001555Y009849D01*
X001565Y009835D01*
X001572Y009819D01*
X001576Y009802D01*
X001578Y009785D01*
X001578Y009185D01*
X001576Y009168D01*
X001572Y009151D01*
X001565Y009135D01*
X001555Y009121D01*
X001542Y009108D01*
X001528Y009098D01*
X001512Y009091D01*
X001495Y009087D01*
X001478Y009085D01*
X001478Y010030D02*
X000478Y010030D01*
X000461Y010032D01*
X000444Y010036D01*
X000428Y010043D01*
X000414Y010053D01*
X000401Y010066D01*
X000391Y010080D01*
X000384Y010096D01*
X000380Y010113D01*
X000378Y010130D01*
X000378Y010730D01*
X000380Y010747D01*
X000384Y010764D01*
X000391Y010780D01*
X000401Y010794D01*
X000414Y010807D01*
X000428Y010817D01*
X000444Y010824D01*
X000461Y010828D01*
X000478Y010830D01*
X001478Y010830D01*
X001495Y010828D01*
X001512Y010824D01*
X001528Y010817D01*
X001542Y010807D01*
X001555Y010794D01*
X001565Y010780D01*
X001572Y010764D01*
X001576Y010747D01*
X001578Y010730D01*
X001578Y010130D01*
X001576Y010113D01*
X001572Y010096D01*
X001565Y010080D01*
X001555Y010066D01*
X001542Y010053D01*
X001528Y010043D01*
X001512Y010036D01*
X001495Y010032D01*
X001478Y010030D01*
X001478Y010975D02*
X000478Y010975D01*
X000461Y010977D01*
X000444Y010981D01*
X000428Y010988D01*
X000414Y010998D01*
X000401Y011011D01*
X000391Y011025D01*
X000384Y011041D01*
X000380Y011058D01*
X000378Y011075D01*
X000378Y011675D01*
X000380Y011692D01*
X000384Y011709D01*
X000391Y011725D01*
X000401Y011739D01*
X000414Y011752D01*
X000428Y011762D01*
X000444Y011769D01*
X000461Y011773D01*
X000478Y011775D01*
X001478Y011775D01*
X001495Y011773D01*
X001512Y011769D01*
X001528Y011762D01*
X001542Y011752D01*
X001555Y011739D01*
X001565Y011725D01*
X001572Y011709D01*
X001576Y011692D01*
X001578Y011675D01*
X001578Y011075D01*
X001576Y011058D01*
X001572Y011041D01*
X001565Y011025D01*
X001555Y011011D01*
X001542Y010998D01*
X001528Y010988D01*
X001512Y010981D01*
X001495Y010977D01*
X001478Y010975D01*
X001379Y012415D02*
X001379Y013055D01*
X001592Y012842D01*
X000948Y012949D02*
X000948Y012521D01*
X000521Y012949D01*
X000521Y012521D01*
X000628Y012415D01*
X000841Y012415D01*
X000948Y012521D01*
X001165Y012415D02*
X001592Y012415D01*
X000948Y012949D02*
X000841Y013055D01*
X000628Y013055D01*
X000521Y012949D01*
X003378Y012860D02*
X003378Y013287D01*
X003592Y013501D01*
X003805Y013287D01*
X003805Y012860D01*
X003805Y013180D02*
X003378Y013180D01*
X004023Y013501D02*
X004450Y013501D01*
X004236Y013501D02*
X004236Y012860D01*
X004667Y012860D02*
X004667Y013501D01*
X005094Y013501D02*
X004667Y012860D01*
X005094Y012860D02*
X005094Y013501D01*
X005310Y013501D02*
X005524Y013501D01*
X005417Y013501D02*
X005417Y012860D01*
X005524Y012860D02*
X005310Y012860D01*
X005310Y013860D02*
X005524Y013860D01*
X005417Y013860D02*
X005417Y014501D01*
X005524Y014501D02*
X005310Y014501D01*
X005094Y014501D02*
X004667Y013860D01*
X004667Y014501D01*
X004450Y014501D02*
X004023Y014501D01*
X004236Y014501D02*
X004236Y013860D01*
X003805Y013860D02*
X003485Y013860D01*
X003378Y013967D01*
X003378Y014074D01*
X003485Y014180D01*
X003805Y014180D01*
X003805Y013860D02*
X003805Y014501D01*
X003485Y014501D01*
X003378Y014394D01*
X003378Y014287D01*
X003485Y014180D01*
X005094Y013860D02*
X005094Y014501D01*
X012189Y011675D02*
X012189Y011075D01*
X012191Y011058D01*
X012195Y011041D01*
X012202Y011025D01*
X012212Y011011D01*
X012225Y010998D01*
X012239Y010988D01*
X012255Y010981D01*
X012272Y010977D01*
X012289Y010975D01*
X013289Y010975D01*
X013306Y010977D01*
X013323Y010981D01*
X013339Y010988D01*
X013353Y010998D01*
X013366Y011011D01*
X013376Y011025D01*
X013383Y011041D01*
X013387Y011058D01*
X013389Y011075D01*
X013389Y011675D01*
X013387Y011692D01*
X013383Y011709D01*
X013376Y011725D01*
X013366Y011739D01*
X013353Y011752D01*
X013339Y011762D01*
X013323Y011769D01*
X013306Y011773D01*
X013289Y011775D01*
X012289Y011775D01*
X012272Y011773D01*
X012255Y011769D01*
X012239Y011762D01*
X012225Y011752D01*
X012212Y011739D01*
X012202Y011725D01*
X012195Y011709D01*
X012191Y011692D01*
X012189Y011675D01*
X012439Y012415D02*
X012652Y012415D01*
X012759Y012521D01*
X012332Y012949D01*
X012332Y012521D01*
X012439Y012415D01*
X012759Y012521D02*
X012759Y012949D01*
X012652Y013055D01*
X012439Y013055D01*
X012332Y012949D01*
X013190Y013055D02*
X013403Y012842D01*
X013190Y013055D02*
X013190Y012415D01*
X013403Y012415D02*
X012976Y012415D01*
X013289Y010830D02*
X012289Y010830D01*
X012272Y010828D01*
X012255Y010824D01*
X012239Y010817D01*
X012225Y010807D01*
X012212Y010794D01*
X012202Y010780D01*
X012195Y010764D01*
X012191Y010747D01*
X012189Y010730D01*
X012189Y010130D01*
X012191Y010113D01*
X012195Y010096D01*
X012202Y010080D01*
X012212Y010066D01*
X012225Y010053D01*
X012239Y010043D01*
X012255Y010036D01*
X012272Y010032D01*
X012289Y010030D01*
X013289Y010030D01*
X013306Y010032D01*
X013323Y010036D01*
X013339Y010043D01*
X013353Y010053D01*
X013366Y010066D01*
X013376Y010080D01*
X013383Y010096D01*
X013387Y010113D01*
X013389Y010130D01*
X013389Y010730D01*
X013387Y010747D01*
X013383Y010764D01*
X013376Y010780D01*
X013366Y010794D01*
X013353Y010807D01*
X013339Y010817D01*
X013323Y010824D01*
X013306Y010828D01*
X013289Y010830D01*
X013289Y009885D02*
X012289Y009885D01*
X012272Y009883D01*
X012255Y009879D01*
X012239Y009872D01*
X012225Y009862D01*
X012212Y009849D01*
X012202Y009835D01*
X012195Y009819D01*
X012191Y009802D01*
X012189Y009785D01*
X012189Y009185D01*
X012191Y009168D01*
X012195Y009151D01*
X012202Y009135D01*
X012212Y009121D01*
X012225Y009108D01*
X012239Y009098D01*
X012255Y009091D01*
X012272Y009087D01*
X012289Y009085D01*
X013289Y009085D01*
X013306Y009087D01*
X013323Y009091D01*
X013339Y009098D01*
X013353Y009108D01*
X013366Y009121D01*
X013376Y009135D01*
X013383Y009151D01*
X013387Y009168D01*
X013389Y009185D01*
X013389Y009785D01*
X013387Y009802D01*
X013383Y009819D01*
X013376Y009835D01*
X013366Y009849D01*
X013353Y009862D01*
X013339Y009872D01*
X013323Y009879D01*
X013306Y009883D01*
X013289Y009885D01*
X020063Y009679D02*
X020063Y009079D01*
X020065Y009062D01*
X020069Y009045D01*
X020076Y009029D01*
X020086Y009015D01*
X020099Y009002D01*
X020113Y008992D01*
X020129Y008985D01*
X020146Y008981D01*
X020163Y008979D01*
X021163Y008979D01*
X021180Y008981D01*
X021197Y008985D01*
X021213Y008992D01*
X021227Y009002D01*
X021240Y009015D01*
X021250Y009029D01*
X021257Y009045D01*
X021261Y009062D01*
X021263Y009079D01*
X021263Y009679D01*
X021261Y009696D01*
X021257Y009713D01*
X021250Y009729D01*
X021240Y009743D01*
X021227Y009756D01*
X021213Y009766D01*
X021197Y009773D01*
X021180Y009777D01*
X021163Y009779D01*
X020163Y009779D01*
X020146Y009777D01*
X020129Y009773D01*
X020113Y009766D01*
X020099Y009756D01*
X020086Y009743D01*
X020076Y009729D01*
X020069Y009713D01*
X020065Y009696D01*
X020063Y009679D01*
X020163Y010002D02*
X021163Y010002D01*
X021180Y010004D01*
X021197Y010008D01*
X021213Y010015D01*
X021227Y010025D01*
X021240Y010038D01*
X021250Y010052D01*
X021257Y010068D01*
X021261Y010085D01*
X021263Y010102D01*
X021263Y010702D01*
X021261Y010719D01*
X021257Y010736D01*
X021250Y010752D01*
X021240Y010766D01*
X021227Y010779D01*
X021213Y010789D01*
X021197Y010796D01*
X021180Y010800D01*
X021163Y010802D01*
X020163Y010802D01*
X020146Y010800D01*
X020129Y010796D01*
X020113Y010789D01*
X020099Y010779D01*
X020086Y010766D01*
X020076Y010752D01*
X020069Y010736D01*
X020065Y010719D01*
X020063Y010702D01*
X020063Y010102D01*
X020065Y010085D01*
X020069Y010068D01*
X020076Y010052D01*
X020086Y010038D01*
X020099Y010025D01*
X020113Y010015D01*
X020129Y010008D01*
X020146Y010004D01*
X020163Y010002D01*
X020163Y011026D02*
X021163Y011026D01*
X021180Y011028D01*
X021197Y011032D01*
X021213Y011039D01*
X021227Y011049D01*
X021240Y011062D01*
X021250Y011076D01*
X021257Y011092D01*
X021261Y011109D01*
X021263Y011126D01*
X021263Y011726D01*
X021261Y011743D01*
X021257Y011760D01*
X021250Y011776D01*
X021240Y011790D01*
X021227Y011803D01*
X021213Y011813D01*
X021197Y011820D01*
X021180Y011824D01*
X021163Y011826D01*
X020163Y011826D01*
X020146Y011824D01*
X020129Y011820D01*
X020113Y011813D01*
X020099Y011803D01*
X020086Y011790D01*
X020076Y011776D01*
X020069Y011760D01*
X020065Y011743D01*
X020063Y011726D01*
X020063Y011126D01*
X020065Y011109D01*
X020069Y011092D01*
X020076Y011076D01*
X020086Y011062D01*
X020099Y011049D01*
X020113Y011039D01*
X020129Y011032D01*
X020146Y011028D01*
X020163Y011026D01*
X020313Y012415D02*
X020526Y012415D01*
X020633Y012521D01*
X020206Y012949D01*
X020206Y012521D01*
X020313Y012415D01*
X020633Y012521D02*
X020633Y012949D01*
X020526Y013055D01*
X020313Y013055D01*
X020206Y012949D01*
X020850Y012415D02*
X021277Y012415D01*
X021064Y012415D02*
X021064Y013055D01*
X021277Y012842D01*
X031874Y011675D02*
X031874Y011075D01*
X031876Y011058D01*
X031880Y011041D01*
X031887Y011025D01*
X031897Y011011D01*
X031910Y010998D01*
X031924Y010988D01*
X031940Y010981D01*
X031957Y010977D01*
X031974Y010975D01*
X032974Y010975D01*
X032991Y010977D01*
X033008Y010981D01*
X033024Y010988D01*
X033038Y010998D01*
X033051Y011011D01*
X033061Y011025D01*
X033068Y011041D01*
X033072Y011058D01*
X033074Y011075D01*
X033074Y011675D01*
X033072Y011692D01*
X033068Y011709D01*
X033061Y011725D01*
X033051Y011739D01*
X033038Y011752D01*
X033024Y011762D01*
X033008Y011769D01*
X032991Y011773D01*
X032974Y011775D01*
X031974Y011775D01*
X031957Y011773D01*
X031940Y011769D01*
X031924Y011762D01*
X031910Y011752D01*
X031897Y011739D01*
X031887Y011725D01*
X031880Y011709D01*
X031876Y011692D01*
X031874Y011675D01*
X032124Y012415D02*
X032337Y012415D01*
X032444Y012521D01*
X032017Y012949D01*
X032017Y012521D01*
X032124Y012415D01*
X032444Y012521D02*
X032444Y012949D01*
X032337Y013055D01*
X032124Y013055D01*
X032017Y012949D01*
X032875Y013055D02*
X032875Y012415D01*
X033088Y012415D02*
X032661Y012415D01*
X033088Y012842D02*
X032875Y013055D01*
X034378Y012937D02*
X034378Y012510D01*
X034805Y012510D02*
X034805Y012937D01*
X034592Y013151D01*
X034378Y012937D01*
X034378Y012830D02*
X034805Y012830D01*
X035023Y013151D02*
X035450Y013151D01*
X035236Y013151D02*
X035236Y012510D01*
X035667Y012510D02*
X035667Y013151D01*
X036094Y013151D02*
X035667Y012510D01*
X036094Y012510D02*
X036094Y013151D01*
X036310Y013151D02*
X036524Y013151D01*
X036417Y013151D02*
X036417Y012510D01*
X036524Y012510D02*
X036310Y012510D01*
X036310Y013510D02*
X036524Y013510D01*
X036417Y013510D02*
X036417Y014151D01*
X036524Y014151D02*
X036310Y014151D01*
X036094Y014151D02*
X035667Y013510D01*
X035667Y014151D01*
X035450Y014151D02*
X035023Y014151D01*
X035236Y014151D02*
X035236Y013510D01*
X034805Y013510D02*
X034485Y013510D01*
X034378Y013617D01*
X034378Y013724D01*
X034485Y013830D01*
X034805Y013830D01*
X034805Y013510D02*
X034805Y014151D01*
X034485Y014151D01*
X034378Y014044D01*
X034378Y013937D01*
X034485Y013830D01*
X036094Y013510D02*
X036094Y014151D01*
X032974Y010830D02*
X031974Y010830D01*
X031957Y010828D01*
X031940Y010824D01*
X031924Y010817D01*
X031910Y010807D01*
X031897Y010794D01*
X031887Y010780D01*
X031880Y010764D01*
X031876Y010747D01*
X031874Y010730D01*
X031874Y010130D01*
X031876Y010113D01*
X031880Y010096D01*
X031887Y010080D01*
X031897Y010066D01*
X031910Y010053D01*
X031924Y010043D01*
X031940Y010036D01*
X031957Y010032D01*
X031974Y010030D01*
X032974Y010030D01*
X032991Y010032D01*
X033008Y010036D01*
X033024Y010043D01*
X033038Y010053D01*
X033051Y010066D01*
X033061Y010080D01*
X033068Y010096D01*
X033072Y010113D01*
X033074Y010130D01*
X033074Y010730D01*
X033072Y010747D01*
X033068Y010764D01*
X033061Y010780D01*
X033051Y010794D01*
X033038Y010807D01*
X033024Y010817D01*
X033008Y010824D01*
X032991Y010828D01*
X032974Y010830D01*
X032974Y009885D02*
X031974Y009885D01*
X031957Y009883D01*
X031940Y009879D01*
X031924Y009872D01*
X031910Y009862D01*
X031897Y009849D01*
X031887Y009835D01*
X031880Y009819D01*
X031876Y009802D01*
X031874Y009785D01*
X031874Y009185D01*
X031876Y009168D01*
X031880Y009151D01*
X031887Y009135D01*
X031897Y009121D01*
X031910Y009108D01*
X031924Y009098D01*
X031940Y009091D01*
X031957Y009087D01*
X031974Y009085D01*
X032974Y009085D01*
X032991Y009087D01*
X033008Y009091D01*
X033024Y009098D01*
X033038Y009108D01*
X033051Y009121D01*
X033061Y009135D01*
X033068Y009151D01*
X033072Y009168D01*
X033074Y009185D01*
X033074Y009785D01*
X033072Y009802D01*
X033068Y009819D01*
X033061Y009835D01*
X033051Y009849D01*
X033038Y009862D01*
X033024Y009872D01*
X033008Y009879D01*
X032991Y009883D01*
X032974Y009885D01*
X032593Y018500D02*
X032593Y019141D01*
X032273Y019141D01*
X032166Y019034D01*
X032166Y018821D01*
X032273Y018714D01*
X032593Y018714D01*
X032809Y018714D02*
X032916Y018821D01*
X032916Y019248D01*
X033023Y019141D02*
X032809Y019141D01*
X033239Y019141D02*
X033453Y019141D01*
X033346Y019248D02*
X033346Y018821D01*
X033239Y018714D01*
X033670Y018714D02*
X033670Y019034D01*
X033777Y019141D01*
X033990Y019141D01*
X034097Y019034D01*
X034097Y019354D02*
X034097Y018714D01*
X031949Y018714D02*
X031628Y018714D01*
X031522Y018821D01*
X031628Y018927D01*
X031842Y018927D01*
X031949Y019034D01*
X031842Y019141D01*
X031522Y019141D01*
X031304Y019141D02*
X031304Y019034D01*
X031197Y019034D01*
X031197Y019141D01*
X031304Y019141D01*
X031304Y018821D02*
X031304Y018714D01*
X031197Y018714D01*
X031197Y018821D01*
X031304Y018821D01*
X030982Y018714D02*
X030555Y019354D01*
X029910Y019354D02*
X030337Y018714D01*
X029693Y018821D02*
X029586Y018714D01*
X029266Y018714D01*
X029266Y018607D02*
X029266Y019141D01*
X029586Y019141D01*
X029693Y019034D01*
X029693Y018821D01*
X029479Y018500D02*
X029372Y018500D01*
X029266Y018607D01*
X029048Y018714D02*
X028835Y018714D01*
X028941Y018714D02*
X028941Y019141D01*
X029048Y019141D01*
X028941Y019354D02*
X028941Y019461D01*
X028512Y019248D02*
X028512Y018821D01*
X028405Y018714D01*
X028189Y018714D02*
X028189Y019354D01*
X028082Y019141D02*
X027868Y019141D01*
X027762Y019034D01*
X027762Y018714D01*
X027544Y018821D02*
X027437Y018714D01*
X027117Y018714D01*
X027117Y019141D01*
X026900Y019141D02*
X026579Y019141D01*
X026473Y019034D01*
X026473Y018821D01*
X026579Y018714D01*
X026900Y018714D01*
X026900Y019354D01*
X027544Y019141D02*
X027544Y018821D01*
X028082Y019141D02*
X028189Y019034D01*
X028405Y019141D02*
X028618Y019141D01*
X026255Y018821D02*
X026148Y018821D01*
X026148Y018714D01*
X026255Y018714D01*
X026255Y018821D01*
X025933Y018821D02*
X025933Y019034D01*
X025826Y019141D01*
X025506Y019141D01*
X025288Y019034D02*
X025288Y018821D01*
X025181Y018714D01*
X024968Y018714D01*
X024861Y018821D01*
X024861Y019034D01*
X024968Y019141D01*
X025181Y019141D01*
X025288Y019034D01*
X025506Y018714D02*
X025826Y018714D01*
X025933Y018821D01*
X024644Y018714D02*
X024644Y019141D01*
X024537Y019141D01*
X024430Y019034D01*
X024323Y019141D01*
X024217Y019034D01*
X024217Y018714D01*
X024430Y018714D02*
X024430Y019034D01*
X023999Y018714D02*
X023572Y019354D01*
X023355Y019354D02*
X023355Y018714D01*
X023034Y018714D01*
X022928Y018821D01*
X022928Y019034D01*
X023034Y019141D01*
X023355Y019141D01*
X022710Y019141D02*
X022497Y018714D01*
X022283Y019141D01*
X022065Y019034D02*
X021959Y019141D01*
X021745Y019141D01*
X021638Y019034D01*
X021638Y018927D01*
X022065Y018927D01*
X022065Y018821D02*
X022065Y019034D01*
X022065Y018821D02*
X021959Y018714D01*
X021745Y018714D01*
X021421Y018714D02*
X021207Y018714D01*
X021314Y018714D02*
X021314Y019141D01*
X021421Y019141D01*
X021314Y019354D02*
X021314Y019461D01*
X020991Y019141D02*
X020671Y019141D01*
X020564Y019034D01*
X020564Y018714D01*
X020347Y018821D02*
X020240Y018927D01*
X019920Y018927D01*
X019920Y019034D02*
X019920Y018714D01*
X020240Y018714D01*
X020347Y018821D01*
X020026Y019141D02*
X019920Y019034D01*
X020026Y019141D02*
X020240Y019141D01*
X019702Y018714D02*
X019275Y019354D01*
X019058Y019248D02*
X019058Y019141D01*
X018951Y019034D01*
X018737Y019034D01*
X018631Y018927D01*
X018631Y018821D01*
X018737Y018714D01*
X018951Y018714D01*
X019058Y018821D01*
X018413Y018714D02*
X018093Y018714D01*
X017986Y018821D01*
X017986Y019034D01*
X018093Y019141D01*
X018413Y019141D01*
X018413Y018500D01*
X017768Y018821D02*
X017768Y019034D01*
X017662Y019141D01*
X017448Y019141D01*
X017341Y019034D01*
X017341Y018927D01*
X017768Y018927D01*
X017768Y018821D02*
X017662Y018714D01*
X017448Y018714D01*
X017124Y018821D02*
X017124Y019034D01*
X017017Y019141D01*
X016804Y019141D01*
X016697Y019034D01*
X016697Y018927D01*
X017124Y018927D01*
X017124Y018821D02*
X017017Y018714D01*
X016804Y018714D01*
X016479Y018821D02*
X016479Y019034D01*
X016373Y019141D01*
X016052Y019141D01*
X016052Y019354D02*
X016052Y018714D01*
X016373Y018714D01*
X016479Y018821D01*
X015835Y018821D02*
X015728Y018714D01*
X015515Y018714D01*
X015408Y018821D01*
X015408Y019248D01*
X015515Y019354D01*
X015728Y019354D01*
X015835Y019248D01*
X015835Y018821D01*
X015190Y019034D02*
X014977Y019034D01*
X015084Y019248D02*
X015084Y018714D01*
X014761Y018714D02*
X014334Y018714D01*
X014116Y018714D02*
X013903Y018714D01*
X014009Y018714D02*
X014009Y019141D01*
X014116Y019141D01*
X014009Y019354D02*
X014009Y019461D01*
X013580Y019141D02*
X013686Y019034D01*
X013686Y018821D01*
X013580Y018714D01*
X013259Y018714D01*
X013259Y018607D02*
X013259Y019141D01*
X013580Y019141D01*
X013042Y019034D02*
X012935Y019141D01*
X012722Y019141D01*
X012615Y019034D01*
X012615Y018714D01*
X012290Y018821D02*
X012184Y018714D01*
X012290Y018821D02*
X012290Y019248D01*
X012184Y019141D02*
X012397Y019141D01*
X011968Y019248D02*
X011968Y018821D01*
X011861Y018714D01*
X011647Y018714D01*
X011540Y018821D01*
X011323Y018821D02*
X011323Y019034D01*
X011216Y019141D01*
X011003Y019141D01*
X010896Y019034D01*
X010896Y018821D01*
X011003Y018714D01*
X011216Y018714D01*
X011323Y018821D01*
X010678Y018714D02*
X010678Y019141D01*
X010358Y019141D01*
X010251Y019034D01*
X010251Y018714D01*
X009927Y018821D02*
X009820Y018714D01*
X009927Y018821D02*
X009927Y019248D01*
X010034Y019141D02*
X009820Y019141D01*
X009604Y019141D02*
X009604Y018714D01*
X009604Y018927D02*
X009391Y019141D01*
X009284Y019141D01*
X009067Y019034D02*
X009067Y018821D01*
X008960Y018714D01*
X008747Y018714D01*
X008640Y018821D01*
X008640Y019034D01*
X008747Y019141D01*
X008960Y019141D01*
X009067Y019034D01*
X008423Y018714D02*
X008209Y018714D01*
X008316Y018714D02*
X008316Y019354D01*
X008423Y019354D01*
X007993Y019354D02*
X007886Y019354D01*
X007886Y018714D01*
X007993Y018714D02*
X007779Y018714D01*
X007563Y018821D02*
X007563Y019034D01*
X007456Y019141D01*
X007243Y019141D01*
X007136Y019034D01*
X007136Y018927D01*
X007563Y018927D01*
X007563Y018821D02*
X007456Y018714D01*
X007243Y018714D01*
X006919Y018714D02*
X006919Y019141D01*
X006919Y018927D02*
X006705Y019141D01*
X006598Y019141D01*
X011540Y019248D02*
X011647Y019354D01*
X011861Y019354D01*
X011968Y019248D01*
X013042Y019354D02*
X013042Y018714D01*
X013259Y018607D02*
X013366Y018500D01*
X013473Y018500D01*
X014761Y018714D02*
X014761Y019354D01*
X014977Y019354D02*
X015084Y019248D01*
X018631Y019248D02*
X018737Y019354D01*
X018951Y019354D01*
X019058Y019248D01*
X020991Y019141D02*
X020991Y018714D01*
D12*
X024773Y017503D02*
X024773Y017043D01*
X024696Y017273D02*
X025003Y017273D01*
X024773Y017503D01*
X025156Y017426D02*
X025233Y017503D01*
X025387Y017503D01*
X025463Y017426D01*
X025617Y017426D02*
X025617Y017273D01*
X025694Y017196D01*
X025924Y017196D01*
X025924Y017043D02*
X025924Y017503D01*
X025694Y017503D01*
X025617Y017426D01*
X025770Y017196D02*
X025617Y017043D01*
X025463Y017043D02*
X025156Y017349D01*
X025156Y017426D01*
X025156Y017043D02*
X025463Y017043D01*
X025387Y016503D02*
X025463Y016426D01*
X025387Y016503D02*
X025233Y016503D01*
X025156Y016426D01*
X025156Y016349D01*
X025463Y016043D01*
X025156Y016043D01*
X025003Y016119D02*
X024926Y016043D01*
X024773Y016043D01*
X024696Y016119D01*
X024696Y016196D01*
X024773Y016273D01*
X024849Y016273D01*
X024773Y016273D02*
X024696Y016349D01*
X024696Y016426D01*
X024773Y016503D01*
X024926Y016503D01*
X025003Y016426D01*
X025617Y016426D02*
X025617Y016273D01*
X025694Y016196D01*
X025924Y016196D01*
X025924Y016043D02*
X025924Y016503D01*
X025694Y016503D01*
X025617Y016426D01*
X025770Y016196D02*
X025617Y016043D01*
X025694Y015503D02*
X025617Y015426D01*
X025617Y015273D01*
X025694Y015196D01*
X025924Y015196D01*
X025924Y015043D02*
X025924Y015503D01*
X025694Y015503D01*
X025463Y015426D02*
X025387Y015503D01*
X025233Y015503D01*
X025156Y015426D01*
X025156Y015349D01*
X025463Y015043D01*
X025156Y015043D01*
X025003Y015043D02*
X024696Y015349D01*
X024696Y015426D01*
X024773Y015503D01*
X024926Y015503D01*
X025003Y015426D01*
X025003Y015043D02*
X024696Y015043D01*
X025617Y015043D02*
X025770Y015196D01*
X025694Y014503D02*
X025617Y014426D01*
X025617Y014273D01*
X025694Y014196D01*
X025924Y014196D01*
X025924Y014043D02*
X025924Y014503D01*
X025694Y014503D01*
X025463Y014426D02*
X025387Y014503D01*
X025233Y014503D01*
X025156Y014426D01*
X025156Y014349D01*
X025463Y014043D01*
X025156Y014043D01*
X025003Y014043D02*
X024696Y014043D01*
X024849Y014043D02*
X024849Y014503D01*
X025003Y014349D01*
X025617Y014043D02*
X025770Y014196D01*
X025694Y013503D02*
X025617Y013426D01*
X025617Y013273D01*
X025694Y013196D01*
X025924Y013196D01*
X025924Y013043D02*
X025924Y013503D01*
X025694Y013503D01*
X025463Y013426D02*
X025387Y013503D01*
X025233Y013503D01*
X025156Y013426D01*
X025156Y013349D01*
X025463Y013043D01*
X025156Y013043D01*
X025003Y013119D02*
X024696Y013426D01*
X024696Y013119D01*
X024773Y013043D01*
X024926Y013043D01*
X025003Y013119D01*
X025003Y013426D01*
X024926Y013503D01*
X024773Y013503D01*
X024696Y013426D01*
X025617Y013043D02*
X025770Y013196D01*
X025694Y012503D02*
X025617Y012426D01*
X025617Y012273D01*
X025694Y012196D01*
X025924Y012196D01*
X025924Y012043D02*
X025924Y012503D01*
X025694Y012503D01*
X025463Y012349D02*
X025310Y012503D01*
X025310Y012043D01*
X025463Y012043D02*
X025156Y012043D01*
X025003Y012119D02*
X024926Y012043D01*
X024773Y012043D01*
X024696Y012119D01*
X024696Y012426D01*
X024773Y012503D01*
X024926Y012503D01*
X025003Y012426D01*
X025003Y012349D01*
X024926Y012273D01*
X024696Y012273D01*
X025617Y012043D02*
X025770Y012196D01*
X025773Y011503D02*
X025696Y011426D01*
X025696Y011349D01*
X025773Y011273D01*
X025926Y011273D01*
X026003Y011349D01*
X026003Y011426D01*
X025926Y011503D01*
X025773Y011503D01*
X025773Y011273D02*
X025696Y011196D01*
X025696Y011119D01*
X025773Y011043D01*
X025926Y011043D01*
X026003Y011119D01*
X026003Y011196D01*
X025926Y011273D01*
X026156Y011043D02*
X026463Y011043D01*
X026310Y011043D02*
X026310Y011503D01*
X026463Y011349D01*
X026617Y011273D02*
X026694Y011196D01*
X026924Y011196D01*
X026924Y011043D02*
X026924Y011503D01*
X026694Y011503D01*
X026617Y011426D01*
X026617Y011273D01*
X026770Y011196D02*
X026617Y011043D01*
X025924Y010503D02*
X025694Y010503D01*
X025617Y010426D01*
X025617Y010273D01*
X025694Y010196D01*
X025924Y010196D01*
X025924Y010043D02*
X025924Y010503D01*
X025463Y010349D02*
X025310Y010503D01*
X025310Y010043D01*
X025463Y010043D02*
X025156Y010043D01*
X025003Y010043D02*
X025003Y010119D01*
X024696Y010426D01*
X024696Y010503D01*
X025003Y010503D01*
X025617Y010043D02*
X025770Y010196D01*
X025733Y009503D02*
X025656Y009426D01*
X025656Y009349D01*
X025733Y009273D01*
X025656Y009196D01*
X025656Y009119D01*
X025733Y009043D01*
X025887Y009043D01*
X025963Y009119D01*
X026117Y009043D02*
X026270Y009196D01*
X026194Y009196D02*
X026424Y009196D01*
X026424Y009043D02*
X026424Y009503D01*
X026194Y009503D01*
X026117Y009426D01*
X026117Y009273D01*
X026194Y009196D01*
X025810Y009273D02*
X025733Y009273D01*
X025733Y009503D02*
X025887Y009503D01*
X025963Y009426D01*
X025503Y009426D02*
X025426Y009503D01*
X025273Y009503D01*
X025196Y009426D01*
X025196Y009349D01*
X025503Y009043D01*
X025196Y009043D01*
X025233Y008503D02*
X025156Y008426D01*
X025156Y008349D01*
X025233Y008273D01*
X025156Y008196D01*
X025156Y008119D01*
X025233Y008043D01*
X025387Y008043D01*
X025463Y008119D01*
X025617Y008043D02*
X025770Y008196D01*
X025694Y008196D02*
X025924Y008196D01*
X025924Y008043D02*
X025924Y008503D01*
X025694Y008503D01*
X025617Y008426D01*
X025617Y008273D01*
X025694Y008196D01*
X025310Y008273D02*
X025233Y008273D01*
X025233Y008503D02*
X025387Y008503D01*
X025463Y008426D01*
X025003Y008349D02*
X024849Y008503D01*
X024849Y008043D01*
X024696Y008043D02*
X025003Y008043D01*
X024926Y007503D02*
X024773Y007503D01*
X024696Y007426D01*
X025003Y007119D01*
X024926Y007043D01*
X024773Y007043D01*
X024696Y007119D01*
X024696Y007426D01*
X024926Y007503D02*
X025003Y007426D01*
X025003Y007119D01*
X025156Y007119D02*
X025233Y007043D01*
X025387Y007043D01*
X025463Y007119D01*
X025617Y007043D02*
X025770Y007196D01*
X025694Y007196D02*
X025924Y007196D01*
X025924Y007043D02*
X025924Y007503D01*
X025694Y007503D01*
X025617Y007426D01*
X025617Y007273D01*
X025694Y007196D01*
X025310Y007273D02*
X025233Y007273D01*
X025156Y007196D01*
X025156Y007119D01*
X025233Y007273D02*
X025156Y007349D01*
X025156Y007426D01*
X025233Y007503D01*
X025387Y007503D01*
X025463Y007426D01*
X025426Y006503D02*
X025503Y006426D01*
X025503Y006349D01*
X025426Y006273D01*
X025196Y006273D01*
X025196Y006426D02*
X025196Y006119D01*
X025273Y006043D01*
X025426Y006043D01*
X025503Y006119D01*
X025656Y006043D02*
X025963Y006043D01*
X025656Y006349D01*
X025656Y006426D01*
X025733Y006503D01*
X025887Y006503D01*
X025963Y006426D01*
X026117Y006426D02*
X026117Y006273D01*
X026194Y006196D01*
X026424Y006196D01*
X026424Y006043D02*
X026424Y006503D01*
X026194Y006503D01*
X026117Y006426D01*
X026270Y006196D02*
X026117Y006043D01*
X025426Y006503D02*
X025273Y006503D01*
X025196Y006426D01*
X025233Y005503D02*
X025387Y005503D01*
X025463Y005426D01*
X025617Y005426D02*
X025617Y005273D01*
X025694Y005196D01*
X025924Y005196D01*
X025924Y005043D02*
X025924Y005503D01*
X025694Y005503D01*
X025617Y005426D01*
X025233Y005503D02*
X025156Y005426D01*
X025156Y005349D01*
X025463Y005043D01*
X025156Y005043D01*
X025003Y005119D02*
X025003Y005196D01*
X024926Y005273D01*
X024773Y005273D01*
X024696Y005196D01*
X024696Y005119D01*
X024773Y005043D01*
X024926Y005043D01*
X025003Y005119D01*
X024926Y005273D02*
X025003Y005349D01*
X025003Y005426D01*
X024926Y005503D01*
X024773Y005503D01*
X024696Y005426D01*
X024696Y005349D01*
X024773Y005273D01*
X025617Y005043D02*
X025770Y005196D01*
X025694Y004503D02*
X025617Y004426D01*
X025617Y004273D01*
X025694Y004196D01*
X025924Y004196D01*
X025924Y004043D02*
X025924Y004503D01*
X025694Y004503D01*
X025463Y004426D02*
X025387Y004503D01*
X025233Y004503D01*
X025156Y004426D01*
X025156Y004349D01*
X025463Y004043D01*
X025156Y004043D01*
X025003Y004043D02*
X025003Y004119D01*
X024696Y004426D01*
X024696Y004503D01*
X025003Y004503D01*
X025617Y004043D02*
X025770Y004196D01*
X025694Y003503D02*
X025617Y003426D01*
X025617Y003273D01*
X025694Y003196D01*
X025924Y003196D01*
X025924Y003043D02*
X025924Y003503D01*
X025694Y003503D01*
X025463Y003426D02*
X025387Y003503D01*
X025233Y003503D01*
X025156Y003426D01*
X025156Y003349D01*
X025463Y003043D01*
X025156Y003043D01*
X025003Y003119D02*
X025003Y003273D01*
X024773Y003273D01*
X024696Y003196D01*
X024696Y003119D01*
X024773Y003043D01*
X024926Y003043D01*
X025003Y003119D01*
X025003Y003273D02*
X024849Y003426D01*
X024696Y003503D01*
X025617Y003043D02*
X025770Y003196D01*
X025694Y002503D02*
X025617Y002426D01*
X025617Y002273D01*
X025694Y002196D01*
X025924Y002196D01*
X025924Y002043D02*
X025924Y002503D01*
X025694Y002503D01*
X025463Y002426D02*
X025387Y002503D01*
X025233Y002503D01*
X025156Y002426D01*
X025156Y002349D01*
X025463Y002043D01*
X025156Y002043D01*
X025003Y002119D02*
X024926Y002043D01*
X024773Y002043D01*
X024696Y002119D01*
X024696Y002273D01*
X024773Y002349D01*
X024849Y002349D01*
X025003Y002273D01*
X025003Y002503D01*
X024696Y002503D01*
X025617Y002043D02*
X025770Y002196D01*
X015169Y002543D02*
X015169Y003003D01*
X014938Y003003D01*
X014862Y002926D01*
X014862Y002773D01*
X014938Y002696D01*
X015169Y002696D01*
X015015Y002696D02*
X014862Y002543D01*
X014708Y002619D02*
X014631Y002543D01*
X014478Y002543D01*
X014401Y002619D01*
X014401Y002926D01*
X014478Y003003D01*
X014631Y003003D01*
X014708Y002926D01*
X014708Y002849D01*
X014631Y002773D01*
X014401Y002773D01*
X014362Y003543D02*
X014515Y003696D01*
X014438Y003696D02*
X014669Y003696D01*
X014669Y003543D02*
X014669Y004003D01*
X014438Y004003D01*
X014362Y003926D01*
X014362Y003773D01*
X014438Y003696D01*
X014208Y003849D02*
X014055Y004003D01*
X014055Y003543D01*
X014208Y003543D02*
X013901Y003543D01*
X013748Y003619D02*
X013671Y003543D01*
X013518Y003543D01*
X013441Y003619D01*
X013441Y003926D01*
X013748Y003619D01*
X013748Y003926D01*
X013671Y004003D01*
X013518Y004003D01*
X013441Y003926D01*
X013941Y004543D02*
X014248Y004543D01*
X014401Y004543D02*
X014708Y004543D01*
X014555Y004543D02*
X014555Y005003D01*
X014708Y004849D01*
X014862Y004773D02*
X014862Y004926D01*
X014938Y005003D01*
X015169Y005003D01*
X015169Y004543D01*
X015169Y004696D02*
X014938Y004696D01*
X014862Y004773D01*
X015015Y004696D02*
X014862Y004543D01*
X014248Y004849D02*
X014094Y005003D01*
X014094Y004543D01*
X014055Y005543D02*
X014055Y006003D01*
X014208Y005849D01*
X014362Y005773D02*
X014438Y005696D01*
X014669Y005696D01*
X014669Y005543D02*
X014669Y006003D01*
X014438Y006003D01*
X014362Y005926D01*
X014362Y005773D01*
X014515Y005696D02*
X014362Y005543D01*
X014208Y005543D02*
X013901Y005543D01*
X013748Y005543D02*
X013441Y005849D01*
X013441Y005926D01*
X013518Y006003D01*
X013671Y006003D01*
X013748Y005926D01*
X013748Y005543D02*
X013441Y005543D01*
X013518Y006543D02*
X013671Y006543D01*
X013748Y006619D01*
X013901Y006543D02*
X014208Y006543D01*
X014055Y006543D02*
X014055Y007003D01*
X014208Y006849D01*
X014362Y006773D02*
X014438Y006696D01*
X014669Y006696D01*
X014669Y006543D02*
X014669Y007003D01*
X014438Y007003D01*
X014362Y006926D01*
X014362Y006773D01*
X014515Y006696D02*
X014362Y006543D01*
X013748Y006926D02*
X013671Y007003D01*
X013518Y007003D01*
X013441Y006926D01*
X013441Y006849D01*
X013518Y006773D01*
X013441Y006696D01*
X013441Y006619D01*
X013518Y006543D01*
X013518Y006773D02*
X013594Y006773D01*
X014018Y007543D02*
X014018Y008003D01*
X014248Y007773D01*
X013941Y007773D01*
X014401Y007543D02*
X014708Y007543D01*
X014555Y007543D02*
X014555Y008003D01*
X014708Y007849D01*
X014862Y007773D02*
X014862Y007926D01*
X014938Y008003D01*
X015169Y008003D01*
X015169Y007543D01*
X015169Y007696D02*
X014938Y007696D01*
X014862Y007773D01*
X015015Y007696D02*
X014862Y007543D01*
X014669Y008543D02*
X014669Y009003D01*
X014438Y009003D01*
X014362Y008926D01*
X014362Y008773D01*
X014438Y008696D01*
X014669Y008696D01*
X014515Y008696D02*
X014362Y008543D01*
X014208Y008543D02*
X013901Y008543D01*
X014055Y008543D02*
X014055Y009003D01*
X014208Y008849D01*
X013748Y008773D02*
X013594Y008849D01*
X013518Y008849D01*
X013441Y008773D01*
X013441Y008619D01*
X013518Y008543D01*
X013671Y008543D01*
X013748Y008619D01*
X013748Y008773D02*
X013748Y009003D01*
X013441Y009003D01*
X013401Y009543D02*
X013708Y009543D01*
X013555Y009543D02*
X013555Y010003D01*
X013708Y009849D01*
X013862Y009773D02*
X013862Y009926D01*
X013938Y010003D01*
X014169Y010003D01*
X014169Y009543D01*
X014169Y009696D02*
X013938Y009696D01*
X013862Y009773D01*
X014015Y009696D02*
X013862Y009543D01*
X013248Y009619D02*
X013248Y009773D01*
X013018Y009773D01*
X012941Y009696D01*
X012941Y009619D01*
X013018Y009543D01*
X013171Y009543D01*
X013248Y009619D01*
X013248Y009773D02*
X013094Y009926D01*
X012941Y010003D01*
X014401Y010543D02*
X014708Y010543D01*
X014555Y010543D02*
X014555Y011003D01*
X014708Y010849D01*
X014862Y010773D02*
X014862Y010926D01*
X014938Y011003D01*
X015169Y011003D01*
X015169Y010543D01*
X015169Y010696D02*
X014938Y010696D01*
X014862Y010773D01*
X015015Y010696D02*
X014862Y010543D01*
X014862Y011543D02*
X015015Y011696D01*
X014938Y011696D02*
X015169Y011696D01*
X015169Y011543D02*
X015169Y012003D01*
X014938Y012003D01*
X014862Y011926D01*
X014862Y011773D01*
X014938Y011696D01*
X014708Y011543D02*
X014401Y011543D01*
X014401Y011849D02*
X014708Y011543D01*
X014708Y011926D02*
X014631Y012003D01*
X014478Y012003D01*
X014401Y011926D01*
X014401Y011849D01*
X014478Y012543D02*
X014631Y012543D01*
X014708Y012619D01*
X014862Y012543D02*
X015015Y012696D01*
X014938Y012696D02*
X015169Y012696D01*
X015169Y012543D02*
X015169Y013003D01*
X014938Y013003D01*
X014862Y012926D01*
X014862Y012773D01*
X014938Y012696D01*
X014708Y012926D02*
X014631Y013003D01*
X014478Y013003D01*
X014401Y012926D01*
X014401Y012849D01*
X014478Y012773D01*
X014401Y012696D01*
X014401Y012619D01*
X014478Y012543D01*
X014478Y012773D02*
X014555Y012773D01*
X014478Y013543D02*
X014478Y014003D01*
X014708Y013773D01*
X014401Y013773D01*
X014862Y013773D02*
X014862Y013926D01*
X014938Y014003D01*
X015169Y014003D01*
X015169Y013543D01*
X015169Y013696D02*
X014938Y013696D01*
X014862Y013773D01*
X015015Y013696D02*
X014862Y013543D01*
X014862Y014543D02*
X015015Y014696D01*
X014938Y014696D02*
X015169Y014696D01*
X015169Y014543D02*
X015169Y015003D01*
X014938Y015003D01*
X014862Y014926D01*
X014862Y014773D01*
X014938Y014696D01*
X014708Y014773D02*
X014555Y014849D01*
X014478Y014849D01*
X014401Y014773D01*
X014401Y014619D01*
X014478Y014543D01*
X014631Y014543D01*
X014708Y014619D01*
X014708Y014773D02*
X014708Y015003D01*
X014401Y015003D01*
X014478Y015543D02*
X014401Y015619D01*
X014401Y015696D01*
X014478Y015773D01*
X014708Y015773D01*
X014708Y015619D01*
X014631Y015543D01*
X014478Y015543D01*
X014708Y015773D02*
X014555Y015926D01*
X014401Y016003D01*
X014862Y015926D02*
X014862Y015773D01*
X014938Y015696D01*
X015169Y015696D01*
X015169Y015543D02*
X015169Y016003D01*
X014938Y016003D01*
X014862Y015926D01*
X015015Y015696D02*
X014862Y015543D01*
X014862Y016543D02*
X015015Y016696D01*
X014938Y016696D02*
X015169Y016696D01*
X015169Y016543D02*
X015169Y017003D01*
X014938Y017003D01*
X014862Y016926D01*
X014862Y016773D01*
X014938Y016696D01*
X014708Y016619D02*
X014401Y016926D01*
X014401Y017003D01*
X014708Y017003D01*
X014708Y016619D02*
X014708Y016543D01*
X014631Y017543D02*
X014708Y017619D01*
X014708Y017696D01*
X014631Y017773D01*
X014478Y017773D01*
X014401Y017696D01*
X014401Y017619D01*
X014478Y017543D01*
X014631Y017543D01*
X014631Y017773D02*
X014708Y017849D01*
X014708Y017926D01*
X014631Y018003D01*
X014478Y018003D01*
X014401Y017926D01*
X014401Y017849D01*
X014478Y017773D01*
X014862Y017773D02*
X014862Y017926D01*
X014938Y018003D01*
X015169Y018003D01*
X015169Y017543D01*
X015169Y017696D02*
X014938Y017696D01*
X014862Y017773D01*
X015015Y017696D02*
X014862Y017543D01*
D13*
X012701Y010870D02*
X012726Y010845D01*
X012726Y010820D01*
X012701Y010795D01*
X012651Y010795D01*
X012626Y010770D01*
X012626Y010745D01*
X012651Y010720D01*
X012701Y010720D01*
X012726Y010745D01*
X012701Y010870D02*
X012651Y010870D01*
X012626Y010845D01*
X012529Y010870D02*
X012478Y010870D01*
X012503Y010870D02*
X012503Y010745D01*
X012529Y010720D01*
X012554Y010720D01*
X012579Y010745D01*
X012431Y010745D02*
X012406Y010720D01*
X012356Y010720D01*
X012331Y010745D01*
X012331Y010845D01*
X012356Y010870D01*
X012406Y010870D01*
X012431Y010845D01*
X012431Y010820D01*
X012406Y010795D01*
X012331Y010795D01*
X012356Y009925D02*
X012331Y009900D01*
X012331Y009875D01*
X012356Y009850D01*
X012406Y009850D01*
X012431Y009875D01*
X012431Y009900D01*
X012406Y009925D01*
X012356Y009925D01*
X012356Y009850D02*
X012331Y009825D01*
X012331Y009800D01*
X012356Y009775D01*
X012406Y009775D01*
X012431Y009800D01*
X012431Y009825D01*
X012406Y009850D01*
X012478Y009925D02*
X012529Y009925D01*
X012503Y009925D02*
X012503Y009800D01*
X012529Y009775D01*
X012554Y009775D01*
X012579Y009800D01*
X012626Y009800D02*
X012651Y009775D01*
X012701Y009775D01*
X012726Y009800D01*
X012701Y009850D02*
X012651Y009850D01*
X012626Y009825D01*
X012626Y009800D01*
X012701Y009850D02*
X012726Y009875D01*
X012726Y009900D01*
X012701Y009925D01*
X012651Y009925D01*
X012626Y009900D01*
X012651Y008980D02*
X012701Y008980D01*
X012726Y008955D01*
X012726Y008930D01*
X012701Y008905D01*
X012651Y008905D01*
X012626Y008880D01*
X012626Y008855D01*
X012651Y008830D01*
X012701Y008830D01*
X012726Y008855D01*
X012626Y008955D02*
X012651Y008980D01*
X012529Y008980D02*
X012478Y008980D01*
X012503Y008980D02*
X012503Y008855D01*
X012529Y008830D01*
X012554Y008830D01*
X012579Y008855D01*
X012431Y008855D02*
X012431Y008830D01*
X012431Y008855D02*
X012331Y008955D01*
X012331Y008980D01*
X012431Y008980D01*
X020205Y008849D02*
X020205Y008749D01*
X020230Y008724D01*
X020280Y008724D01*
X020305Y008749D01*
X020205Y008849D01*
X020230Y008874D01*
X020280Y008874D01*
X020305Y008849D01*
X020305Y008749D01*
X020352Y008724D02*
X020453Y008724D01*
X020403Y008724D02*
X020403Y008874D01*
X020453Y008824D01*
X020500Y008874D02*
X020550Y008874D01*
X020525Y008874D02*
X020525Y008749D01*
X020550Y008724D01*
X020575Y008724D01*
X020600Y008749D01*
X020647Y008749D02*
X020672Y008724D01*
X020722Y008724D01*
X020747Y008749D01*
X020722Y008799D02*
X020672Y008799D01*
X020647Y008774D01*
X020647Y008749D01*
X020722Y008799D02*
X020747Y008824D01*
X020747Y008849D01*
X020722Y008874D01*
X020672Y008874D01*
X020647Y008849D01*
X020672Y009747D02*
X020647Y009772D01*
X020647Y009797D01*
X020672Y009823D01*
X020722Y009823D01*
X020747Y009848D01*
X020747Y009873D01*
X020722Y009898D01*
X020672Y009898D01*
X020647Y009873D01*
X020550Y009898D02*
X020500Y009898D01*
X020525Y009898D02*
X020525Y009772D01*
X020550Y009747D01*
X020575Y009747D01*
X020600Y009772D01*
X020672Y009747D02*
X020722Y009747D01*
X020747Y009772D01*
X020453Y009747D02*
X020352Y009747D01*
X020305Y009747D02*
X020205Y009747D01*
X020255Y009747D02*
X020255Y009898D01*
X020305Y009848D01*
X020403Y009898D02*
X020403Y009747D01*
X020453Y009848D02*
X020403Y009898D01*
X020403Y010771D02*
X020403Y010921D01*
X020453Y010871D01*
X020500Y010921D02*
X020550Y010921D01*
X020525Y010921D02*
X020525Y010796D01*
X020550Y010771D01*
X020575Y010771D01*
X020600Y010796D01*
X020647Y010796D02*
X020672Y010771D01*
X020722Y010771D01*
X020747Y010796D01*
X020722Y010846D02*
X020672Y010846D01*
X020647Y010821D01*
X020647Y010796D01*
X020722Y010846D02*
X020747Y010871D01*
X020747Y010896D01*
X020722Y010921D01*
X020672Y010921D01*
X020647Y010896D01*
X020453Y010771D02*
X020352Y010771D01*
X020305Y010771D02*
X020205Y010871D01*
X020205Y010896D01*
X020230Y010921D01*
X020280Y010921D01*
X020305Y010896D01*
X020305Y010771D02*
X020205Y010771D01*
X032016Y010770D02*
X032041Y010795D01*
X032116Y010795D01*
X032116Y010745D01*
X032091Y010720D01*
X032041Y010720D01*
X032016Y010745D01*
X032016Y010770D01*
X032066Y010845D02*
X032116Y010795D01*
X032066Y010845D02*
X032016Y010870D01*
X032164Y010870D02*
X032214Y010870D01*
X032189Y010870D02*
X032189Y010745D01*
X032214Y010720D01*
X032239Y010720D01*
X032264Y010745D01*
X032311Y010745D02*
X032336Y010720D01*
X032386Y010720D01*
X032411Y010745D01*
X032386Y010795D02*
X032336Y010795D01*
X032311Y010770D01*
X032311Y010745D01*
X032386Y010795D02*
X032411Y010820D01*
X032411Y010845D01*
X032386Y010870D01*
X032336Y010870D01*
X032311Y010845D01*
X032336Y009925D02*
X032386Y009925D01*
X032411Y009900D01*
X032411Y009875D01*
X032386Y009850D01*
X032336Y009850D01*
X032311Y009825D01*
X032311Y009800D01*
X032336Y009775D01*
X032386Y009775D01*
X032411Y009800D01*
X032311Y009900D02*
X032336Y009925D01*
X032214Y009925D02*
X032164Y009925D01*
X032189Y009925D02*
X032189Y009800D01*
X032214Y009775D01*
X032239Y009775D01*
X032264Y009800D01*
X032116Y009850D02*
X032016Y009850D01*
X032041Y009775D02*
X032041Y009925D01*
X032116Y009850D01*
X032116Y008980D02*
X032116Y008905D01*
X032066Y008930D01*
X032041Y008930D01*
X032016Y008905D01*
X032016Y008855D01*
X032041Y008830D01*
X032091Y008830D01*
X032116Y008855D01*
X032189Y008855D02*
X032189Y008980D01*
X032214Y008980D02*
X032164Y008980D01*
X032116Y008980D02*
X032016Y008980D01*
X032189Y008855D02*
X032214Y008830D01*
X032239Y008830D01*
X032264Y008855D01*
X032311Y008855D02*
X032336Y008830D01*
X032386Y008830D01*
X032411Y008855D01*
X032386Y008905D02*
X032336Y008905D01*
X032311Y008880D01*
X032311Y008855D01*
X032386Y008905D02*
X032411Y008930D01*
X032411Y008955D01*
X032386Y008980D01*
X032336Y008980D01*
X032311Y008955D01*
X000915Y008955D02*
X000915Y008930D01*
X000890Y008905D01*
X000840Y008905D01*
X000815Y008880D01*
X000815Y008855D01*
X000840Y008830D01*
X000890Y008830D01*
X000915Y008855D01*
X000915Y008955D02*
X000890Y008980D01*
X000840Y008980D01*
X000815Y008955D01*
X000717Y008980D02*
X000667Y008980D01*
X000692Y008980D02*
X000692Y008855D01*
X000717Y008830D01*
X000743Y008830D01*
X000768Y008855D01*
X000620Y008830D02*
X000520Y008830D01*
X000570Y008830D02*
X000570Y008980D01*
X000620Y008930D01*
X000620Y009775D02*
X000520Y009875D01*
X000520Y009900D01*
X000545Y009925D01*
X000595Y009925D01*
X000620Y009900D01*
X000667Y009925D02*
X000717Y009925D01*
X000692Y009925D02*
X000692Y009800D01*
X000717Y009775D01*
X000743Y009775D01*
X000768Y009800D01*
X000815Y009800D02*
X000815Y009825D01*
X000840Y009850D01*
X000890Y009850D01*
X000915Y009875D01*
X000915Y009900D01*
X000890Y009925D01*
X000840Y009925D01*
X000815Y009900D01*
X000815Y009800D02*
X000840Y009775D01*
X000890Y009775D01*
X000915Y009800D01*
X000620Y009775D02*
X000520Y009775D01*
X000545Y010720D02*
X000595Y010720D01*
X000620Y010745D01*
X000570Y010795D02*
X000545Y010795D01*
X000520Y010770D01*
X000520Y010745D01*
X000545Y010720D01*
X000545Y010795D02*
X000520Y010820D01*
X000520Y010845D01*
X000545Y010870D01*
X000595Y010870D01*
X000620Y010845D01*
X000667Y010870D02*
X000717Y010870D01*
X000692Y010870D02*
X000692Y010745D01*
X000717Y010720D01*
X000743Y010720D01*
X000768Y010745D01*
X000815Y010745D02*
X000840Y010720D01*
X000890Y010720D01*
X000915Y010745D01*
X000890Y010795D02*
X000840Y010795D01*
X000815Y010770D01*
X000815Y010745D01*
X000890Y010795D02*
X000915Y010820D01*
X000915Y010845D01*
X000890Y010870D01*
X000840Y010870D01*
X000815Y010845D01*
D14*
X016431Y014686D02*
X016481Y014636D01*
X016728Y014587D01*
X017620Y014537D01*
X017669Y014488D01*
X017620Y014339D01*
X017521Y014191D01*
X017273Y014141D01*
X016679Y014092D01*
X016580Y014042D01*
X016976Y014042D01*
X017075Y014092D01*
X017471Y014092D01*
X017422Y013943D01*
X017125Y013002D01*
X016926Y012259D01*
X016976Y012061D01*
X016778Y011368D01*
X016877Y010675D01*
X017025Y010328D01*
X017372Y010031D01*
X018065Y009684D01*
X018412Y009486D01*
X019056Y009387D01*
X019601Y009486D01*
X021334Y010427D01*
X021532Y010526D01*
X021730Y010278D01*
X022473Y010476D01*
X022919Y010774D01*
X023166Y011318D01*
X023067Y011814D01*
X022770Y011913D01*
X022671Y012012D01*
X022869Y012160D01*
X023117Y012012D01*
X023265Y012012D01*
X023315Y012160D01*
X022671Y012309D01*
X022324Y011913D01*
X022126Y011764D01*
X022324Y011665D01*
X022721Y011615D01*
X022919Y011368D01*
X022968Y011170D01*
X022869Y010972D01*
X022721Y010774D01*
X022522Y010625D01*
X022176Y010575D01*
X021879Y010575D01*
X021681Y010724D01*
X021482Y010823D01*
X021383Y010823D01*
X020839Y010427D01*
X020294Y010080D01*
X019947Y009833D01*
X019403Y009585D01*
X018907Y009536D01*
X018363Y009684D01*
X017966Y009882D01*
X017570Y010130D01*
X017224Y010377D01*
X016976Y010873D01*
X016877Y011516D01*
X017075Y012111D01*
X016963Y012111D01*
X016951Y012160D02*
X017086Y012160D01*
X017097Y012208D02*
X016939Y012208D01*
X016927Y012257D02*
X017107Y012257D01*
X017118Y012305D02*
X016939Y012305D01*
X016952Y012354D02*
X017129Y012354D01*
X017140Y012402D02*
X016965Y012402D01*
X016977Y012451D02*
X017151Y012451D01*
X017161Y012499D02*
X016990Y012499D01*
X017003Y012548D02*
X017172Y012548D01*
X017174Y012556D02*
X017471Y013646D01*
X017768Y014339D01*
X018016Y014587D01*
X018065Y014636D01*
X017966Y014686D01*
X017917Y014686D01*
X017867Y014636D01*
X016877Y014636D01*
X016827Y014686D01*
X016431Y014686D01*
X016435Y014682D02*
X016832Y014682D01*
X016768Y014585D02*
X018014Y014585D01*
X018062Y014633D02*
X016497Y014633D01*
X017233Y015215D02*
X017361Y015215D01*
X017389Y015167D02*
X017612Y015167D01*
X017544Y015118D02*
X017862Y015118D01*
X017854Y015021D02*
X018364Y015021D01*
X018320Y014876D02*
X018759Y014876D01*
X018759Y014924D02*
X018165Y014924D01*
X018113Y015070D02*
X017699Y015070D01*
X018009Y014973D02*
X018759Y014973D01*
X018759Y014983D02*
X018561Y015825D01*
X019155Y015429D01*
X019601Y014884D01*
X019749Y014983D01*
X019799Y015577D01*
X019799Y016171D01*
X019898Y016221D01*
X020492Y015082D01*
X020641Y014587D01*
X020789Y014587D01*
X021284Y015577D01*
X021482Y014587D01*
X021631Y014191D01*
X021730Y014191D01*
X021780Y014240D01*
X021383Y016171D01*
X020839Y015032D01*
X019650Y017063D01*
X019303Y016964D01*
X019551Y016221D01*
X019650Y015379D01*
X019403Y015429D01*
X018115Y016469D01*
X017768Y016419D01*
X018561Y014983D01*
X017025Y015280D01*
X018610Y014785D01*
X018759Y014735D01*
X018759Y014983D01*
X018750Y015021D02*
X018540Y015021D01*
X018513Y015070D02*
X018738Y015070D01*
X018727Y015118D02*
X018486Y015118D01*
X018459Y015167D02*
X018716Y015167D01*
X018704Y015215D02*
X018433Y015215D01*
X018406Y015264D02*
X018693Y015264D01*
X018681Y015312D02*
X018379Y015312D01*
X018352Y015361D02*
X018670Y015361D01*
X018658Y015409D02*
X018326Y015409D01*
X018299Y015458D02*
X018647Y015458D01*
X018636Y015506D02*
X018272Y015506D01*
X018245Y015555D02*
X018624Y015555D01*
X018613Y015603D02*
X018219Y015603D01*
X018192Y015652D02*
X018601Y015652D01*
X018590Y015700D02*
X018165Y015700D01*
X018138Y015749D02*
X018579Y015749D01*
X018567Y015797D02*
X018111Y015797D01*
X018085Y015846D02*
X018886Y015846D01*
X018826Y015894D02*
X018058Y015894D01*
X018031Y015943D02*
X018766Y015943D01*
X018706Y015991D02*
X018004Y015991D01*
X017978Y016040D02*
X018646Y016040D01*
X018586Y016088D02*
X017951Y016088D01*
X017924Y016137D02*
X018526Y016137D01*
X018466Y016185D02*
X017897Y016185D01*
X017871Y016234D02*
X018406Y016234D01*
X018346Y016282D02*
X017844Y016282D01*
X017817Y016331D02*
X018286Y016331D01*
X018226Y016379D02*
X017790Y016379D01*
X017828Y016428D02*
X018166Y016428D01*
X018602Y015797D02*
X018946Y015797D01*
X019006Y015749D02*
X018675Y015749D01*
X018748Y015700D02*
X019066Y015700D01*
X019127Y015652D02*
X018821Y015652D01*
X018893Y015603D02*
X019187Y015603D01*
X019247Y015555D02*
X018966Y015555D01*
X019039Y015506D02*
X019307Y015506D01*
X019367Y015458D02*
X019112Y015458D01*
X019171Y015409D02*
X019500Y015409D01*
X019647Y015409D02*
X019785Y015409D01*
X019781Y015361D02*
X019211Y015361D01*
X019250Y015312D02*
X019777Y015312D01*
X019773Y015264D02*
X019290Y015264D01*
X019330Y015215D02*
X019769Y015215D01*
X019764Y015167D02*
X019369Y015167D01*
X019409Y015118D02*
X019760Y015118D01*
X019756Y015070D02*
X019449Y015070D01*
X019488Y015021D02*
X019752Y015021D01*
X019734Y014973D02*
X019528Y014973D01*
X019568Y014924D02*
X019661Y014924D01*
X019650Y014438D02*
X019551Y014438D01*
X020046Y014141D01*
X020145Y014141D01*
X019650Y014438D01*
X019630Y014391D02*
X019730Y014391D01*
X019711Y014342D02*
X019810Y014342D01*
X019792Y014294D02*
X019891Y014294D01*
X019873Y014245D02*
X019972Y014245D01*
X019954Y014197D02*
X020053Y014197D01*
X020035Y014148D02*
X020134Y014148D01*
X020393Y014191D02*
X020591Y013992D01*
X020789Y013794D01*
X020888Y013745D01*
X020987Y013794D01*
X020443Y014240D01*
X020393Y014191D01*
X020399Y014197D02*
X020496Y014197D01*
X020555Y014148D02*
X020435Y014148D01*
X020484Y014100D02*
X020614Y014100D01*
X020674Y014051D02*
X020532Y014051D01*
X020581Y014003D02*
X020733Y014003D01*
X020792Y013954D02*
X020629Y013954D01*
X020678Y013906D02*
X020851Y013906D01*
X020911Y013857D02*
X020726Y013857D01*
X020775Y013809D02*
X020970Y013809D01*
X020919Y013760D02*
X020858Y013760D01*
X021629Y014197D02*
X021736Y014197D01*
X021779Y014245D02*
X021611Y014245D01*
X021592Y014294D02*
X021769Y014294D01*
X021759Y014342D02*
X021574Y014342D01*
X021556Y014391D02*
X021749Y014391D01*
X021739Y014439D02*
X021538Y014439D01*
X021520Y014488D02*
X021729Y014488D01*
X021719Y014536D02*
X021501Y014536D01*
X021483Y014585D02*
X021709Y014585D01*
X021699Y014633D02*
X021473Y014633D01*
X021464Y014682D02*
X021689Y014682D01*
X021679Y014730D02*
X021454Y014730D01*
X021444Y014779D02*
X021669Y014779D01*
X021659Y014827D02*
X021434Y014827D01*
X021425Y014876D02*
X021649Y014876D01*
X021639Y014924D02*
X021415Y014924D01*
X021405Y014973D02*
X021629Y014973D01*
X021619Y015021D02*
X021396Y015021D01*
X021386Y015070D02*
X021609Y015070D01*
X021600Y015118D02*
X021376Y015118D01*
X021367Y015167D02*
X021590Y015167D01*
X021580Y015215D02*
X021357Y015215D01*
X021347Y015264D02*
X021570Y015264D01*
X021560Y015312D02*
X021337Y015312D01*
X021328Y015361D02*
X021550Y015361D01*
X021540Y015409D02*
X021318Y015409D01*
X021308Y015458D02*
X021530Y015458D01*
X021520Y015506D02*
X021299Y015506D01*
X021289Y015555D02*
X021510Y015555D01*
X021500Y015603D02*
X021112Y015603D01*
X021135Y015652D02*
X021490Y015652D01*
X021480Y015700D02*
X021158Y015700D01*
X021181Y015749D02*
X021470Y015749D01*
X021460Y015797D02*
X021204Y015797D01*
X021228Y015846D02*
X021450Y015846D01*
X021440Y015894D02*
X021251Y015894D01*
X021274Y015943D02*
X021430Y015943D01*
X021420Y015991D02*
X021297Y015991D01*
X021320Y016040D02*
X021410Y016040D01*
X021401Y016088D02*
X021344Y016088D01*
X021367Y016137D02*
X021391Y016137D01*
X020476Y015652D02*
X020195Y015652D01*
X020170Y015700D02*
X020448Y015700D01*
X020419Y015749D02*
X020144Y015749D01*
X020119Y015797D02*
X020391Y015797D01*
X020363Y015846D02*
X020094Y015846D01*
X020068Y015894D02*
X020334Y015894D01*
X020306Y015943D02*
X020043Y015943D01*
X020018Y015991D02*
X020278Y015991D01*
X020249Y016040D02*
X019992Y016040D01*
X019967Y016088D02*
X020221Y016088D01*
X020192Y016137D02*
X019942Y016137D01*
X019916Y016185D02*
X020164Y016185D01*
X020136Y016234D02*
X019547Y016234D01*
X019555Y016185D02*
X019826Y016185D01*
X019799Y016137D02*
X019561Y016137D01*
X019567Y016088D02*
X019799Y016088D01*
X019799Y016040D02*
X019572Y016040D01*
X019578Y015991D02*
X019799Y015991D01*
X019799Y015943D02*
X019584Y015943D01*
X019590Y015894D02*
X019799Y015894D01*
X019799Y015846D02*
X019595Y015846D01*
X019601Y015797D02*
X019799Y015797D01*
X019799Y015749D02*
X019607Y015749D01*
X019612Y015700D02*
X019799Y015700D01*
X019799Y015652D02*
X019618Y015652D01*
X019624Y015603D02*
X019799Y015603D01*
X019797Y015555D02*
X019630Y015555D01*
X019635Y015506D02*
X019793Y015506D01*
X019789Y015458D02*
X019641Y015458D01*
X020220Y015603D02*
X020505Y015603D01*
X020533Y015555D02*
X020245Y015555D01*
X020271Y015506D02*
X020561Y015506D01*
X020590Y015458D02*
X020296Y015458D01*
X020321Y015409D02*
X020618Y015409D01*
X020647Y015361D02*
X020347Y015361D01*
X020372Y015312D02*
X020675Y015312D01*
X020703Y015264D02*
X020397Y015264D01*
X020423Y015215D02*
X020732Y015215D01*
X020760Y015167D02*
X020448Y015167D01*
X020473Y015118D02*
X020789Y015118D01*
X020817Y015070D02*
X020496Y015070D01*
X020510Y015021D02*
X021006Y015021D01*
X020982Y014973D02*
X020525Y014973D01*
X020539Y014924D02*
X020958Y014924D01*
X020934Y014876D02*
X020554Y014876D01*
X020568Y014827D02*
X020909Y014827D01*
X020885Y014779D02*
X020583Y014779D01*
X020598Y014730D02*
X020861Y014730D01*
X020837Y014682D02*
X020612Y014682D01*
X020627Y014633D02*
X020812Y014633D01*
X020856Y015070D02*
X021031Y015070D01*
X021055Y015118D02*
X020880Y015118D01*
X020903Y015167D02*
X021079Y015167D01*
X021103Y015215D02*
X020926Y015215D01*
X020949Y015264D02*
X021128Y015264D01*
X021152Y015312D02*
X020972Y015312D01*
X020996Y015361D02*
X021176Y015361D01*
X021200Y015409D02*
X021019Y015409D01*
X021042Y015458D02*
X021225Y015458D01*
X021249Y015506D02*
X021065Y015506D01*
X021088Y015555D02*
X021273Y015555D01*
X022621Y014834D02*
X022572Y014488D01*
X022275Y013299D01*
X022374Y014191D01*
X022621Y014834D01*
X022619Y014827D02*
X022620Y014827D01*
X022614Y014779D02*
X022600Y014779D01*
X022607Y014730D02*
X022581Y014730D01*
X022563Y014682D02*
X022600Y014682D01*
X022593Y014633D02*
X022544Y014633D01*
X022525Y014585D02*
X022586Y014585D01*
X022579Y014536D02*
X022507Y014536D01*
X022488Y014488D02*
X022572Y014488D01*
X022560Y014439D02*
X022469Y014439D01*
X022451Y014391D02*
X022548Y014391D01*
X022536Y014342D02*
X022432Y014342D01*
X022413Y014294D02*
X022523Y014294D01*
X022511Y014245D02*
X022395Y014245D01*
X022376Y014197D02*
X022499Y014197D01*
X022487Y014148D02*
X022369Y014148D01*
X022364Y014100D02*
X022475Y014100D01*
X022463Y014051D02*
X022358Y014051D01*
X022353Y014003D02*
X022451Y014003D01*
X022439Y013954D02*
X022348Y013954D01*
X022342Y013906D02*
X022426Y013906D01*
X022414Y013857D02*
X022337Y013857D01*
X022331Y013809D02*
X022402Y013809D01*
X022390Y013760D02*
X022326Y013760D01*
X022321Y013712D02*
X022378Y013712D01*
X022366Y013663D02*
X022315Y013663D01*
X022310Y013615D02*
X022354Y013615D01*
X022342Y013566D02*
X022304Y013566D01*
X022299Y013518D02*
X022329Y013518D01*
X022317Y013469D02*
X022294Y013469D01*
X022288Y013421D02*
X022305Y013421D01*
X022293Y013372D02*
X022283Y013372D01*
X022278Y013324D02*
X022281Y013324D01*
X022671Y013101D02*
X022968Y013547D01*
X023117Y013646D01*
X023216Y013646D01*
X022721Y013052D01*
X022621Y013002D01*
X022671Y013101D01*
X022661Y013081D02*
X022745Y013081D01*
X022786Y013130D02*
X022690Y013130D01*
X022722Y013178D02*
X022826Y013178D01*
X022866Y013227D02*
X022755Y013227D01*
X022787Y013275D02*
X022907Y013275D01*
X022947Y013324D02*
X022819Y013324D01*
X022852Y013372D02*
X022988Y013372D01*
X023028Y013421D02*
X022884Y013421D01*
X022916Y013469D02*
X023068Y013469D01*
X023109Y013518D02*
X022949Y013518D01*
X022997Y013566D02*
X023149Y013566D01*
X023190Y013615D02*
X023070Y013615D01*
X023315Y013101D02*
X023166Y012705D01*
X023166Y012556D01*
X023513Y012408D01*
X022671Y012606D01*
X022671Y012655D01*
X023315Y013101D01*
X023307Y013081D02*
X023286Y013081D01*
X023289Y013033D02*
X023216Y013033D01*
X023271Y012984D02*
X023146Y012984D01*
X023076Y012936D02*
X023253Y012936D01*
X023235Y012887D02*
X023006Y012887D01*
X022936Y012839D02*
X023216Y012839D01*
X023198Y012790D02*
X022866Y012790D01*
X022795Y012742D02*
X023180Y012742D01*
X023166Y012693D02*
X022725Y012693D01*
X022671Y012645D02*
X023166Y012645D01*
X023166Y012596D02*
X022713Y012596D01*
X022919Y012548D02*
X023187Y012548D01*
X023125Y012499D02*
X023300Y012499D01*
X023331Y012451D02*
X023413Y012451D01*
X022897Y012257D02*
X022625Y012257D01*
X022668Y012305D02*
X022687Y012305D01*
X022583Y012208D02*
X023107Y012208D01*
X023032Y012063D02*
X023282Y012063D01*
X023298Y012111D02*
X022951Y012111D01*
X022870Y012160D02*
X023315Y012160D01*
X023266Y012014D02*
X023113Y012014D01*
X023048Y011820D02*
X022201Y011820D01*
X022136Y011772D02*
X023076Y011772D01*
X023085Y011723D02*
X022208Y011723D01*
X022305Y011675D02*
X023095Y011675D01*
X023105Y011626D02*
X022636Y011626D01*
X022751Y011578D02*
X023114Y011578D01*
X023124Y011529D02*
X022790Y011529D01*
X022828Y011481D02*
X023134Y011481D01*
X023143Y011432D02*
X022867Y011432D01*
X022906Y011384D02*
X023153Y011384D01*
X023163Y011335D02*
X022927Y011335D01*
X022939Y011287D02*
X023152Y011287D01*
X023130Y011238D02*
X022951Y011238D01*
X022963Y011190D02*
X023108Y011190D01*
X023086Y011141D02*
X022954Y011141D01*
X022930Y011093D02*
X023064Y011093D01*
X023042Y011044D02*
X022905Y011044D01*
X022881Y010996D02*
X023020Y010996D01*
X022997Y010947D02*
X022851Y010947D01*
X022814Y010899D02*
X022975Y010899D01*
X022953Y010850D02*
X022778Y010850D01*
X022742Y010802D02*
X022931Y010802D01*
X022888Y010753D02*
X022693Y010753D01*
X022629Y010705D02*
X022815Y010705D01*
X022742Y010656D02*
X022564Y010656D01*
X022597Y010559D02*
X021020Y010559D01*
X020954Y010511D02*
X021501Y010511D01*
X021544Y010511D02*
X022524Y010511D01*
X022419Y010462D02*
X021583Y010462D01*
X021622Y010414D02*
X022237Y010414D01*
X022055Y010365D02*
X021661Y010365D01*
X021700Y010317D02*
X021873Y010317D01*
X021836Y010608D02*
X021087Y010608D01*
X021154Y010656D02*
X021771Y010656D01*
X021707Y010705D02*
X021220Y010705D01*
X021287Y010753D02*
X021623Y010753D01*
X021526Y010802D02*
X021354Y010802D01*
X021404Y010462D02*
X020887Y010462D01*
X020818Y010414D02*
X021309Y010414D01*
X021220Y010365D02*
X020741Y010365D01*
X020665Y010317D02*
X021131Y010317D01*
X021041Y010268D02*
X020589Y010268D01*
X020513Y010220D02*
X020952Y010220D01*
X020863Y010171D02*
X020437Y010171D01*
X020360Y010123D02*
X020773Y010123D01*
X020684Y010074D02*
X020285Y010074D01*
X020217Y010026D02*
X020595Y010026D01*
X020505Y009977D02*
X020149Y009977D01*
X020082Y009929D02*
X020416Y009929D01*
X020327Y009880D02*
X020014Y009880D01*
X019945Y009832D02*
X020237Y009832D01*
X020148Y009783D02*
X019838Y009783D01*
X019731Y009735D02*
X020058Y009735D01*
X019969Y009686D02*
X019625Y009686D01*
X019518Y009638D02*
X019880Y009638D01*
X019790Y009589D02*
X019411Y009589D01*
X019367Y009444D02*
X018688Y009444D01*
X018711Y009589D02*
X018232Y009589D01*
X018317Y009541D02*
X018889Y009541D01*
X018958Y009541D02*
X019701Y009541D01*
X019612Y009492D02*
X018402Y009492D01*
X018533Y009638D02*
X018147Y009638D01*
X018062Y009686D02*
X018359Y009686D01*
X018262Y009735D02*
X017965Y009735D01*
X017868Y009783D02*
X018165Y009783D01*
X018068Y009832D02*
X017771Y009832D01*
X017674Y009880D02*
X017971Y009880D01*
X017892Y009929D02*
X017577Y009929D01*
X017480Y009977D02*
X017815Y009977D01*
X017737Y010026D02*
X017383Y010026D01*
X017322Y010074D02*
X017659Y010074D01*
X017582Y010123D02*
X017265Y010123D01*
X017208Y010171D02*
X017512Y010171D01*
X017445Y010220D02*
X017152Y010220D01*
X017095Y010268D02*
X017377Y010268D01*
X017309Y010317D02*
X017039Y010317D01*
X017010Y010365D02*
X017241Y010365D01*
X017205Y010414D02*
X016989Y010414D01*
X016968Y010462D02*
X017181Y010462D01*
X017157Y010511D02*
X016947Y010511D01*
X016926Y010559D02*
X017133Y010559D01*
X017108Y010608D02*
X016906Y010608D01*
X016885Y010656D02*
X017084Y010656D01*
X017060Y010705D02*
X016873Y010705D01*
X016866Y010753D02*
X017036Y010753D01*
X017011Y010802D02*
X016859Y010802D01*
X016852Y010850D02*
X016987Y010850D01*
X016972Y010899D02*
X016845Y010899D01*
X016838Y010947D02*
X016965Y010947D01*
X016957Y010996D02*
X016831Y010996D01*
X016824Y011044D02*
X016950Y011044D01*
X016942Y011093D02*
X016817Y011093D01*
X016810Y011141D02*
X016935Y011141D01*
X016927Y011190D02*
X016803Y011190D01*
X016796Y011238D02*
X016920Y011238D01*
X016912Y011287D02*
X016789Y011287D01*
X016783Y011335D02*
X016905Y011335D01*
X016897Y011384D02*
X016782Y011384D01*
X016796Y011432D02*
X016890Y011432D01*
X016882Y011481D02*
X016810Y011481D01*
X016824Y011529D02*
X016881Y011529D01*
X016897Y011578D02*
X016838Y011578D01*
X016852Y011626D02*
X016913Y011626D01*
X016930Y011675D02*
X016866Y011675D01*
X016879Y011723D02*
X016946Y011723D01*
X016962Y011772D02*
X016893Y011772D01*
X016907Y011820D02*
X016978Y011820D01*
X016994Y011869D02*
X016921Y011869D01*
X016935Y011917D02*
X017010Y011917D01*
X017027Y011966D02*
X016949Y011966D01*
X016963Y012014D02*
X017043Y012014D01*
X017059Y012063D02*
X016976Y012063D01*
X017075Y012111D02*
X017174Y012556D01*
X017185Y012596D02*
X017016Y012596D01*
X017029Y012645D02*
X017198Y012645D01*
X017211Y012693D02*
X017042Y012693D01*
X017055Y012742D02*
X017225Y012742D01*
X017238Y012790D02*
X017068Y012790D01*
X017081Y012839D02*
X017251Y012839D01*
X017264Y012887D02*
X017094Y012887D01*
X017107Y012936D02*
X017277Y012936D01*
X017291Y012984D02*
X017120Y012984D01*
X017134Y013033D02*
X017304Y013033D01*
X017317Y013081D02*
X017149Y013081D01*
X017165Y013130D02*
X017330Y013130D01*
X017344Y013178D02*
X017180Y013178D01*
X017195Y013227D02*
X017357Y013227D01*
X017370Y013275D02*
X017211Y013275D01*
X017226Y013324D02*
X017383Y013324D01*
X017397Y013372D02*
X017241Y013372D01*
X017257Y013421D02*
X017410Y013421D01*
X017423Y013469D02*
X017272Y013469D01*
X017287Y013518D02*
X017436Y013518D01*
X017449Y013566D02*
X017303Y013566D01*
X017318Y013615D02*
X017463Y013615D01*
X017479Y013663D02*
X017333Y013663D01*
X017349Y013712D02*
X017499Y013712D01*
X017520Y013760D02*
X017364Y013760D01*
X017379Y013809D02*
X017541Y013809D01*
X017562Y013857D02*
X017395Y013857D01*
X017410Y013906D02*
X017582Y013906D01*
X017603Y013954D02*
X017425Y013954D01*
X017442Y014003D02*
X017624Y014003D01*
X017645Y014051D02*
X017458Y014051D01*
X017525Y014197D02*
X017707Y014197D01*
X017728Y014245D02*
X017557Y014245D01*
X017589Y014294D02*
X017749Y014294D01*
X017771Y014342D02*
X017621Y014342D01*
X017637Y014391D02*
X017820Y014391D01*
X017868Y014439D02*
X017653Y014439D01*
X017669Y014488D02*
X017917Y014488D01*
X017965Y014536D02*
X017621Y014536D01*
X017913Y014682D02*
X017975Y014682D01*
X018475Y014827D02*
X018759Y014827D01*
X018759Y014779D02*
X018629Y014779D01*
X018808Y014092D02*
X018214Y014092D01*
X017917Y013992D01*
X018164Y014042D01*
X018957Y013992D01*
X019303Y013893D01*
X019056Y014042D01*
X018808Y014092D01*
X018796Y014003D02*
X019122Y014003D01*
X019091Y013954D02*
X019202Y013954D01*
X019261Y013906D02*
X019283Y013906D01*
X019011Y014051D02*
X018093Y014051D01*
X017967Y014003D02*
X017947Y014003D01*
X017666Y014100D02*
X016775Y014100D01*
X016598Y014051D02*
X016994Y014051D01*
X017308Y014148D02*
X017686Y014148D01*
X017111Y015264D02*
X017078Y015264D01*
X019466Y016476D02*
X019994Y016476D01*
X020022Y016428D02*
X019482Y016428D01*
X019498Y016379D02*
X020050Y016379D01*
X020079Y016331D02*
X019515Y016331D01*
X019531Y016282D02*
X020107Y016282D01*
X019965Y016525D02*
X019450Y016525D01*
X019434Y016573D02*
X019937Y016573D01*
X019908Y016622D02*
X019418Y016622D01*
X019401Y016670D02*
X019880Y016670D01*
X019852Y016719D02*
X019385Y016719D01*
X019369Y016767D02*
X019823Y016767D01*
X019795Y016816D02*
X019353Y016816D01*
X019337Y016864D02*
X019767Y016864D01*
X019738Y016913D02*
X019321Y016913D01*
X019304Y016961D02*
X019710Y016961D01*
X019681Y017010D02*
X019464Y017010D01*
X019633Y017058D02*
X019653Y017058D01*
X022637Y013033D02*
X022682Y013033D01*
X022540Y012160D02*
X022868Y012160D01*
X022804Y012111D02*
X022498Y012111D01*
X022456Y012063D02*
X022739Y012063D01*
X022674Y012014D02*
X022413Y012014D01*
X022371Y011966D02*
X022717Y011966D01*
X022766Y011917D02*
X022328Y011917D01*
X022266Y011869D02*
X022902Y011869D01*
X022670Y010608D02*
X022400Y010608D01*
X019100Y009395D02*
X019003Y009395D01*
X018808Y010179D02*
X018462Y010179D01*
X018462Y010229D01*
X018511Y010229D01*
X018561Y010278D01*
X018660Y010278D01*
X018709Y010328D01*
X019006Y010328D01*
X019056Y010278D01*
X019056Y010229D01*
X018858Y010229D01*
X018808Y010179D01*
X018849Y010220D02*
X018462Y010220D01*
X018550Y010268D02*
X019056Y010268D01*
X019018Y010317D02*
X018698Y010317D01*
D15*
X018610Y009486D02*
X018462Y009486D01*
X018412Y009486D01*
X017719Y008595D01*
X017917Y008397D01*
X017521Y007654D01*
X017719Y007307D01*
X017867Y007555D01*
X017719Y007802D01*
X017917Y008198D01*
X018115Y008347D01*
X018660Y009189D01*
X018610Y009486D01*
X018621Y009423D02*
X018363Y009423D01*
X018271Y009305D02*
X018640Y009305D01*
X018610Y009387D02*
X018709Y009189D01*
X018658Y009186D02*
X018179Y009186D01*
X018087Y009068D02*
X018581Y009068D01*
X018610Y009090D02*
X019601Y009139D01*
X020145Y009387D01*
X021037Y008297D01*
X021086Y008297D01*
X020987Y008050D01*
X020789Y007901D01*
X020789Y007505D01*
X020591Y007307D01*
X020195Y007109D01*
X019947Y007010D01*
X019848Y007158D01*
X020096Y007158D01*
X020393Y007257D01*
X020542Y007406D01*
X020591Y007703D01*
X020443Y007802D01*
X020244Y007852D01*
X020046Y007753D01*
X019947Y007555D01*
X019799Y007406D01*
X019799Y007753D01*
X019898Y007951D01*
X019997Y008050D01*
X020046Y007852D01*
X020443Y007951D01*
X020542Y008050D01*
X020690Y008000D01*
X020938Y008099D01*
X021037Y008297D01*
X021063Y008238D02*
X021007Y008238D01*
X021015Y008120D02*
X020948Y008120D01*
X020922Y008001D02*
X020692Y008001D01*
X020688Y008001D02*
X020493Y008001D01*
X020500Y007764D02*
X020789Y007764D01*
X020789Y007646D02*
X020581Y007646D01*
X020562Y007527D02*
X020789Y007527D01*
X020693Y007409D02*
X020542Y007409D01*
X020557Y007290D02*
X020425Y007290D01*
X020320Y007172D02*
X020135Y007172D01*
X020055Y007053D02*
X019919Y007053D01*
X019898Y007010D02*
X019650Y006515D01*
X019700Y005821D01*
X017917Y005772D01*
X019947Y005673D01*
X017917Y005673D01*
X019848Y005574D01*
X018115Y005574D01*
X018759Y005475D01*
X018808Y005475D02*
X018759Y005425D01*
X019155Y004831D01*
X019204Y004880D01*
X019105Y005079D01*
X019155Y005178D01*
X019403Y005128D01*
X019551Y004930D01*
X019848Y004831D01*
X020145Y004930D01*
X020244Y005079D01*
X020343Y005178D01*
X020641Y005178D01*
X020294Y005425D01*
X020145Y005524D01*
X018808Y005475D01*
X018780Y005394D02*
X020338Y005394D01*
X020503Y005276D02*
X018859Y005276D01*
X018938Y005157D02*
X019145Y005157D01*
X019258Y005157D02*
X020323Y005157D01*
X020888Y004980D02*
X020877Y004929D01*
X020862Y004878D01*
X020844Y004829D01*
X020822Y004782D01*
X020796Y004736D01*
X020768Y004692D01*
X020736Y004650D01*
X020701Y004611D01*
X020664Y004574D01*
X020624Y004540D01*
X020582Y004509D01*
X020537Y004481D01*
X020491Y004456D01*
X020443Y004435D01*
X020839Y004979D02*
X020824Y005030D01*
X020805Y005079D01*
X020783Y005127D01*
X020757Y005173D01*
X020728Y005218D01*
X020696Y005260D01*
X020661Y005299D01*
X020623Y005336D01*
X020583Y005370D01*
X020540Y005401D01*
X020495Y005429D01*
X020449Y005454D01*
X020400Y005475D01*
X020351Y005493D01*
X020300Y005507D01*
X020248Y005517D01*
X020195Y005524D01*
X020163Y005513D02*
X019829Y005513D01*
X019700Y005821D02*
X020195Y005574D01*
X018313Y005425D01*
X017818Y005623D01*
X017917Y005970D01*
X019650Y005920D01*
X017966Y005871D01*
X019700Y005821D01*
X019650Y005970D02*
X019452Y005970D01*
X019452Y006416D01*
X019502Y006762D01*
X019551Y007059D01*
X019601Y007208D01*
X019551Y007505D01*
X019452Y007604D01*
X019650Y007753D01*
X019799Y008000D01*
X019749Y007257D01*
X019749Y006713D01*
X019650Y006465D01*
X019650Y005970D01*
X019650Y005987D02*
X019452Y005987D01*
X019452Y006105D02*
X019650Y006105D01*
X019650Y006224D02*
X019452Y006224D01*
X019452Y006342D02*
X019650Y006342D01*
X019650Y006461D02*
X019458Y006461D01*
X019475Y006579D02*
X019696Y006579D01*
X019650Y006515D02*
X017768Y006564D01*
X017768Y007158D01*
X019898Y007010D01*
X019700Y007505D01*
X019848Y008000D01*
X018115Y008248D01*
X018115Y008297D02*
X018016Y007654D01*
X017768Y007208D01*
X017818Y007208D02*
X017719Y006713D01*
X017669Y006416D01*
X017669Y006069D01*
X017818Y005772D01*
X017867Y005970D01*
X017768Y006168D01*
X017719Y006465D01*
X017867Y006663D01*
X017867Y006861D01*
X018016Y007208D01*
X017966Y007555D01*
X018115Y007852D01*
X018264Y008099D01*
X018313Y008347D01*
X018561Y008595D01*
X018363Y008595D01*
X018065Y008248D01*
X018016Y007901D01*
X017966Y007654D01*
X017818Y007208D01*
X017811Y007172D02*
X018000Y007172D01*
X018004Y007290D02*
X017845Y007290D01*
X017885Y007409D02*
X017987Y007409D01*
X017970Y007527D02*
X017924Y007527D01*
X017851Y007527D02*
X017593Y007527D01*
X017525Y007646D02*
X017813Y007646D01*
X017742Y007764D02*
X017580Y007764D01*
X017643Y007883D02*
X017759Y007883D01*
X017706Y008001D02*
X017818Y008001D01*
X017769Y008120D02*
X017877Y008120D01*
X017832Y008238D02*
X017970Y008238D01*
X018064Y008238D02*
X018291Y008238D01*
X018268Y008120D02*
X018047Y008120D01*
X018030Y008001D02*
X018205Y008001D01*
X018133Y007883D02*
X018012Y007883D01*
X017988Y007764D02*
X018071Y007764D01*
X018065Y007654D02*
X019700Y007505D01*
X019767Y007527D02*
X019529Y007527D01*
X019507Y007646D02*
X019775Y007646D01*
X019799Y007646D02*
X019993Y007646D01*
X019920Y007527D02*
X019799Y007527D01*
X019799Y007409D02*
X019801Y007409D01*
X019759Y007409D02*
X019567Y007409D01*
X019587Y007290D02*
X019751Y007290D01*
X019749Y007172D02*
X019588Y007172D01*
X019550Y007053D02*
X019749Y007053D01*
X019749Y006935D02*
X019530Y006935D01*
X019511Y006816D02*
X019749Y006816D01*
X019743Y006698D02*
X019492Y006698D01*
X017817Y006564D02*
X017785Y006527D01*
X017756Y006488D01*
X017730Y006447D01*
X017708Y006403D01*
X017689Y006358D01*
X017674Y006312D01*
X017662Y006264D01*
X017654Y006216D01*
X017650Y006167D01*
X017650Y006119D01*
X017654Y006070D01*
X017662Y006022D01*
X017674Y005974D01*
X017689Y005928D01*
X017708Y005883D01*
X017730Y005839D01*
X017756Y005798D01*
X017785Y005759D01*
X017817Y005722D01*
X017842Y005868D02*
X017770Y005868D01*
X017710Y005987D02*
X017859Y005987D01*
X017800Y006105D02*
X017669Y006105D01*
X017669Y006224D02*
X017759Y006224D01*
X017739Y006342D02*
X017669Y006342D01*
X017677Y006461D02*
X017720Y006461D01*
X017697Y006579D02*
X017804Y006579D01*
X017867Y006698D02*
X017716Y006698D01*
X017739Y006816D02*
X017867Y006816D01*
X017899Y006935D02*
X017763Y006935D01*
X017787Y007053D02*
X017950Y007053D01*
X017780Y007409D02*
X017661Y007409D01*
X017964Y007646D02*
X018012Y007646D01*
X018115Y008297D02*
X018412Y008644D01*
X018610Y009139D01*
X018505Y008949D02*
X017994Y008949D01*
X017902Y008831D02*
X018428Y008831D01*
X018351Y008712D02*
X017810Y008712D01*
X017720Y008594D02*
X018274Y008594D01*
X018362Y008594D02*
X018560Y008594D01*
X018462Y008644D02*
X019749Y008545D01*
X019799Y008545D02*
X020542Y008941D01*
X020789Y008446D02*
X019749Y008000D01*
X019728Y007883D02*
X019791Y007883D01*
X019864Y007883D02*
X020039Y007883D01*
X020009Y008001D02*
X019948Y008001D01*
X020169Y007883D02*
X020789Y007883D01*
X020069Y007764D02*
X019804Y007764D01*
X019783Y007764D02*
X019657Y007764D01*
X020442Y004435D02*
X020267Y004388D01*
X020090Y004349D01*
X019911Y004319D01*
X019731Y004297D01*
X019551Y004283D01*
X019370Y004278D01*
X019188Y004281D01*
X019008Y004293D01*
X018827Y004313D01*
X018648Y004341D01*
X018471Y004378D01*
X018295Y004423D01*
X018122Y004476D01*
X017951Y004537D01*
X017784Y004606D01*
X017620Y004682D01*
X017818Y005623D02*
X017757Y005636D01*
X017696Y005646D01*
X017634Y005652D01*
X017572Y005655D01*
X017510Y005654D01*
X017448Y005649D01*
X017386Y005641D01*
X017325Y005628D01*
X017265Y005613D01*
X017206Y005594D01*
X017148Y005571D01*
X017092Y005545D01*
X017037Y005516D01*
X016984Y005483D01*
X016933Y005448D01*
X016884Y005409D01*
X016838Y005368D01*
X016794Y005324D01*
X016753Y005277D01*
X016715Y005228D01*
X016679Y005177D01*
X016680Y005178D02*
X016709Y005126D01*
X016742Y005077D01*
X016778Y005030D01*
X016817Y004985D01*
X016858Y004942D01*
X016902Y004902D01*
X016949Y004865D01*
X016997Y004831D01*
X017048Y004800D01*
X017100Y004773D01*
X017155Y004748D01*
X017210Y004728D01*
X017267Y004710D01*
X017325Y004696D01*
X017383Y004686D01*
X017442Y004680D01*
X017502Y004677D01*
X017561Y004678D01*
X017620Y004683D01*
X017570Y004980D02*
X017594Y005028D01*
X017622Y005075D01*
X017653Y005119D01*
X017687Y005161D01*
X017723Y005201D01*
X017763Y005238D01*
X017805Y005272D01*
X017849Y005303D01*
X017896Y005331D01*
X017944Y005356D01*
X017994Y005377D01*
X018045Y005394D01*
X018098Y005408D01*
X018151Y005418D01*
X018205Y005424D01*
X018259Y005427D01*
X018313Y005426D01*
X019017Y005039D02*
X019125Y005039D01*
X019096Y004920D02*
X019185Y004920D01*
X019470Y005039D02*
X020218Y005039D01*
X020116Y004920D02*
X019581Y004920D01*
X017620Y004682D02*
X017605Y004730D01*
X017593Y004780D01*
X017584Y004829D01*
X017579Y004880D01*
X017577Y004930D01*
X017579Y004980D01*
X017584Y005031D01*
X017593Y005080D01*
X017605Y005130D01*
X017620Y005178D01*
X017896Y008357D02*
X018121Y008357D01*
X018159Y008357D02*
X018323Y008357D01*
X018260Y008475D02*
X018441Y008475D01*
X018198Y008475D02*
X017838Y008475D01*
X018065Y011071D02*
X017669Y011170D01*
X017521Y011516D01*
X017620Y011814D01*
X017917Y011962D01*
X017966Y011962D01*
X017867Y011962D01*
X017867Y011913D01*
X017620Y011665D01*
X017719Y011368D01*
X018065Y011071D01*
X018052Y011082D02*
X018020Y011082D01*
X017914Y011201D02*
X017656Y011201D01*
X017605Y011319D02*
X017776Y011319D01*
X017696Y011438D02*
X017555Y011438D01*
X017534Y011556D02*
X017656Y011556D01*
X017629Y011675D02*
X017573Y011675D01*
X017613Y011793D02*
X017748Y011793D01*
X017816Y011912D02*
X017866Y011912D01*
X017858Y012140D02*
X017824Y012142D01*
X017792Y012153D01*
X017764Y012172D01*
X017742Y012197D01*
X017726Y012226D01*
X017719Y012259D01*
X017716Y012371D01*
X017729Y012483D01*
X017759Y012591D01*
X017803Y012695D01*
X017861Y012790D01*
X017933Y012877D01*
X018016Y012953D01*
X018016Y012408D01*
X018010Y012339D01*
X017994Y012273D01*
X017966Y012210D01*
X017947Y012182D01*
X017921Y012161D01*
X017891Y012146D01*
X017858Y012140D01*
X017895Y012149D02*
X017806Y012149D01*
X017719Y012267D02*
X017991Y012267D01*
X018014Y012386D02*
X017718Y012386D01*
X017735Y012504D02*
X018016Y012504D01*
X018016Y012623D02*
X017772Y012623D01*
X017831Y012741D02*
X018016Y012741D01*
X018016Y012860D02*
X017918Y012860D01*
X018669Y012560D02*
X018714Y012634D01*
X018769Y012700D01*
X018834Y012757D01*
X018907Y012804D01*
X018907Y012358D01*
X018900Y012270D01*
X018878Y012184D01*
X018841Y012103D01*
X018792Y012030D01*
X018610Y012030D01*
X018610Y011962D02*
X018610Y012309D01*
X018617Y012395D01*
X018637Y012479D01*
X018669Y012560D01*
X018647Y012504D02*
X018907Y012504D01*
X018907Y012386D02*
X018616Y012386D01*
X018610Y012267D02*
X018899Y012267D01*
X018862Y012149D02*
X018610Y012149D01*
X018610Y011962D02*
X018613Y011947D01*
X018620Y011933D01*
X018631Y011922D01*
X018644Y011915D01*
X018660Y011913D01*
X018731Y011966D01*
X018792Y012030D01*
X018707Y012623D02*
X018907Y012623D01*
X018907Y012741D02*
X018816Y012741D01*
X018263Y011863D02*
X018230Y011881D01*
X018194Y011896D01*
X018158Y011907D01*
X018121Y011915D01*
X018082Y011919D01*
X018044Y011918D01*
X018006Y011914D01*
X017969Y011907D01*
X017933Y011895D01*
X017898Y011880D01*
X017864Y011861D01*
X017833Y011839D01*
X017804Y011814D01*
X017778Y011787D01*
X017754Y011756D01*
X017734Y011724D01*
X017717Y011690D01*
X017704Y011654D01*
X017695Y011617D01*
X017689Y011579D01*
X017687Y011541D01*
X017689Y011503D01*
X017695Y011465D01*
X017704Y011428D01*
X017717Y011392D01*
X017734Y011358D01*
X017754Y011326D01*
X017778Y011295D01*
X017804Y011268D01*
X017833Y011243D01*
X017864Y011221D01*
X017898Y011202D01*
X017933Y011187D01*
X017969Y011175D01*
X018006Y011168D01*
X018044Y011164D01*
X018082Y011163D01*
X018121Y011167D01*
X018158Y011175D01*
X018194Y011186D01*
X018230Y011201D01*
X018263Y011219D01*
X018313Y011219D02*
X018282Y011189D01*
X018249Y011162D01*
X018214Y011138D01*
X018176Y011117D01*
X018137Y011100D01*
X018097Y011086D01*
X018055Y011077D01*
X018013Y011070D01*
X017971Y011068D01*
X017928Y011070D01*
X017886Y011075D01*
X017844Y011084D01*
X017803Y011097D01*
X017764Y011113D01*
X017726Y011133D01*
X017690Y011157D01*
X017657Y011183D01*
X017626Y011213D01*
X017597Y011245D01*
X017572Y011279D01*
X017550Y011316D01*
X017532Y011354D01*
X017516Y011394D01*
X017505Y011435D01*
X017497Y011477D01*
X017493Y011520D01*
X017493Y011562D01*
X017497Y011605D01*
X017505Y011647D01*
X017516Y011688D01*
X017532Y011728D01*
X017550Y011766D01*
X017572Y011803D01*
X017597Y011837D01*
X017626Y011869D01*
X017657Y011899D01*
X017690Y011925D01*
X017726Y011949D01*
X017764Y011969D01*
X017803Y011985D01*
X017844Y011998D01*
X017886Y012007D01*
X017928Y012012D01*
X017971Y012014D01*
X018013Y012012D01*
X018055Y012005D01*
X018097Y011996D01*
X018137Y011982D01*
X018176Y011965D01*
X018214Y011944D01*
X018249Y011920D01*
X018282Y011893D01*
X018313Y011863D01*
M02*
