%
M48
M72
T01C0.0120
T02C0.0400
T03C0.1260
%
T01
X3390Y4500
X4990Y6980
X4990Y8100
X4670Y8260
X4190Y8260
X3790Y8260
X3390Y8260
X35630Y7940
X35630Y7460
X35630Y6980
X35630Y6420
X35630Y5940
X35630Y5380
X35630Y4900
X35630Y4420
X34270Y9140
X30590Y15460
X31310Y9300
X31310Y15780
X20590Y8100
X19550Y11380
X18910Y8100
X16830Y12740
X19150Y7860
X17470Y12500
X18590Y6820
X16670Y12020
X18590Y5940
X16830Y11460
X17230Y5940
X16830Y11060
X14590Y7940
X15150Y10980
X8990Y6180
X14510Y6500
X15070Y6980
X14510Y7460
X14670Y8260
X3630Y8900
X14670Y10420
X20350Y10900
X22990Y6980
X22990Y8100
X22830Y8740
X22350Y6660
X19790Y11620
X23710Y16020
X25230Y6980
X27550Y7220
X27950Y10820
X27630Y11300
X25230Y7700
X26590Y8340
X26670Y13940
X22590Y5140
X19950Y12180
X23710Y14020
X25150Y5780
X27230Y6340
X28030Y9700
X25230Y4980
X27070Y5300
X26190Y4100
X26830Y4340
X26830Y10580
X24670Y2580
X23710Y4020
X24670Y4580
X24670Y5540
X23710Y6020
X23790Y8020
X24670Y8260
X22590Y8980
X22910Y9460
X23710Y10020
X18670Y10500
X32830Y9940
X1310Y9940
X13150Y9940
X20990Y8900
X16590Y8020
X16990Y6340
X2750Y8980
X32510Y9940
X34190Y10420
X32510Y10900
X20670Y8740
X20270Y8340
X20030Y8900
X20670Y9940
X20670Y10900
X990Y10900
X1150Y11860
X990Y9940
X12830Y8820
X13230Y8420
X14510Y9700
X12830Y9940
X12830Y10900
T02
X9483Y10523
X9583Y11523
X9483Y12523
X9583Y13523
X9483Y14523
X9583Y15523
X9483Y16523
X9583Y17523
X9583Y9523
X9483Y8523
X9583Y7523
X9483Y6523
X9583Y5523
X9483Y4523
X9583Y3523
X9483Y2523
X29611Y9523
X29511Y8523
X29611Y7523
X29511Y6523
X29611Y5523
X29511Y4523
X29611Y3523
X29511Y2523
X29511Y10523
X29611Y11523
X29511Y12523
X29611Y13523
X29511Y14523
X29611Y15523
X29511Y16523
X29611Y17523
X10583Y17523
X10483Y16523
X10583Y15523
X10483Y14523
X10583Y13523
X10483Y12523
X10583Y11523
X10483Y10523
X10483Y2523
X10583Y3523
X10483Y4523
X10583Y5523
X10483Y6523
X10583Y7523
X10483Y8523
X10583Y9523
X28611Y17523
X28511Y16523
X28611Y15523
X28511Y14523
X28611Y13523
X28511Y12523
X28611Y11523
X28511Y10523
X28511Y2523
X28611Y3523
X28511Y4523
X28611Y5523
X28511Y6523
X28611Y7523
X28511Y8523
X28611Y9523
X22561Y1130
X21561Y1230
X20561Y1130
X19561Y1230
X18561Y1130
X17561Y1230
X16561Y1130
X15561Y1230
X2190Y13180
X2190Y14180
X33190Y13180
X33190Y14180
X5190Y1180
X6190Y1180
X33190Y1180
X34190Y1180
T03
X37061Y2180
X37061Y17180
X2061Y17180
X2061Y2180
M30
