G75*
G70*
%OFA0B0*%
%FSLAX24Y24*%
%IPPOS*%
%LPD*%
%AMOC8*
5,1,8,0,0,1.08239X$1,22.5*
%
%ADD10C,0.0000*%
%ADD11C,0.0060*%
%ADD12R,0.0256X0.0551*%
D10*
X000100Y000100D02*
X039470Y000100D01*
X039470Y019785D01*
X000100Y019785D01*
X000100Y000100D01*
X001340Y002100D02*
X001342Y002150D01*
X001348Y002200D01*
X001358Y002249D01*
X001372Y002297D01*
X001389Y002344D01*
X001410Y002389D01*
X001435Y002433D01*
X001463Y002474D01*
X001495Y002513D01*
X001529Y002550D01*
X001566Y002584D01*
X001606Y002614D01*
X001648Y002641D01*
X001692Y002665D01*
X001738Y002686D01*
X001785Y002702D01*
X001833Y002715D01*
X001883Y002724D01*
X001932Y002729D01*
X001983Y002730D01*
X002033Y002727D01*
X002082Y002720D01*
X002131Y002709D01*
X002179Y002694D01*
X002225Y002676D01*
X002270Y002654D01*
X002313Y002628D01*
X002354Y002599D01*
X002393Y002567D01*
X002429Y002532D01*
X002461Y002494D01*
X002491Y002454D01*
X002518Y002411D01*
X002541Y002367D01*
X002560Y002321D01*
X002576Y002273D01*
X002588Y002224D01*
X002596Y002175D01*
X002600Y002125D01*
X002600Y002075D01*
X002596Y002025D01*
X002588Y001976D01*
X002576Y001927D01*
X002560Y001879D01*
X002541Y001833D01*
X002518Y001789D01*
X002491Y001746D01*
X002461Y001706D01*
X002429Y001668D01*
X002393Y001633D01*
X002354Y001601D01*
X002313Y001572D01*
X002270Y001546D01*
X002225Y001524D01*
X002179Y001506D01*
X002131Y001491D01*
X002082Y001480D01*
X002033Y001473D01*
X001983Y001470D01*
X001932Y001471D01*
X001883Y001476D01*
X001833Y001485D01*
X001785Y001498D01*
X001738Y001514D01*
X001692Y001535D01*
X001648Y001559D01*
X001606Y001586D01*
X001566Y001616D01*
X001529Y001650D01*
X001495Y001687D01*
X001463Y001726D01*
X001435Y001767D01*
X001410Y001811D01*
X001389Y001856D01*
X001372Y001903D01*
X001358Y001951D01*
X001348Y002000D01*
X001342Y002050D01*
X001340Y002100D01*
X001340Y017100D02*
X001342Y017150D01*
X001348Y017200D01*
X001358Y017249D01*
X001372Y017297D01*
X001389Y017344D01*
X001410Y017389D01*
X001435Y017433D01*
X001463Y017474D01*
X001495Y017513D01*
X001529Y017550D01*
X001566Y017584D01*
X001606Y017614D01*
X001648Y017641D01*
X001692Y017665D01*
X001738Y017686D01*
X001785Y017702D01*
X001833Y017715D01*
X001883Y017724D01*
X001932Y017729D01*
X001983Y017730D01*
X002033Y017727D01*
X002082Y017720D01*
X002131Y017709D01*
X002179Y017694D01*
X002225Y017676D01*
X002270Y017654D01*
X002313Y017628D01*
X002354Y017599D01*
X002393Y017567D01*
X002429Y017532D01*
X002461Y017494D01*
X002491Y017454D01*
X002518Y017411D01*
X002541Y017367D01*
X002560Y017321D01*
X002576Y017273D01*
X002588Y017224D01*
X002596Y017175D01*
X002600Y017125D01*
X002600Y017075D01*
X002596Y017025D01*
X002588Y016976D01*
X002576Y016927D01*
X002560Y016879D01*
X002541Y016833D01*
X002518Y016789D01*
X002491Y016746D01*
X002461Y016706D01*
X002429Y016668D01*
X002393Y016633D01*
X002354Y016601D01*
X002313Y016572D01*
X002270Y016546D01*
X002225Y016524D01*
X002179Y016506D01*
X002131Y016491D01*
X002082Y016480D01*
X002033Y016473D01*
X001983Y016470D01*
X001932Y016471D01*
X001883Y016476D01*
X001833Y016485D01*
X001785Y016498D01*
X001738Y016514D01*
X001692Y016535D01*
X001648Y016559D01*
X001606Y016586D01*
X001566Y016616D01*
X001529Y016650D01*
X001495Y016687D01*
X001463Y016726D01*
X001435Y016767D01*
X001410Y016811D01*
X001389Y016856D01*
X001372Y016903D01*
X001358Y016951D01*
X001348Y017000D01*
X001342Y017050D01*
X001340Y017100D01*
X036340Y017100D02*
X036342Y017150D01*
X036348Y017200D01*
X036358Y017249D01*
X036372Y017297D01*
X036389Y017344D01*
X036410Y017389D01*
X036435Y017433D01*
X036463Y017474D01*
X036495Y017513D01*
X036529Y017550D01*
X036566Y017584D01*
X036606Y017614D01*
X036648Y017641D01*
X036692Y017665D01*
X036738Y017686D01*
X036785Y017702D01*
X036833Y017715D01*
X036883Y017724D01*
X036932Y017729D01*
X036983Y017730D01*
X037033Y017727D01*
X037082Y017720D01*
X037131Y017709D01*
X037179Y017694D01*
X037225Y017676D01*
X037270Y017654D01*
X037313Y017628D01*
X037354Y017599D01*
X037393Y017567D01*
X037429Y017532D01*
X037461Y017494D01*
X037491Y017454D01*
X037518Y017411D01*
X037541Y017367D01*
X037560Y017321D01*
X037576Y017273D01*
X037588Y017224D01*
X037596Y017175D01*
X037600Y017125D01*
X037600Y017075D01*
X037596Y017025D01*
X037588Y016976D01*
X037576Y016927D01*
X037560Y016879D01*
X037541Y016833D01*
X037518Y016789D01*
X037491Y016746D01*
X037461Y016706D01*
X037429Y016668D01*
X037393Y016633D01*
X037354Y016601D01*
X037313Y016572D01*
X037270Y016546D01*
X037225Y016524D01*
X037179Y016506D01*
X037131Y016491D01*
X037082Y016480D01*
X037033Y016473D01*
X036983Y016470D01*
X036932Y016471D01*
X036883Y016476D01*
X036833Y016485D01*
X036785Y016498D01*
X036738Y016514D01*
X036692Y016535D01*
X036648Y016559D01*
X036606Y016586D01*
X036566Y016616D01*
X036529Y016650D01*
X036495Y016687D01*
X036463Y016726D01*
X036435Y016767D01*
X036410Y016811D01*
X036389Y016856D01*
X036372Y016903D01*
X036358Y016951D01*
X036348Y017000D01*
X036342Y017050D01*
X036340Y017100D01*
X036340Y002100D02*
X036342Y002150D01*
X036348Y002200D01*
X036358Y002249D01*
X036372Y002297D01*
X036389Y002344D01*
X036410Y002389D01*
X036435Y002433D01*
X036463Y002474D01*
X036495Y002513D01*
X036529Y002550D01*
X036566Y002584D01*
X036606Y002614D01*
X036648Y002641D01*
X036692Y002665D01*
X036738Y002686D01*
X036785Y002702D01*
X036833Y002715D01*
X036883Y002724D01*
X036932Y002729D01*
X036983Y002730D01*
X037033Y002727D01*
X037082Y002720D01*
X037131Y002709D01*
X037179Y002694D01*
X037225Y002676D01*
X037270Y002654D01*
X037313Y002628D01*
X037354Y002599D01*
X037393Y002567D01*
X037429Y002532D01*
X037461Y002494D01*
X037491Y002454D01*
X037518Y002411D01*
X037541Y002367D01*
X037560Y002321D01*
X037576Y002273D01*
X037588Y002224D01*
X037596Y002175D01*
X037600Y002125D01*
X037600Y002075D01*
X037596Y002025D01*
X037588Y001976D01*
X037576Y001927D01*
X037560Y001879D01*
X037541Y001833D01*
X037518Y001789D01*
X037491Y001746D01*
X037461Y001706D01*
X037429Y001668D01*
X037393Y001633D01*
X037354Y001601D01*
X037313Y001572D01*
X037270Y001546D01*
X037225Y001524D01*
X037179Y001506D01*
X037131Y001491D01*
X037082Y001480D01*
X037033Y001473D01*
X036983Y001470D01*
X036932Y001471D01*
X036883Y001476D01*
X036833Y001485D01*
X036785Y001498D01*
X036738Y001514D01*
X036692Y001535D01*
X036648Y001559D01*
X036606Y001586D01*
X036566Y001616D01*
X036529Y001650D01*
X036495Y001687D01*
X036463Y001726D01*
X036435Y001767D01*
X036410Y001811D01*
X036389Y001856D01*
X036372Y001903D01*
X036358Y001951D01*
X036348Y002000D01*
X036342Y002050D01*
X036340Y002100D01*
D11*
X024874Y001571D02*
X024874Y001144D01*
X024660Y000930D01*
X024447Y001144D01*
X024447Y001571D01*
X024229Y001464D02*
X024229Y001037D01*
X024122Y000930D01*
X023909Y000930D01*
X023802Y001037D01*
X023585Y001037D02*
X023478Y000930D01*
X023264Y000930D01*
X023158Y001037D01*
X023585Y001037D02*
X023585Y001464D01*
X023478Y001571D01*
X023264Y001571D01*
X023158Y001464D01*
X023802Y001464D02*
X023909Y001571D01*
X024122Y001571D01*
X024229Y001464D01*
X023131Y002350D02*
X022809Y002350D01*
X022809Y002850D02*
X023131Y002850D01*
X023131Y003350D02*
X022809Y003350D01*
X022809Y003850D02*
X023131Y003850D01*
X023131Y004350D02*
X022809Y004350D01*
X022809Y004850D02*
X023131Y004850D01*
X023131Y005350D02*
X022809Y005350D01*
X022809Y005850D02*
X023131Y005850D01*
X023131Y006350D02*
X022809Y006350D01*
X022809Y006850D02*
X023131Y006850D01*
X023131Y007350D02*
X022809Y007350D01*
X022809Y007850D02*
X023131Y007850D01*
X023131Y008350D02*
X022809Y008350D01*
X022809Y008850D02*
X023131Y008850D01*
X023131Y009350D02*
X022809Y009350D01*
X022809Y009850D02*
X023131Y009850D01*
X023131Y010350D02*
X022809Y010350D01*
X022809Y010850D02*
X023131Y010850D01*
X023131Y011350D02*
X022809Y011350D01*
X022809Y011850D02*
X023131Y011850D01*
X023131Y012350D02*
X022809Y012350D01*
X022809Y012850D02*
X023131Y012850D01*
X023131Y013350D02*
X022809Y013350D01*
X022809Y013850D02*
X023131Y013850D01*
X023131Y014350D02*
X022809Y014350D01*
X022809Y014850D02*
X023131Y014850D01*
X023131Y015350D02*
X022809Y015350D01*
X022809Y015850D02*
X023131Y015850D01*
X023131Y016350D02*
X022809Y016350D01*
X022809Y016850D02*
X023131Y016850D01*
X023131Y017350D02*
X022809Y017350D01*
X022809Y017850D02*
X023131Y017850D01*
X015131Y013850D02*
X014809Y013850D01*
X014809Y013350D02*
X015131Y013350D01*
X015131Y012850D02*
X014809Y012850D01*
X014809Y012350D02*
X015131Y012350D01*
X015131Y011850D02*
X014809Y011850D01*
X014809Y011350D02*
X015131Y011350D01*
X015131Y010850D02*
X014809Y010850D01*
X014809Y010350D02*
X015131Y010350D01*
X015131Y009850D02*
X014809Y009850D01*
X014809Y009350D02*
X015131Y009350D01*
X015131Y008850D02*
X014809Y008850D01*
X014809Y008350D02*
X015131Y008350D01*
X015131Y007850D02*
X014809Y007850D01*
X014809Y007350D02*
X015131Y007350D01*
X015131Y006850D02*
X014809Y006850D01*
X014809Y006350D02*
X015131Y006350D01*
X015131Y005850D02*
X014809Y005850D01*
X014809Y005350D02*
X015131Y005350D01*
X015131Y004850D02*
X014809Y004850D01*
X014809Y004350D02*
X015131Y004350D01*
X015131Y003850D02*
X014809Y003850D01*
X014809Y003350D02*
X015131Y003350D01*
X015131Y002850D02*
X014809Y002850D01*
X014809Y002350D02*
X015131Y002350D01*
X016000Y002150D02*
X016000Y001937D01*
X016107Y001830D01*
X016320Y001937D02*
X016320Y002150D01*
X016214Y002257D01*
X016107Y002257D01*
X016000Y002150D01*
X016320Y001937D02*
X016427Y001830D01*
X016534Y001830D01*
X016641Y001937D01*
X016641Y002150D01*
X016534Y002257D01*
X016534Y002475D02*
X016107Y002475D01*
X016000Y002581D01*
X016000Y002795D01*
X016107Y002902D01*
X016000Y003119D02*
X016000Y003546D01*
X016000Y003119D02*
X016641Y003119D01*
X016534Y002902D02*
X016641Y002795D01*
X016641Y002581D01*
X016534Y002475D01*
X017000Y002687D02*
X017641Y002687D01*
X017641Y002904D02*
X017641Y003331D01*
X017641Y003118D02*
X017000Y003118D01*
X017000Y003549D02*
X017000Y003869D01*
X017107Y003976D01*
X017534Y003976D01*
X017641Y003869D01*
X017641Y003549D01*
X017000Y003549D01*
X018000Y003656D02*
X018107Y003549D01*
X018534Y003549D01*
X018641Y003656D01*
X018641Y003869D01*
X018534Y003976D01*
X018107Y003976D02*
X018000Y003869D01*
X018000Y003656D01*
X018641Y003331D02*
X018641Y002904D01*
X018641Y003118D02*
X018000Y003118D01*
X018000Y002687D02*
X018641Y002687D01*
X019100Y002687D02*
X019741Y002687D01*
X019741Y002904D02*
X019741Y003331D01*
X019741Y003118D02*
X019100Y003118D01*
X019100Y003549D02*
X019100Y003869D01*
X019207Y003976D01*
X019314Y003976D01*
X019420Y003869D01*
X019420Y003549D01*
X019100Y003549D02*
X019741Y003549D01*
X019741Y003869D01*
X019634Y003976D01*
X019527Y003976D01*
X019420Y003869D01*
X020100Y003976D02*
X020527Y003976D01*
X020741Y003762D01*
X020527Y003549D01*
X020100Y003549D01*
X020420Y003549D02*
X020420Y003976D01*
X021100Y003539D02*
X021207Y003646D01*
X021634Y003646D01*
X021741Y003539D01*
X021741Y003219D01*
X021100Y003219D01*
X021100Y003539D01*
X020741Y003331D02*
X020741Y002904D01*
X020741Y003118D02*
X020100Y003118D01*
X020100Y002687D02*
X020741Y002687D01*
X021100Y002575D02*
X021741Y002575D01*
X021100Y003002D01*
X021741Y003002D01*
X021634Y002357D02*
X021741Y002250D01*
X021741Y002037D01*
X021634Y001930D01*
X021207Y001930D01*
X021100Y002037D01*
X021100Y002250D01*
X021207Y002357D01*
X021420Y002357D01*
X021420Y002144D01*
X020741Y002044D02*
X020741Y001830D01*
X020741Y001937D02*
X020100Y001937D01*
X020100Y001830D02*
X020100Y002044D01*
X020100Y002260D02*
X020741Y002260D01*
X020100Y002687D01*
X019741Y002260D02*
X019100Y002260D01*
X019100Y002044D02*
X019100Y001830D01*
X019100Y001937D02*
X019741Y001937D01*
X019741Y001830D02*
X019741Y002044D01*
X019741Y002260D02*
X019100Y002687D01*
X018641Y002260D02*
X018000Y002687D01*
X018000Y002260D02*
X018641Y002260D01*
X018641Y002044D02*
X018641Y001830D01*
X018641Y001937D02*
X018000Y001937D01*
X018000Y001830D02*
X018000Y002044D01*
X017641Y002044D02*
X017641Y001830D01*
X017641Y001937D02*
X017000Y001937D01*
X017000Y001830D02*
X017000Y002044D01*
X017000Y002260D02*
X017641Y002260D01*
X017000Y002687D01*
X014940Y001164D02*
X014833Y001271D01*
X014620Y001271D01*
X014513Y001164D01*
X014620Y000950D02*
X014513Y000844D01*
X014513Y000737D01*
X014620Y000630D01*
X014833Y000630D01*
X014940Y000737D01*
X014833Y000950D02*
X014620Y000950D01*
X014833Y000950D02*
X014940Y001057D01*
X014940Y001164D01*
X014296Y001271D02*
X013975Y001271D01*
X013868Y001164D01*
X013868Y000737D01*
X013975Y000630D01*
X014296Y000630D01*
X014296Y001271D01*
X013651Y001057D02*
X013437Y001271D01*
X013224Y001057D01*
X013224Y000630D01*
X013224Y000950D02*
X013651Y000950D01*
X013651Y001057D02*
X013651Y000630D01*
X013131Y014350D02*
X012809Y014350D01*
X012809Y014850D02*
X013131Y014850D01*
X013131Y015350D02*
X012809Y015350D01*
X012809Y015850D02*
X013131Y015850D01*
X013131Y016350D02*
X012809Y016350D01*
X012809Y016850D02*
X013131Y016850D01*
X013131Y017350D02*
X012809Y017350D01*
X012809Y017850D02*
X013131Y017850D01*
D12*
X013262Y017601D03*
X012682Y017601D03*
X012682Y016601D03*
X013262Y016601D03*
X013262Y015601D03*
X012682Y015601D03*
X012682Y014601D03*
X013262Y014601D03*
X014682Y013601D03*
X015262Y013601D03*
X015262Y012601D03*
X014682Y012601D03*
X014682Y011601D03*
X015262Y011601D03*
X015262Y010601D03*
X014682Y010601D03*
X014682Y009601D03*
X015262Y009601D03*
X015262Y008601D03*
X014682Y008601D03*
X014682Y007601D03*
X015262Y007601D03*
X015262Y006601D03*
X014682Y006601D03*
X014682Y005601D03*
X015262Y005601D03*
X015262Y004601D03*
X014682Y004601D03*
X014682Y003601D03*
X015262Y003601D03*
X015262Y002601D03*
X014682Y002601D03*
X022678Y002599D03*
X023258Y002599D03*
X023258Y003599D03*
X022678Y003599D03*
X022678Y004599D03*
X023258Y004599D03*
X023258Y005599D03*
X022678Y005599D03*
X022678Y006599D03*
X023258Y006599D03*
X023258Y007599D03*
X022678Y007599D03*
X022678Y008599D03*
X023258Y008599D03*
X023258Y009599D03*
X022678Y009599D03*
X022678Y010599D03*
X023258Y010599D03*
X023258Y011599D03*
X022678Y011599D03*
X022678Y012599D03*
X023258Y012599D03*
X023258Y013599D03*
X022678Y013599D03*
X022678Y014599D03*
X023258Y014599D03*
X023258Y015599D03*
X022678Y015599D03*
X022678Y016599D03*
X023258Y016599D03*
X023258Y017599D03*
X022678Y017599D03*
M02*
