G75*
G70*
%OFA0B0*%
%FSLAX24Y24*%
%IPPOS*%
%LPD*%
%AMOC8*
5,1,8,0,0,1.08239X$1,22.5*
%
%ADD10C,0.0000*%
%ADD11R,0.0740X0.0740*%
%ADD12C,0.0740*%
%ADD13R,0.0512X0.0591*%
%ADD14C,0.0080*%
%ADD15OC8,0.0240*%
D10*
X000100Y000100D02*
X039470Y000100D01*
X039470Y019785D01*
X000100Y019785D01*
X000100Y000100D01*
X001340Y002100D02*
X001342Y002150D01*
X001348Y002200D01*
X001358Y002249D01*
X001372Y002297D01*
X001389Y002344D01*
X001410Y002389D01*
X001435Y002433D01*
X001463Y002474D01*
X001495Y002513D01*
X001529Y002550D01*
X001566Y002584D01*
X001606Y002614D01*
X001648Y002641D01*
X001692Y002665D01*
X001738Y002686D01*
X001785Y002702D01*
X001833Y002715D01*
X001883Y002724D01*
X001932Y002729D01*
X001983Y002730D01*
X002033Y002727D01*
X002082Y002720D01*
X002131Y002709D01*
X002179Y002694D01*
X002225Y002676D01*
X002270Y002654D01*
X002313Y002628D01*
X002354Y002599D01*
X002393Y002567D01*
X002429Y002532D01*
X002461Y002494D01*
X002491Y002454D01*
X002518Y002411D01*
X002541Y002367D01*
X002560Y002321D01*
X002576Y002273D01*
X002588Y002224D01*
X002596Y002175D01*
X002600Y002125D01*
X002600Y002075D01*
X002596Y002025D01*
X002588Y001976D01*
X002576Y001927D01*
X002560Y001879D01*
X002541Y001833D01*
X002518Y001789D01*
X002491Y001746D01*
X002461Y001706D01*
X002429Y001668D01*
X002393Y001633D01*
X002354Y001601D01*
X002313Y001572D01*
X002270Y001546D01*
X002225Y001524D01*
X002179Y001506D01*
X002131Y001491D01*
X002082Y001480D01*
X002033Y001473D01*
X001983Y001470D01*
X001932Y001471D01*
X001883Y001476D01*
X001833Y001485D01*
X001785Y001498D01*
X001738Y001514D01*
X001692Y001535D01*
X001648Y001559D01*
X001606Y001586D01*
X001566Y001616D01*
X001529Y001650D01*
X001495Y001687D01*
X001463Y001726D01*
X001435Y001767D01*
X001410Y001811D01*
X001389Y001856D01*
X001372Y001903D01*
X001358Y001951D01*
X001348Y002000D01*
X001342Y002050D01*
X001340Y002100D01*
X001340Y017100D02*
X001342Y017150D01*
X001348Y017200D01*
X001358Y017249D01*
X001372Y017297D01*
X001389Y017344D01*
X001410Y017389D01*
X001435Y017433D01*
X001463Y017474D01*
X001495Y017513D01*
X001529Y017550D01*
X001566Y017584D01*
X001606Y017614D01*
X001648Y017641D01*
X001692Y017665D01*
X001738Y017686D01*
X001785Y017702D01*
X001833Y017715D01*
X001883Y017724D01*
X001932Y017729D01*
X001983Y017730D01*
X002033Y017727D01*
X002082Y017720D01*
X002131Y017709D01*
X002179Y017694D01*
X002225Y017676D01*
X002270Y017654D01*
X002313Y017628D01*
X002354Y017599D01*
X002393Y017567D01*
X002429Y017532D01*
X002461Y017494D01*
X002491Y017454D01*
X002518Y017411D01*
X002541Y017367D01*
X002560Y017321D01*
X002576Y017273D01*
X002588Y017224D01*
X002596Y017175D01*
X002600Y017125D01*
X002600Y017075D01*
X002596Y017025D01*
X002588Y016976D01*
X002576Y016927D01*
X002560Y016879D01*
X002541Y016833D01*
X002518Y016789D01*
X002491Y016746D01*
X002461Y016706D01*
X002429Y016668D01*
X002393Y016633D01*
X002354Y016601D01*
X002313Y016572D01*
X002270Y016546D01*
X002225Y016524D01*
X002179Y016506D01*
X002131Y016491D01*
X002082Y016480D01*
X002033Y016473D01*
X001983Y016470D01*
X001932Y016471D01*
X001883Y016476D01*
X001833Y016485D01*
X001785Y016498D01*
X001738Y016514D01*
X001692Y016535D01*
X001648Y016559D01*
X001606Y016586D01*
X001566Y016616D01*
X001529Y016650D01*
X001495Y016687D01*
X001463Y016726D01*
X001435Y016767D01*
X001410Y016811D01*
X001389Y016856D01*
X001372Y016903D01*
X001358Y016951D01*
X001348Y017000D01*
X001342Y017050D01*
X001340Y017100D01*
X036340Y017100D02*
X036342Y017150D01*
X036348Y017200D01*
X036358Y017249D01*
X036372Y017297D01*
X036389Y017344D01*
X036410Y017389D01*
X036435Y017433D01*
X036463Y017474D01*
X036495Y017513D01*
X036529Y017550D01*
X036566Y017584D01*
X036606Y017614D01*
X036648Y017641D01*
X036692Y017665D01*
X036738Y017686D01*
X036785Y017702D01*
X036833Y017715D01*
X036883Y017724D01*
X036932Y017729D01*
X036983Y017730D01*
X037033Y017727D01*
X037082Y017720D01*
X037131Y017709D01*
X037179Y017694D01*
X037225Y017676D01*
X037270Y017654D01*
X037313Y017628D01*
X037354Y017599D01*
X037393Y017567D01*
X037429Y017532D01*
X037461Y017494D01*
X037491Y017454D01*
X037518Y017411D01*
X037541Y017367D01*
X037560Y017321D01*
X037576Y017273D01*
X037588Y017224D01*
X037596Y017175D01*
X037600Y017125D01*
X037600Y017075D01*
X037596Y017025D01*
X037588Y016976D01*
X037576Y016927D01*
X037560Y016879D01*
X037541Y016833D01*
X037518Y016789D01*
X037491Y016746D01*
X037461Y016706D01*
X037429Y016668D01*
X037393Y016633D01*
X037354Y016601D01*
X037313Y016572D01*
X037270Y016546D01*
X037225Y016524D01*
X037179Y016506D01*
X037131Y016491D01*
X037082Y016480D01*
X037033Y016473D01*
X036983Y016470D01*
X036932Y016471D01*
X036883Y016476D01*
X036833Y016485D01*
X036785Y016498D01*
X036738Y016514D01*
X036692Y016535D01*
X036648Y016559D01*
X036606Y016586D01*
X036566Y016616D01*
X036529Y016650D01*
X036495Y016687D01*
X036463Y016726D01*
X036435Y016767D01*
X036410Y016811D01*
X036389Y016856D01*
X036372Y016903D01*
X036358Y016951D01*
X036348Y017000D01*
X036342Y017050D01*
X036340Y017100D01*
X036340Y002100D02*
X036342Y002150D01*
X036348Y002200D01*
X036358Y002249D01*
X036372Y002297D01*
X036389Y002344D01*
X036410Y002389D01*
X036435Y002433D01*
X036463Y002474D01*
X036495Y002513D01*
X036529Y002550D01*
X036566Y002584D01*
X036606Y002614D01*
X036648Y002641D01*
X036692Y002665D01*
X036738Y002686D01*
X036785Y002702D01*
X036833Y002715D01*
X036883Y002724D01*
X036932Y002729D01*
X036983Y002730D01*
X037033Y002727D01*
X037082Y002720D01*
X037131Y002709D01*
X037179Y002694D01*
X037225Y002676D01*
X037270Y002654D01*
X037313Y002628D01*
X037354Y002599D01*
X037393Y002567D01*
X037429Y002532D01*
X037461Y002494D01*
X037491Y002454D01*
X037518Y002411D01*
X037541Y002367D01*
X037560Y002321D01*
X037576Y002273D01*
X037588Y002224D01*
X037596Y002175D01*
X037600Y002125D01*
X037600Y002075D01*
X037596Y002025D01*
X037588Y001976D01*
X037576Y001927D01*
X037560Y001879D01*
X037541Y001833D01*
X037518Y001789D01*
X037491Y001746D01*
X037461Y001706D01*
X037429Y001668D01*
X037393Y001633D01*
X037354Y001601D01*
X037313Y001572D01*
X037270Y001546D01*
X037225Y001524D01*
X037179Y001506D01*
X037131Y001491D01*
X037082Y001480D01*
X037033Y001473D01*
X036983Y001470D01*
X036932Y001471D01*
X036883Y001476D01*
X036833Y001485D01*
X036785Y001498D01*
X036738Y001514D01*
X036692Y001535D01*
X036648Y001559D01*
X036606Y001586D01*
X036566Y001616D01*
X036529Y001650D01*
X036495Y001687D01*
X036463Y001726D01*
X036435Y001767D01*
X036410Y001811D01*
X036389Y001856D01*
X036372Y001903D01*
X036358Y001951D01*
X036348Y002000D01*
X036342Y002050D01*
X036340Y002100D01*
D11*
X028920Y002600D03*
X022470Y001050D03*
X010420Y002600D03*
X009520Y009600D03*
X009420Y010600D03*
X010520Y017600D03*
X029020Y017600D03*
X029920Y010600D03*
X030020Y009600D03*
D12*
X029020Y009600D03*
X028920Y008600D03*
X029920Y008600D03*
X030020Y007600D03*
X029020Y007600D03*
X028920Y006600D03*
X029920Y006600D03*
X030020Y005600D03*
X029020Y005600D03*
X028920Y004600D03*
X029920Y004600D03*
X030020Y003600D03*
X029020Y003600D03*
X029920Y002600D03*
X021470Y001150D03*
X020470Y001050D03*
X019470Y001150D03*
X018470Y001050D03*
X017470Y001150D03*
X016470Y001050D03*
X015470Y001150D03*
X010520Y003600D03*
X009520Y003600D03*
X009420Y002600D03*
X009420Y004600D03*
X010420Y004600D03*
X010520Y005600D03*
X009520Y005600D03*
X009420Y006600D03*
X010420Y006600D03*
X010520Y007600D03*
X009520Y007600D03*
X009420Y008600D03*
X010420Y008600D03*
X010520Y009600D03*
X010420Y010600D03*
X010520Y011600D03*
X009520Y011600D03*
X009420Y012600D03*
X010420Y012600D03*
X010520Y013600D03*
X009520Y013600D03*
X009420Y014600D03*
X010420Y014600D03*
X010520Y015600D03*
X009520Y015600D03*
X009420Y016600D03*
X010420Y016600D03*
X009520Y017600D03*
X028920Y016600D03*
X029920Y016600D03*
X030020Y015600D03*
X029020Y015600D03*
X028920Y014600D03*
X029920Y014600D03*
X030020Y013600D03*
X029020Y013600D03*
X028920Y012600D03*
X029920Y012600D03*
X030020Y011600D03*
X029020Y011600D03*
X028920Y010600D03*
X030020Y017600D03*
D13*
X023344Y017600D03*
X022596Y017600D03*
X022596Y016600D03*
X023344Y016600D03*
X023344Y015600D03*
X022596Y015600D03*
X022596Y014600D03*
X023344Y014600D03*
X023344Y013600D03*
X022596Y013600D03*
X022596Y012600D03*
X023344Y012600D03*
X023344Y011600D03*
X022596Y011600D03*
X022596Y010600D03*
X023344Y010600D03*
X023344Y009600D03*
X022596Y009600D03*
X022596Y008600D03*
X023344Y008600D03*
X023344Y007600D03*
X022596Y007600D03*
X022596Y006600D03*
X023344Y006600D03*
X023344Y005600D03*
X022596Y005600D03*
X022596Y004600D03*
X023344Y004600D03*
X023344Y003600D03*
X022596Y003600D03*
X022596Y002600D03*
X023344Y002600D03*
X015344Y002600D03*
X014596Y002600D03*
X014596Y003600D03*
X015344Y003600D03*
X015344Y004600D03*
X014596Y004600D03*
X014596Y005600D03*
X015344Y005600D03*
X015344Y006600D03*
X014596Y006600D03*
X014596Y007600D03*
X015344Y007600D03*
X015344Y008600D03*
X014596Y008600D03*
X014596Y009600D03*
X015344Y009600D03*
X015344Y010600D03*
X014596Y010600D03*
X014596Y011600D03*
X015344Y011600D03*
X015344Y012600D03*
X014596Y012600D03*
X014596Y013600D03*
X015344Y013600D03*
X013344Y014600D03*
X012596Y014600D03*
X012596Y015600D03*
X013344Y015600D03*
X013344Y016600D03*
X012596Y016600D03*
X012596Y017600D03*
X013344Y017600D03*
D14*
X013370Y017600D01*
X013370Y016600D01*
X013344Y016600D01*
X013370Y016600D01*
X013370Y015600D01*
X013344Y015600D01*
X013370Y015600D01*
X013370Y015100D01*
X012970Y015100D01*
X013370Y015100D02*
X013370Y014600D01*
X013344Y014600D01*
X013370Y014600D01*
X014370Y014600D01*
X015370Y013600D01*
X015344Y013600D01*
X015370Y013600D01*
X015370Y012600D01*
X015344Y012600D01*
X015370Y012600D01*
X015370Y011600D01*
X015344Y011600D01*
X015370Y011600D01*
X015370Y010600D01*
X015344Y010600D01*
X015370Y010600D01*
X015370Y009600D01*
X015344Y009600D01*
X015370Y009600D01*
X015370Y008900D01*
X015870Y008900D01*
X015870Y009400D02*
X016570Y008700D01*
X016570Y006000D01*
X017670Y004900D01*
X017970Y004800D02*
X017970Y009900D01*
X017670Y010400D02*
X015870Y012200D01*
X014970Y013100D02*
X014470Y013600D01*
X014596Y013600D01*
X014470Y013600D01*
X010520Y013600D01*
X009520Y013600D02*
X009470Y013600D01*
X008770Y013600D01*
X004070Y008900D01*
X004070Y008700D01*
X001270Y005900D01*
X001270Y005400D02*
X004570Y008700D01*
X004570Y009100D01*
X008070Y012600D01*
X009370Y012600D01*
X009420Y012600D01*
X010420Y012600D02*
X014170Y012600D01*
X014170Y012100D01*
X014170Y011600D02*
X014170Y011100D01*
X014596Y010600D02*
X010420Y010600D01*
X009420Y010600D02*
X009370Y010600D01*
X008970Y010600D01*
X002770Y004400D01*
X002770Y004900D02*
X009470Y011600D01*
X009520Y011600D01*
X010520Y011600D02*
X014170Y011600D01*
X014596Y011600D01*
X014596Y012600D02*
X014170Y012600D01*
X012596Y014600D02*
X010420Y014600D01*
X009470Y014600D02*
X009420Y014600D01*
X009470Y014600D02*
X001270Y006400D01*
X001270Y006900D02*
X008870Y014500D01*
X008870Y015000D01*
X009470Y015600D01*
X009520Y015600D01*
X010520Y015600D02*
X012596Y015600D01*
X012596Y016600D02*
X010420Y016600D01*
X009420Y016600D02*
X009370Y016600D01*
X008670Y015900D01*
X008670Y014800D01*
X001270Y007400D01*
X001270Y007900D02*
X001270Y009400D01*
X009470Y017600D01*
X009520Y017600D01*
X010470Y017600D02*
X010520Y017600D01*
X010570Y017600D01*
X010520Y017600D01*
X010570Y017600D02*
X012596Y017600D01*
X012270Y018100D02*
X012070Y017900D01*
X012270Y018100D02*
X013670Y018100D01*
X018270Y013500D01*
X018270Y006900D01*
X018570Y007400D02*
X018570Y013500D01*
X013770Y018300D01*
X012070Y018300D01*
X011670Y017900D01*
X022070Y017900D02*
X022270Y018100D01*
X022870Y018100D01*
X023370Y017600D01*
X023344Y017600D01*
X023370Y017600D01*
X029020Y017600D01*
X030020Y017600D02*
X030070Y017600D01*
X032270Y015400D01*
X032270Y008700D01*
X031770Y007900D02*
X030070Y009600D01*
X030020Y009600D01*
X029020Y009600D02*
X023870Y009600D01*
X023870Y009800D01*
X023870Y009600D02*
X023344Y009600D01*
X022596Y009600D02*
X022570Y009600D01*
X022570Y010600D01*
X022596Y010600D01*
X022570Y010600D01*
X022570Y011600D01*
X022596Y011600D01*
X022570Y011600D01*
X022570Y012600D01*
X022596Y012600D01*
X022570Y012600D01*
X022570Y013600D01*
X022596Y013600D01*
X022570Y013600D01*
X022570Y014600D01*
X022596Y014600D01*
X022570Y014600D01*
X022570Y015600D01*
X022596Y015600D01*
X022570Y015600D01*
X022570Y016600D01*
X022596Y016600D01*
X022570Y016600D01*
X022570Y017600D01*
X022596Y017600D01*
X022070Y017900D02*
X022070Y009500D01*
X021770Y009800D02*
X021770Y008400D01*
X022570Y008600D02*
X022596Y008600D01*
X022570Y008600D01*
X022570Y007600D01*
X022596Y007600D01*
X022570Y007600D01*
X022570Y006600D01*
X022596Y006600D01*
X022570Y006600D01*
X022570Y005600D01*
X022596Y005600D01*
X022570Y005600D01*
X022570Y004600D01*
X022596Y004600D01*
X022570Y004600D01*
X022570Y003600D01*
X022596Y003600D01*
X022570Y003600D01*
X022570Y002600D01*
X022596Y002600D01*
X022570Y002600D01*
X021970Y002000D01*
X030670Y002000D01*
X034770Y006100D01*
X034770Y008900D01*
X034070Y007900D02*
X031770Y007900D01*
X031170Y007400D02*
X029970Y008600D01*
X029920Y008600D01*
X028920Y008600D02*
X023470Y008600D01*
X023344Y008600D01*
X023470Y008600D01*
X022970Y008100D01*
X023344Y007600D02*
X023870Y007600D01*
X023870Y006900D01*
X024370Y006900D02*
X025270Y006900D01*
X025670Y007300D01*
X026270Y007300D01*
X026270Y006900D02*
X025670Y006900D01*
X026270Y006300D02*
X025870Y005900D01*
X025670Y005900D01*
X025670Y005300D02*
X026270Y005300D01*
X028920Y004600D02*
X023344Y004600D01*
X023344Y003600D02*
X023470Y003600D01*
X029020Y003600D01*
X028920Y002600D02*
X023344Y002600D01*
X021970Y002000D02*
X021470Y001500D01*
X021470Y001200D01*
X021470Y001150D01*
X021470Y001100D01*
X020870Y000500D01*
X015370Y000500D01*
X014770Y001100D01*
X014770Y002000D01*
X015370Y002600D01*
X015344Y002600D01*
X015370Y002600D01*
X015370Y003600D01*
X015344Y003600D01*
X015370Y003600D01*
X015370Y004600D01*
X015344Y004600D01*
X015370Y004600D01*
X015370Y005600D01*
X015344Y005600D01*
X015370Y005600D01*
X015370Y006600D01*
X015344Y006600D01*
X015370Y006600D01*
X015370Y007600D01*
X015344Y007600D01*
X015370Y007600D01*
X015370Y008600D01*
X015344Y008600D01*
X015370Y008600D01*
X015370Y008900D01*
X014596Y008600D02*
X010420Y008600D01*
X012170Y008900D02*
X013570Y008900D01*
X013570Y009300D02*
X012270Y009300D01*
X010520Y009600D02*
X014596Y009600D01*
X015870Y010400D02*
X016770Y009500D01*
X016770Y006300D01*
X017670Y005400D01*
X017670Y005900D02*
X017670Y010400D01*
X018970Y011400D02*
X018970Y005500D01*
X017070Y003600D01*
X017070Y002800D01*
X016470Y003300D02*
X017970Y004800D01*
X016470Y003300D02*
X016470Y001100D01*
X016470Y001050D01*
X014770Y002000D02*
X008870Y002000D01*
X007670Y003200D01*
X007670Y008200D01*
X010520Y007600D02*
X014596Y007600D01*
X015970Y008000D02*
X015970Y008200D01*
X016270Y008500D01*
X014596Y006600D02*
X010420Y006600D01*
X010520Y005600D02*
X014596Y005600D01*
X014596Y004600D02*
X010420Y004600D01*
X010520Y003600D02*
X014596Y003600D01*
X014596Y002600D02*
X010420Y002600D01*
X008570Y002700D02*
X008570Y009800D01*
X022070Y009000D02*
X022570Y009000D01*
X022570Y008600D01*
X022570Y009000D02*
X022570Y009600D01*
X022596Y009600D01*
X023870Y009200D02*
X024170Y008900D01*
X025670Y008900D01*
X026570Y007900D02*
X024170Y007900D01*
X023870Y007600D02*
X029020Y007600D01*
X030020Y007600D02*
X030070Y007600D01*
X030770Y006900D01*
X034070Y006900D01*
X034070Y006400D02*
X030170Y006400D01*
X029970Y006600D01*
X029920Y006600D01*
X028920Y006600D02*
X023344Y006600D01*
X023344Y005600D02*
X029020Y005600D01*
X030020Y005600D02*
X030070Y005600D01*
X030270Y005800D01*
X034070Y005800D01*
X034070Y007400D02*
X031170Y007400D01*
X028920Y010600D02*
X023344Y010600D01*
X023344Y011600D02*
X025970Y011600D01*
X029020Y011600D01*
X028920Y012600D02*
X023344Y012600D01*
X023344Y013600D02*
X029020Y013600D01*
X028920Y014600D02*
X026270Y014600D01*
X023344Y014600D01*
X023344Y015600D02*
X029020Y015600D01*
X028920Y016600D02*
X023344Y016600D01*
X019870Y001700D02*
X018470Y001700D01*
X019870Y001700D02*
X020470Y001100D01*
X020470Y001050D01*
D15*
X018470Y001700D03*
X017070Y002800D03*
X017670Y004900D03*
X017670Y005400D03*
X017670Y005900D03*
X018270Y006900D03*
X018570Y007400D03*
X016270Y008500D03*
X015870Y008900D03*
X015870Y009400D03*
X015870Y010400D03*
X014170Y011100D03*
X014170Y012100D03*
X014970Y013100D03*
X015870Y012200D03*
X018970Y011400D03*
X017970Y009900D03*
X015970Y008000D03*
X013570Y008900D03*
X013570Y009300D03*
X012270Y009300D03*
X012170Y008900D03*
X008570Y009800D03*
X007670Y008200D03*
X001270Y007900D03*
X001270Y007400D03*
X001270Y006900D03*
X001270Y006400D03*
X001270Y005900D03*
X001270Y005400D03*
X002770Y004900D03*
X002770Y004400D03*
X008570Y002700D03*
X021770Y008400D03*
X022070Y009000D03*
X022070Y009500D03*
X021770Y009800D03*
X023870Y009800D03*
X023870Y009200D03*
X025670Y008900D03*
X026570Y007900D03*
X026270Y007300D03*
X026270Y006900D03*
X025670Y006900D03*
X026270Y006300D03*
X025670Y005900D03*
X025670Y005300D03*
X026270Y005300D03*
X024370Y006900D03*
X023870Y006900D03*
X024170Y007900D03*
X022970Y008100D03*
X025970Y011600D03*
X026270Y014600D03*
X034770Y008900D03*
X034070Y007900D03*
X034070Y007400D03*
X034070Y006900D03*
X034070Y006400D03*
X034070Y005800D03*
X032270Y008700D03*
X012970Y015100D03*
X012070Y017900D03*
X011670Y017900D03*
M02*
