G75*
G70*
%OFA0B0*%
%FSLAX24Y24*%
%IPPOS*%
%LPD*%
%AMOC8*
5,1,8,0,0,1.08239X$1,22.5*
%
%ADD10C,0.0000*%
%ADD11C,0.0060*%
%ADD12C,0.0080*%
%ADD13R,0.0200X0.0200*%
%ADD14R,0.0758X0.0201*%
%ADD15C,0.0100*%
%ADD16C,0.0180*%
D10*
X000100Y000100D02*
X039470Y000100D01*
X039470Y019785D01*
X000100Y019785D01*
X000100Y000100D01*
X001340Y002100D02*
X001342Y002150D01*
X001348Y002200D01*
X001358Y002249D01*
X001372Y002297D01*
X001389Y002344D01*
X001410Y002389D01*
X001435Y002433D01*
X001463Y002474D01*
X001495Y002513D01*
X001529Y002550D01*
X001566Y002584D01*
X001606Y002614D01*
X001648Y002641D01*
X001692Y002665D01*
X001738Y002686D01*
X001785Y002702D01*
X001833Y002715D01*
X001883Y002724D01*
X001932Y002729D01*
X001983Y002730D01*
X002033Y002727D01*
X002082Y002720D01*
X002131Y002709D01*
X002179Y002694D01*
X002225Y002676D01*
X002270Y002654D01*
X002313Y002628D01*
X002354Y002599D01*
X002393Y002567D01*
X002429Y002532D01*
X002461Y002494D01*
X002491Y002454D01*
X002518Y002411D01*
X002541Y002367D01*
X002560Y002321D01*
X002576Y002273D01*
X002588Y002224D01*
X002596Y002175D01*
X002600Y002125D01*
X002600Y002075D01*
X002596Y002025D01*
X002588Y001976D01*
X002576Y001927D01*
X002560Y001879D01*
X002541Y001833D01*
X002518Y001789D01*
X002491Y001746D01*
X002461Y001706D01*
X002429Y001668D01*
X002393Y001633D01*
X002354Y001601D01*
X002313Y001572D01*
X002270Y001546D01*
X002225Y001524D01*
X002179Y001506D01*
X002131Y001491D01*
X002082Y001480D01*
X002033Y001473D01*
X001983Y001470D01*
X001932Y001471D01*
X001883Y001476D01*
X001833Y001485D01*
X001785Y001498D01*
X001738Y001514D01*
X001692Y001535D01*
X001648Y001559D01*
X001606Y001586D01*
X001566Y001616D01*
X001529Y001650D01*
X001495Y001687D01*
X001463Y001726D01*
X001435Y001767D01*
X001410Y001811D01*
X001389Y001856D01*
X001372Y001903D01*
X001358Y001951D01*
X001348Y002000D01*
X001342Y002050D01*
X001340Y002100D01*
X001340Y017100D02*
X001342Y017150D01*
X001348Y017200D01*
X001358Y017249D01*
X001372Y017297D01*
X001389Y017344D01*
X001410Y017389D01*
X001435Y017433D01*
X001463Y017474D01*
X001495Y017513D01*
X001529Y017550D01*
X001566Y017584D01*
X001606Y017614D01*
X001648Y017641D01*
X001692Y017665D01*
X001738Y017686D01*
X001785Y017702D01*
X001833Y017715D01*
X001883Y017724D01*
X001932Y017729D01*
X001983Y017730D01*
X002033Y017727D01*
X002082Y017720D01*
X002131Y017709D01*
X002179Y017694D01*
X002225Y017676D01*
X002270Y017654D01*
X002313Y017628D01*
X002354Y017599D01*
X002393Y017567D01*
X002429Y017532D01*
X002461Y017494D01*
X002491Y017454D01*
X002518Y017411D01*
X002541Y017367D01*
X002560Y017321D01*
X002576Y017273D01*
X002588Y017224D01*
X002596Y017175D01*
X002600Y017125D01*
X002600Y017075D01*
X002596Y017025D01*
X002588Y016976D01*
X002576Y016927D01*
X002560Y016879D01*
X002541Y016833D01*
X002518Y016789D01*
X002491Y016746D01*
X002461Y016706D01*
X002429Y016668D01*
X002393Y016633D01*
X002354Y016601D01*
X002313Y016572D01*
X002270Y016546D01*
X002225Y016524D01*
X002179Y016506D01*
X002131Y016491D01*
X002082Y016480D01*
X002033Y016473D01*
X001983Y016470D01*
X001932Y016471D01*
X001883Y016476D01*
X001833Y016485D01*
X001785Y016498D01*
X001738Y016514D01*
X001692Y016535D01*
X001648Y016559D01*
X001606Y016586D01*
X001566Y016616D01*
X001529Y016650D01*
X001495Y016687D01*
X001463Y016726D01*
X001435Y016767D01*
X001410Y016811D01*
X001389Y016856D01*
X001372Y016903D01*
X001358Y016951D01*
X001348Y017000D01*
X001342Y017050D01*
X001340Y017100D01*
X036340Y017100D02*
X036342Y017150D01*
X036348Y017200D01*
X036358Y017249D01*
X036372Y017297D01*
X036389Y017344D01*
X036410Y017389D01*
X036435Y017433D01*
X036463Y017474D01*
X036495Y017513D01*
X036529Y017550D01*
X036566Y017584D01*
X036606Y017614D01*
X036648Y017641D01*
X036692Y017665D01*
X036738Y017686D01*
X036785Y017702D01*
X036833Y017715D01*
X036883Y017724D01*
X036932Y017729D01*
X036983Y017730D01*
X037033Y017727D01*
X037082Y017720D01*
X037131Y017709D01*
X037179Y017694D01*
X037225Y017676D01*
X037270Y017654D01*
X037313Y017628D01*
X037354Y017599D01*
X037393Y017567D01*
X037429Y017532D01*
X037461Y017494D01*
X037491Y017454D01*
X037518Y017411D01*
X037541Y017367D01*
X037560Y017321D01*
X037576Y017273D01*
X037588Y017224D01*
X037596Y017175D01*
X037600Y017125D01*
X037600Y017075D01*
X037596Y017025D01*
X037588Y016976D01*
X037576Y016927D01*
X037560Y016879D01*
X037541Y016833D01*
X037518Y016789D01*
X037491Y016746D01*
X037461Y016706D01*
X037429Y016668D01*
X037393Y016633D01*
X037354Y016601D01*
X037313Y016572D01*
X037270Y016546D01*
X037225Y016524D01*
X037179Y016506D01*
X037131Y016491D01*
X037082Y016480D01*
X037033Y016473D01*
X036983Y016470D01*
X036932Y016471D01*
X036883Y016476D01*
X036833Y016485D01*
X036785Y016498D01*
X036738Y016514D01*
X036692Y016535D01*
X036648Y016559D01*
X036606Y016586D01*
X036566Y016616D01*
X036529Y016650D01*
X036495Y016687D01*
X036463Y016726D01*
X036435Y016767D01*
X036410Y016811D01*
X036389Y016856D01*
X036372Y016903D01*
X036358Y016951D01*
X036348Y017000D01*
X036342Y017050D01*
X036340Y017100D01*
X036340Y002100D02*
X036342Y002150D01*
X036348Y002200D01*
X036358Y002249D01*
X036372Y002297D01*
X036389Y002344D01*
X036410Y002389D01*
X036435Y002433D01*
X036463Y002474D01*
X036495Y002513D01*
X036529Y002550D01*
X036566Y002584D01*
X036606Y002614D01*
X036648Y002641D01*
X036692Y002665D01*
X036738Y002686D01*
X036785Y002702D01*
X036833Y002715D01*
X036883Y002724D01*
X036932Y002729D01*
X036983Y002730D01*
X037033Y002727D01*
X037082Y002720D01*
X037131Y002709D01*
X037179Y002694D01*
X037225Y002676D01*
X037270Y002654D01*
X037313Y002628D01*
X037354Y002599D01*
X037393Y002567D01*
X037429Y002532D01*
X037461Y002494D01*
X037491Y002454D01*
X037518Y002411D01*
X037541Y002367D01*
X037560Y002321D01*
X037576Y002273D01*
X037588Y002224D01*
X037596Y002175D01*
X037600Y002125D01*
X037600Y002075D01*
X037596Y002025D01*
X037588Y001976D01*
X037576Y001927D01*
X037560Y001879D01*
X037541Y001833D01*
X037518Y001789D01*
X037491Y001746D01*
X037461Y001706D01*
X037429Y001668D01*
X037393Y001633D01*
X037354Y001601D01*
X037313Y001572D01*
X037270Y001546D01*
X037225Y001524D01*
X037179Y001506D01*
X037131Y001491D01*
X037082Y001480D01*
X037033Y001473D01*
X036983Y001470D01*
X036932Y001471D01*
X036883Y001476D01*
X036833Y001485D01*
X036785Y001498D01*
X036738Y001514D01*
X036692Y001535D01*
X036648Y001559D01*
X036606Y001586D01*
X036566Y001616D01*
X036529Y001650D01*
X036495Y001687D01*
X036463Y001726D01*
X036435Y001767D01*
X036410Y001811D01*
X036389Y001856D01*
X036372Y001903D01*
X036358Y001951D01*
X036348Y002000D01*
X036342Y002050D01*
X036340Y002100D01*
D11*
X035620Y002100D02*
X035622Y002173D01*
X035628Y002246D01*
X035638Y002318D01*
X035652Y002390D01*
X035669Y002461D01*
X035691Y002531D01*
X035716Y002600D01*
X035745Y002667D01*
X035777Y002732D01*
X035813Y002796D01*
X035853Y002858D01*
X035895Y002917D01*
X035941Y002974D01*
X035990Y003028D01*
X036042Y003080D01*
X036096Y003129D01*
X036153Y003175D01*
X036212Y003217D01*
X036274Y003257D01*
X036338Y003293D01*
X036403Y003325D01*
X036470Y003354D01*
X036539Y003379D01*
X036609Y003401D01*
X036680Y003418D01*
X036752Y003432D01*
X036824Y003442D01*
X036897Y003448D01*
X036970Y003450D01*
X037043Y003448D01*
X037116Y003442D01*
X037188Y003432D01*
X037260Y003418D01*
X037331Y003401D01*
X037401Y003379D01*
X037470Y003354D01*
X037537Y003325D01*
X037602Y003293D01*
X037666Y003257D01*
X037728Y003217D01*
X037787Y003175D01*
X037844Y003129D01*
X037898Y003080D01*
X037950Y003028D01*
X037999Y002974D01*
X038045Y002917D01*
X038087Y002858D01*
X038127Y002796D01*
X038163Y002732D01*
X038195Y002667D01*
X038224Y002600D01*
X038249Y002531D01*
X038271Y002461D01*
X038288Y002390D01*
X038302Y002318D01*
X038312Y002246D01*
X038318Y002173D01*
X038320Y002100D01*
X038318Y002027D01*
X038312Y001954D01*
X038302Y001882D01*
X038288Y001810D01*
X038271Y001739D01*
X038249Y001669D01*
X038224Y001600D01*
X038195Y001533D01*
X038163Y001468D01*
X038127Y001404D01*
X038087Y001342D01*
X038045Y001283D01*
X037999Y001226D01*
X037950Y001172D01*
X037898Y001120D01*
X037844Y001071D01*
X037787Y001025D01*
X037728Y000983D01*
X037666Y000943D01*
X037602Y000907D01*
X037537Y000875D01*
X037470Y000846D01*
X037401Y000821D01*
X037331Y000799D01*
X037260Y000782D01*
X037188Y000768D01*
X037116Y000758D01*
X037043Y000752D01*
X036970Y000750D01*
X036897Y000752D01*
X036824Y000758D01*
X036752Y000768D01*
X036680Y000782D01*
X036609Y000799D01*
X036539Y000821D01*
X036470Y000846D01*
X036403Y000875D01*
X036338Y000907D01*
X036274Y000943D01*
X036212Y000983D01*
X036153Y001025D01*
X036096Y001071D01*
X036042Y001120D01*
X035990Y001172D01*
X035941Y001226D01*
X035895Y001283D01*
X035853Y001342D01*
X035813Y001404D01*
X035777Y001468D01*
X035745Y001533D01*
X035716Y001600D01*
X035691Y001669D01*
X035669Y001739D01*
X035652Y001810D01*
X035638Y001882D01*
X035628Y001954D01*
X035622Y002027D01*
X035620Y002100D01*
X030283Y001464D02*
X030283Y001037D01*
X030176Y000930D01*
X029962Y000930D01*
X029856Y001037D01*
X030283Y001464D01*
X030176Y001571D01*
X029962Y001571D01*
X029856Y001464D01*
X029856Y001037D01*
X029638Y001037D02*
X029531Y000930D01*
X029211Y000930D01*
X029211Y001571D01*
X029531Y001571D01*
X029638Y001464D01*
X029638Y001357D01*
X029531Y001250D01*
X029211Y001250D01*
X029531Y001250D02*
X029638Y001144D01*
X029638Y001037D01*
X028783Y001464D02*
X028356Y001037D01*
X028356Y000930D01*
X028138Y000930D02*
X028138Y001357D01*
X027924Y001571D01*
X027711Y001357D01*
X027711Y000930D01*
X027711Y001250D02*
X028138Y001250D01*
X028356Y001571D02*
X028783Y001571D01*
X028783Y001464D01*
X023940Y001488D02*
X023727Y001702D01*
X023300Y001702D01*
X023300Y001275D02*
X023727Y001275D01*
X023940Y001488D01*
X023833Y001057D02*
X023620Y001057D01*
X023513Y000950D01*
X023513Y000844D01*
X023620Y000630D01*
X023300Y000630D01*
X023300Y001057D01*
X023833Y001057D02*
X023940Y000950D01*
X023940Y000737D01*
X023833Y000630D01*
X010783Y001464D02*
X010356Y001037D01*
X010356Y000930D01*
X010138Y000930D02*
X010138Y001357D01*
X009924Y001571D01*
X009711Y001357D01*
X009711Y000930D01*
X009283Y001037D02*
X009176Y000930D01*
X008962Y000930D01*
X008856Y001037D01*
X009283Y001464D01*
X009283Y001037D01*
X008856Y001037D02*
X008856Y001464D01*
X008962Y001571D01*
X009176Y001571D01*
X009283Y001464D01*
X009711Y001250D02*
X010138Y001250D01*
X010356Y001571D02*
X010783Y001571D01*
X010783Y001464D01*
X008638Y001464D02*
X008638Y001357D01*
X008531Y001250D01*
X008211Y001250D01*
X008211Y000930D02*
X008211Y001571D01*
X008531Y001571D01*
X008638Y001464D01*
X008531Y001250D02*
X008638Y001144D01*
X008638Y001037D01*
X008531Y000930D01*
X008211Y000930D01*
X000620Y002100D02*
X000622Y002173D01*
X000628Y002246D01*
X000638Y002318D01*
X000652Y002390D01*
X000669Y002461D01*
X000691Y002531D01*
X000716Y002600D01*
X000745Y002667D01*
X000777Y002732D01*
X000813Y002796D01*
X000853Y002858D01*
X000895Y002917D01*
X000941Y002974D01*
X000990Y003028D01*
X001042Y003080D01*
X001096Y003129D01*
X001153Y003175D01*
X001212Y003217D01*
X001274Y003257D01*
X001338Y003293D01*
X001403Y003325D01*
X001470Y003354D01*
X001539Y003379D01*
X001609Y003401D01*
X001680Y003418D01*
X001752Y003432D01*
X001824Y003442D01*
X001897Y003448D01*
X001970Y003450D01*
X002043Y003448D01*
X002116Y003442D01*
X002188Y003432D01*
X002260Y003418D01*
X002331Y003401D01*
X002401Y003379D01*
X002470Y003354D01*
X002537Y003325D01*
X002602Y003293D01*
X002666Y003257D01*
X002728Y003217D01*
X002787Y003175D01*
X002844Y003129D01*
X002898Y003080D01*
X002950Y003028D01*
X002999Y002974D01*
X003045Y002917D01*
X003087Y002858D01*
X003127Y002796D01*
X003163Y002732D01*
X003195Y002667D01*
X003224Y002600D01*
X003249Y002531D01*
X003271Y002461D01*
X003288Y002390D01*
X003302Y002318D01*
X003312Y002246D01*
X003318Y002173D01*
X003320Y002100D01*
X003318Y002027D01*
X003312Y001954D01*
X003302Y001882D01*
X003288Y001810D01*
X003271Y001739D01*
X003249Y001669D01*
X003224Y001600D01*
X003195Y001533D01*
X003163Y001468D01*
X003127Y001404D01*
X003087Y001342D01*
X003045Y001283D01*
X002999Y001226D01*
X002950Y001172D01*
X002898Y001120D01*
X002844Y001071D01*
X002787Y001025D01*
X002728Y000983D01*
X002666Y000943D01*
X002602Y000907D01*
X002537Y000875D01*
X002470Y000846D01*
X002401Y000821D01*
X002331Y000799D01*
X002260Y000782D01*
X002188Y000768D01*
X002116Y000758D01*
X002043Y000752D01*
X001970Y000750D01*
X001897Y000752D01*
X001824Y000758D01*
X001752Y000768D01*
X001680Y000782D01*
X001609Y000799D01*
X001539Y000821D01*
X001470Y000846D01*
X001403Y000875D01*
X001338Y000907D01*
X001274Y000943D01*
X001212Y000983D01*
X001153Y001025D01*
X001096Y001071D01*
X001042Y001120D01*
X000990Y001172D01*
X000941Y001226D01*
X000895Y001283D01*
X000853Y001342D01*
X000813Y001404D01*
X000777Y001468D01*
X000745Y001533D01*
X000716Y001600D01*
X000691Y001669D01*
X000669Y001739D01*
X000652Y001810D01*
X000638Y001882D01*
X000628Y001954D01*
X000622Y002027D01*
X000620Y002100D01*
X002348Y011430D02*
X002775Y011430D01*
X002992Y011430D02*
X003206Y011430D01*
X003099Y011430D02*
X003099Y012071D01*
X002992Y012071D02*
X003206Y012071D01*
X003422Y011964D02*
X003422Y011537D01*
X003529Y011430D01*
X003742Y011430D01*
X003849Y011537D01*
X003849Y011750D01*
X003635Y011750D01*
X003422Y011964D02*
X003529Y012071D01*
X003742Y012071D01*
X003849Y011964D01*
X004066Y012071D02*
X004066Y011430D01*
X004493Y011430D02*
X004493Y012071D01*
X004711Y012071D02*
X005138Y012071D01*
X004924Y012071D02*
X004924Y011430D01*
X005356Y011537D02*
X005462Y011430D01*
X005676Y011430D01*
X005783Y011537D01*
X005783Y011644D01*
X005676Y011750D01*
X005462Y011750D01*
X005356Y011857D01*
X005356Y011964D01*
X005462Y012071D01*
X005676Y012071D01*
X005783Y011964D01*
X004493Y011750D02*
X004066Y011750D01*
X002348Y012071D02*
X002348Y011430D01*
X003932Y013916D02*
X004039Y013916D01*
X004146Y014023D01*
X004146Y014557D01*
X004363Y014450D02*
X004470Y014557D01*
X004684Y014557D01*
X004790Y014450D01*
X004790Y014344D01*
X004363Y014344D01*
X004363Y014450D02*
X004363Y014237D01*
X004470Y014130D01*
X004684Y014130D01*
X005008Y014130D02*
X005008Y014557D01*
X005008Y014344D02*
X005221Y014557D01*
X005328Y014557D01*
X005545Y014557D02*
X005759Y014771D01*
X005759Y014130D01*
X005972Y014130D02*
X005545Y014130D01*
X004146Y014130D02*
X003826Y014130D01*
X003719Y014237D01*
X003719Y014557D01*
X003501Y014450D02*
X003501Y014130D01*
X003181Y014130D01*
X003074Y014237D01*
X003181Y014344D01*
X003501Y014344D01*
X003501Y014450D02*
X003395Y014557D01*
X003181Y014557D01*
X002751Y014771D02*
X002751Y014130D01*
X002645Y014130D02*
X002858Y014130D01*
X002427Y014450D02*
X002320Y014344D01*
X002000Y014344D01*
X002000Y014130D02*
X002000Y014771D01*
X002320Y014771D01*
X002427Y014664D01*
X002427Y014450D01*
X002645Y014771D02*
X002751Y014771D01*
X000620Y017100D02*
X000622Y017173D01*
X000628Y017246D01*
X000638Y017318D01*
X000652Y017390D01*
X000669Y017461D01*
X000691Y017531D01*
X000716Y017600D01*
X000745Y017667D01*
X000777Y017732D01*
X000813Y017796D01*
X000853Y017858D01*
X000895Y017917D01*
X000941Y017974D01*
X000990Y018028D01*
X001042Y018080D01*
X001096Y018129D01*
X001153Y018175D01*
X001212Y018217D01*
X001274Y018257D01*
X001338Y018293D01*
X001403Y018325D01*
X001470Y018354D01*
X001539Y018379D01*
X001609Y018401D01*
X001680Y018418D01*
X001752Y018432D01*
X001824Y018442D01*
X001897Y018448D01*
X001970Y018450D01*
X002043Y018448D01*
X002116Y018442D01*
X002188Y018432D01*
X002260Y018418D01*
X002331Y018401D01*
X002401Y018379D01*
X002470Y018354D01*
X002537Y018325D01*
X002602Y018293D01*
X002666Y018257D01*
X002728Y018217D01*
X002787Y018175D01*
X002844Y018129D01*
X002898Y018080D01*
X002950Y018028D01*
X002999Y017974D01*
X003045Y017917D01*
X003087Y017858D01*
X003127Y017796D01*
X003163Y017732D01*
X003195Y017667D01*
X003224Y017600D01*
X003249Y017531D01*
X003271Y017461D01*
X003288Y017390D01*
X003302Y017318D01*
X003312Y017246D01*
X003318Y017173D01*
X003320Y017100D01*
X003318Y017027D01*
X003312Y016954D01*
X003302Y016882D01*
X003288Y016810D01*
X003271Y016739D01*
X003249Y016669D01*
X003224Y016600D01*
X003195Y016533D01*
X003163Y016468D01*
X003127Y016404D01*
X003087Y016342D01*
X003045Y016283D01*
X002999Y016226D01*
X002950Y016172D01*
X002898Y016120D01*
X002844Y016071D01*
X002787Y016025D01*
X002728Y015983D01*
X002666Y015943D01*
X002602Y015907D01*
X002537Y015875D01*
X002470Y015846D01*
X002401Y015821D01*
X002331Y015799D01*
X002260Y015782D01*
X002188Y015768D01*
X002116Y015758D01*
X002043Y015752D01*
X001970Y015750D01*
X001897Y015752D01*
X001824Y015758D01*
X001752Y015768D01*
X001680Y015782D01*
X001609Y015799D01*
X001539Y015821D01*
X001470Y015846D01*
X001403Y015875D01*
X001338Y015907D01*
X001274Y015943D01*
X001212Y015983D01*
X001153Y016025D01*
X001096Y016071D01*
X001042Y016120D01*
X000990Y016172D01*
X000941Y016226D01*
X000895Y016283D01*
X000853Y016342D01*
X000813Y016404D01*
X000777Y016468D01*
X000745Y016533D01*
X000716Y016600D01*
X000691Y016669D01*
X000669Y016739D01*
X000652Y016810D01*
X000638Y016882D01*
X000628Y016954D01*
X000622Y017027D01*
X000620Y017100D01*
X008711Y018430D02*
X008711Y018857D01*
X008924Y019071D01*
X009138Y018857D01*
X009138Y018430D01*
X009356Y018537D02*
X009462Y018430D01*
X009676Y018430D01*
X009783Y018537D01*
X009783Y018964D01*
X009356Y018537D01*
X009356Y018964D01*
X009462Y019071D01*
X009676Y019071D01*
X009783Y018964D01*
X010211Y019071D02*
X010531Y019071D01*
X010638Y018964D01*
X010638Y018857D01*
X010531Y018750D01*
X010211Y018750D01*
X010211Y018430D02*
X010211Y019071D01*
X010531Y018750D02*
X010638Y018644D01*
X010638Y018537D01*
X010531Y018430D01*
X010211Y018430D01*
X010856Y018430D02*
X010856Y018537D01*
X011283Y018964D01*
X011283Y019071D01*
X010856Y019071D01*
X009138Y018750D02*
X008711Y018750D01*
X014121Y018857D02*
X014228Y018750D01*
X014441Y018750D01*
X014548Y018644D01*
X014548Y018537D01*
X014441Y018430D01*
X014228Y018430D01*
X014121Y018537D01*
X014121Y018857D02*
X014121Y018964D01*
X014228Y019071D01*
X014441Y019071D01*
X014548Y018964D01*
X014765Y018857D02*
X015086Y018857D01*
X015192Y018750D01*
X015192Y018537D01*
X015086Y018430D01*
X014765Y018430D01*
X014765Y018216D02*
X014765Y018857D01*
X015410Y018750D02*
X015410Y018537D01*
X015517Y018430D01*
X015730Y018430D01*
X015837Y018644D02*
X015410Y018644D01*
X015410Y018750D02*
X015517Y018857D01*
X015730Y018857D01*
X015837Y018750D01*
X015837Y018644D01*
X016055Y018644D02*
X016482Y018644D01*
X016482Y018750D01*
X016375Y018857D01*
X016161Y018857D01*
X016055Y018750D01*
X016055Y018537D01*
X016161Y018430D01*
X016375Y018430D01*
X016699Y018537D02*
X016699Y018750D01*
X016806Y018857D01*
X017126Y018857D01*
X017126Y019071D02*
X017126Y018430D01*
X016806Y018430D01*
X016699Y018537D01*
X016734Y018071D02*
X016521Y018071D01*
X016414Y017964D01*
X016414Y017537D01*
X016521Y017430D01*
X016734Y017430D01*
X016841Y017537D01*
X017059Y017537D02*
X017165Y017430D01*
X017379Y017430D01*
X017486Y017537D01*
X017486Y017750D01*
X017379Y017857D01*
X017165Y017857D01*
X017059Y017750D01*
X017059Y017537D01*
X017703Y017430D02*
X017703Y017857D01*
X018023Y017857D01*
X018130Y017750D01*
X018130Y017430D01*
X018454Y017537D02*
X018561Y017430D01*
X018454Y017537D02*
X018454Y017964D01*
X018348Y017857D02*
X018561Y017857D01*
X018777Y017857D02*
X018777Y017430D01*
X018777Y017644D02*
X018991Y017857D01*
X019098Y017857D01*
X019314Y017750D02*
X019314Y017537D01*
X019421Y017430D01*
X019635Y017430D01*
X019741Y017537D01*
X019741Y017750D01*
X019635Y017857D01*
X019421Y017857D01*
X019314Y017750D01*
X019959Y017430D02*
X020173Y017430D01*
X020066Y017430D02*
X020066Y018071D01*
X019959Y018071D01*
X020389Y018071D02*
X020495Y018071D01*
X020495Y017430D01*
X020389Y017430D02*
X020602Y017430D01*
X020818Y017537D02*
X020925Y017430D01*
X021139Y017430D01*
X021245Y017644D02*
X020818Y017644D01*
X020818Y017750D02*
X020818Y017537D01*
X020818Y017750D02*
X020925Y017857D01*
X021139Y017857D01*
X021245Y017750D01*
X021245Y017644D01*
X021463Y017644D02*
X021676Y017857D01*
X021783Y017857D01*
X021463Y017857D02*
X021463Y017430D01*
X021102Y018216D02*
X021208Y018323D01*
X021208Y018857D01*
X020888Y018857D01*
X020781Y018750D01*
X020781Y018537D01*
X020888Y018430D01*
X021208Y018430D01*
X021426Y018430D02*
X021426Y019071D01*
X021533Y018857D02*
X021746Y018857D01*
X021853Y018750D01*
X021853Y018430D01*
X022177Y018537D02*
X022284Y018430D01*
X022177Y018537D02*
X022177Y018964D01*
X022070Y018857D02*
X022284Y018857D01*
X021533Y018857D02*
X021426Y018750D01*
X021102Y018216D02*
X020995Y018216D01*
X020565Y018430D02*
X020352Y018430D01*
X020458Y018430D02*
X020458Y018857D01*
X020352Y018857D01*
X020458Y019071D02*
X020458Y019177D01*
X019707Y019071D02*
X019707Y018430D01*
X020134Y018430D01*
X018846Y018750D02*
X018633Y018750D01*
X018740Y018964D02*
X018846Y019071D01*
X018740Y018964D02*
X018740Y018430D01*
X018415Y018537D02*
X018415Y018964D01*
X018308Y019071D01*
X018095Y019071D01*
X017988Y018964D01*
X017988Y018537D01*
X018095Y018430D01*
X018308Y018430D01*
X018415Y018537D01*
X016841Y017964D02*
X016734Y018071D01*
X015552Y017964D02*
X015552Y017537D01*
X015445Y017430D01*
X015232Y017430D01*
X015125Y017537D01*
X015125Y017964D01*
X015232Y018071D01*
X015445Y018071D01*
X015552Y017964D01*
X014909Y018071D02*
X014695Y018071D01*
X014802Y018071D02*
X014802Y017430D01*
X014695Y017430D02*
X014909Y017430D01*
X016922Y017071D02*
X016922Y016430D01*
X016922Y016644D02*
X017242Y016644D01*
X017349Y016750D01*
X017349Y016964D01*
X017242Y017071D01*
X016922Y017071D01*
X017135Y016644D02*
X017349Y016430D01*
X017566Y016537D02*
X017566Y016750D01*
X017673Y016857D01*
X017887Y016857D01*
X017993Y016750D01*
X017993Y016644D01*
X017566Y016644D01*
X017566Y016537D02*
X017673Y016430D01*
X017887Y016430D01*
X018211Y016857D02*
X018424Y016430D01*
X018638Y016857D01*
X018856Y016857D02*
X019069Y017071D01*
X019069Y016430D01*
X018856Y016430D02*
X019283Y016430D01*
X019387Y016071D02*
X019493Y015964D01*
X019066Y015537D01*
X019173Y015430D01*
X019387Y015430D01*
X019493Y015537D01*
X019493Y015964D01*
X019387Y016071D02*
X019173Y016071D01*
X019066Y015964D01*
X019066Y015537D01*
X018849Y015430D02*
X018422Y015430D01*
X018849Y015857D01*
X018849Y015964D01*
X018742Y016071D01*
X018529Y016071D01*
X018422Y015964D01*
X018204Y016071D02*
X017777Y015430D01*
X017560Y015430D02*
X017133Y015430D01*
X017560Y015857D01*
X017560Y015964D01*
X017453Y016071D01*
X017240Y016071D01*
X017133Y015964D01*
X016702Y016071D02*
X016702Y015430D01*
X016915Y015430D02*
X016488Y015430D01*
X015844Y015430D02*
X016271Y016071D01*
X016488Y015857D02*
X016702Y016071D01*
X015626Y015750D02*
X015199Y015750D01*
X015519Y016071D01*
X015519Y015430D01*
X015844Y015071D02*
X016164Y015071D01*
X016271Y014964D01*
X016271Y014857D01*
X016164Y014750D01*
X015844Y014750D01*
X016164Y014750D02*
X016271Y014644D01*
X016271Y014537D01*
X016164Y014430D01*
X015844Y014430D01*
X015844Y015071D01*
X016488Y014750D02*
X016595Y014857D01*
X016808Y014857D01*
X016915Y014750D01*
X016915Y014644D01*
X016488Y014644D01*
X016488Y014750D02*
X016488Y014537D01*
X016595Y014430D01*
X016808Y014430D01*
X017133Y014430D02*
X017133Y014857D01*
X017453Y014857D01*
X017560Y014750D01*
X017560Y014430D01*
X018422Y014644D02*
X018635Y014430D01*
X018849Y014644D01*
X018849Y015071D01*
X019066Y014857D02*
X019173Y014857D01*
X019173Y014430D01*
X019066Y014430D02*
X019280Y014430D01*
X019496Y014537D02*
X019603Y014644D01*
X019923Y014644D01*
X019923Y014750D02*
X019923Y014430D01*
X019603Y014430D01*
X019496Y014537D01*
X019603Y014857D02*
X019816Y014857D01*
X019923Y014750D01*
X020141Y015071D02*
X020247Y015071D01*
X020247Y014430D01*
X020141Y014430D02*
X020354Y014430D01*
X020570Y014430D02*
X020784Y014430D01*
X020677Y014430D02*
X020677Y015071D01*
X020570Y015071D01*
X020676Y015430D02*
X020462Y015430D01*
X020356Y015537D01*
X020138Y015430D02*
X019711Y015430D01*
X019924Y015430D02*
X019924Y016071D01*
X019711Y015857D01*
X020356Y015964D02*
X020462Y016071D01*
X020676Y016071D01*
X020783Y015964D01*
X020783Y015857D01*
X020676Y015750D01*
X020783Y015644D01*
X020783Y015537D01*
X020676Y015430D01*
X020676Y015750D02*
X020569Y015750D01*
X019173Y015177D02*
X019173Y015071D01*
X018422Y015071D02*
X018422Y014644D01*
X016676Y012071D02*
X016462Y012071D01*
X016356Y011964D01*
X016356Y011857D01*
X016462Y011750D01*
X016676Y011750D01*
X016783Y011644D01*
X016783Y011537D01*
X016676Y011430D01*
X016462Y011430D01*
X016356Y011537D01*
X016138Y011430D02*
X016138Y012071D01*
X015711Y012071D02*
X016138Y011430D01*
X015711Y011430D02*
X015711Y012071D01*
X015493Y011964D02*
X015387Y012071D01*
X015173Y012071D01*
X015066Y011964D01*
X015066Y011537D01*
X015173Y011430D01*
X015387Y011430D01*
X015493Y011537D01*
X015493Y011964D01*
X014849Y012071D02*
X014422Y012071D01*
X014635Y012071D02*
X014635Y011430D01*
X013991Y011430D02*
X013991Y012071D01*
X014204Y012071D02*
X013777Y012071D01*
X013560Y012071D02*
X013560Y011537D01*
X013453Y011430D01*
X013240Y011430D01*
X013133Y011537D01*
X013133Y012071D01*
X012915Y011964D02*
X012915Y011857D01*
X012808Y011750D01*
X012488Y011750D01*
X012488Y011430D02*
X012488Y012071D01*
X012808Y012071D01*
X012915Y011964D01*
X012808Y011750D02*
X012915Y011644D01*
X012915Y011537D01*
X012808Y011430D01*
X012488Y011430D01*
X016676Y012071D02*
X016783Y011964D01*
X020488Y012071D02*
X020488Y011430D01*
X020808Y011430D01*
X020915Y011537D01*
X020915Y011644D01*
X020808Y011750D01*
X020488Y011750D01*
X020808Y011750D02*
X020915Y011857D01*
X020915Y011964D01*
X020808Y012071D01*
X020488Y012071D01*
X021133Y012071D02*
X021133Y011537D01*
X021240Y011430D01*
X021453Y011430D01*
X021560Y011537D01*
X021560Y012071D01*
X021777Y012071D02*
X022204Y012071D01*
X021991Y012071D02*
X021991Y011430D01*
X022635Y011430D02*
X022635Y012071D01*
X022422Y012071D02*
X022849Y012071D01*
X023066Y011964D02*
X023066Y011537D01*
X023173Y011430D01*
X023387Y011430D01*
X023493Y011537D01*
X023493Y011964D01*
X023387Y012071D01*
X023173Y012071D01*
X023066Y011964D01*
X023711Y012071D02*
X024138Y011430D01*
X024138Y012071D01*
X024356Y011964D02*
X024356Y011857D01*
X024462Y011750D01*
X024676Y011750D01*
X024783Y011644D01*
X024783Y011537D01*
X024676Y011430D01*
X024462Y011430D01*
X024356Y011537D01*
X024356Y011964D02*
X024462Y012071D01*
X024676Y012071D01*
X024783Y011964D01*
X023711Y012071D02*
X023711Y011430D01*
X033500Y014130D02*
X033500Y014771D01*
X033820Y014771D01*
X033927Y014664D01*
X033927Y014450D01*
X033820Y014344D01*
X033500Y014344D01*
X034145Y014130D02*
X034358Y014130D01*
X034251Y014130D02*
X034251Y014771D01*
X034145Y014771D01*
X034681Y014557D02*
X034895Y014557D01*
X035001Y014450D01*
X035001Y014130D01*
X034681Y014130D01*
X034574Y014237D01*
X034681Y014344D01*
X035001Y014344D01*
X035219Y014237D02*
X035326Y014130D01*
X035646Y014130D01*
X035646Y014023D02*
X035539Y013916D01*
X035432Y013916D01*
X035646Y014023D02*
X035646Y014557D01*
X035863Y014450D02*
X035970Y014557D01*
X036184Y014557D01*
X036290Y014450D01*
X036290Y014344D01*
X035863Y014344D01*
X035863Y014450D02*
X035863Y014237D01*
X035970Y014130D01*
X036184Y014130D01*
X036508Y014130D02*
X036508Y014557D01*
X036508Y014344D02*
X036721Y014557D01*
X036828Y014557D01*
X037045Y014664D02*
X037152Y014771D01*
X037365Y014771D01*
X037472Y014664D01*
X037472Y014557D01*
X037045Y014130D01*
X037472Y014130D01*
X035219Y014237D02*
X035219Y014557D01*
X035620Y017100D02*
X035622Y017173D01*
X035628Y017246D01*
X035638Y017318D01*
X035652Y017390D01*
X035669Y017461D01*
X035691Y017531D01*
X035716Y017600D01*
X035745Y017667D01*
X035777Y017732D01*
X035813Y017796D01*
X035853Y017858D01*
X035895Y017917D01*
X035941Y017974D01*
X035990Y018028D01*
X036042Y018080D01*
X036096Y018129D01*
X036153Y018175D01*
X036212Y018217D01*
X036274Y018257D01*
X036338Y018293D01*
X036403Y018325D01*
X036470Y018354D01*
X036539Y018379D01*
X036609Y018401D01*
X036680Y018418D01*
X036752Y018432D01*
X036824Y018442D01*
X036897Y018448D01*
X036970Y018450D01*
X037043Y018448D01*
X037116Y018442D01*
X037188Y018432D01*
X037260Y018418D01*
X037331Y018401D01*
X037401Y018379D01*
X037470Y018354D01*
X037537Y018325D01*
X037602Y018293D01*
X037666Y018257D01*
X037728Y018217D01*
X037787Y018175D01*
X037844Y018129D01*
X037898Y018080D01*
X037950Y018028D01*
X037999Y017974D01*
X038045Y017917D01*
X038087Y017858D01*
X038127Y017796D01*
X038163Y017732D01*
X038195Y017667D01*
X038224Y017600D01*
X038249Y017531D01*
X038271Y017461D01*
X038288Y017390D01*
X038302Y017318D01*
X038312Y017246D01*
X038318Y017173D01*
X038320Y017100D01*
X038318Y017027D01*
X038312Y016954D01*
X038302Y016882D01*
X038288Y016810D01*
X038271Y016739D01*
X038249Y016669D01*
X038224Y016600D01*
X038195Y016533D01*
X038163Y016468D01*
X038127Y016404D01*
X038087Y016342D01*
X038045Y016283D01*
X037999Y016226D01*
X037950Y016172D01*
X037898Y016120D01*
X037844Y016071D01*
X037787Y016025D01*
X037728Y015983D01*
X037666Y015943D01*
X037602Y015907D01*
X037537Y015875D01*
X037470Y015846D01*
X037401Y015821D01*
X037331Y015799D01*
X037260Y015782D01*
X037188Y015768D01*
X037116Y015758D01*
X037043Y015752D01*
X036970Y015750D01*
X036897Y015752D01*
X036824Y015758D01*
X036752Y015768D01*
X036680Y015782D01*
X036609Y015799D01*
X036539Y015821D01*
X036470Y015846D01*
X036403Y015875D01*
X036338Y015907D01*
X036274Y015943D01*
X036212Y015983D01*
X036153Y016025D01*
X036096Y016071D01*
X036042Y016120D01*
X035990Y016172D01*
X035941Y016226D01*
X035895Y016283D01*
X035853Y016342D01*
X035813Y016404D01*
X035777Y016468D01*
X035745Y016533D01*
X035716Y016600D01*
X035691Y016669D01*
X035669Y016739D01*
X035652Y016810D01*
X035638Y016882D01*
X035628Y016954D01*
X035622Y017027D01*
X035620Y017100D01*
X030783Y018537D02*
X030676Y018430D01*
X030462Y018430D01*
X030356Y018537D01*
X030783Y018964D01*
X030783Y018537D01*
X030356Y018537D02*
X030356Y018964D01*
X030462Y019071D01*
X030676Y019071D01*
X030783Y018964D01*
X030138Y018857D02*
X030138Y018430D01*
X029711Y018430D02*
X029711Y018857D01*
X029924Y019071D01*
X030138Y018857D01*
X030138Y018750D02*
X029711Y018750D01*
X029283Y018964D02*
X028856Y018537D01*
X028856Y018430D01*
X028638Y018537D02*
X028531Y018430D01*
X028211Y018430D01*
X028211Y019071D01*
X028531Y019071D01*
X028638Y018964D01*
X028638Y018857D01*
X028531Y018750D01*
X028211Y018750D01*
X028531Y018750D02*
X028638Y018644D01*
X028638Y018537D01*
X028856Y019071D02*
X029283Y019071D01*
X029283Y018964D01*
X033848Y012071D02*
X033848Y011430D01*
X034275Y011430D01*
X034492Y011430D02*
X034706Y011430D01*
X034599Y011430D02*
X034599Y012071D01*
X034492Y012071D02*
X034706Y012071D01*
X034922Y011964D02*
X034922Y011537D01*
X035029Y011430D01*
X035242Y011430D01*
X035349Y011537D01*
X035349Y011750D01*
X035135Y011750D01*
X034922Y011964D02*
X035029Y012071D01*
X035242Y012071D01*
X035349Y011964D01*
X035566Y012071D02*
X035566Y011430D01*
X035993Y011430D02*
X035993Y012071D01*
X036211Y012071D02*
X036638Y012071D01*
X036424Y012071D02*
X036424Y011430D01*
X036856Y011537D02*
X036962Y011430D01*
X037176Y011430D01*
X037283Y011537D01*
X037283Y011644D01*
X037176Y011750D01*
X036962Y011750D01*
X036856Y011857D01*
X036856Y011964D01*
X036962Y012071D01*
X037176Y012071D01*
X037283Y011964D01*
X035993Y011750D02*
X035566Y011750D01*
D12*
X036906Y011084D02*
X034034Y011084D01*
X034034Y004116D01*
X036906Y004116D01*
X036906Y011084D01*
X030470Y010850D02*
X030470Y010350D01*
X030220Y010100D01*
X029720Y010100D01*
X029470Y010350D01*
X029220Y010100D01*
X029470Y009850D01*
X029470Y009350D01*
X029220Y009100D01*
X029470Y008850D01*
X029470Y008350D01*
X029220Y008100D01*
X029470Y007850D01*
X029470Y007350D01*
X029220Y007100D01*
X029470Y006850D01*
X029470Y006350D01*
X029220Y006100D01*
X029470Y005850D01*
X029470Y005350D01*
X029220Y005100D01*
X029470Y004850D01*
X029470Y004350D01*
X029220Y004100D01*
X029470Y003850D01*
X029470Y003350D01*
X029220Y003100D01*
X029470Y002850D01*
X029470Y002350D01*
X029220Y002100D01*
X028720Y002100D01*
X028470Y002350D01*
X028470Y002850D01*
X028720Y003100D01*
X028470Y003350D01*
X028470Y003850D01*
X028720Y004100D01*
X028470Y004350D01*
X028470Y004850D01*
X028720Y005100D01*
X028470Y005350D01*
X028470Y005850D01*
X028720Y006100D01*
X028470Y006350D01*
X028470Y006850D01*
X028720Y007100D01*
X028470Y007350D01*
X028470Y007850D01*
X028720Y008100D01*
X028470Y008350D01*
X028470Y008850D01*
X028720Y009100D01*
X028470Y009350D01*
X028470Y009850D01*
X028720Y010100D01*
X029220Y010100D01*
X028720Y010100D01*
X028470Y010350D01*
X028470Y010850D01*
X028720Y011100D01*
X028470Y011350D01*
X028470Y011850D01*
X028720Y012100D01*
X028470Y012350D01*
X028470Y012850D01*
X028720Y013100D01*
X028470Y013350D01*
X028470Y013850D01*
X028720Y014100D01*
X028470Y014350D01*
X028470Y014850D01*
X028720Y015100D01*
X028470Y015350D01*
X028470Y015850D01*
X028720Y016100D01*
X028470Y016350D01*
X028470Y016850D01*
X028720Y017100D01*
X028470Y017350D01*
X028470Y017850D01*
X028720Y018100D01*
X029220Y018100D01*
X029470Y017850D01*
X029470Y017350D01*
X029220Y017100D01*
X029470Y016850D01*
X029470Y016350D01*
X029220Y016100D01*
X029470Y015850D01*
X029470Y015350D01*
X029220Y015100D01*
X029470Y014850D01*
X029470Y014350D01*
X029220Y014100D01*
X029470Y013850D01*
X029470Y013350D01*
X029220Y013100D01*
X029470Y012850D01*
X029470Y012350D01*
X029220Y012100D01*
X029470Y011850D01*
X029470Y011350D01*
X029220Y011100D01*
X029470Y010850D01*
X029470Y010350D01*
X029470Y010850D01*
X029720Y011100D01*
X029470Y011350D01*
X029470Y011850D01*
X029720Y012100D01*
X029470Y012350D01*
X029470Y012850D01*
X029720Y013100D01*
X029470Y013350D01*
X029470Y013850D01*
X029720Y014100D01*
X029470Y014350D01*
X029470Y014850D01*
X029720Y015100D01*
X029470Y015350D01*
X029470Y015850D01*
X029720Y016100D01*
X029470Y016350D01*
X029470Y016850D01*
X029720Y017100D01*
X029470Y017350D01*
X029470Y017850D01*
X029720Y018100D01*
X030220Y018100D01*
X030470Y017850D01*
X030470Y017350D01*
X030220Y017100D01*
X030470Y016850D01*
X030470Y016350D01*
X030220Y016100D01*
X030470Y015850D01*
X030470Y015350D01*
X030220Y015100D01*
X030470Y014850D01*
X030470Y014350D01*
X030220Y014100D01*
X030470Y013850D01*
X030470Y013350D01*
X030220Y013100D01*
X030470Y012850D01*
X030470Y012350D01*
X030220Y012100D01*
X030470Y011850D01*
X030470Y011350D01*
X030220Y011100D01*
X030470Y010850D01*
X030220Y010100D02*
X029720Y010100D01*
X029470Y009850D01*
X029470Y009350D01*
X029720Y009100D01*
X029470Y008850D01*
X029470Y008350D01*
X029720Y008100D01*
X029470Y007850D01*
X029470Y007350D01*
X029720Y007100D01*
X029470Y006850D01*
X029470Y006350D01*
X029720Y006100D01*
X029470Y005850D01*
X029470Y005350D01*
X029720Y005100D01*
X029470Y004850D01*
X029470Y004350D01*
X029720Y004100D01*
X029470Y003850D01*
X029470Y003350D01*
X029720Y003100D01*
X029470Y002850D01*
X029470Y002350D01*
X029720Y002100D01*
X030220Y002100D01*
X030470Y002350D01*
X030470Y002850D01*
X030220Y003100D01*
X030470Y003350D01*
X030470Y003850D01*
X030220Y004100D01*
X030470Y004350D01*
X030470Y004850D01*
X030220Y005100D01*
X030470Y005350D01*
X030470Y005850D01*
X030220Y006100D01*
X030470Y006350D01*
X030470Y006850D01*
X030220Y007100D01*
X030470Y007350D01*
X030470Y007850D01*
X030220Y008100D01*
X030470Y008350D01*
X030470Y008850D01*
X030220Y009100D01*
X030470Y009350D01*
X030470Y009850D01*
X030220Y010100D01*
X024406Y011084D02*
X024406Y004116D01*
X021534Y004116D01*
X021534Y011084D01*
X024406Y011084D01*
X016406Y011084D02*
X016406Y004116D01*
X013534Y004116D01*
X013534Y011084D01*
X016406Y011084D01*
X010970Y010850D02*
X010970Y010350D01*
X010720Y010100D01*
X010970Y009850D01*
X010970Y009350D01*
X010720Y009100D01*
X010970Y008850D01*
X010970Y008350D01*
X010720Y008100D01*
X010970Y007850D01*
X010970Y007350D01*
X010720Y007100D01*
X010970Y006850D01*
X010970Y006350D01*
X010720Y006100D01*
X010970Y005850D01*
X010970Y005350D01*
X010720Y005100D01*
X010970Y004850D01*
X010970Y004350D01*
X010720Y004100D01*
X010970Y003850D01*
X010970Y003350D01*
X010720Y003100D01*
X010970Y002850D01*
X010970Y002350D01*
X010720Y002100D01*
X010220Y002100D01*
X009970Y002350D01*
X009970Y002850D01*
X010220Y003100D01*
X009970Y003350D01*
X009970Y003850D01*
X010220Y004100D01*
X009970Y004350D01*
X009970Y004850D01*
X010220Y005100D01*
X009970Y005350D01*
X009970Y005850D01*
X010220Y006100D01*
X009970Y006350D01*
X009970Y006850D01*
X010220Y007100D01*
X009970Y007350D01*
X009970Y007850D01*
X010220Y008100D01*
X009970Y008350D01*
X009970Y008850D01*
X010220Y009100D01*
X009970Y009350D01*
X009970Y009850D01*
X010220Y010100D01*
X010720Y010100D01*
X010220Y010100D01*
X009970Y010350D01*
X009970Y010850D01*
X010220Y011100D01*
X009970Y011350D01*
X009970Y011850D01*
X010220Y012100D01*
X009970Y012350D01*
X009970Y012850D01*
X010220Y013100D01*
X009970Y013350D01*
X009970Y013850D01*
X010220Y014100D01*
X009970Y014350D01*
X009970Y014850D01*
X010220Y015100D01*
X009970Y015350D01*
X009970Y015850D01*
X010220Y016100D01*
X009970Y016350D01*
X009970Y016850D01*
X010220Y017100D01*
X009970Y017350D01*
X009970Y017850D01*
X010220Y018100D01*
X010720Y018100D01*
X010970Y017850D01*
X010970Y017350D01*
X010720Y017100D01*
X010970Y016850D01*
X010970Y016350D01*
X010720Y016100D01*
X010970Y015850D01*
X010970Y015350D01*
X010720Y015100D01*
X010970Y014850D01*
X010970Y014350D01*
X010720Y014100D01*
X010970Y013850D01*
X010970Y013350D01*
X010720Y013100D01*
X010970Y012850D01*
X010970Y012350D01*
X010720Y012100D01*
X010970Y011850D01*
X010970Y011350D01*
X010720Y011100D01*
X010970Y010850D01*
X009970Y010850D02*
X009970Y010350D01*
X009720Y010100D01*
X009970Y009850D01*
X009970Y009350D01*
X009720Y009100D01*
X009970Y008850D01*
X009970Y008350D01*
X009720Y008100D01*
X009970Y007850D01*
X009970Y007350D01*
X009720Y007100D01*
X009970Y006850D01*
X009970Y006350D01*
X009720Y006100D01*
X009970Y005850D01*
X009970Y005350D01*
X009720Y005100D01*
X009970Y004850D01*
X009970Y004350D01*
X009720Y004100D01*
X009970Y003850D01*
X009970Y003350D01*
X009720Y003100D01*
X009970Y002850D01*
X009970Y002350D01*
X009720Y002100D01*
X009220Y002100D01*
X008970Y002350D01*
X008970Y002850D01*
X009220Y003100D01*
X008970Y003350D01*
X008970Y003850D01*
X009220Y004100D01*
X008970Y004350D01*
X008970Y004850D01*
X009220Y005100D01*
X008970Y005350D01*
X008970Y005850D01*
X009220Y006100D01*
X008970Y006350D01*
X008970Y006850D01*
X009220Y007100D01*
X008970Y007350D01*
X008970Y007850D01*
X009220Y008100D01*
X008970Y008350D01*
X008970Y008850D01*
X009220Y009100D01*
X008970Y009350D01*
X008970Y009850D01*
X009220Y010100D01*
X009720Y010100D01*
X009220Y010100D01*
X008970Y010350D01*
X008970Y010850D01*
X009220Y011100D01*
X008970Y011350D01*
X008970Y011850D01*
X009220Y012100D01*
X008970Y012350D01*
X008970Y012850D01*
X009220Y013100D01*
X008970Y013350D01*
X008970Y013850D01*
X009220Y014100D01*
X008970Y014350D01*
X008970Y014850D01*
X009220Y015100D01*
X008970Y015350D01*
X008970Y015850D01*
X009220Y016100D01*
X008970Y016350D01*
X008970Y016850D01*
X009220Y017100D01*
X008970Y017350D01*
X008970Y017850D01*
X009220Y018100D01*
X009720Y018100D01*
X009970Y017850D01*
X009970Y017350D01*
X009720Y017100D01*
X009970Y016850D01*
X009970Y016350D01*
X009720Y016100D01*
X009970Y015850D01*
X009970Y015350D01*
X009720Y015100D01*
X009970Y014850D01*
X009970Y014350D01*
X009720Y014100D01*
X009970Y013850D01*
X009970Y013350D01*
X009720Y013100D01*
X009970Y012850D01*
X009970Y012350D01*
X009720Y012100D01*
X009970Y011850D01*
X009970Y011350D01*
X009720Y011100D01*
X009970Y010850D01*
X005406Y011084D02*
X005406Y004116D01*
X002534Y004116D01*
X002534Y011084D01*
X005406Y011084D01*
X001301Y017100D02*
X001303Y017151D01*
X001309Y017202D01*
X001319Y017252D01*
X001332Y017302D01*
X001350Y017350D01*
X001370Y017397D01*
X001395Y017442D01*
X001423Y017485D01*
X001454Y017526D01*
X001488Y017564D01*
X001525Y017599D01*
X001564Y017632D01*
X001606Y017662D01*
X001650Y017688D01*
X001696Y017710D01*
X001744Y017730D01*
X001793Y017745D01*
X001843Y017757D01*
X001893Y017765D01*
X001944Y017769D01*
X001996Y017769D01*
X002047Y017765D01*
X002097Y017757D01*
X002147Y017745D01*
X002196Y017730D01*
X002244Y017710D01*
X002290Y017688D01*
X002334Y017662D01*
X002376Y017632D01*
X002415Y017599D01*
X002452Y017564D01*
X002486Y017526D01*
X002517Y017485D01*
X002545Y017442D01*
X002570Y017397D01*
X002590Y017350D01*
X002608Y017302D01*
X002621Y017252D01*
X002631Y017202D01*
X002637Y017151D01*
X002639Y017100D01*
X002637Y017049D01*
X002631Y016998D01*
X002621Y016948D01*
X002608Y016898D01*
X002590Y016850D01*
X002570Y016803D01*
X002545Y016758D01*
X002517Y016715D01*
X002486Y016674D01*
X002452Y016636D01*
X002415Y016601D01*
X002376Y016568D01*
X002334Y016538D01*
X002290Y016512D01*
X002244Y016490D01*
X002196Y016470D01*
X002147Y016455D01*
X002097Y016443D01*
X002047Y016435D01*
X001996Y016431D01*
X001944Y016431D01*
X001893Y016435D01*
X001843Y016443D01*
X001793Y016455D01*
X001744Y016470D01*
X001696Y016490D01*
X001650Y016512D01*
X001606Y016538D01*
X001564Y016568D01*
X001525Y016601D01*
X001488Y016636D01*
X001454Y016674D01*
X001423Y016715D01*
X001395Y016758D01*
X001370Y016803D01*
X001350Y016850D01*
X001332Y016898D01*
X001319Y016948D01*
X001309Y016998D01*
X001303Y017049D01*
X001301Y017100D01*
X003498Y004116D02*
X003500Y004158D01*
X003506Y004200D01*
X003515Y004242D01*
X003528Y004282D01*
X003545Y004321D01*
X003565Y004358D01*
X003588Y004393D01*
X003615Y004427D01*
X003644Y004457D01*
X003676Y004485D01*
X003710Y004510D01*
X003746Y004532D01*
X003784Y004550D01*
X003824Y004565D01*
X003865Y004576D01*
X003907Y004584D01*
X003949Y004588D01*
X003991Y004588D01*
X004033Y004584D01*
X004075Y004576D01*
X004116Y004565D01*
X004156Y004550D01*
X004194Y004532D01*
X004230Y004510D01*
X004264Y004485D01*
X004296Y004457D01*
X004325Y004427D01*
X004352Y004393D01*
X004375Y004358D01*
X004395Y004321D01*
X004412Y004282D01*
X004425Y004242D01*
X004434Y004200D01*
X004440Y004158D01*
X004442Y004116D01*
X001301Y002100D02*
X001303Y002151D01*
X001309Y002202D01*
X001319Y002252D01*
X001332Y002302D01*
X001350Y002350D01*
X001370Y002397D01*
X001395Y002442D01*
X001423Y002485D01*
X001454Y002526D01*
X001488Y002564D01*
X001525Y002599D01*
X001564Y002632D01*
X001606Y002662D01*
X001650Y002688D01*
X001696Y002710D01*
X001744Y002730D01*
X001793Y002745D01*
X001843Y002757D01*
X001893Y002765D01*
X001944Y002769D01*
X001996Y002769D01*
X002047Y002765D01*
X002097Y002757D01*
X002147Y002745D01*
X002196Y002730D01*
X002244Y002710D01*
X002290Y002688D01*
X002334Y002662D01*
X002376Y002632D01*
X002415Y002599D01*
X002452Y002564D01*
X002486Y002526D01*
X002517Y002485D01*
X002545Y002442D01*
X002570Y002397D01*
X002590Y002350D01*
X002608Y002302D01*
X002621Y002252D01*
X002631Y002202D01*
X002637Y002151D01*
X002639Y002100D01*
X002637Y002049D01*
X002631Y001998D01*
X002621Y001948D01*
X002608Y001898D01*
X002590Y001850D01*
X002570Y001803D01*
X002545Y001758D01*
X002517Y001715D01*
X002486Y001674D01*
X002452Y001636D01*
X002415Y001601D01*
X002376Y001568D01*
X002334Y001538D01*
X002290Y001512D01*
X002244Y001490D01*
X002196Y001470D01*
X002147Y001455D01*
X002097Y001443D01*
X002047Y001435D01*
X001996Y001431D01*
X001944Y001431D01*
X001893Y001435D01*
X001843Y001443D01*
X001793Y001455D01*
X001744Y001470D01*
X001696Y001490D01*
X001650Y001512D01*
X001606Y001538D01*
X001564Y001568D01*
X001525Y001601D01*
X001488Y001636D01*
X001454Y001674D01*
X001423Y001715D01*
X001395Y001758D01*
X001370Y001803D01*
X001350Y001850D01*
X001332Y001898D01*
X001319Y001948D01*
X001309Y001998D01*
X001303Y002049D01*
X001301Y002100D01*
X014970Y001350D02*
X014970Y000850D01*
X015220Y000600D01*
X015720Y000600D01*
X015970Y000850D01*
X016220Y000600D01*
X016720Y000600D01*
X016970Y000850D01*
X017220Y000600D01*
X017720Y000600D01*
X017970Y000850D01*
X018220Y000600D01*
X018720Y000600D01*
X018970Y000850D01*
X019220Y000600D01*
X019720Y000600D01*
X019970Y000850D01*
X020220Y000600D01*
X020720Y000600D01*
X020970Y000850D01*
X021220Y000600D01*
X021720Y000600D01*
X021970Y000850D01*
X022220Y000600D01*
X022720Y000600D01*
X022970Y000850D01*
X022970Y001350D01*
X022720Y001600D01*
X022220Y001600D01*
X021970Y001350D01*
X021720Y001600D01*
X021220Y001600D01*
X020970Y001350D01*
X020720Y001600D01*
X020220Y001600D01*
X019970Y001350D01*
X019720Y001600D01*
X019220Y001600D01*
X018970Y001350D01*
X018720Y001600D01*
X018220Y001600D01*
X017970Y001350D01*
X017720Y001600D01*
X017220Y001600D01*
X016970Y001350D01*
X016720Y001600D01*
X016220Y001600D01*
X015970Y001350D01*
X015720Y001600D01*
X015220Y001600D01*
X014970Y001350D01*
X015442Y004116D02*
X015440Y004158D01*
X015434Y004200D01*
X015425Y004242D01*
X015412Y004282D01*
X015395Y004321D01*
X015375Y004358D01*
X015352Y004393D01*
X015325Y004427D01*
X015296Y004457D01*
X015264Y004485D01*
X015230Y004510D01*
X015194Y004532D01*
X015156Y004550D01*
X015116Y004565D01*
X015075Y004576D01*
X015033Y004584D01*
X014991Y004588D01*
X014949Y004588D01*
X014907Y004584D01*
X014865Y004576D01*
X014824Y004565D01*
X014784Y004550D01*
X014746Y004532D01*
X014710Y004510D01*
X014676Y004485D01*
X014644Y004457D01*
X014615Y004427D01*
X014588Y004393D01*
X014565Y004358D01*
X014545Y004321D01*
X014528Y004282D01*
X014515Y004242D01*
X014506Y004200D01*
X014500Y004158D01*
X014498Y004116D01*
X022498Y004116D02*
X022500Y004158D01*
X022506Y004200D01*
X022515Y004242D01*
X022528Y004282D01*
X022545Y004321D01*
X022565Y004358D01*
X022588Y004393D01*
X022615Y004427D01*
X022644Y004457D01*
X022676Y004485D01*
X022710Y004510D01*
X022746Y004532D01*
X022784Y004550D01*
X022824Y004565D01*
X022865Y004576D01*
X022907Y004584D01*
X022949Y004588D01*
X022991Y004588D01*
X023033Y004584D01*
X023075Y004576D01*
X023116Y004565D01*
X023156Y004550D01*
X023194Y004532D01*
X023230Y004510D01*
X023264Y004485D01*
X023296Y004457D01*
X023325Y004427D01*
X023352Y004393D01*
X023375Y004358D01*
X023395Y004321D01*
X023412Y004282D01*
X023425Y004242D01*
X023434Y004200D01*
X023440Y004158D01*
X023442Y004116D01*
X034998Y004116D02*
X035000Y004158D01*
X035006Y004200D01*
X035015Y004242D01*
X035028Y004282D01*
X035045Y004321D01*
X035065Y004358D01*
X035088Y004393D01*
X035115Y004427D01*
X035144Y004457D01*
X035176Y004485D01*
X035210Y004510D01*
X035246Y004532D01*
X035284Y004550D01*
X035324Y004565D01*
X035365Y004576D01*
X035407Y004584D01*
X035449Y004588D01*
X035491Y004588D01*
X035533Y004584D01*
X035575Y004576D01*
X035616Y004565D01*
X035656Y004550D01*
X035694Y004532D01*
X035730Y004510D01*
X035764Y004485D01*
X035796Y004457D01*
X035825Y004427D01*
X035852Y004393D01*
X035875Y004358D01*
X035895Y004321D01*
X035912Y004282D01*
X035925Y004242D01*
X035934Y004200D01*
X035940Y004158D01*
X035942Y004116D01*
X036301Y002100D02*
X036303Y002151D01*
X036309Y002202D01*
X036319Y002252D01*
X036332Y002302D01*
X036350Y002350D01*
X036370Y002397D01*
X036395Y002442D01*
X036423Y002485D01*
X036454Y002526D01*
X036488Y002564D01*
X036525Y002599D01*
X036564Y002632D01*
X036606Y002662D01*
X036650Y002688D01*
X036696Y002710D01*
X036744Y002730D01*
X036793Y002745D01*
X036843Y002757D01*
X036893Y002765D01*
X036944Y002769D01*
X036996Y002769D01*
X037047Y002765D01*
X037097Y002757D01*
X037147Y002745D01*
X037196Y002730D01*
X037244Y002710D01*
X037290Y002688D01*
X037334Y002662D01*
X037376Y002632D01*
X037415Y002599D01*
X037452Y002564D01*
X037486Y002526D01*
X037517Y002485D01*
X037545Y002442D01*
X037570Y002397D01*
X037590Y002350D01*
X037608Y002302D01*
X037621Y002252D01*
X037631Y002202D01*
X037637Y002151D01*
X037639Y002100D01*
X037637Y002049D01*
X037631Y001998D01*
X037621Y001948D01*
X037608Y001898D01*
X037590Y001850D01*
X037570Y001803D01*
X037545Y001758D01*
X037517Y001715D01*
X037486Y001674D01*
X037452Y001636D01*
X037415Y001601D01*
X037376Y001568D01*
X037334Y001538D01*
X037290Y001512D01*
X037244Y001490D01*
X037196Y001470D01*
X037147Y001455D01*
X037097Y001443D01*
X037047Y001435D01*
X036996Y001431D01*
X036944Y001431D01*
X036893Y001435D01*
X036843Y001443D01*
X036793Y001455D01*
X036744Y001470D01*
X036696Y001490D01*
X036650Y001512D01*
X036606Y001538D01*
X036564Y001568D01*
X036525Y001601D01*
X036488Y001636D01*
X036454Y001674D01*
X036423Y001715D01*
X036395Y001758D01*
X036370Y001803D01*
X036350Y001850D01*
X036332Y001898D01*
X036319Y001948D01*
X036309Y001998D01*
X036303Y002049D01*
X036301Y002100D01*
X036301Y017100D02*
X036303Y017151D01*
X036309Y017202D01*
X036319Y017252D01*
X036332Y017302D01*
X036350Y017350D01*
X036370Y017397D01*
X036395Y017442D01*
X036423Y017485D01*
X036454Y017526D01*
X036488Y017564D01*
X036525Y017599D01*
X036564Y017632D01*
X036606Y017662D01*
X036650Y017688D01*
X036696Y017710D01*
X036744Y017730D01*
X036793Y017745D01*
X036843Y017757D01*
X036893Y017765D01*
X036944Y017769D01*
X036996Y017769D01*
X037047Y017765D01*
X037097Y017757D01*
X037147Y017745D01*
X037196Y017730D01*
X037244Y017710D01*
X037290Y017688D01*
X037334Y017662D01*
X037376Y017632D01*
X037415Y017599D01*
X037452Y017564D01*
X037486Y017526D01*
X037517Y017485D01*
X037545Y017442D01*
X037570Y017397D01*
X037590Y017350D01*
X037608Y017302D01*
X037621Y017252D01*
X037631Y017202D01*
X037637Y017151D01*
X037639Y017100D01*
X037637Y017049D01*
X037631Y016998D01*
X037621Y016948D01*
X037608Y016898D01*
X037590Y016850D01*
X037570Y016803D01*
X037545Y016758D01*
X037517Y016715D01*
X037486Y016674D01*
X037452Y016636D01*
X037415Y016601D01*
X037376Y016568D01*
X037334Y016538D01*
X037290Y016512D01*
X037244Y016490D01*
X037196Y016470D01*
X037147Y016455D01*
X037097Y016443D01*
X037047Y016435D01*
X036996Y016431D01*
X036944Y016431D01*
X036893Y016435D01*
X036843Y016443D01*
X036793Y016455D01*
X036744Y016470D01*
X036696Y016490D01*
X036650Y016512D01*
X036606Y016538D01*
X036564Y016568D01*
X036525Y016601D01*
X036488Y016636D01*
X036454Y016674D01*
X036423Y016715D01*
X036395Y016758D01*
X036370Y016803D01*
X036350Y016850D01*
X036332Y016898D01*
X036319Y016948D01*
X036309Y016998D01*
X036303Y017049D01*
X036301Y017100D01*
D13*
X029970Y016600D03*
X028970Y016600D03*
X028970Y015600D03*
X029970Y015600D03*
X029970Y014600D03*
X028970Y014600D03*
X028970Y013600D03*
X029970Y013600D03*
X029970Y012600D03*
X028970Y012600D03*
X028970Y011600D03*
X029970Y011600D03*
X029970Y010600D03*
X028970Y010600D03*
X028970Y009600D03*
X029970Y009600D03*
X029970Y008600D03*
X028970Y008600D03*
X028970Y007600D03*
X029970Y007600D03*
X029970Y006600D03*
X028970Y006600D03*
X028970Y005600D03*
X029970Y005600D03*
X029970Y004600D03*
X028970Y004600D03*
X028970Y003600D03*
X029970Y003600D03*
X029970Y002600D03*
X028970Y002600D03*
X022470Y001100D03*
X021470Y001100D03*
X020470Y001100D03*
X019470Y001100D03*
X018470Y001100D03*
X017470Y001100D03*
X016470Y001100D03*
X015470Y001100D03*
X010470Y002600D03*
X009470Y002600D03*
X009470Y003600D03*
X010470Y003600D03*
X010470Y004600D03*
X009470Y004600D03*
X009470Y005600D03*
X010470Y005600D03*
X010470Y006600D03*
X009470Y006600D03*
X009470Y007600D03*
X010470Y007600D03*
X010470Y008600D03*
X009470Y008600D03*
X009470Y009600D03*
X010470Y009600D03*
X010470Y010600D03*
X009470Y010600D03*
X009470Y011600D03*
X010470Y011600D03*
X010470Y012600D03*
X009470Y012600D03*
X009470Y013600D03*
X010470Y013600D03*
X010470Y014600D03*
X009470Y014600D03*
X009470Y015600D03*
X010470Y015600D03*
X010470Y016600D03*
X009470Y016600D03*
X009470Y017600D03*
X010470Y017600D03*
X028970Y017600D03*
X029970Y017600D03*
D14*
X033615Y010850D03*
X033615Y010350D03*
X033615Y009850D03*
X033615Y009350D03*
X033615Y008850D03*
X033615Y008350D03*
X033615Y007850D03*
X033615Y007350D03*
X033615Y006850D03*
X033615Y006350D03*
X033615Y005850D03*
X033615Y005350D03*
X033615Y004850D03*
X033615Y004350D03*
X037325Y004350D03*
X037325Y004850D03*
X037325Y005350D03*
X037325Y005850D03*
X037325Y006350D03*
X037325Y006850D03*
X037325Y007350D03*
X037325Y007850D03*
X037325Y008350D03*
X037325Y008850D03*
X037325Y009350D03*
X037325Y009850D03*
X037325Y010350D03*
X037325Y010850D03*
X024825Y010850D03*
X024825Y010350D03*
X024825Y009850D03*
X024825Y009350D03*
X024825Y008850D03*
X024825Y008350D03*
X024825Y007850D03*
X024825Y007350D03*
X024825Y006850D03*
X024825Y006350D03*
X024825Y005850D03*
X024825Y005350D03*
X024825Y004850D03*
X024825Y004350D03*
X021115Y004350D03*
X021115Y004850D03*
X021115Y005350D03*
X021115Y005850D03*
X021115Y006350D03*
X021115Y006850D03*
X021115Y007350D03*
X021115Y007850D03*
X021115Y008350D03*
X021115Y008850D03*
X021115Y009350D03*
X021115Y009850D03*
X021115Y010350D03*
X021115Y010850D03*
X016825Y010850D03*
X016825Y010350D03*
X016825Y009850D03*
X016825Y009350D03*
X016825Y008850D03*
X016825Y008350D03*
X016825Y007850D03*
X016825Y007350D03*
X016825Y006850D03*
X016825Y006350D03*
X016825Y005850D03*
X016825Y005350D03*
X016825Y004850D03*
X016825Y004350D03*
X013115Y004350D03*
X013115Y004850D03*
X013115Y005350D03*
X013115Y005850D03*
X013115Y006350D03*
X013115Y006850D03*
X013115Y007350D03*
X013115Y007850D03*
X013115Y008350D03*
X013115Y008850D03*
X013115Y009350D03*
X013115Y009850D03*
X013115Y010350D03*
X013115Y010850D03*
X005825Y010850D03*
X005825Y010350D03*
X005825Y009850D03*
X005825Y009350D03*
X005825Y008850D03*
X005825Y008350D03*
X005825Y007850D03*
X005825Y007350D03*
X005825Y006850D03*
X005825Y006350D03*
X005825Y005850D03*
X005825Y005350D03*
X005825Y004850D03*
X005825Y004350D03*
X002115Y004350D03*
X002115Y004850D03*
X002115Y005350D03*
X002115Y005850D03*
X002115Y006350D03*
X002115Y006850D03*
X002115Y007350D03*
X002115Y007850D03*
X002115Y008350D03*
X002115Y008850D03*
X002115Y009350D03*
X002115Y009850D03*
X002115Y010350D03*
X002115Y010850D03*
D15*
X001921Y018389D02*
X001921Y017506D01*
X001920Y017507D02*
X001882Y017500D01*
X001844Y017490D01*
X001808Y017477D01*
X001773Y017460D01*
X001740Y017439D01*
X001709Y017416D01*
X001680Y017390D01*
X001654Y017361D01*
X001631Y017330D01*
X001610Y017297D01*
X001593Y017262D01*
X001580Y017226D01*
X001570Y017188D01*
X001563Y017150D01*
X000681Y017149D01*
X000681Y017150D01*
X000686Y017221D01*
X000694Y017292D01*
X000707Y017362D01*
X000723Y017432D01*
X000744Y017500D01*
X000768Y017567D01*
X000795Y017633D01*
X000826Y017697D01*
X000861Y017759D01*
X000899Y017820D01*
X000941Y017878D01*
X000985Y017933D01*
X001033Y017987D01*
X001083Y018037D01*
X001137Y018085D01*
X001192Y018129D01*
X001250Y018171D01*
X001311Y018209D01*
X001373Y018244D01*
X001437Y018275D01*
X001503Y018302D01*
X001570Y018326D01*
X001638Y018347D01*
X001708Y018363D01*
X001778Y018376D01*
X001849Y018384D01*
X001920Y018389D01*
X001920Y018295D01*
X001852Y018290D01*
X001784Y018281D01*
X001717Y018269D01*
X001650Y018252D01*
X001585Y018232D01*
X001521Y018208D01*
X001458Y018181D01*
X001397Y018150D01*
X001338Y018115D01*
X001281Y018078D01*
X001226Y018037D01*
X001174Y017993D01*
X001124Y017946D01*
X001077Y017896D01*
X001033Y017844D01*
X000992Y017789D01*
X000955Y017732D01*
X000920Y017673D01*
X000889Y017612D01*
X000862Y017549D01*
X000838Y017485D01*
X000818Y017420D01*
X000801Y017353D01*
X000789Y017286D01*
X000780Y017218D01*
X000775Y017150D01*
X000869Y017150D01*
X000874Y017215D01*
X000883Y017280D01*
X000895Y017344D01*
X000912Y017407D01*
X000932Y017469D01*
X000955Y017530D01*
X000982Y017589D01*
X001013Y017647D01*
X001047Y017702D01*
X001084Y017756D01*
X001125Y017807D01*
X001168Y017856D01*
X001214Y017902D01*
X001263Y017945D01*
X001314Y017986D01*
X001368Y018023D01*
X001423Y018057D01*
X001481Y018088D01*
X001540Y018115D01*
X001601Y018138D01*
X001663Y018158D01*
X001726Y018175D01*
X001790Y018187D01*
X001855Y018196D01*
X001920Y018201D01*
X001920Y018107D01*
X001858Y018102D01*
X001797Y018093D01*
X001737Y018081D01*
X001677Y018064D01*
X001619Y018045D01*
X001561Y018021D01*
X001506Y017995D01*
X001452Y017965D01*
X001400Y017931D01*
X001350Y017895D01*
X001302Y017855D01*
X001257Y017813D01*
X001215Y017768D01*
X001175Y017720D01*
X001139Y017670D01*
X001105Y017618D01*
X001075Y017564D01*
X001049Y017509D01*
X001025Y017451D01*
X001006Y017393D01*
X000989Y017333D01*
X000977Y017273D01*
X000968Y017212D01*
X000963Y017150D01*
X001057Y017150D01*
X001062Y017208D01*
X001071Y017265D01*
X001083Y017322D01*
X001099Y017378D01*
X001119Y017433D01*
X001141Y017486D01*
X001168Y017538D01*
X001197Y017588D01*
X001230Y017636D01*
X001265Y017682D01*
X001304Y017725D01*
X001345Y017766D01*
X001388Y017805D01*
X001434Y017840D01*
X001482Y017873D01*
X001532Y017902D01*
X001584Y017929D01*
X001637Y017951D01*
X001692Y017971D01*
X001748Y017987D01*
X001805Y017999D01*
X001862Y018008D01*
X001920Y018013D01*
X001920Y017918D01*
X001864Y017913D01*
X001808Y017904D01*
X001753Y017891D01*
X001699Y017874D01*
X001646Y017853D01*
X001595Y017829D01*
X001546Y017802D01*
X001498Y017771D01*
X001453Y017737D01*
X001411Y017699D01*
X001371Y017659D01*
X001333Y017617D01*
X001299Y017572D01*
X001268Y017524D01*
X001241Y017475D01*
X001217Y017424D01*
X001196Y017371D01*
X001179Y017317D01*
X001166Y017262D01*
X001157Y017206D01*
X001152Y017150D01*
X001246Y017150D01*
X001251Y017202D01*
X001260Y017253D01*
X001273Y017303D01*
X001289Y017353D01*
X001309Y017401D01*
X001332Y017447D01*
X001359Y017492D01*
X001389Y017535D01*
X001421Y017575D01*
X001457Y017613D01*
X001495Y017649D01*
X001535Y017681D01*
X001578Y017711D01*
X001623Y017738D01*
X001669Y017761D01*
X001717Y017781D01*
X001767Y017797D01*
X001817Y017810D01*
X001868Y017819D01*
X001920Y017824D01*
X001920Y017730D01*
X001871Y017724D01*
X001822Y017714D01*
X001774Y017701D01*
X001728Y017684D01*
X001683Y017663D01*
X001640Y017639D01*
X001598Y017611D01*
X001560Y017581D01*
X001523Y017547D01*
X001489Y017510D01*
X001459Y017472D01*
X001431Y017430D01*
X001407Y017387D01*
X001386Y017342D01*
X001369Y017296D01*
X001356Y017248D01*
X001346Y017199D01*
X001340Y017150D01*
X001434Y017150D01*
X001440Y017193D01*
X001450Y017236D01*
X001462Y017278D01*
X001478Y017319D01*
X001498Y017358D01*
X001520Y017396D01*
X001546Y017431D01*
X001574Y017465D01*
X001605Y017496D01*
X001639Y017524D01*
X001674Y017550D01*
X001712Y017572D01*
X001751Y017592D01*
X001792Y017608D01*
X001834Y017620D01*
X001877Y017630D01*
X001920Y017636D01*
X001920Y017541D01*
X001881Y017535D01*
X001842Y017525D01*
X001805Y017512D01*
X001768Y017496D01*
X001734Y017476D01*
X001701Y017453D01*
X001670Y017428D01*
X001642Y017400D01*
X001617Y017369D01*
X001594Y017336D01*
X001574Y017302D01*
X001558Y017265D01*
X001545Y017228D01*
X001535Y017189D01*
X001529Y017150D01*
X002019Y015811D02*
X002019Y016694D01*
X002020Y016693D02*
X002058Y016700D01*
X002096Y016710D01*
X002132Y016723D01*
X002167Y016740D01*
X002200Y016761D01*
X002231Y016784D01*
X002260Y016810D01*
X002286Y016839D01*
X002309Y016870D01*
X002330Y016903D01*
X002347Y016938D01*
X002360Y016974D01*
X002370Y017012D01*
X002377Y017050D01*
X003259Y017051D01*
X003259Y017050D01*
X003254Y016979D01*
X003246Y016908D01*
X003233Y016838D01*
X003217Y016768D01*
X003196Y016700D01*
X003172Y016633D01*
X003145Y016567D01*
X003114Y016503D01*
X003079Y016441D01*
X003041Y016380D01*
X002999Y016322D01*
X002955Y016267D01*
X002907Y016213D01*
X002857Y016163D01*
X002803Y016115D01*
X002748Y016071D01*
X002690Y016029D01*
X002629Y015991D01*
X002567Y015956D01*
X002503Y015925D01*
X002437Y015898D01*
X002370Y015874D01*
X002302Y015853D01*
X002232Y015837D01*
X002162Y015824D01*
X002091Y015816D01*
X002020Y015811D01*
X002020Y015905D01*
X002088Y015910D01*
X002156Y015919D01*
X002223Y015931D01*
X002290Y015948D01*
X002355Y015968D01*
X002419Y015992D01*
X002482Y016019D01*
X002543Y016050D01*
X002602Y016085D01*
X002659Y016122D01*
X002714Y016163D01*
X002766Y016207D01*
X002816Y016254D01*
X002863Y016304D01*
X002907Y016356D01*
X002948Y016411D01*
X002985Y016468D01*
X003020Y016527D01*
X003051Y016588D01*
X003078Y016651D01*
X003102Y016715D01*
X003122Y016780D01*
X003139Y016847D01*
X003151Y016914D01*
X003160Y016982D01*
X003165Y017050D01*
X003071Y017050D01*
X003066Y016985D01*
X003057Y016920D01*
X003045Y016856D01*
X003028Y016793D01*
X003008Y016731D01*
X002985Y016670D01*
X002958Y016611D01*
X002927Y016553D01*
X002893Y016498D01*
X002856Y016444D01*
X002815Y016393D01*
X002772Y016344D01*
X002726Y016298D01*
X002677Y016255D01*
X002626Y016214D01*
X002572Y016177D01*
X002517Y016143D01*
X002459Y016112D01*
X002400Y016085D01*
X002339Y016062D01*
X002277Y016042D01*
X002214Y016025D01*
X002150Y016013D01*
X002085Y016004D01*
X002020Y015999D01*
X002020Y016093D01*
X002082Y016098D01*
X002143Y016107D01*
X002203Y016119D01*
X002263Y016136D01*
X002321Y016155D01*
X002379Y016179D01*
X002434Y016205D01*
X002488Y016235D01*
X002540Y016269D01*
X002590Y016305D01*
X002638Y016345D01*
X002683Y016387D01*
X002725Y016432D01*
X002765Y016480D01*
X002801Y016530D01*
X002835Y016582D01*
X002865Y016636D01*
X002891Y016691D01*
X002915Y016749D01*
X002934Y016807D01*
X002951Y016867D01*
X002963Y016927D01*
X002972Y016988D01*
X002977Y017050D01*
X002883Y017050D01*
X002878Y016992D01*
X002869Y016935D01*
X002857Y016878D01*
X002841Y016822D01*
X002821Y016767D01*
X002799Y016714D01*
X002772Y016662D01*
X002743Y016612D01*
X002710Y016564D01*
X002675Y016518D01*
X002636Y016475D01*
X002595Y016434D01*
X002552Y016395D01*
X002506Y016360D01*
X002458Y016327D01*
X002408Y016298D01*
X002356Y016271D01*
X002303Y016249D01*
X002248Y016229D01*
X002192Y016213D01*
X002135Y016201D01*
X002078Y016192D01*
X002020Y016187D01*
X002020Y016282D01*
X002076Y016287D01*
X002132Y016296D01*
X002187Y016309D01*
X002241Y016326D01*
X002294Y016347D01*
X002345Y016371D01*
X002394Y016398D01*
X002442Y016429D01*
X002487Y016463D01*
X002529Y016501D01*
X002569Y016541D01*
X002607Y016583D01*
X002641Y016628D01*
X002672Y016676D01*
X002699Y016725D01*
X002723Y016776D01*
X002744Y016829D01*
X002761Y016883D01*
X002774Y016938D01*
X002783Y016994D01*
X002788Y017050D01*
X002694Y017050D01*
X002689Y016998D01*
X002680Y016947D01*
X002667Y016897D01*
X002651Y016847D01*
X002631Y016799D01*
X002608Y016753D01*
X002581Y016708D01*
X002551Y016665D01*
X002519Y016625D01*
X002483Y016587D01*
X002445Y016551D01*
X002405Y016519D01*
X002362Y016489D01*
X002317Y016462D01*
X002271Y016439D01*
X002223Y016419D01*
X002173Y016403D01*
X002123Y016390D01*
X002072Y016381D01*
X002020Y016376D01*
X002020Y016470D01*
X002069Y016476D01*
X002118Y016486D01*
X002166Y016499D01*
X002212Y016516D01*
X002257Y016537D01*
X002300Y016561D01*
X002342Y016589D01*
X002380Y016619D01*
X002417Y016653D01*
X002451Y016690D01*
X002481Y016728D01*
X002509Y016770D01*
X002533Y016813D01*
X002554Y016858D01*
X002571Y016904D01*
X002584Y016952D01*
X002594Y017001D01*
X002600Y017050D01*
X002506Y017050D01*
X002500Y017007D01*
X002490Y016964D01*
X002478Y016922D01*
X002462Y016881D01*
X002442Y016842D01*
X002420Y016804D01*
X002394Y016769D01*
X002366Y016735D01*
X002335Y016704D01*
X002301Y016676D01*
X002266Y016650D01*
X002228Y016628D01*
X002189Y016608D01*
X002148Y016592D01*
X002106Y016580D01*
X002063Y016570D01*
X002020Y016564D01*
X002020Y016659D01*
X002059Y016665D01*
X002098Y016675D01*
X002135Y016688D01*
X002172Y016704D01*
X002206Y016724D01*
X002239Y016747D01*
X002270Y016772D01*
X002298Y016800D01*
X002323Y016831D01*
X002346Y016864D01*
X002366Y016898D01*
X002382Y016935D01*
X002395Y016972D01*
X002405Y017011D01*
X002411Y017050D01*
X001921Y003389D02*
X001921Y002506D01*
X001920Y002507D02*
X001882Y002500D01*
X001844Y002490D01*
X001808Y002477D01*
X001773Y002460D01*
X001740Y002439D01*
X001709Y002416D01*
X001680Y002390D01*
X001654Y002361D01*
X001631Y002330D01*
X001610Y002297D01*
X001593Y002262D01*
X001580Y002226D01*
X001570Y002188D01*
X001563Y002150D01*
X000681Y002149D01*
X000681Y002150D01*
X000686Y002221D01*
X000694Y002292D01*
X000707Y002362D01*
X000723Y002432D01*
X000744Y002500D01*
X000768Y002567D01*
X000795Y002633D01*
X000826Y002697D01*
X000861Y002759D01*
X000899Y002820D01*
X000941Y002878D01*
X000985Y002933D01*
X001033Y002987D01*
X001083Y003037D01*
X001137Y003085D01*
X001192Y003129D01*
X001250Y003171D01*
X001311Y003209D01*
X001373Y003244D01*
X001437Y003275D01*
X001503Y003302D01*
X001570Y003326D01*
X001638Y003347D01*
X001708Y003363D01*
X001778Y003376D01*
X001849Y003384D01*
X001920Y003389D01*
X001920Y003295D01*
X001852Y003290D01*
X001784Y003281D01*
X001717Y003269D01*
X001650Y003252D01*
X001585Y003232D01*
X001521Y003208D01*
X001458Y003181D01*
X001397Y003150D01*
X001338Y003115D01*
X001281Y003078D01*
X001226Y003037D01*
X001174Y002993D01*
X001124Y002946D01*
X001077Y002896D01*
X001033Y002844D01*
X000992Y002789D01*
X000955Y002732D01*
X000920Y002673D01*
X000889Y002612D01*
X000862Y002549D01*
X000838Y002485D01*
X000818Y002420D01*
X000801Y002353D01*
X000789Y002286D01*
X000780Y002218D01*
X000775Y002150D01*
X000869Y002150D01*
X000874Y002215D01*
X000883Y002280D01*
X000895Y002344D01*
X000912Y002407D01*
X000932Y002469D01*
X000955Y002530D01*
X000982Y002589D01*
X001013Y002647D01*
X001047Y002702D01*
X001084Y002756D01*
X001125Y002807D01*
X001168Y002856D01*
X001214Y002902D01*
X001263Y002945D01*
X001314Y002986D01*
X001368Y003023D01*
X001423Y003057D01*
X001481Y003088D01*
X001540Y003115D01*
X001601Y003138D01*
X001663Y003158D01*
X001726Y003175D01*
X001790Y003187D01*
X001855Y003196D01*
X001920Y003201D01*
X001920Y003107D01*
X001858Y003102D01*
X001797Y003093D01*
X001737Y003081D01*
X001677Y003064D01*
X001619Y003045D01*
X001561Y003021D01*
X001506Y002995D01*
X001452Y002965D01*
X001400Y002931D01*
X001350Y002895D01*
X001302Y002855D01*
X001257Y002813D01*
X001215Y002768D01*
X001175Y002720D01*
X001139Y002670D01*
X001105Y002618D01*
X001075Y002564D01*
X001049Y002509D01*
X001025Y002451D01*
X001006Y002393D01*
X000989Y002333D01*
X000977Y002273D01*
X000968Y002212D01*
X000963Y002150D01*
X001057Y002150D01*
X001062Y002208D01*
X001071Y002265D01*
X001083Y002322D01*
X001099Y002378D01*
X001119Y002433D01*
X001141Y002486D01*
X001168Y002538D01*
X001197Y002588D01*
X001230Y002636D01*
X001265Y002682D01*
X001304Y002725D01*
X001345Y002766D01*
X001388Y002805D01*
X001434Y002840D01*
X001482Y002873D01*
X001532Y002902D01*
X001584Y002929D01*
X001637Y002951D01*
X001692Y002971D01*
X001748Y002987D01*
X001805Y002999D01*
X001862Y003008D01*
X001920Y003013D01*
X001920Y002918D01*
X001864Y002913D01*
X001808Y002904D01*
X001753Y002891D01*
X001699Y002874D01*
X001646Y002853D01*
X001595Y002829D01*
X001546Y002802D01*
X001498Y002771D01*
X001453Y002737D01*
X001411Y002699D01*
X001371Y002659D01*
X001333Y002617D01*
X001299Y002572D01*
X001268Y002524D01*
X001241Y002475D01*
X001217Y002424D01*
X001196Y002371D01*
X001179Y002317D01*
X001166Y002262D01*
X001157Y002206D01*
X001152Y002150D01*
X001246Y002150D01*
X001251Y002202D01*
X001260Y002253D01*
X001273Y002303D01*
X001289Y002353D01*
X001309Y002401D01*
X001332Y002447D01*
X001359Y002492D01*
X001389Y002535D01*
X001421Y002575D01*
X001457Y002613D01*
X001495Y002649D01*
X001535Y002681D01*
X001578Y002711D01*
X001623Y002738D01*
X001669Y002761D01*
X001717Y002781D01*
X001767Y002797D01*
X001817Y002810D01*
X001868Y002819D01*
X001920Y002824D01*
X001920Y002730D01*
X001871Y002724D01*
X001822Y002714D01*
X001774Y002701D01*
X001728Y002684D01*
X001683Y002663D01*
X001640Y002639D01*
X001598Y002611D01*
X001560Y002581D01*
X001523Y002547D01*
X001489Y002510D01*
X001459Y002472D01*
X001431Y002430D01*
X001407Y002387D01*
X001386Y002342D01*
X001369Y002296D01*
X001356Y002248D01*
X001346Y002199D01*
X001340Y002150D01*
X001434Y002150D01*
X001440Y002193D01*
X001450Y002236D01*
X001462Y002278D01*
X001478Y002319D01*
X001498Y002358D01*
X001520Y002396D01*
X001546Y002431D01*
X001574Y002465D01*
X001605Y002496D01*
X001639Y002524D01*
X001674Y002550D01*
X001712Y002572D01*
X001751Y002592D01*
X001792Y002608D01*
X001834Y002620D01*
X001877Y002630D01*
X001920Y002636D01*
X001920Y002541D01*
X001881Y002535D01*
X001842Y002525D01*
X001805Y002512D01*
X001768Y002496D01*
X001734Y002476D01*
X001701Y002453D01*
X001670Y002428D01*
X001642Y002400D01*
X001617Y002369D01*
X001594Y002336D01*
X001574Y002302D01*
X001558Y002265D01*
X001545Y002228D01*
X001535Y002189D01*
X001529Y002150D01*
X002019Y000811D02*
X002019Y001694D01*
X002020Y001693D02*
X002058Y001700D01*
X002096Y001710D01*
X002132Y001723D01*
X002167Y001740D01*
X002200Y001761D01*
X002231Y001784D01*
X002260Y001810D01*
X002286Y001839D01*
X002309Y001870D01*
X002330Y001903D01*
X002347Y001938D01*
X002360Y001974D01*
X002370Y002012D01*
X002377Y002050D01*
X003259Y002051D01*
X003259Y002050D01*
X003254Y001979D01*
X003246Y001908D01*
X003233Y001838D01*
X003217Y001768D01*
X003196Y001700D01*
X003172Y001633D01*
X003145Y001567D01*
X003114Y001503D01*
X003079Y001441D01*
X003041Y001380D01*
X002999Y001322D01*
X002955Y001267D01*
X002907Y001213D01*
X002857Y001163D01*
X002803Y001115D01*
X002748Y001071D01*
X002690Y001029D01*
X002629Y000991D01*
X002567Y000956D01*
X002503Y000925D01*
X002437Y000898D01*
X002370Y000874D01*
X002302Y000853D01*
X002232Y000837D01*
X002162Y000824D01*
X002091Y000816D01*
X002020Y000811D01*
X002020Y000905D01*
X002088Y000910D01*
X002156Y000919D01*
X002223Y000931D01*
X002290Y000948D01*
X002355Y000968D01*
X002419Y000992D01*
X002482Y001019D01*
X002543Y001050D01*
X002602Y001085D01*
X002659Y001122D01*
X002714Y001163D01*
X002766Y001207D01*
X002816Y001254D01*
X002863Y001304D01*
X002907Y001356D01*
X002948Y001411D01*
X002985Y001468D01*
X003020Y001527D01*
X003051Y001588D01*
X003078Y001651D01*
X003102Y001715D01*
X003122Y001780D01*
X003139Y001847D01*
X003151Y001914D01*
X003160Y001982D01*
X003165Y002050D01*
X003071Y002050D01*
X003066Y001985D01*
X003057Y001920D01*
X003045Y001856D01*
X003028Y001793D01*
X003008Y001731D01*
X002985Y001670D01*
X002958Y001611D01*
X002927Y001553D01*
X002893Y001498D01*
X002856Y001444D01*
X002815Y001393D01*
X002772Y001344D01*
X002726Y001298D01*
X002677Y001255D01*
X002626Y001214D01*
X002572Y001177D01*
X002517Y001143D01*
X002459Y001112D01*
X002400Y001085D01*
X002339Y001062D01*
X002277Y001042D01*
X002214Y001025D01*
X002150Y001013D01*
X002085Y001004D01*
X002020Y000999D01*
X002020Y001093D01*
X002082Y001098D01*
X002143Y001107D01*
X002203Y001119D01*
X002263Y001136D01*
X002321Y001155D01*
X002379Y001179D01*
X002434Y001205D01*
X002488Y001235D01*
X002540Y001269D01*
X002590Y001305D01*
X002638Y001345D01*
X002683Y001387D01*
X002725Y001432D01*
X002765Y001480D01*
X002801Y001530D01*
X002835Y001582D01*
X002865Y001636D01*
X002891Y001691D01*
X002915Y001749D01*
X002934Y001807D01*
X002951Y001867D01*
X002963Y001927D01*
X002972Y001988D01*
X002977Y002050D01*
X002883Y002050D01*
X002878Y001992D01*
X002869Y001935D01*
X002857Y001878D01*
X002841Y001822D01*
X002821Y001767D01*
X002799Y001714D01*
X002772Y001662D01*
X002743Y001612D01*
X002710Y001564D01*
X002675Y001518D01*
X002636Y001475D01*
X002595Y001434D01*
X002552Y001395D01*
X002506Y001360D01*
X002458Y001327D01*
X002408Y001298D01*
X002356Y001271D01*
X002303Y001249D01*
X002248Y001229D01*
X002192Y001213D01*
X002135Y001201D01*
X002078Y001192D01*
X002020Y001187D01*
X002020Y001282D01*
X002076Y001287D01*
X002132Y001296D01*
X002187Y001309D01*
X002241Y001326D01*
X002294Y001347D01*
X002345Y001371D01*
X002394Y001398D01*
X002442Y001429D01*
X002487Y001463D01*
X002529Y001501D01*
X002569Y001541D01*
X002607Y001583D01*
X002641Y001628D01*
X002672Y001676D01*
X002699Y001725D01*
X002723Y001776D01*
X002744Y001829D01*
X002761Y001883D01*
X002774Y001938D01*
X002783Y001994D01*
X002788Y002050D01*
X002694Y002050D01*
X002689Y001998D01*
X002680Y001947D01*
X002667Y001897D01*
X002651Y001847D01*
X002631Y001799D01*
X002608Y001753D01*
X002581Y001708D01*
X002551Y001665D01*
X002519Y001625D01*
X002483Y001587D01*
X002445Y001551D01*
X002405Y001519D01*
X002362Y001489D01*
X002317Y001462D01*
X002271Y001439D01*
X002223Y001419D01*
X002173Y001403D01*
X002123Y001390D01*
X002072Y001381D01*
X002020Y001376D01*
X002020Y001470D01*
X002069Y001476D01*
X002118Y001486D01*
X002166Y001499D01*
X002212Y001516D01*
X002257Y001537D01*
X002300Y001561D01*
X002342Y001589D01*
X002380Y001619D01*
X002417Y001653D01*
X002451Y001690D01*
X002481Y001728D01*
X002509Y001770D01*
X002533Y001813D01*
X002554Y001858D01*
X002571Y001904D01*
X002584Y001952D01*
X002594Y002001D01*
X002600Y002050D01*
X002506Y002050D01*
X002500Y002007D01*
X002490Y001964D01*
X002478Y001922D01*
X002462Y001881D01*
X002442Y001842D01*
X002420Y001804D01*
X002394Y001769D01*
X002366Y001735D01*
X002335Y001704D01*
X002301Y001676D01*
X002266Y001650D01*
X002228Y001628D01*
X002189Y001608D01*
X002148Y001592D01*
X002106Y001580D01*
X002063Y001570D01*
X002020Y001564D01*
X002020Y001659D01*
X002059Y001665D01*
X002098Y001675D01*
X002135Y001688D01*
X002172Y001704D01*
X002206Y001724D01*
X002239Y001747D01*
X002270Y001772D01*
X002298Y001800D01*
X002323Y001831D01*
X002346Y001864D01*
X002366Y001898D01*
X002382Y001935D01*
X002395Y001972D01*
X002405Y002011D01*
X002411Y002050D01*
X036921Y003389D02*
X036921Y002506D01*
X036920Y002507D02*
X036882Y002500D01*
X036844Y002490D01*
X036808Y002477D01*
X036773Y002460D01*
X036740Y002439D01*
X036709Y002416D01*
X036680Y002390D01*
X036654Y002361D01*
X036631Y002330D01*
X036610Y002297D01*
X036593Y002262D01*
X036580Y002226D01*
X036570Y002188D01*
X036563Y002150D01*
X035681Y002149D01*
X035681Y002150D01*
X035686Y002221D01*
X035694Y002292D01*
X035707Y002362D01*
X035723Y002432D01*
X035744Y002500D01*
X035768Y002567D01*
X035795Y002633D01*
X035826Y002697D01*
X035861Y002759D01*
X035899Y002820D01*
X035941Y002878D01*
X035985Y002933D01*
X036033Y002987D01*
X036083Y003037D01*
X036137Y003085D01*
X036192Y003129D01*
X036250Y003171D01*
X036311Y003209D01*
X036373Y003244D01*
X036437Y003275D01*
X036503Y003302D01*
X036570Y003326D01*
X036638Y003347D01*
X036708Y003363D01*
X036778Y003376D01*
X036849Y003384D01*
X036920Y003389D01*
X036920Y003295D01*
X036852Y003290D01*
X036784Y003281D01*
X036717Y003269D01*
X036650Y003252D01*
X036585Y003232D01*
X036521Y003208D01*
X036458Y003181D01*
X036397Y003150D01*
X036338Y003115D01*
X036281Y003078D01*
X036226Y003037D01*
X036174Y002993D01*
X036124Y002946D01*
X036077Y002896D01*
X036033Y002844D01*
X035992Y002789D01*
X035955Y002732D01*
X035920Y002673D01*
X035889Y002612D01*
X035862Y002549D01*
X035838Y002485D01*
X035818Y002420D01*
X035801Y002353D01*
X035789Y002286D01*
X035780Y002218D01*
X035775Y002150D01*
X035869Y002150D01*
X035874Y002215D01*
X035883Y002280D01*
X035895Y002344D01*
X035912Y002407D01*
X035932Y002469D01*
X035955Y002530D01*
X035982Y002589D01*
X036013Y002647D01*
X036047Y002702D01*
X036084Y002756D01*
X036125Y002807D01*
X036168Y002856D01*
X036214Y002902D01*
X036263Y002945D01*
X036314Y002986D01*
X036368Y003023D01*
X036423Y003057D01*
X036481Y003088D01*
X036540Y003115D01*
X036601Y003138D01*
X036663Y003158D01*
X036726Y003175D01*
X036790Y003187D01*
X036855Y003196D01*
X036920Y003201D01*
X036920Y003107D01*
X036858Y003102D01*
X036797Y003093D01*
X036737Y003081D01*
X036677Y003064D01*
X036619Y003045D01*
X036561Y003021D01*
X036506Y002995D01*
X036452Y002965D01*
X036400Y002931D01*
X036350Y002895D01*
X036302Y002855D01*
X036257Y002813D01*
X036215Y002768D01*
X036175Y002720D01*
X036139Y002670D01*
X036105Y002618D01*
X036075Y002564D01*
X036049Y002509D01*
X036025Y002451D01*
X036006Y002393D01*
X035989Y002333D01*
X035977Y002273D01*
X035968Y002212D01*
X035963Y002150D01*
X036057Y002150D01*
X036062Y002208D01*
X036071Y002265D01*
X036083Y002322D01*
X036099Y002378D01*
X036119Y002433D01*
X036141Y002486D01*
X036168Y002538D01*
X036197Y002588D01*
X036230Y002636D01*
X036265Y002682D01*
X036304Y002725D01*
X036345Y002766D01*
X036388Y002805D01*
X036434Y002840D01*
X036482Y002873D01*
X036532Y002902D01*
X036584Y002929D01*
X036637Y002951D01*
X036692Y002971D01*
X036748Y002987D01*
X036805Y002999D01*
X036862Y003008D01*
X036920Y003013D01*
X036920Y002918D01*
X036864Y002913D01*
X036808Y002904D01*
X036753Y002891D01*
X036699Y002874D01*
X036646Y002853D01*
X036595Y002829D01*
X036546Y002802D01*
X036498Y002771D01*
X036453Y002737D01*
X036411Y002699D01*
X036371Y002659D01*
X036333Y002617D01*
X036299Y002572D01*
X036268Y002524D01*
X036241Y002475D01*
X036217Y002424D01*
X036196Y002371D01*
X036179Y002317D01*
X036166Y002262D01*
X036157Y002206D01*
X036152Y002150D01*
X036246Y002150D01*
X036251Y002202D01*
X036260Y002253D01*
X036273Y002303D01*
X036289Y002353D01*
X036309Y002401D01*
X036332Y002447D01*
X036359Y002492D01*
X036389Y002535D01*
X036421Y002575D01*
X036457Y002613D01*
X036495Y002649D01*
X036535Y002681D01*
X036578Y002711D01*
X036623Y002738D01*
X036669Y002761D01*
X036717Y002781D01*
X036767Y002797D01*
X036817Y002810D01*
X036868Y002819D01*
X036920Y002824D01*
X036920Y002730D01*
X036871Y002724D01*
X036822Y002714D01*
X036774Y002701D01*
X036728Y002684D01*
X036683Y002663D01*
X036640Y002639D01*
X036598Y002611D01*
X036560Y002581D01*
X036523Y002547D01*
X036489Y002510D01*
X036459Y002472D01*
X036431Y002430D01*
X036407Y002387D01*
X036386Y002342D01*
X036369Y002296D01*
X036356Y002248D01*
X036346Y002199D01*
X036340Y002150D01*
X036434Y002150D01*
X036440Y002193D01*
X036450Y002236D01*
X036462Y002278D01*
X036478Y002319D01*
X036498Y002358D01*
X036520Y002396D01*
X036546Y002431D01*
X036574Y002465D01*
X036605Y002496D01*
X036639Y002524D01*
X036674Y002550D01*
X036712Y002572D01*
X036751Y002592D01*
X036792Y002608D01*
X036834Y002620D01*
X036877Y002630D01*
X036920Y002636D01*
X036920Y002541D01*
X036881Y002535D01*
X036842Y002525D01*
X036805Y002512D01*
X036768Y002496D01*
X036734Y002476D01*
X036701Y002453D01*
X036670Y002428D01*
X036642Y002400D01*
X036617Y002369D01*
X036594Y002336D01*
X036574Y002302D01*
X036558Y002265D01*
X036545Y002228D01*
X036535Y002189D01*
X036529Y002150D01*
X037019Y000811D02*
X037019Y001694D01*
X037020Y001693D02*
X037058Y001700D01*
X037096Y001710D01*
X037132Y001723D01*
X037167Y001740D01*
X037200Y001761D01*
X037231Y001784D01*
X037260Y001810D01*
X037286Y001839D01*
X037309Y001870D01*
X037330Y001903D01*
X037347Y001938D01*
X037360Y001974D01*
X037370Y002012D01*
X037377Y002050D01*
X038259Y002051D01*
X038259Y002050D01*
X038254Y001979D01*
X038246Y001908D01*
X038233Y001838D01*
X038217Y001768D01*
X038196Y001700D01*
X038172Y001633D01*
X038145Y001567D01*
X038114Y001503D01*
X038079Y001441D01*
X038041Y001380D01*
X037999Y001322D01*
X037955Y001267D01*
X037907Y001213D01*
X037857Y001163D01*
X037803Y001115D01*
X037748Y001071D01*
X037690Y001029D01*
X037629Y000991D01*
X037567Y000956D01*
X037503Y000925D01*
X037437Y000898D01*
X037370Y000874D01*
X037302Y000853D01*
X037232Y000837D01*
X037162Y000824D01*
X037091Y000816D01*
X037020Y000811D01*
X037020Y000905D01*
X037088Y000910D01*
X037156Y000919D01*
X037223Y000931D01*
X037290Y000948D01*
X037355Y000968D01*
X037419Y000992D01*
X037482Y001019D01*
X037543Y001050D01*
X037602Y001085D01*
X037659Y001122D01*
X037714Y001163D01*
X037766Y001207D01*
X037816Y001254D01*
X037863Y001304D01*
X037907Y001356D01*
X037948Y001411D01*
X037985Y001468D01*
X038020Y001527D01*
X038051Y001588D01*
X038078Y001651D01*
X038102Y001715D01*
X038122Y001780D01*
X038139Y001847D01*
X038151Y001914D01*
X038160Y001982D01*
X038165Y002050D01*
X038071Y002050D01*
X038066Y001985D01*
X038057Y001920D01*
X038045Y001856D01*
X038028Y001793D01*
X038008Y001731D01*
X037985Y001670D01*
X037958Y001611D01*
X037927Y001553D01*
X037893Y001498D01*
X037856Y001444D01*
X037815Y001393D01*
X037772Y001344D01*
X037726Y001298D01*
X037677Y001255D01*
X037626Y001214D01*
X037572Y001177D01*
X037517Y001143D01*
X037459Y001112D01*
X037400Y001085D01*
X037339Y001062D01*
X037277Y001042D01*
X037214Y001025D01*
X037150Y001013D01*
X037085Y001004D01*
X037020Y000999D01*
X037020Y001093D01*
X037082Y001098D01*
X037143Y001107D01*
X037203Y001119D01*
X037263Y001136D01*
X037321Y001155D01*
X037379Y001179D01*
X037434Y001205D01*
X037488Y001235D01*
X037540Y001269D01*
X037590Y001305D01*
X037638Y001345D01*
X037683Y001387D01*
X037725Y001432D01*
X037765Y001480D01*
X037801Y001530D01*
X037835Y001582D01*
X037865Y001636D01*
X037891Y001691D01*
X037915Y001749D01*
X037934Y001807D01*
X037951Y001867D01*
X037963Y001927D01*
X037972Y001988D01*
X037977Y002050D01*
X037883Y002050D01*
X037878Y001992D01*
X037869Y001935D01*
X037857Y001878D01*
X037841Y001822D01*
X037821Y001767D01*
X037799Y001714D01*
X037772Y001662D01*
X037743Y001612D01*
X037710Y001564D01*
X037675Y001518D01*
X037636Y001475D01*
X037595Y001434D01*
X037552Y001395D01*
X037506Y001360D01*
X037458Y001327D01*
X037408Y001298D01*
X037356Y001271D01*
X037303Y001249D01*
X037248Y001229D01*
X037192Y001213D01*
X037135Y001201D01*
X037078Y001192D01*
X037020Y001187D01*
X037020Y001282D01*
X037076Y001287D01*
X037132Y001296D01*
X037187Y001309D01*
X037241Y001326D01*
X037294Y001347D01*
X037345Y001371D01*
X037394Y001398D01*
X037442Y001429D01*
X037487Y001463D01*
X037529Y001501D01*
X037569Y001541D01*
X037607Y001583D01*
X037641Y001628D01*
X037672Y001676D01*
X037699Y001725D01*
X037723Y001776D01*
X037744Y001829D01*
X037761Y001883D01*
X037774Y001938D01*
X037783Y001994D01*
X037788Y002050D01*
X037694Y002050D01*
X037689Y001998D01*
X037680Y001947D01*
X037667Y001897D01*
X037651Y001847D01*
X037631Y001799D01*
X037608Y001753D01*
X037581Y001708D01*
X037551Y001665D01*
X037519Y001625D01*
X037483Y001587D01*
X037445Y001551D01*
X037405Y001519D01*
X037362Y001489D01*
X037317Y001462D01*
X037271Y001439D01*
X037223Y001419D01*
X037173Y001403D01*
X037123Y001390D01*
X037072Y001381D01*
X037020Y001376D01*
X037020Y001470D01*
X037069Y001476D01*
X037118Y001486D01*
X037166Y001499D01*
X037212Y001516D01*
X037257Y001537D01*
X037300Y001561D01*
X037342Y001589D01*
X037380Y001619D01*
X037417Y001653D01*
X037451Y001690D01*
X037481Y001728D01*
X037509Y001770D01*
X037533Y001813D01*
X037554Y001858D01*
X037571Y001904D01*
X037584Y001952D01*
X037594Y002001D01*
X037600Y002050D01*
X037506Y002050D01*
X037500Y002007D01*
X037490Y001964D01*
X037478Y001922D01*
X037462Y001881D01*
X037442Y001842D01*
X037420Y001804D01*
X037394Y001769D01*
X037366Y001735D01*
X037335Y001704D01*
X037301Y001676D01*
X037266Y001650D01*
X037228Y001628D01*
X037189Y001608D01*
X037148Y001592D01*
X037106Y001580D01*
X037063Y001570D01*
X037020Y001564D01*
X037020Y001659D01*
X037059Y001665D01*
X037098Y001675D01*
X037135Y001688D01*
X037172Y001704D01*
X037206Y001724D01*
X037239Y001747D01*
X037270Y001772D01*
X037298Y001800D01*
X037323Y001831D01*
X037346Y001864D01*
X037366Y001898D01*
X037382Y001935D01*
X037395Y001972D01*
X037405Y002011D01*
X037411Y002050D01*
X036921Y018389D02*
X036921Y017506D01*
X036920Y017507D02*
X036882Y017500D01*
X036844Y017490D01*
X036808Y017477D01*
X036773Y017460D01*
X036740Y017439D01*
X036709Y017416D01*
X036680Y017390D01*
X036654Y017361D01*
X036631Y017330D01*
X036610Y017297D01*
X036593Y017262D01*
X036580Y017226D01*
X036570Y017188D01*
X036563Y017150D01*
X035681Y017149D01*
X035681Y017150D01*
X035686Y017221D01*
X035694Y017292D01*
X035707Y017362D01*
X035723Y017432D01*
X035744Y017500D01*
X035768Y017567D01*
X035795Y017633D01*
X035826Y017697D01*
X035861Y017759D01*
X035899Y017820D01*
X035941Y017878D01*
X035985Y017933D01*
X036033Y017987D01*
X036083Y018037D01*
X036137Y018085D01*
X036192Y018129D01*
X036250Y018171D01*
X036311Y018209D01*
X036373Y018244D01*
X036437Y018275D01*
X036503Y018302D01*
X036570Y018326D01*
X036638Y018347D01*
X036708Y018363D01*
X036778Y018376D01*
X036849Y018384D01*
X036920Y018389D01*
X036920Y018295D01*
X036852Y018290D01*
X036784Y018281D01*
X036717Y018269D01*
X036650Y018252D01*
X036585Y018232D01*
X036521Y018208D01*
X036458Y018181D01*
X036397Y018150D01*
X036338Y018115D01*
X036281Y018078D01*
X036226Y018037D01*
X036174Y017993D01*
X036124Y017946D01*
X036077Y017896D01*
X036033Y017844D01*
X035992Y017789D01*
X035955Y017732D01*
X035920Y017673D01*
X035889Y017612D01*
X035862Y017549D01*
X035838Y017485D01*
X035818Y017420D01*
X035801Y017353D01*
X035789Y017286D01*
X035780Y017218D01*
X035775Y017150D01*
X035869Y017150D01*
X035874Y017215D01*
X035883Y017280D01*
X035895Y017344D01*
X035912Y017407D01*
X035932Y017469D01*
X035955Y017530D01*
X035982Y017589D01*
X036013Y017647D01*
X036047Y017702D01*
X036084Y017756D01*
X036125Y017807D01*
X036168Y017856D01*
X036214Y017902D01*
X036263Y017945D01*
X036314Y017986D01*
X036368Y018023D01*
X036423Y018057D01*
X036481Y018088D01*
X036540Y018115D01*
X036601Y018138D01*
X036663Y018158D01*
X036726Y018175D01*
X036790Y018187D01*
X036855Y018196D01*
X036920Y018201D01*
X036920Y018107D01*
X036858Y018102D01*
X036797Y018093D01*
X036737Y018081D01*
X036677Y018064D01*
X036619Y018045D01*
X036561Y018021D01*
X036506Y017995D01*
X036452Y017965D01*
X036400Y017931D01*
X036350Y017895D01*
X036302Y017855D01*
X036257Y017813D01*
X036215Y017768D01*
X036175Y017720D01*
X036139Y017670D01*
X036105Y017618D01*
X036075Y017564D01*
X036049Y017509D01*
X036025Y017451D01*
X036006Y017393D01*
X035989Y017333D01*
X035977Y017273D01*
X035968Y017212D01*
X035963Y017150D01*
X036057Y017150D01*
X036062Y017208D01*
X036071Y017265D01*
X036083Y017322D01*
X036099Y017378D01*
X036119Y017433D01*
X036141Y017486D01*
X036168Y017538D01*
X036197Y017588D01*
X036230Y017636D01*
X036265Y017682D01*
X036304Y017725D01*
X036345Y017766D01*
X036388Y017805D01*
X036434Y017840D01*
X036482Y017873D01*
X036532Y017902D01*
X036584Y017929D01*
X036637Y017951D01*
X036692Y017971D01*
X036748Y017987D01*
X036805Y017999D01*
X036862Y018008D01*
X036920Y018013D01*
X036920Y017918D01*
X036864Y017913D01*
X036808Y017904D01*
X036753Y017891D01*
X036699Y017874D01*
X036646Y017853D01*
X036595Y017829D01*
X036546Y017802D01*
X036498Y017771D01*
X036453Y017737D01*
X036411Y017699D01*
X036371Y017659D01*
X036333Y017617D01*
X036299Y017572D01*
X036268Y017524D01*
X036241Y017475D01*
X036217Y017424D01*
X036196Y017371D01*
X036179Y017317D01*
X036166Y017262D01*
X036157Y017206D01*
X036152Y017150D01*
X036246Y017150D01*
X036251Y017202D01*
X036260Y017253D01*
X036273Y017303D01*
X036289Y017353D01*
X036309Y017401D01*
X036332Y017447D01*
X036359Y017492D01*
X036389Y017535D01*
X036421Y017575D01*
X036457Y017613D01*
X036495Y017649D01*
X036535Y017681D01*
X036578Y017711D01*
X036623Y017738D01*
X036669Y017761D01*
X036717Y017781D01*
X036767Y017797D01*
X036817Y017810D01*
X036868Y017819D01*
X036920Y017824D01*
X036920Y017730D01*
X036871Y017724D01*
X036822Y017714D01*
X036774Y017701D01*
X036728Y017684D01*
X036683Y017663D01*
X036640Y017639D01*
X036598Y017611D01*
X036560Y017581D01*
X036523Y017547D01*
X036489Y017510D01*
X036459Y017472D01*
X036431Y017430D01*
X036407Y017387D01*
X036386Y017342D01*
X036369Y017296D01*
X036356Y017248D01*
X036346Y017199D01*
X036340Y017150D01*
X036434Y017150D01*
X036440Y017193D01*
X036450Y017236D01*
X036462Y017278D01*
X036478Y017319D01*
X036498Y017358D01*
X036520Y017396D01*
X036546Y017431D01*
X036574Y017465D01*
X036605Y017496D01*
X036639Y017524D01*
X036674Y017550D01*
X036712Y017572D01*
X036751Y017592D01*
X036792Y017608D01*
X036834Y017620D01*
X036877Y017630D01*
X036920Y017636D01*
X036920Y017541D01*
X036881Y017535D01*
X036842Y017525D01*
X036805Y017512D01*
X036768Y017496D01*
X036734Y017476D01*
X036701Y017453D01*
X036670Y017428D01*
X036642Y017400D01*
X036617Y017369D01*
X036594Y017336D01*
X036574Y017302D01*
X036558Y017265D01*
X036545Y017228D01*
X036535Y017189D01*
X036529Y017150D01*
X037019Y015811D02*
X037019Y016694D01*
X037020Y016693D02*
X037058Y016700D01*
X037096Y016710D01*
X037132Y016723D01*
X037167Y016740D01*
X037200Y016761D01*
X037231Y016784D01*
X037260Y016810D01*
X037286Y016839D01*
X037309Y016870D01*
X037330Y016903D01*
X037347Y016938D01*
X037360Y016974D01*
X037370Y017012D01*
X037377Y017050D01*
X038259Y017051D01*
X038259Y017050D01*
X038254Y016979D01*
X038246Y016908D01*
X038233Y016838D01*
X038217Y016768D01*
X038196Y016700D01*
X038172Y016633D01*
X038145Y016567D01*
X038114Y016503D01*
X038079Y016441D01*
X038041Y016380D01*
X037999Y016322D01*
X037955Y016267D01*
X037907Y016213D01*
X037857Y016163D01*
X037803Y016115D01*
X037748Y016071D01*
X037690Y016029D01*
X037629Y015991D01*
X037567Y015956D01*
X037503Y015925D01*
X037437Y015898D01*
X037370Y015874D01*
X037302Y015853D01*
X037232Y015837D01*
X037162Y015824D01*
X037091Y015816D01*
X037020Y015811D01*
X037020Y015905D01*
X037088Y015910D01*
X037156Y015919D01*
X037223Y015931D01*
X037290Y015948D01*
X037355Y015968D01*
X037419Y015992D01*
X037482Y016019D01*
X037543Y016050D01*
X037602Y016085D01*
X037659Y016122D01*
X037714Y016163D01*
X037766Y016207D01*
X037816Y016254D01*
X037863Y016304D01*
X037907Y016356D01*
X037948Y016411D01*
X037985Y016468D01*
X038020Y016527D01*
X038051Y016588D01*
X038078Y016651D01*
X038102Y016715D01*
X038122Y016780D01*
X038139Y016847D01*
X038151Y016914D01*
X038160Y016982D01*
X038165Y017050D01*
X038071Y017050D01*
X038066Y016985D01*
X038057Y016920D01*
X038045Y016856D01*
X038028Y016793D01*
X038008Y016731D01*
X037985Y016670D01*
X037958Y016611D01*
X037927Y016553D01*
X037893Y016498D01*
X037856Y016444D01*
X037815Y016393D01*
X037772Y016344D01*
X037726Y016298D01*
X037677Y016255D01*
X037626Y016214D01*
X037572Y016177D01*
X037517Y016143D01*
X037459Y016112D01*
X037400Y016085D01*
X037339Y016062D01*
X037277Y016042D01*
X037214Y016025D01*
X037150Y016013D01*
X037085Y016004D01*
X037020Y015999D01*
X037020Y016093D01*
X037082Y016098D01*
X037143Y016107D01*
X037203Y016119D01*
X037263Y016136D01*
X037321Y016155D01*
X037379Y016179D01*
X037434Y016205D01*
X037488Y016235D01*
X037540Y016269D01*
X037590Y016305D01*
X037638Y016345D01*
X037683Y016387D01*
X037725Y016432D01*
X037765Y016480D01*
X037801Y016530D01*
X037835Y016582D01*
X037865Y016636D01*
X037891Y016691D01*
X037915Y016749D01*
X037934Y016807D01*
X037951Y016867D01*
X037963Y016927D01*
X037972Y016988D01*
X037977Y017050D01*
X037883Y017050D01*
X037878Y016992D01*
X037869Y016935D01*
X037857Y016878D01*
X037841Y016822D01*
X037821Y016767D01*
X037799Y016714D01*
X037772Y016662D01*
X037743Y016612D01*
X037710Y016564D01*
X037675Y016518D01*
X037636Y016475D01*
X037595Y016434D01*
X037552Y016395D01*
X037506Y016360D01*
X037458Y016327D01*
X037408Y016298D01*
X037356Y016271D01*
X037303Y016249D01*
X037248Y016229D01*
X037192Y016213D01*
X037135Y016201D01*
X037078Y016192D01*
X037020Y016187D01*
X037020Y016282D01*
X037076Y016287D01*
X037132Y016296D01*
X037187Y016309D01*
X037241Y016326D01*
X037294Y016347D01*
X037345Y016371D01*
X037394Y016398D01*
X037442Y016429D01*
X037487Y016463D01*
X037529Y016501D01*
X037569Y016541D01*
X037607Y016583D01*
X037641Y016628D01*
X037672Y016676D01*
X037699Y016725D01*
X037723Y016776D01*
X037744Y016829D01*
X037761Y016883D01*
X037774Y016938D01*
X037783Y016994D01*
X037788Y017050D01*
X037694Y017050D01*
X037689Y016998D01*
X037680Y016947D01*
X037667Y016897D01*
X037651Y016847D01*
X037631Y016799D01*
X037608Y016753D01*
X037581Y016708D01*
X037551Y016665D01*
X037519Y016625D01*
X037483Y016587D01*
X037445Y016551D01*
X037405Y016519D01*
X037362Y016489D01*
X037317Y016462D01*
X037271Y016439D01*
X037223Y016419D01*
X037173Y016403D01*
X037123Y016390D01*
X037072Y016381D01*
X037020Y016376D01*
X037020Y016470D01*
X037069Y016476D01*
X037118Y016486D01*
X037166Y016499D01*
X037212Y016516D01*
X037257Y016537D01*
X037300Y016561D01*
X037342Y016589D01*
X037380Y016619D01*
X037417Y016653D01*
X037451Y016690D01*
X037481Y016728D01*
X037509Y016770D01*
X037533Y016813D01*
X037554Y016858D01*
X037571Y016904D01*
X037584Y016952D01*
X037594Y017001D01*
X037600Y017050D01*
X037506Y017050D01*
X037500Y017007D01*
X037490Y016964D01*
X037478Y016922D01*
X037462Y016881D01*
X037442Y016842D01*
X037420Y016804D01*
X037394Y016769D01*
X037366Y016735D01*
X037335Y016704D01*
X037301Y016676D01*
X037266Y016650D01*
X037228Y016628D01*
X037189Y016608D01*
X037148Y016592D01*
X037106Y016580D01*
X037063Y016570D01*
X037020Y016564D01*
X037020Y016659D01*
X037059Y016665D01*
X037098Y016675D01*
X037135Y016688D01*
X037172Y016704D01*
X037206Y016724D01*
X037239Y016747D01*
X037270Y016772D01*
X037298Y016800D01*
X037323Y016831D01*
X037346Y016864D01*
X037366Y016898D01*
X037382Y016935D01*
X037395Y016972D01*
X037405Y017011D01*
X037411Y017050D01*
D16*
X036670Y017100D02*
X036672Y017134D01*
X036678Y017168D01*
X036687Y017201D01*
X036701Y017232D01*
X036718Y017262D01*
X036738Y017290D01*
X036761Y017315D01*
X036787Y017338D01*
X036815Y017357D01*
X036845Y017373D01*
X036877Y017385D01*
X036910Y017394D01*
X036944Y017399D01*
X036979Y017400D01*
X037013Y017397D01*
X037046Y017390D01*
X037079Y017380D01*
X037110Y017365D01*
X037139Y017348D01*
X037166Y017327D01*
X037191Y017303D01*
X037213Y017276D01*
X037231Y017248D01*
X037246Y017217D01*
X037258Y017185D01*
X037266Y017151D01*
X037270Y017117D01*
X037270Y017083D01*
X037266Y017049D01*
X037258Y017015D01*
X037246Y016983D01*
X037231Y016952D01*
X037213Y016924D01*
X037191Y016897D01*
X037166Y016873D01*
X037139Y016852D01*
X037110Y016835D01*
X037079Y016820D01*
X037046Y016810D01*
X037013Y016803D01*
X036979Y016800D01*
X036944Y016801D01*
X036910Y016806D01*
X036877Y016815D01*
X036845Y016827D01*
X036815Y016843D01*
X036787Y016862D01*
X036761Y016885D01*
X036738Y016910D01*
X036718Y016938D01*
X036701Y016968D01*
X036687Y016999D01*
X036678Y017032D01*
X036672Y017066D01*
X036670Y017100D01*
X036670Y002100D02*
X036672Y002134D01*
X036678Y002168D01*
X036687Y002201D01*
X036701Y002232D01*
X036718Y002262D01*
X036738Y002290D01*
X036761Y002315D01*
X036787Y002338D01*
X036815Y002357D01*
X036845Y002373D01*
X036877Y002385D01*
X036910Y002394D01*
X036944Y002399D01*
X036979Y002400D01*
X037013Y002397D01*
X037046Y002390D01*
X037079Y002380D01*
X037110Y002365D01*
X037139Y002348D01*
X037166Y002327D01*
X037191Y002303D01*
X037213Y002276D01*
X037231Y002248D01*
X037246Y002217D01*
X037258Y002185D01*
X037266Y002151D01*
X037270Y002117D01*
X037270Y002083D01*
X037266Y002049D01*
X037258Y002015D01*
X037246Y001983D01*
X037231Y001952D01*
X037213Y001924D01*
X037191Y001897D01*
X037166Y001873D01*
X037139Y001852D01*
X037110Y001835D01*
X037079Y001820D01*
X037046Y001810D01*
X037013Y001803D01*
X036979Y001800D01*
X036944Y001801D01*
X036910Y001806D01*
X036877Y001815D01*
X036845Y001827D01*
X036815Y001843D01*
X036787Y001862D01*
X036761Y001885D01*
X036738Y001910D01*
X036718Y001938D01*
X036701Y001968D01*
X036687Y001999D01*
X036678Y002032D01*
X036672Y002066D01*
X036670Y002100D01*
X001670Y002100D02*
X001672Y002134D01*
X001678Y002168D01*
X001687Y002201D01*
X001701Y002232D01*
X001718Y002262D01*
X001738Y002290D01*
X001761Y002315D01*
X001787Y002338D01*
X001815Y002357D01*
X001845Y002373D01*
X001877Y002385D01*
X001910Y002394D01*
X001944Y002399D01*
X001979Y002400D01*
X002013Y002397D01*
X002046Y002390D01*
X002079Y002380D01*
X002110Y002365D01*
X002139Y002348D01*
X002166Y002327D01*
X002191Y002303D01*
X002213Y002276D01*
X002231Y002248D01*
X002246Y002217D01*
X002258Y002185D01*
X002266Y002151D01*
X002270Y002117D01*
X002270Y002083D01*
X002266Y002049D01*
X002258Y002015D01*
X002246Y001983D01*
X002231Y001952D01*
X002213Y001924D01*
X002191Y001897D01*
X002166Y001873D01*
X002139Y001852D01*
X002110Y001835D01*
X002079Y001820D01*
X002046Y001810D01*
X002013Y001803D01*
X001979Y001800D01*
X001944Y001801D01*
X001910Y001806D01*
X001877Y001815D01*
X001845Y001827D01*
X001815Y001843D01*
X001787Y001862D01*
X001761Y001885D01*
X001738Y001910D01*
X001718Y001938D01*
X001701Y001968D01*
X001687Y001999D01*
X001678Y002032D01*
X001672Y002066D01*
X001670Y002100D01*
X001670Y017100D02*
X001672Y017134D01*
X001678Y017168D01*
X001687Y017201D01*
X001701Y017232D01*
X001718Y017262D01*
X001738Y017290D01*
X001761Y017315D01*
X001787Y017338D01*
X001815Y017357D01*
X001845Y017373D01*
X001877Y017385D01*
X001910Y017394D01*
X001944Y017399D01*
X001979Y017400D01*
X002013Y017397D01*
X002046Y017390D01*
X002079Y017380D01*
X002110Y017365D01*
X002139Y017348D01*
X002166Y017327D01*
X002191Y017303D01*
X002213Y017276D01*
X002231Y017248D01*
X002246Y017217D01*
X002258Y017185D01*
X002266Y017151D01*
X002270Y017117D01*
X002270Y017083D01*
X002266Y017049D01*
X002258Y017015D01*
X002246Y016983D01*
X002231Y016952D01*
X002213Y016924D01*
X002191Y016897D01*
X002166Y016873D01*
X002139Y016852D01*
X002110Y016835D01*
X002079Y016820D01*
X002046Y016810D01*
X002013Y016803D01*
X001979Y016800D01*
X001944Y016801D01*
X001910Y016806D01*
X001877Y016815D01*
X001845Y016827D01*
X001815Y016843D01*
X001787Y016862D01*
X001761Y016885D01*
X001738Y016910D01*
X001718Y016938D01*
X001701Y016968D01*
X001687Y016999D01*
X001678Y017032D01*
X001672Y017066D01*
X001670Y017100D01*
M02*
