%
M48
M72
T01C0.0120
T02C0.0400
T03C0.1260
%
T01
X8570Y2700
X2770Y4400
X2770Y4900
X1270Y5400
X1270Y5900
X1270Y6400
X1270Y6900
X1270Y7400
X1270Y7900
X7670Y8200
X8570Y9800
X12170Y8900
X12270Y9300
X13570Y9300
X13570Y8900
X15870Y8900
X16270Y8500
X15970Y8000
X18270Y6900
X18570Y7400
X17670Y5900
X17670Y5400
X17670Y4900
X17070Y2800
X18470Y1700
X25670Y5300
X26270Y5300
X25670Y5900
X26270Y6300
X26270Y6900
X26270Y7300
X25670Y6900
X24370Y6900
X23870Y6900
X24170Y7900
X22970Y8100
X21770Y8400
X22070Y9000
X22070Y9500
X21770Y9800
X23870Y9800
X23870Y9200
X25670Y8900
X26570Y7900
X32270Y8700
X34070Y7900
X34070Y7400
X34070Y6900
X34070Y6400
X34070Y5800
X34770Y8900
X25970Y11600
X26270Y14600
X18970Y11400
X15870Y12200
X14970Y13100
X14170Y12100
X14170Y11100
X15870Y10400
X15870Y9400
X17970Y9900
X12970Y15100
X12070Y17900
X11670Y17900
T02
X10520Y17600
X9520Y17600
X9420Y16600
X10420Y16600
X10520Y15600
X9520Y15600
X9420Y14600
X10420Y14600
X10520Y13600
X9520Y13600
X9420Y12600
X10420Y12600
X10520Y11600
X9520Y11600
X9420Y10600
X10420Y10600
X10520Y9600
X9520Y9600
X9420Y8600
X10420Y8600
X10520Y7600
X9520Y7600
X9420Y6600
X10420Y6600
X10520Y5600
X9520Y5600
X9420Y4600
X10420Y4600
X10520Y3600
X9520Y3600
X9420Y2600
X10420Y2600
X15470Y1150
X16470Y1050
X17470Y1150
X18470Y1050
X19470Y1150
X20470Y1050
X21470Y1150
X22470Y1050
X28920Y2600
X29920Y2600
X30020Y3600
X29020Y3600
X28920Y4600
X29920Y4600
X30020Y5600
X29020Y5600
X28920Y6600
X29920Y6600
X30020Y7600
X29020Y7600
X28920Y8600
X29920Y8600
X30020Y9600
X29020Y9600
X28920Y10600
X29920Y10600
X30020Y11600
X29020Y11600
X28920Y12600
X29920Y12600
X30020Y13600
X29020Y13600
X28920Y14600
X29920Y14600
X30020Y15600
X29020Y15600
X28920Y16600
X29920Y16600
X30020Y17600
X29020Y17600
T03
X1970Y2100
X1970Y17100
X36970Y17100
X36970Y2100
M30
