%
M48
M72
T01C0.0120
T02C0.0400
T03C0.1260
%
T01
X4990Y6020
X4990Y6980
X4990Y8020
X4750Y8260
X4350Y8260
X3950Y8260
X3310Y8420
X36590Y8260
X34830Y7700
X34430Y4660
X31870Y6180
X36990Y6420
X31150Y3140
X32910Y5860
X32910Y6900
X30350Y11380
X36830Y7220
X34350Y7460
X34590Y7220
X18590Y7860
X18590Y7460
X17950Y11460
X18590Y6980
X16910Y12100
X18590Y6500
X16590Y12020
X18590Y5940
X16750Y11060
X17310Y5860
X17150Y10420
X17070Y5620
X16830Y9140
X13470Y11300
X16830Y5380
X16830Y8740
X14030Y4100
X14510Y4580
X14990Y4580
X14510Y5540
X14510Y6500
X14510Y7460
X14510Y8420
X4190Y8900
X35230Y8900
X20350Y10900
X16910Y9460
X22830Y6740
X25070Y4340
X30750Y16740
X25230Y7140
X27790Y7620
X27390Y10900
X26990Y11300
X25150Y6820
X27550Y7140
X27630Y9620
X26590Y10580
X26590Y14580
X26430Y6180
X27070Y6340
X27630Y10020
X26590Y8260
X27070Y8740
X26830Y10820
X21710Y2100
X22350Y4660
X22910Y4660
X22350Y5700
X22990Y5060
X21150Y5940
X22910Y5700
X22350Y6180
X22830Y6180
X22350Y6660
X22910Y7220
X24110Y8020
X22750Y8020
X23230Y8020
X23710Y8020
X22510Y8420
X23150Y10020
X23710Y10020
X33470Y11780
X26590Y8900
X19070Y9460
X18590Y8180
X18590Y10340
X1390Y8980
X32910Y8980
X13150Y9940
X20990Y8900
X32990Y7220
X13310Y8180
X18830Y6180
X34190Y9140
X32590Y9940
X32510Y8980
X32510Y10900
X20590Y8900
X20670Y9940
X20670Y10900
X990Y10900
X1150Y11860
X990Y9940
X14510Y9700
X12830Y9940
X12830Y10900
T02
X9483Y10523
X9583Y11523
X9483Y12523
X9583Y13523
X9483Y14523
X9583Y15523
X9483Y16523
X9583Y17523
X9583Y9523
X9483Y8523
X9583Y7523
X9483Y6523
X9583Y5523
X9483Y4523
X9583Y3523
X9483Y2523
X29611Y9523
X29511Y8523
X29611Y7523
X29511Y6523
X29611Y5523
X29511Y4523
X29611Y3523
X29511Y2523
X29511Y10523
X29611Y11523
X29511Y12523
X29611Y13523
X29511Y14523
X29611Y15523
X29511Y16523
X29611Y17523
X10583Y17523
X10483Y16523
X10583Y15523
X10483Y14523
X10583Y13523
X10483Y12523
X10583Y11523
X10483Y10523
X10483Y2523
X10583Y3523
X10483Y4523
X10583Y5523
X10483Y6523
X10583Y7523
X10483Y8523
X10583Y9523
X28611Y17523
X28511Y16523
X28611Y15523
X28511Y14523
X28611Y13523
X28511Y12523
X28611Y11523
X28511Y10523
X28511Y2523
X28611Y3523
X28511Y4523
X28611Y5523
X28511Y6523
X28611Y7523
X28511Y8523
X28611Y9523
X22561Y1130
X21561Y1230
X20561Y1130
X19561Y1230
X18561Y1130
X17561Y1230
X16561Y1130
X15561Y1230
X2190Y13180
X2190Y14180
X33190Y13180
X33190Y14180
X5190Y1180
X6190Y1180
X33190Y1180
X34190Y1180
T03
X37061Y2180
X37061Y17180
X2061Y17180
X2061Y2180
M30
